<svg xmlns="http://www.w3.org/2000/svg" width="96.42" height="55" viewBox="0 0 96.42 55">
  <g id="Group_36982" data-name="Group 36982" transform="translate(-473.393 -907.712)">
    <g id="Group_36984" data-name="Group 36984" transform="translate(510.027 910.044)">
      <g id="Group_36982-2" data-name="Group 36982">
        <rect id="Rectangle_2043" data-name="Rectangle 2043" width="48.39" height="1.429" transform="translate(53.717 2.829) rotate(180)" fill="#bc4155"/>
        <path id="Path_7500" data-name="Path 7500" d="M1031.15,988h1.483V939.45a.742.742,0,0,0-.742-.742h0a.742.742,0,0,0-.742.742Z" transform="translate(-1025.823 -938.708)" fill="#af3e54"/>
        <path id="Path_7501" data-name="Path 7501" d="M1664.5,987.974h1.483V939.45a.742.742,0,0,0-.742-.742h0a.742.742,0,0,0-.742.742Z" transform="translate(-1611.522 -938.708)" fill="#af3e54"/>
        <path id="Path_7502" data-name="Path 7502" d="M961.082,1588.221h10.654a.742.742,0,0,0,.742-.741h0a.742.742,0,0,0-.742-.742H961.082a.742.742,0,0,0-.742.742h0A.741.741,0,0,0,961.082,1588.221Z" transform="translate(-960.34 -1537.985)" fill="#ce8d6a"/>
        <path id="Path_7503" data-name="Path 7503" d="M1594.43,1588.221h10.654a.741.741,0,0,0,.742-.741h0a.742.742,0,0,0-.742-.742H1594.43a.742.742,0,0,0-.742.742h0A.741.741,0,0,0,1594.43,1588.221Z" transform="translate(-1546.04 -1537.985)" fill="#a72d41"/>
      </g>
      <g id="Group_36983" data-name="Group 36983" transform="translate(48.521 50.236)">
        <path id="Path_7504" data-name="Path 7504" d="M1606.252,1606.454h.877a.957.957,0,0,1,0,1.915h-.877a.957.957,0,1,1,0-1.915Z" transform="translate(-1605.295 -1606.454)" fill="#1c1c1c"/>
        <path id="Path_7505" data-name="Path 7505" d="M1606.752,1608.759a.848.848,0,1,0,.848-.848A.848.848,0,0,0,1606.752,1608.759Z" transform="translate(-1606.642 -1607.802)" fill="#353535"/>
        <path id="Path_7506" data-name="Path 7506" d="M1707.267,1606.454h.877a.957.957,0,1,1,0,1.915h-.877a.957.957,0,1,1,0-1.915Z" transform="translate(-1698.71 -1606.454)" fill="#1c1c1c"/>
        <path id="Path_7507" data-name="Path 7507" d="M1707.768,1608.759a.848.848,0,1,0,.848-.848A.848.848,0,0,0,1707.768,1608.759Z" transform="translate(-1700.059 -1607.802)" fill="#353535"/>
      </g>
      <path id="Path_7508" data-name="Path 7508" d="M1404.464,957.281a16.371,16.371,0,0,1,7.783-2.731V951.8c0-.3.144-.866.69-.9a.775.775,0,0,0,.546-.28.883.883,0,0,0,.22-.615.968.968,0,0,0-1.013-.947.543.543,0,0,0-.438.231h-.49a1.006,1.006,0,0,1,.929-.653,1.38,1.38,0,0,1,1.433,1.33,1.3,1.3,0,0,1-.32.928,1.2,1.2,0,0,1-.84.427c-.287.018-.294.46-.294.478v2.744a16.084,16.084,0,0,1,7.624,2.549.8.8,0,0,1-.421,1.487h-15.026a.706.706,0,0,1-.381-1.3Zm.318.613a.059.059,0,0,0,.063.047h15.026a.155.155,0,0,0,.157-.119.151.151,0,0,0-.07-.181,15.343,15.343,0,0,0-7.414-2.456h-.12a15.57,15.57,0,0,0-7.615,2.635A.059.059,0,0,0,1404.781,957.894Z" transform="translate(-1370.749 -947.891)" fill="#ce8d6a"/>
      <path id="Path_7509" data-name="Path 7509" d="M1402.575,1041.981a8.793,8.793,0,0,1-5.715,1.961,7.449,7.449,0,0,1-4.977-1.814,14.372,14.372,0,0,0-3.205,2.109c-.548.759-.8,8.52-.8,8.52a7.728,7.728,0,0,0,2.657.464l-.122-1.545-.991,27.49a7.4,7.4,0,0,0,3.293-.625c1.192-.684,2.988.227,4.591.442s2.523-1,4.1-.5a8.848,8.848,0,0,0,4.358.338l-2.528-27.326.685,1.6s2.349,0,3.109-.8c0,0-.9-8.253-1.406-8.759A17.292,17.292,0,0,0,1402.575,1041.981Z" transform="translate(-1355.712 -1034.212)" fill="#af3e54"/>
      <path id="Path_7510" data-name="Path 7510" d="M1253.795,957.281a20.491,20.491,0,0,1,2.808-1.506,16.82,16.82,0,0,1,1.673-.631,12.252,12.252,0,0,1,3.3-.595h0V951.8c0-.3.144-.866.69-.9a.775.775,0,0,0,.546-.28.883.883,0,0,0,.22-.615.968.968,0,0,0-1.013-.947.543.543,0,0,0-.439.231h-.49a1.006,1.006,0,0,1,.929-.653,1.38,1.38,0,0,1,1.433,1.33,1.3,1.3,0,0,1-.32.928,1.2,1.2,0,0,1-.84.427c-.287.018-.294.46-.294.478v2.744a12.159,12.159,0,0,1,3.674.678c.532.179,1.041.38,1.517.591a21.1,21.1,0,0,1,2.433,1.28.8.8,0,0,1-.421,1.486h-15.027a.706.706,0,0,1-.38-1.3Zm.317.613a.059.059,0,0,0,.063.047H1269.2a.155.155,0,0,0,.157-.12.152.152,0,0,0-.071-.18,20.29,20.29,0,0,0-2.365-1.243c-.472-.209-.977-.409-1.5-.584a11.387,11.387,0,0,0-3.545-.628h-.119a11.537,11.537,0,0,0-3.271.563,16.6,16.6,0,0,0-1.83.7,20.139,20.139,0,0,0-2.515,1.368A.059.059,0,0,0,1254.112,957.894Z" transform="translate(-1231.416 -947.891)" fill="#ce8d6a"/>
      <path id="Path_7511" data-name="Path 7511" d="M1140.811,957.6a21.078,21.078,0,0,1,2.433-1.281c.476-.211.984-.413,1.517-.591a12.159,12.159,0,0,1,3.674-.678V952.3c0-.018-.007-.461-.294-.478a1.2,1.2,0,0,1-.84-.427,1.3,1.3,0,0,1-.32-.928,1.38,1.38,0,0,1,1.433-1.33.994.994,0,0,1,.911.615h-.5a.529.529,0,0,0-.407-.193.968.968,0,0,0-1.013.947.884.884,0,0,0,.22.615.775.775,0,0,0,.546.28c.546.033.69.6.69.9v2.748h0a12.257,12.257,0,0,1,3.3.595,16.822,16.822,0,0,1,1.674.631,20.5,20.5,0,0,1,2.808,1.506.706.706,0,0,1-.38,1.3h-15.027a.8.8,0,0,1-.421-1.486Zm.264.726a.155.155,0,0,0,.157.12h15.027a.065.065,0,0,0,.035-.121,20.131,20.131,0,0,0-2.515-1.368,16.557,16.557,0,0,0-1.83-.7,11.535,11.535,0,0,0-3.27-.563h-.119a11.387,11.387,0,0,0-3.545.628c-.527.175-1.032.375-1.5.584a20.3,20.3,0,0,0-2.365,1.243A.152.152,0,0,0,1141.075,958.324Z" transform="translate(-1126.879 -948.355)" fill="#ce8d6a"/>
      <path id="Path_7512" data-name="Path 7512" d="M1281.147,1066.983a2.46,2.46,0,0,1-2.516.573,4.908,4.908,0,0,0-3.43.2c-1.8,1.12-3.763,1.235-4.583-.2-.547-.956-2.277,1.012-5.864.27,0,0,2.964-18.1,3.048-20.245s-1.754-4.681-.573-8.941c0,0,.005-.03.013-.083.016-.118.045-.353.063-.64a5.407,5.407,0,0,0-.083-1.544,1.4,1.4,0,0,0-.267-.583c.476-.211.984-.412,1.517-.591.066.156.152.358.255.591.258.583.625,1.362,1.05,2.127.12.216.245.431.374.64.671,1.094,1.438,2.025,2.14,2.108,0,0,.923-.124,2.089-2.108.115-.195.231-.407.35-.64a18.833,18.833,0,0,0,.931-2.192q.1-.291.208-.6a16.793,16.793,0,0,1,1.673.631.83.83,0,0,1,.063.106s-.057.221-.115.571a8.36,8.36,0,0,0-.113,1.489,5.946,5.946,0,0,0,.047.64c0,.028.008.056.012.083a5.909,5.909,0,0,1,.382,3.008c-.169,1.94-.957,3.92-.9,5.932C1276.992,1050.282,1281.063,1063.693,1281.147,1066.983Zm-13.572-28.122-.294-.186C1267.339,1038.713,1267.439,1038.777,1267.576,1038.861Z" transform="translate(-1241.852 -1027.866)" fill="#3c3d3f"/>
      <path id="Path_7513" data-name="Path 7513" d="M1165,1064.562a2.46,2.46,0,0,1-2.516.573,4.907,4.907,0,0,0-3.429.2c-1.8,1.12-3.763,1.235-4.583-.2-.547-.956-2.278,1.012-5.864.27,0,0,3.644-15.178,3.728-17.324s-2.434-4.679-1.253-8.939c0,0,.005-.03.013-.083.016-.118.045-.353.063-.64a5.4,5.4,0,0,0-.083-1.544,1.4,1.4,0,0,0-.267-.583c.476-.211.984-.412,1.517-.591.066.156.152.358.255.591.258.583.625,1.362,1.05,2.127.12.216.245.431.374.64.671,1.094,1.438,2.025,2.14,2.108,0,0,.923-.124,2.089-2.108.115-.195.231-.407.35-.64a18.779,18.779,0,0,0,.931-2.192c.069-.194.139-.4.208-.6a16.816,16.816,0,0,1,1.673.631.852.852,0,0,1,.063.106s-.057.221-.115.571a8.35,8.35,0,0,0-.113,1.489,5.884,5.884,0,0,0,.047.64c0,.028.008.056.012.083a5.911,5.911,0,0,1,.382,3.008c-.169,1.94-.957,3.92-.9,5.932C1160.843,1050.784,1164.914,1061.272,1165,1064.562Zm-13.572-25.2-.294-.186C1151.19,1039.215,1151.29,1039.279,1151.427,1039.363Z" transform="translate(-1134.441 -1028.33)" fill="#1c397f"/>
    </g>
    <path id="Path_7514" data-name="Path 7514" d="M987.6,1290.251a.584.584,0,0,0,.585-.584v-26.6h13v26.6a.585.585,0,0,0,1.169,0V1261.9H987.019v27.769A.584.584,0,0,0,987.6,1290.251Z" transform="translate(-474.985 -327.539)" fill="#ba7556"/>
    <path id="Path_7515" data-name="Path 7515" d="M635.222,1170.2h0l3.026,14.294-1.2.007-2.774-13.1A.993.993,0,0,1,635.222,1170.2Z" transform="translate(-148.761 -242.739)" fill="#41828c"/>
    <path id="Path_7516" data-name="Path 7516" d="M642.6,1402.83a.585.585,0,0,0,.581-.528l1.7-17.5h8.176l1.7,17.5a.585.585,0,0,0,1.164-.113l-1.805-18.554h-10.3l-1.805,18.554a.585.585,0,0,0,.525.638A.566.566,0,0,0,642.6,1402.83Z" transform="translate(-155.933 -440.118)" fill="#162965"/>
    <rect id="Rectangle_2044" data-name="Rectangle 2044" width="11.419" height="0.974" transform="translate(498.881 955.617) rotate(180)" fill="#122451"/>
    <path id="Path_7517" data-name="Path 7517" d="M728.07,1402.83a.585.585,0,0,0,.581-.528l1.7-17.5h8.176l1.7,17.5a.585.585,0,0,0,1.164-.113l-1.805-18.554h-10.3l-1.805,18.554a.585.585,0,0,0,.525.638A.568.568,0,0,0,728.07,1402.83Z" transform="translate(-234.977 -440.118)" fill="#1c397f"/>
    <rect id="Rectangle_2045" data-name="Rectangle 2045" width="11.419" height="0.974" transform="translate(505.097 955.617) rotate(180)" fill="#20448c"/>
    <path id="Path_7518" data-name="Path 7518" d="M665.308,1361.957H647.167a.882.882,0,0,1-.882-.882h0a.882.882,0,0,1,.882-.882h18.142a.882.882,0,0,1,.882.882h0A.882.882,0,0,1,665.308,1361.957Z" transform="translate(-159.885 -418.44)" fill="#bc4155"/>
    <rect id="Rectangle_2046" data-name="Rectangle 2046" width="13.729" height="5.232" rx="2.616" transform="translate(498.219 932.516) rotate(180)" fill="#bc4155"/>
    <path id="Path_7519" data-name="Path 7519" d="M991.24,1435.077a.571.571,0,0,0,.475.4h0a3.8,3.8,0,0,0,1.743-.367c.087-.033.165-.061.236-.085l.055-.018.043-.013c.686-.208.682.019,2.012-.3,1.516-.362,1.911-.993,1.93-1.227.015-.2-.683-.187-1.465-.179h-.114l-.313,0c-.934,0-1.2-.3-2.177-1-.795-.573-3.928-4.068-3.928-4.068l-1.356,1.6s2.755,2.342,2.88,3.212a8.186,8.186,0,0,1-.131,1.235c0,.029,0,.058,0,.087A2.72,2.72,0,0,0,991.24,1435.077Z" transform="translate(-476.247 -481.349)" fill="#e49963"/>
    <path id="Path_7520" data-name="Path 7520" d="M1025.024,1497.331a.571.571,0,0,0,.475.4h0a4.4,4.4,0,0,0,1.74-.371c.087-.032.166-.058.239-.081l.055-.018.043-.013c.686-.208.682.019,2.012-.3,1.516-.362,1.911-.993,1.93-1.227.015-.2-.683-.187-1.464-.179a4.6,4.6,0,0,1-2.2.941c-1.045.14-2.184-.026-2.941.043q0,.044,0,.087A2.721,2.721,0,0,0,1025.024,1497.331Z" transform="translate(-510.031 -543.603)" fill="#1c468a"/>
    <path id="Path_7521" data-name="Path 7521" d="M952.131,1547.7c.087.646,1,.6,2.034.414s.771.1,2.227.029,1.928-.578,1.986-.79c.052-.188-.658-.3-1.419-.439l-.288-.053a6.266,6.266,0,0,1-2.212-1.271,9.2,9.2,0,0,1-1.714-2.322l-1.992.03s.939,1.646,1.3,2.359a2.4,2.4,0,0,1,.108,1.363A2.552,2.552,0,0,0,952.131,1547.7Z" transform="translate(-441.449 -587.745)" fill="#e49963"/>
    <path id="Path_7522" data-name="Path 7522" d="M970.963,1592.243c1.037-.15.768.121,2.225.1s1.951-.757,2.016-.968c.058-.186-.356-.242-1.112-.4l-.3-.067a3.3,3.3,0,0,1-2.132.684c-.98-.071-1.989-.451-2.666-.506a2.548,2.548,0,0,0-.05.678C969.009,1592.41,969.926,1592.392,970.963,1592.243Z" transform="translate(-458.263 -631.796)" fill="#1c468a"/>
    <path id="Path_7523" data-name="Path 7523" d="M965.892,1130.043s.473-1.159.994-1.207,2.177-.308,2.3-.071a1.637,1.637,0,0,1-.355,1.4,12.656,12.656,0,0,1-2.555.8Z" transform="translate(-455.448 -204.333)" fill="#efc2a6"/>
    <path id="Path_7524" data-name="Path 7524" d="M881.728,1302.138l6.2,10.611s.977,1.718.437,2.091a5.548,5.548,0,0,1-1.258.579s-7.885-7.83-8.432-10.794S881.728,1302.138,881.728,1302.138Z" transform="translate(-374.741 -364.726)" fill="#233862"/>
    <path id="Path_7525" data-name="Path 7525" d="M672.538,1259.9s12.977-.436,15.349,1.2,5.534,19.7,5.534,19.7a1.59,1.59,0,0,1-.79.219,6.545,6.545,0,0,1-1.594-.307s-5.281-8.244-5.592-10.279-.14-3.831-1.039-3.917-13.54,1.116-14.554-2.345a7.31,7.31,0,0,1,.752-5.82Z" transform="translate(-181.407 -324.267)" fill="#1c1c1c"/>
    <path id="Path_7526" data-name="Path 7526" d="M666.613,918.174a6.99,6.99,0,0,0,.523-2.41,7.392,7.392,0,0,1-.861,2.664c-2.558,1.68-7.461,7.287-7.364,8.35,0,0-1.727-2.929-1.757-2.947,0,0-3.186-4.051.59-6.372a3.761,3.761,0,0,0,1.829-4.008c-.081-1.315.523-6.975,4.368-5.494a2.5,2.5,0,0,1,.893-.233.755.755,0,0,0-.34.162,2.983,2.983,0,0,1,1.614.309C667.518,909,668.779,916.18,666.613,918.174Z" transform="translate(-168.776)" fill="#3c3d3f"/>
    <path id="Path_7527" data-name="Path 7527" d="M747.3,1004.7a3.544,3.544,0,0,1-2.174.4,2.821,2.821,0,0,1-1.448-1.388c.374-.074.482-.588.474-2.8l.169.033,2.842.563s-.065.894-.067,1.737C747.1,1003.956,747.141,1004.627,747.3,1004.7Z" transform="translate(-249.955 -86.191)" fill="#efc2a6"/>
    <path id="Path_7528" data-name="Path 7528" d="M755.071,1001.92s-.065.894-.067,1.737a3.372,3.372,0,0,1-2.776-2.3Z" transform="translate(-257.859 -86.6)" fill="#d68d5d"/>
    <path id="Path_7529" data-name="Path 7529" d="M735.322,925.457a8.362,8.362,0,0,1-1.034-2.443c-.143-.8.267-3.784,3.261-3.355a4.068,4.068,0,0,1,1.687.638c.65.439,1.589,1.387.54,3.988l-.273.878Z" transform="translate(-241.245 -11.01)" fill="#af3e54"/>
    <path id="Path_7530" data-name="Path 7530" d="M750.261,941.39s-3.763.062-3.766-2.282-.49-3.915,1.912-4.054,2.87.755,3.062,1.537S751.24,941.314,750.261,941.39Z" transform="translate(-252.517 -25.273)" fill="#efc2a6"/>
    <path id="Path_7531" data-name="Path 7531" d="M731.835,929.11s2.57-1.757,3.383-.542c.247-.211.686-.365,1.266.339.872,1.057.1,2.927.1,2.927-.358.042-.443-1.187-.63-1.784a2.986,2.986,0,0,0-.837-1.109c-.328.74-1.231,2.511-2.476,2.831a3.113,3.113,0,0,1-2.267-.017A4.478,4.478,0,0,0,731.835,929.11Z" transform="translate(-237.644 -18.891)" fill="#3c3d3f"/>
    <path id="Path_7532" data-name="Path 7532" d="M659.046,1058.149c.2.563.825.709,1.66.611a24.82,24.82,0,0,0,5.656-1.992c2.6-1.125,3.776-.068,4.6-.784s-.944-2.309.59-9.7c.52-2.507-2.775-7.887-2.775-7.887s-.228,1.458-3.441-.312a29.526,29.526,0,0,0-2.549,4.038c-1.318,2.5-2.581,5.521-2.21,7.077C661.288,1052.164,658.456,1056.512,659.046,1058.149Z" transform="translate(-171.611 -120.562)" fill="#1c397f"/>
    <path id="Path_7533" data-name="Path 7533" d="M789.422,1042.225l1.943,7.981s.242.431.621,1.044c.89,1.439,2.538,3.885,3.593,4.133a5.948,5.948,0,0,0,2.852-.929,57.936,57.936,0,0,0,5.054-3,2.431,2.431,0,0,0-.747-1.927s-5.546,2.084-6.1,2.124c-1.2.086-2.422-5.709-3.545-7.64C792.285,1042.609,789.422,1042.225,789.422,1042.225Z" transform="translate(-292.254 -124.393)" fill="#1c397f"/>
    <path id="Path_7534" data-name="Path 7534" d="M785.951,998.217s.07.3.811.252c0,0,.622-.038.6-.366A2,2,0,0,0,785.951,998.217Z" transform="translate(-289.044 -83.52)" fill="#fff"/>
    <path id="Path_7535" data-name="Path 7535" d="M659.046,1143.462c.2.563.825.709,1.66.611,1.1-.48,5.857-2.322,5.8-3.571-.079-1.848-.915-1.907-.325-4.189.474-1.832-3.921-5.238-4.622-5.978-1.318,2.5-1.354,2.619-.983,4.175C661.288,1137.477,658.456,1141.825,659.046,1143.462Z" transform="translate(-171.611 -205.875)" fill="#162965"/>
    <path id="Path_7536" data-name="Path 7536" d="M823.5,1158.269c.89,1.439,2.538,3.885,3.593,4.133a5.949,5.949,0,0,0,2.852-.929,7.4,7.4,0,0,1-2.606.143c-.914-.089-1.18-1.209-2.625-2.891C823.777,1157.634,823.547,1157.909,823.5,1158.269Z" transform="translate(-323.769 -231.413)" fill="#162965"/>
    <path id="Path_7537" data-name="Path 7537" d="M513.606,1290.251a.584.584,0,0,0,.585-.584v-26.152h13v26.152a.585.585,0,0,0,1.169,0V1261.9H513.021v27.769A.584.584,0,0,0,513.606,1290.251Z" transform="translate(-36.647 -327.539)" fill="#a72d41"/>
    <rect id="Rectangle_2047" data-name="Rectangle 2047" width="16.357" height="1.513" transform="translate(489.749 934.884) rotate(180)" fill="#af3e54"/>
    <rect id="Rectangle_2048" data-name="Rectangle 2048" width="39.472" height="1.513" transform="translate(529.221 934.884) rotate(180)" fill="#bc4155"/>
    <path id="Path_7538" data-name="Path 7538" d="M764.41,1107.4v-3.2a.825.825,0,0,1,.825-.825h3.914a.825.825,0,0,1,.825.825h6.341v2.949H770.8a.825.825,0,0,0-.825.825h-.043a.675.675,0,0,0-.668.768l.5,3.544h9.556v2.028H764.5v-1.581a.447.447,0,0,1,.447-.447h0l.139-3.612a.674.674,0,0,0-.3-.586A.835.835,0,0,1,764.41,1107.4Z" transform="translate(-269.124 -180.948)" fill="#353535"/>
    <path id="Path_7539" data-name="Path 7539" d="M783.293,1107.4v-3.2a.825.825,0,0,1,.825-.825h3.914a.825.825,0,0,1,.825.825H795.2v2.949h-5.517a.825.825,0,0,0-.825.825h-.043a.675.675,0,0,0-.668.768l.5,3.544h8.785a.771.771,0,0,1,.771.771v1.257H783.381v-1.581a.447.447,0,0,1,.447-.447h0l.139-3.612a.674.674,0,0,0-.3-.586A.835.835,0,0,1,783.293,1107.4Z" transform="translate(-286.586 -180.948)" fill="#1c1c1c"/>
    <rect id="Rectangle_2049" data-name="Rectangle 2049" height="0.136" transform="translate(508.604 929.155)" fill="#9ed9f0"/>
    <path id="Path_7540" data-name="Path 7540" d="M930.579,1103.38h2a.949.949,0,0,1,.949.949v2.7a.949.949,0,0,1-.949.949h-.462v1.861a.555.555,0,0,1-.429.54v1.578h-.234v-1.573a.555.555,0,0,1-.448-.545v-1.861h-.426a.949.949,0,0,1-.949-.949v-2.7A.949.949,0,0,1,930.579,1103.38Z" transform="translate(-421.914 -180.948)" fill="#353535"/>
    <path id="Path_7541" data-name="Path 7541" d="M948.514,1079.148h.194v-1.228h-.183v-.212h.517v-.2h.06v.2h.468v.212h-.2v1.228h.194v.212H949.1v.314h-.06v-.314h-.528Z" transform="translate(-439.377 -157.025)" fill="#bc4155"/>
    <path id="Path_7542" data-name="Path 7542" d="M751.847,1098.422c1.022,0,1.851,1.28,1.851,2.858s-.829,2.858-1.851,2.858-1.851-1.28-1.851-2.858S750.825,1098.422,751.847,1098.422Zm-1.323,2.488h.6a1.063,1.063,0,0,1,.478-.738v-.933A1.864,1.864,0,0,0,750.525,1100.91Zm1.562-1.671v.933a1.063,1.063,0,0,1,.478.738h.6A1.864,1.864,0,0,0,752.087,1099.238Zm1.083,2.412h-.6a1.063,1.063,0,0,1-.478.738v.933A1.864,1.864,0,0,0,753.17,1101.65Zm-1.562,1.672v-.933a1.063,1.063,0,0,1-.478-.738h-.6A1.864,1.864,0,0,0,751.607,1103.322Z" transform="translate(-255.794 -176.363)" fill="#aaa"/>
    <path id="Path_7543" data-name="Path 7543" d="M748.006,1098.422c1.022,0,1.851,1.28,1.851,2.858s-.829,2.858-1.851,2.858-1.851-1.28-1.851-2.858S746.984,1098.422,748.006,1098.422Zm-1.323,2.488h.6a1.063,1.063,0,0,1,.478-.738v-.933A1.864,1.864,0,0,0,746.684,1100.91Zm1.562-1.671v.933a1.062,1.062,0,0,1,.478.738h.6A1.864,1.864,0,0,0,748.246,1099.238Zm1.083,2.412h-.6a1.062,1.062,0,0,1-.478.738v.933A1.864,1.864,0,0,0,749.329,1101.65Zm-1.562,1.672v-.933a1.063,1.063,0,0,1-.478-.738h-.6A1.864,1.864,0,0,0,747.767,1103.322Z" transform="translate(-252.242 -176.363)" fill="#d8d8d8"/>
    <path id="Path_7544" data-name="Path 7544" d="M743.6,1151.5a2.268,2.268,0,0,1,1.549-.472c.752.147,1.121.664,1.091.9a1.342,1.342,0,0,1-1,.959,10.869,10.869,0,0,1-2.212-.354Z" transform="translate(-249.351 -224.993)" fill="#efc2a6"/>
    <path id="Path_7545" data-name="Path 7545" d="M645.857,1038.083s-3.067.189-4.129,1.67c-1.495,2.085-5.082,11.357-3.383,12.542,1.914,1.334,8.54-3.488,8.54-3.488a2.761,2.761,0,0,0-.089-1.568c-.315-.511-4.13.845-4.366.609s2.443-3.335,2.443-4.043S645.857,1038.083,645.857,1038.083Z" transform="translate(-152.13 -120.563)" fill="#1c397f"/>
    <path id="Path_7546" data-name="Path 7546" d="M837.078,1217.215s3.235.321,3.079,2.028c0,0,1.6.227,1.481,1.513s-2.027,12-.585,16.446-8.924,7.057-8.924,11.381h37.141s-7.6-.157-8.3-3.743,2.611-8.567.663-11.941.078-14.528-8.067-14.092c-6.391-.039-10.615-2.626-12.866-1.807A7.916,7.916,0,0,0,837.078,1217.215Z" transform="translate(-331.747 -285.872)" fill="#fc7972"/>
    <path id="Path_7547" data-name="Path 7547" d="M950.079,1368.353s1.778,13.523-3.125,15.862,5.23,3.276,9.088,2.32c0,0-4.867.374-5.2-1.908S952.379,1375.6,950.079,1368.353Z" transform="translate(-436.72 -425.986)" fill="#c4453b"/>
    <path id="Path_7548" data-name="Path 7548" d="M1121.064,1291.483a10.168,10.168,0,0,0,1.13-9.042c-1.832-5.066-.351-10.289-2.222-10.484s-.273,8.184.935,10.6S1121.064,1291.483,1121.064,1291.483Z" transform="translate(-597.144 -336.84)" fill="#c4453b"/>
    <path id="Path_7549" data-name="Path 7549" d="M1050.549,1324.838a28.6,28.6,0,0,1,1.374,13.723A18.919,18.919,0,0,0,1050.549,1324.838Z" transform="translate(-533.736 -385.745)" fill="#c4453b"/>
    <path id="Path_7550" data-name="Path 7550" d="M947.778,1222.073a2.425,2.425,0,0,1,1.856,1.827S949.886,1222.393,947.778,1222.073Z" transform="translate(-438.697 -290.711)" fill="#c4453b"/>
    <path id="Path_7551" data-name="Path 7551" d="M792.183,1212.792l.043-.755,4.3.74Z" transform="translate(-294.807 -281.43)" fill="#353535"/>
    <path id="Path_7552" data-name="Path 7552" d="M854.274,1116.4s.124,2.645-.227,3.04C854.047,1119.436,854.77,1119.224,854.274,1116.4Z" transform="translate(-352.017 -192.984)" fill="#353535"/>
    <path id="Path_7553" data-name="Path 7553" d="M928.356,1119.989v2.236A6.515,6.515,0,0,1,928.356,1119.989Z" transform="translate(-420.64 -196.307)" fill="#1c1c1c"/>
  </g>
</svg>
