<svg width="20" height="13" viewBox="0 0 20 13" fill="none" xmlns="http://www.w3.org/2000/svg">
<path d="M1.45984 0.00239393C1.51384 -0.00299242 18.4064 0.00239393 18.4064 0.00239393C19.0239 0.00239393 19.5414 0.344649 19.806 0.848891L10.0087 7.69227L0.211381 0.848891C0.45485 0.390089 0.913636 0.0563795 1.46001 0.00239393H1.45984ZM0.0301065 1.48392L9.79689 8.30713C9.91254 8.40254 10.104 8.40254 10.2197 8.30713L19.9865 1.48392C20.009 4.3155 19.9966 7.81576 19.9966 10.6557C19.9966 11.5465 19.2957 12.2582 18.4057 12.2582H1.62047C0.730546 12.2582 0.0194711 11.5465 0.0194711 10.6557C0.0680856 7.81796 -0.0527487 4.31343 0.029603 1.48392H0.0301065Z" fill="#B9BAC8"/>
</svg>
