<svg width="50" height="50" viewBox="0 0 50 50" fill="none" xmlns="http://www.w3.org/2000/svg">
<path d="M24.9999 0.000244141C18.3695 0.000244141 12.0105 2.63418 7.3224 7.32265C2.63394 12.0111 0 18.37 0 25.0001C0 31.6303 2.63394 37.9895 7.3224 42.6776C12.0109 47.3661 18.3697 50 24.9999 50C31.63 50 37.9892 47.3661 42.6773 42.6776C47.3658 37.9891 49.9998 31.6303 49.9998 25.0001C49.9909 18.3725 47.3541 12.0191 42.6676 7.33218C37.981 2.6456 31.6273 0.00880432 24.9996 0L24.9999 0.000244141ZM38.969 18.136L23.3439 33.7611C22.9565 34.1545 22.4274 34.3759 21.8753 34.3759C21.3233 34.3759 20.7941 34.1545 20.4068 33.7611L13.1151 26.4694C12.59 25.9449 12.3854 25.1799 12.5775 24.4632C12.7695 23.7466 13.3295 23.1867 14.0461 22.9946C14.7627 22.8026 15.5276 23.0072 16.0523 23.5322L21.8754 29.3446L36.0314 15.1993C36.556 14.6743 37.3209 14.4697 38.0376 14.6617C38.7542 14.8538 39.3142 15.4137 39.5062 16.1303C39.6982 16.8469 39.4936 17.6119 38.9686 18.1365L38.969 18.136Z" fill="#39B54A"/>
</svg>
