<svg width="72" height="71" viewBox="0 0 72 71" fill="none" xmlns="http://www.w3.org/2000/svg">
<path d="M19.6473 43.3813C24.4714 38.5765 29.2415 33.8256 33.9605 29.1257C33.559 28.6521 33.1013 28.1118 32.6865 27.6221C27.8414 32.4682 23.0829 37.2278 18.2959 42.016C18.766 42.4911 19.2785 43.0088 19.6473 43.3813Z" fill="#707070" stroke="black"/>
<path d="M51.0571 27.6874C46.3066 32.4503 41.5706 37.199 36.7719 42.0103C37.2751 42.4584 37.8225 42.9462 38.2824 43.3558C43.0091 38.6378 47.7726 33.8829 52.5281 29.136C52.06 28.6752 51.543 28.1657 51.0571 27.6874Z" fill="#707070" stroke="black"/>
<path d="M43.3449 32.7787C38.5094 27.937 33.7699 23.1909 28.9873 18.4023C28.5096 18.8841 27.9948 19.4037 27.5986 19.8033C32.3938 24.6198 37.1473 29.3945 41.7863 34.054C42.3051 33.6294 42.8723 33.1655 43.3449 32.7787Z" fill="#707070" stroke="black"/>
<path d="M43.2659 51.35C38.4705 46.5269 33.7215 41.7504 29.0683 37.0701C28.5551 37.5004 27.9939 37.9712 27.5341 38.3569C32.3642 43.1912 37.1044 47.9356 41.9034 52.7389C42.3676 52.2657 42.8779 51.7453 43.2659 51.35Z" fill="#707070" stroke="black"/>
<path d="M36.5754 23.3546C37.2373 24.0028 37.7419 24.4969 38.3482 25.0903C42.2897 21.1394 46.1401 17.2798 49.99 13.4196C50.5435 12.8645 51.1065 12.3182 51.6415 11.7455C52.1387 11.2132 52.1399 10.6309 51.6431 10.1041C51.124 9.55392 50.5511 9.66018 49.9999 10.0817C49.8654 10.1842 49.7487 10.3109 49.6283 10.4311C46.8326 13.2271 44.0449 16.0309 41.2395 18.817C39.7251 20.3208 38.181 21.7946 36.5754 23.3546Z" fill="#707070" stroke="black"/>
<path d="M32.5415 46.1406C32.3093 46.3393 32.1199 46.4812 31.9541 46.6468C27.7987 50.7989 23.6488 54.9564 19.4891 59.1041C18.8865 59.7049 18.5623 60.3186 19.2356 61.0492C19.7492 61.6062 20.4486 61.4929 21.1849 60.759C22.7813 59.1679 24.3678 57.5669 25.9651 55.9766C28.6969 53.2564 31.4337 50.5415 34.2141 47.7791C33.6322 47.2091 33.1252 46.7127 32.5415 46.1406Z" fill="#707070" stroke="black"/>
<path d="M60.4585 49.6567C56.4366 45.6326 52.4141 41.6092 48.3891 37.5884C48.1346 37.3339 47.8593 37.1002 47.661 36.9183C47.0721 37.4517 46.5484 37.9261 45.9623 38.4568C46.2783 38.7965 46.4792 39.027 46.695 39.2428C50.2368 42.7862 53.7797 46.3287 57.3242 49.8692C57.9751 50.5193 58.6258 51.1702 59.2925 51.8038C59.7951 52.2816 60.3702 52.2676 60.8555 51.8253C61.3845 51.3434 61.3871 50.751 60.9409 50.1822C60.7945 49.9957 60.6266 49.8247 60.4585 49.6567Z" fill="#707070" stroke="black"/>
<path d="M10.5765 21.6502C13.3497 24.4221 16.1284 27.1885 18.8949 29.9669C20.3324 31.4106 21.7487 32.8757 23.1658 34.3225C23.781 33.7221 24.2885 33.2266 24.8745 32.6546C24.7138 32.4698 24.5908 32.3099 24.4492 32.1682C21.1936 28.9118 17.9367 25.6566 14.6783 22.4031C13.6888 21.4151 12.6981 20.4281 11.6997 19.4491C11.1661 18.9261 10.5713 18.7756 9.99094 19.3499C9.3812 19.9529 9.51767 20.5669 10.076 21.1381C10.2428 21.3088 10.4077 21.4816 10.5765 21.6502Z" fill="#707070" stroke="black"/>
<path d="M34.1212 10.5522C33.6521 10.0918 33.1477 9.59679 32.7509 9.20739C27.882 14.0555 23.1158 18.802 18.428 23.4702C18.842 23.9232 19.3165 24.4424 19.7516 24.918C24.5265 20.1444 29.2904 15.3818 34.1212 10.5522Z" fill="#707070" stroke="black"/>
<path d="M24.8679 51.301C20.0273 46.4617 15.2574 41.6928 10.5931 37.0299C10.0589 37.4735 9.489 37.9467 8.94188 38.4009C13.7783 43.224 18.5313 47.9638 23.3421 52.7611C23.8149 52.3089 24.326 51.8197 24.8679 51.301Z" fill="#707070" stroke="black"/>
<path d="M36.7836 60.6044C37.2651 61.0603 37.7958 61.5625 38.2241 61.968C43.058 57.1497 47.8059 52.417 52.6031 47.6352C52.1242 47.1923 51.6061 46.7131 51.125 46.2679C46.3453 51.0462 41.5861 55.8036 36.7836 60.6044Z" fill="#707070" stroke="black"/>
<path d="M61.8377 32.801C57.0085 27.9575 52.2682 23.2035 47.5081 18.4292C47.04 18.8771 46.5295 19.3656 46.0761 19.7996C50.8954 24.6172 55.6643 29.3839 60.2857 34.0035C60.787 33.6152 61.371 33.1626 61.8377 32.801Z" fill="#707070" stroke="black"/>
<path d="M69.9419 30.4762C70.2609 30.1442 70.4356 29.5096 70.3854 29.0465C70.354 28.7563 69.7642 28.3023 69.4486 28.321C69.0052 28.3474 68.5024 28.662 68.1654 28.9954C64.3871 32.7318 60.6435 36.503 56.8689 40.2431C56.3202 40.7872 55.6595 41.2183 55.0109 41.7333C55.8099 42.5084 56.3168 43.0004 56.8744 43.5411C57.1188 43.3111 57.3671 43.0889 57.6028 42.854C59.5338 40.9303 61.4638 39.0058 63.3914 37.0785C65.5839 34.8863 67.7937 32.711 69.9419 30.4762Z" fill="#707070" stroke="black"/>
<path d="M41.9066 68.1756C38.0475 64.3124 34.1802 60.4575 30.3358 56.5795C29.9358 56.1761 29.6716 55.638 29.2945 55.0903C28.4642 55.9166 27.9625 56.4162 27.438 56.9384C27.6151 57.1608 27.7252 57.3307 27.8652 57.4709C32.0376 61.6492 36.2118 65.8252 40.3896 69.9978C40.5812 70.1891 40.8066 70.4835 41.0206 70.4873C41.4878 70.4955 42.1227 70.4992 42.3799 70.22C42.6309 69.9475 42.574 69.3086 42.5023 68.8541C42.4629 68.6027 42.1231 68.3924 41.9066 68.1756Z" fill="#707070" stroke="black"/>
<path d="M38.7841 12.7967C39.7645 13.7835 40.6921 14.8226 41.6888 15.8857C42.3514 15.1932 42.8401 14.6825 43.4371 14.0586C42.5004 13.1414 41.592 12.2668 40.6999 11.376C37.2681 7.9494 33.8441 4.51483 30.4114 1.08899C29.5574 0.236454 28.4171 0.314762 28.2355 1.2898C28.1513 1.74262 28.4578 2.42023 28.8092 2.77832C32.1082 6.14331 35.4624 9.45379 38.7841 12.7967Z" fill="#707070" stroke="black"/>
<path d="M15.6243 29.2307C15.0425 28.6098 14.5586 28.0934 14.0564 27.5574C13.8325 27.7476 13.6691 27.8681 13.527 28.01C9.43176 32.1055 5.33838 36.2029 1.24585 40.3013C1.02942 40.5181 0.67481 40.7261 0.643437 40.9714C0.57752 41.4862 0.505132 42.1675 0.777471 42.5044C0.987675 42.7647 1.7295 42.678 2.21228 42.6016C2.46179 42.5621 2.66675 42.2145 2.88355 41.9977C6.49707 38.384 10.1096 34.7693 13.7213 31.1538C14.3609 30.5134 14.9946 29.8671 15.6243 29.2307Z" fill="#707070" stroke="black"/>
<path d="M9.92307 50.2034C9.47459 50.6671 9.45237 51.2659 9.95225 51.7632C10.4315 52.2399 11.0143 52.327 11.5035 51.8495C12.8847 50.5018 14.222 49.1087 15.5431 47.7676C15.0317 47.1815 14.5676 46.6494 14.0754 46.0852C12.6217 47.5192 11.2458 48.8357 9.92307 50.2034Z" fill="#707070" stroke="black"/>
<path d="M47.6529 55.3627C47.0494 55.9246 46.5336 56.405 45.9204 56.9758C47.3581 58.4119 48.6661 59.7438 50.0054 61.0436C50.5167 61.5398 51.1352 61.5563 51.6441 61.0458C52.1494 60.5389 52.1541 59.9312 51.6464 59.4077C50.326 58.047 48.9838 56.7077 47.6529 55.3627Z" fill="#707070" stroke="black"/>
<path d="M60.8982 21.0133C61.3902 20.5047 61.4101 19.8983 60.9029 19.374C60.4375 18.893 59.8497 18.805 59.3589 19.2896C57.988 20.6429 56.6587 22.0382 55.2807 23.4504C55.8027 23.9582 56.3086 24.4505 56.905 25.0308C58.267 23.6652 59.5994 22.3555 60.8982 21.0133Z" fill="#707070" stroke="black"/>
<path d="M23.2928 15.8175C23.8408 15.2068 24.3339 14.657 24.885 14.0427C23.5973 12.7695 22.2784 11.4426 20.9313 10.1447C20.3961 9.62908 19.7822 9.54445 19.2174 10.1231C18.6912 10.6626 18.7523 11.248 19.2471 11.7554C20.5509 13.0922 21.881 14.4035 23.2928 15.8175Z" fill="#707070" stroke="black"/>
<path d="M42.4163 2.4227C42.9263 1.89621 42.8951 1.18314 42.3132 0.8281C41.9298 0.594153 41.0893 0.566199 40.7902 0.829138C39.3669 2.07926 38.059 3.46097 36.624 4.8812C37.2238 5.42831 37.7436 5.90231 38.3693 6.47336C39.7377 5.10916 41.0968 3.78513 42.4163 2.4227Z" fill="#707070" stroke="black"/>
<path d="M4.71882 34.2082C5.29963 33.6938 5.82649 33.2273 6.47847 32.6498C5.03608 31.2443 3.68867 29.9123 2.31746 28.6052C1.83504 28.1451 1.16756 28.0558 0.791339 28.5912C0.526202 28.9686 0.384479 29.8347 0.618365 30.094C1.92488 31.543 3.36287 32.8737 4.71882 34.2082Z" fill="#707070" stroke="black"/>
<path d="M70.13 40.8193C68.8344 39.4705 67.5181 38.1415 66.2246 36.8191C65.6136 37.4295 65.0959 37.9467 64.5097 38.5326C65.8576 39.8721 67.1902 41.2274 68.5608 42.5429C69.0842 43.0451 69.7017 43.0012 70.1908 42.4664C70.6823 41.9292 70.6203 41.33 70.13 40.8193Z" fill="#707070" stroke="black"/>
<path d="M28.5473 68.5974C28.0232 69.1359 27.8868 69.8403 28.5145 70.2806C28.8762 70.5342 29.7452 70.5886 30.0332 70.3339C31.4734 69.0603 32.7967 67.6549 34.1213 66.3356C33.5663 65.7118 33.0971 65.1843 32.5403 64.5583C31.1244 65.988 29.8265 67.2834 28.5473 68.5974Z" fill="#707070" stroke="black"/>
</svg>
