<svg width="36" height="36" viewBox="0 0 36 36" fill="none" xmlns="http://www.w3.org/2000/svg">
<path d="M4.0111 19.0308C4.29539 19.3217 4.58404 19.6086 4.8617 19.9058C4.95594 20.0067 5.0082 19.9886 5.09546 19.9003C5.60182 19.3863 6.11508 18.879 6.62406 18.3676C6.9676 18.0219 7.30817 17.6733 7.65013 17.3261C7.68277 17.254 7.61148 17.2349 7.57972 17.2025C7.32283 16.9407 7.05686 16.688 6.80564 16.4205C6.70425 16.3125 6.65085 16.3335 6.55713 16.4279C5.7403 17.252 4.9178 18.0707 4.09897 18.893C4.06171 18.9303 3.98972 18.9531 4.0111 19.0308Z" fill="#BC4155"/>
<path d="M8.01564 23.0365C8.3001 23.3276 8.58875 23.6145 8.86667 23.9118C8.96048 24.0124 9.01301 23.9948 9.10026 23.9061C9.60689 23.3922 10.1201 22.8849 10.6289 22.3732C10.9725 22.0276 11.313 21.6791 11.6549 21.3319C11.6878 21.2596 11.6166 21.2407 11.5848 21.2083C11.3278 20.9467 11.0618 20.6936 10.8107 20.4264C10.7094 20.3183 10.6558 20.3391 10.5621 20.4335C9.74511 21.2578 8.92261 22.0765 8.10386 22.8991C8.06695 22.936 7.99086 22.9566 8.01564 23.0365Z" fill="#BC4155"/>
<path d="M12.0207 27.041C12.3049 27.3319 12.5936 27.6188 12.8712 27.9161C12.9657 28.017 13.018 27.9992 13.105 27.9108C13.6116 27.3969 14.1246 26.8892 14.6335 26.3778C14.9775 26.0324 15.318 25.6836 15.66 25.3364C15.6924 25.2641 15.6212 25.2453 15.5895 25.2131C15.3326 24.951 15.0664 24.6982 14.8155 24.4308C14.7141 24.3228 14.6603 24.3437 14.567 24.4384C13.7498 25.2623 12.9273 26.0809 12.1085 26.9035C12.072 26.9408 11.9959 26.9614 12.0207 27.041Z" fill="#BC4155"/>
<path d="M16.0254 31.0459C16.3099 31.337 16.5988 31.624 16.8763 31.921C16.9708 32.022 17.0229 32.004 17.11 31.9155C17.6166 31.4016 18.1299 30.8942 18.6386 30.3827C18.9822 30.037 19.3228 29.6884 19.6647 29.3413C19.6974 29.2691 19.6261 29.25 19.5945 29.2177C19.3376 28.956 19.0715 28.7031 18.8206 28.4357C18.7189 28.3276 18.6655 28.3485 18.5718 28.443C17.7548 29.2673 16.9323 30.0859 16.1136 30.9084C16.0766 30.9454 16.001 30.9663 16.0254 31.0459Z" fill="#BC4155"/>
<path d="M22.7873 33.6667C22.8985 33.5632 22.8936 33.508 22.787 33.4028C21.9629 32.5885 21.1468 31.767 20.326 30.95C20.2888 30.913 20.268 30.837 20.1881 30.8611C19.8969 31.1453 19.6101 31.4342 19.3129 31.7118C19.2121 31.806 19.23 31.8587 19.3184 31.9457C19.8041 32.4238 20.2829 32.9086 20.7662 33.3894C21.1402 33.7613 21.517 34.13 21.8926 34.5003C21.9712 34.5261 21.9934 34.4516 22.0306 34.415C22.2844 34.1672 22.5282 33.9087 22.7873 33.6667Z" fill="#BC4155"/>
<path d="M3.6457 17.2949C3.36132 17.0044 3.07224 16.7179 2.79458 16.4204C2.69868 16.3177 2.64641 16.3417 2.56108 16.4284C2.13037 16.8664 1.69285 17.298 1.25961 17.7337C0.840772 18.155 0.424373 18.5784 0.00666634 19.001C-0.0227398 19.0799 0.0530007 19.1019 0.0890385 19.1388C0.341041 19.3964 0.602905 19.6445 0.849497 19.9075C0.95063 20.0154 1.00368 19.9959 1.09775 19.9008C1.91554 19.0757 2.73908 18.2563 3.55844 17.4328C3.59535 17.3958 3.67188 17.3752 3.6457 17.2949Z" fill="#BC4155"/>
<path d="M21.9246 30.4962C22.2153 30.2118 22.5019 29.9228 22.7992 29.6454C22.9022 29.5497 22.8783 29.4975 22.7919 29.4121C22.3206 28.9484 21.856 28.4776 21.387 28.0112C20.9991 27.6256 20.6083 27.2423 20.2188 26.8579C20.1462 26.8241 20.1277 26.896 20.0956 26.9277C19.8334 27.1843 19.5805 27.4508 19.3131 27.7019C19.2046 27.8034 19.2265 27.8566 19.3205 27.95C20.1451 28.7672 20.964 29.5902 21.7867 30.4093C21.824 30.4464 21.8467 30.519 21.9246 30.4962Z" fill="#BC4155"/>
<path d="M17.9198 26.4914C18.2105 26.207 18.4969 25.9178 18.7942 25.6404C18.8972 25.5444 18.8734 25.4924 18.7868 25.407C18.3391 24.9667 17.8983 24.5199 17.4529 24.0771C17.0412 23.6678 16.6269 23.2608 16.214 22.8528C16.1414 22.8193 16.1227 22.891 16.0907 22.9227C15.8286 23.1795 15.5755 23.4459 15.3081 23.6969C15.1995 23.7985 15.2214 23.8517 15.3155 23.9449C16.1403 24.7624 16.9592 25.5853 17.7818 26.4046C17.8192 26.4416 17.8418 26.5139 17.9198 26.4914Z" fill="#BC4155"/>
<path d="M13.9145 22.4865C14.2053 22.2019 14.4918 21.913 14.7893 21.6357C14.8921 21.5399 14.8686 21.488 14.7818 21.4024C14.3152 20.943 13.8552 20.4773 13.3913 20.0156C12.9982 19.6251 12.603 19.2371 12.2087 18.8481C12.1362 18.8145 12.1176 18.8862 12.0855 18.9179C11.8234 19.1748 11.5704 19.441 11.3032 19.6923C11.1948 19.7937 11.2164 19.8471 11.3104 19.9402C12.1351 20.7577 12.954 21.5803 13.7766 22.3996C13.814 22.4368 13.8366 22.5092 13.9145 22.4865Z" fill="#BC4155"/>
<path d="M9.90985 18.4816C10.2006 18.1971 10.4871 17.9079 10.7846 17.6309C10.8877 17.5349 10.8632 17.4822 10.7769 17.3972C10.3294 16.9567 9.88839 16.5101 9.44311 16.0674C9.03125 15.658 8.61712 15.2512 8.20403 14.843C8.13161 14.8097 8.11294 14.8814 8.08074 14.9129C7.81888 15.1699 7.56556 15.4361 7.29838 15.6872C7.19009 15.7889 7.21164 15.842 7.30597 15.9355C8.13056 16.7528 8.94931 17.5755 9.77172 18.3946C9.80907 18.4316 9.83202 18.5043 9.90985 18.4816Z" fill="#BC4155"/>
<path d="M7.65017 21.2998C7.36571 21.009 7.07671 20.7228 6.79931 20.4253C6.70324 20.3221 6.6508 20.3463 6.56564 20.4328C6.1632 20.8426 5.75404 21.2458 5.34916 21.6532C4.90231 22.1031 4.45729 22.5548 4.01114 23.0055C3.98191 23.0846 4.0573 23.1063 4.09334 23.1432C4.34551 23.4009 4.60738 23.649 4.85388 23.9121C4.95502 24.02 5.00798 24.0006 5.10231 23.9056C5.92001 23.0805 6.74356 22.2608 7.56344 21.4378C7.60044 21.4005 7.67286 21.3776 7.65017 21.2998Z" fill="#BC4155"/>
<path d="M23.6705 29.3095C23.386 29.0188 23.0968 28.7325 22.8195 28.4349C22.7233 28.3318 22.6711 28.3565 22.5859 28.4427C22.1267 28.9092 21.661 29.3689 21.1993 29.8331C20.8089 30.226 20.4209 30.6213 20.0317 31.0154C19.9981 31.0878 20.0699 31.1067 20.1015 31.1389C20.3586 31.4008 20.6249 31.6539 20.8758 31.9213C20.9773 32.0296 21.0305 32.0082 21.1239 31.9138C21.9414 31.0892 22.7643 30.2702 23.5835 29.4475C23.6209 29.4101 23.6934 29.3875 23.6705 29.3095Z" fill="#BC4155"/>
<path d="M19.6655 25.3046C19.381 25.014 19.0919 24.7275 18.8146 24.4303C18.7185 24.3274 18.6666 24.3514 18.581 24.438C18.0981 24.9279 17.6089 25.4115 17.124 25.8993C16.7568 26.2682 16.3925 26.6402 16.027 27.0109C15.9933 27.0834 16.0652 27.1019 16.0966 27.134C16.3535 27.396 16.6199 27.649 16.871 27.9166C16.9727 28.025 17.026 28.0032 17.1194 27.909C17.9366 27.0845 18.7595 26.2654 19.5785 25.4426C19.6154 25.4057 19.6919 25.3847 19.6655 25.3046Z" fill="#BC4155"/>
<path d="M15.661 21.3001L15.6608 21.3L15.661 21.3001C15.3763 21.0092 15.087 20.723 14.8097 20.4254C14.7137 20.3225 14.6615 20.3464 14.5763 20.433C14.1169 20.8994 13.6512 21.3595 13.1896 21.8235C12.7991 22.2162 12.4112 22.6117 12.0221 23.006C11.9884 23.0785 12.0599 23.097 12.0918 23.1294C12.3486 23.3912 12.6149 23.6443 12.866 23.9119C12.9675 24.0202 13.0205 23.9985 13.1141 23.9043C13.9314 23.0796 14.7545 22.2607 15.5735 21.4378C15.6104 21.4007 15.6869 21.38 15.661 21.3001Z" fill="#BC4155"/>
<path d="M11.6557 17.2951C11.3709 17.0043 11.082 16.718 10.8045 16.4206C10.7087 16.3178 10.6565 16.3418 10.571 16.4283C10.0881 16.9182 9.59897 17.4017 9.11372 17.8894C8.74671 18.2585 8.38267 18.6306 8.01723 19.0013C7.98311 19.0738 8.0551 19.0922 8.08651 19.1243C8.34349 19.3863 8.60989 19.6393 8.86085 19.9067C8.9625 20.0151 9.0159 19.9938 9.10927 19.8994C9.92671 19.075 10.7496 18.256 11.5687 17.4331C11.6055 17.3962 11.6818 17.3754 11.6557 17.2951Z" fill="#BC4155"/>
<path d="M11.6555 25.3048C11.3709 25.0143 11.0819 24.728 10.8046 24.4305C10.7085 24.3276 10.6563 24.3515 10.571 24.4383C10.1593 24.8576 9.74035 25.2699 9.32613 25.6869C8.88844 26.1271 8.45302 26.5695 8.01655 27.0108C7.98706 27.0899 8.06262 27.1117 8.09849 27.1484C8.35075 27.4061 8.61288 27.6546 8.85921 27.9175C8.96025 28.0252 9.01339 28.0059 9.10763 27.9106C9.92525 27.0857 10.7486 26.2662 11.5682 25.4428C11.6051 25.4059 11.6818 25.3854 11.6555 25.3048Z" fill="#BC4155"/>
<path d="M7.65125 13.2901C7.36652 12.9993 7.07743 12.7128 6.79995 12.4154C6.70397 12.3124 6.65205 12.3368 6.56671 12.4232C6.09324 12.9036 5.61332 13.378 5.13741 13.856C4.76115 14.2347 4.38751 14.616 4.01248 14.9959C3.97844 15.0683 4.05069 15.0872 4.08211 15.1193C4.33908 15.3813 4.60548 15.6343 4.85635 15.9017C4.9581 16.0101 5.01132 15.9886 5.10469 15.8942C5.92213 15.0698 6.74498 14.2508 7.56416 13.4278C7.60081 13.3908 7.67734 13.3701 7.65125 13.2901Z" fill="#BC4155"/>
<path d="M19.3132 3.6725C19.2048 3.77425 19.2264 3.8273 19.3207 3.92084C20.1452 4.73819 20.9641 5.56078 21.7867 6.38005C21.8239 6.41714 21.8469 6.48947 21.9245 6.46696C22.2155 6.18267 22.5018 5.89324 22.7994 5.61619C22.9023 5.52029 22.8785 5.46802 22.7917 5.38269C22.3348 4.93278 21.8844 4.47677 21.4295 4.02451C21.0274 3.6246 20.6222 3.22696 20.2187 2.82836C20.1465 2.79486 20.1278 2.86658 20.0955 2.89817C19.8337 3.15515 19.5804 3.42129 19.3132 3.6725Z" fill="#BC4155"/>
<path d="M23.6701 21.2998C23.3855 21.0088 23.0965 20.7226 22.8193 20.4253C22.7232 20.3225 22.6709 20.3465 22.5857 20.4331C22.1263 20.8994 21.6607 21.3594 21.1991 21.8235C20.8087 22.2163 20.4207 22.6117 20.0314 23.0058C19.9977 23.0784 20.0697 23.097 20.1011 23.1291C20.3581 23.3912 20.6244 23.6442 20.8756 23.9118C20.9771 24.02 21.0302 23.9987 21.1237 23.9044C21.9412 23.0797 22.764 22.2607 23.5831 21.4377C23.6199 21.4009 23.6964 21.38 23.6701 21.2998Z" fill="#BC4155"/>
<path d="M23.318 7.67713C23.2096 7.77888 23.2312 7.83193 23.3255 7.92547C24.1499 8.74256 24.969 9.56567 25.7916 10.3849C25.8287 10.4218 25.8517 10.4945 25.9293 10.4716C26.2203 10.1873 26.5068 9.8983 26.8041 9.62091C26.9068 9.52484 26.8833 9.47292 26.7965 9.38732C26.3303 8.92825 25.8702 8.46237 25.4061 8.00086C25.0133 7.61038 24.6179 7.22252 24.2236 6.83326C24.1512 6.79957 24.1326 6.87156 24.1004 6.90306C23.8384 7.15987 23.5855 7.42635 23.318 7.67713Z" fill="#BC4155"/>
<path d="M25.9298 26.4915C26.2208 26.2072 26.5073 25.9182 26.8047 25.6408C26.9073 25.5448 26.8837 25.4926 26.797 25.4073C26.3496 24.967 25.9084 24.52 25.4632 24.0773C25.0513 23.6678 24.6372 23.261 24.224 22.8529C24.1515 22.8193 24.1328 22.8911 24.1008 22.9227C23.8389 23.1797 23.5857 23.4459 23.3184 23.6971C23.21 23.7986 23.2317 23.8519 23.326 23.9453C24.1503 24.7626 24.9692 25.5852 25.7921 26.4048C25.8292 26.4417 25.8523 26.5143 25.9298 26.4915Z" fill="#BC4155"/>
<path d="M27.323 11.682C27.2149 11.7839 27.2362 11.8369 27.3307 11.9305C28.1552 12.7479 28.9743 13.5706 29.797 14.3898C29.8342 14.427 29.8568 14.4996 29.935 14.4769C30.2256 14.1923 30.512 13.9031 30.8094 13.6259C30.9126 13.5301 30.8881 13.4774 30.8015 13.3923C30.3636 12.9614 29.932 12.524 29.4964 12.0908C29.0751 11.672 28.6514 11.2555 28.2288 10.8381C28.1564 10.8046 28.138 10.8764 28.1057 10.908C27.8436 11.1649 27.5906 11.4312 27.323 11.682Z" fill="#BC4155"/>
<path d="M27.6756 25.305C27.391 25.0141 27.1018 24.7277 26.8244 24.4303C26.7283 24.3274 26.6761 24.3514 26.5908 24.438C26.1317 24.9045 25.6659 25.3644 25.2043 25.8284C24.8137 26.2211 24.4258 26.6166 24.0367 27.0109C24.003 27.0834 24.0749 27.1019 24.1065 27.1342C24.3634 27.3963 24.6298 27.6492 24.8807 27.9167C24.9823 28.0249 25.0354 28.0035 25.1289 27.909C25.9463 27.0846 26.7692 26.2655 27.5883 25.4425C27.625 25.4056 27.7018 25.385 27.6756 25.305Z" fill="#BC4155"/>
<path d="M31.3279 15.6871C31.2193 15.7887 31.2412 15.8419 31.3354 15.9354C32.1599 16.7528 32.9788 17.5754 33.8016 18.3948C33.8387 18.4317 33.8615 18.5043 33.9395 18.4817C34.23 18.1971 34.5166 17.9081 34.8139 17.6307C34.9168 17.5347 34.8932 17.4826 34.8065 17.3973C34.3495 16.9475 33.8988 16.491 33.4444 16.0393C33.0419 15.639 32.6371 15.2417 32.2336 14.8431C32.161 14.8093 32.1425 14.8812 32.1103 14.9128C31.8482 15.1696 31.5952 15.4359 31.3279 15.6871Z" fill="#BC4155"/>
<path d="M27.6751 17.2943C27.3903 17.0036 27.1014 16.7173 26.8241 16.42C26.7281 16.3171 26.6759 16.3414 26.5905 16.4278C26.1077 16.9176 25.6184 17.4013 25.1334 17.8891C24.7662 18.258 24.402 18.6299 24.0366 19.0006C24.0025 19.0731 24.0747 19.0916 24.1061 19.1237C24.3631 19.3858 24.6294 19.6388 24.8803 19.9062C24.9821 20.0145 25.0353 19.9931 25.1289 19.8988C25.9461 19.0742 26.7691 18.2551 27.5883 17.4325C27.6252 17.3952 27.6979 17.3724 27.6751 17.2943Z" fill="#BC4155"/>
<path d="M15.6598 29.3093C15.3753 29.0186 15.0862 28.7322 14.809 28.4349C14.7129 28.3317 14.6603 28.356 14.5754 28.4426C14.1633 28.8617 13.745 29.2744 13.3306 29.6912C12.8928 30.1315 12.4574 30.5739 12.021 31.0152C11.9915 31.0942 12.0671 31.116 12.1031 31.1529C12.3553 31.4107 12.6172 31.6587 12.8637 31.9218C12.9648 32.0298 13.0179 32.0102 13.1122 31.9152C13.9299 31.0902 14.7534 30.2705 15.5731 29.4473C15.6101 29.41 15.6827 29.3873 15.6598 29.3093Z" fill="#BC4155"/>
<path d="M26.7922 29.6617C26.9034 29.5579 26.8982 29.503 26.7917 29.3977C25.9681 28.5835 25.1516 27.762 24.3309 26.9451C24.2936 26.908 24.2729 26.832 24.1929 26.8562C23.9019 27.1405 23.615 27.4292 23.3178 27.7068C23.2169 27.8011 23.2351 27.8538 23.3232 27.9405C23.8182 28.4281 24.307 28.9225 24.7995 29.4125C25.1639 29.7751 25.5312 30.1346 25.8976 30.4955C25.9762 30.5209 25.9981 30.4467 26.0354 30.4101C26.2893 30.1621 26.5329 29.9036 26.7922 29.6617Z" fill="#BC4155"/>
<path d="M16.0259 7.0165C16.3103 7.30759 16.5989 7.59459 16.8766 7.89179C16.9709 7.99257 17.023 7.97468 17.1104 7.88655C17.636 7.35366 18.1678 6.82706 18.6955 6.29653C19.0206 5.97044 19.342 5.64034 19.6651 5.31199C19.6975 5.23974 19.6265 5.22106 19.5947 5.18869C19.3379 4.92683 19.0718 4.67386 18.8208 4.40659C18.7194 4.29857 18.6658 4.31933 18.5722 4.41392C17.7552 5.2379 16.9326 6.05639 16.1141 6.87906C16.0771 6.91606 16.0013 6.937 16.0259 7.0165Z" fill="#BC4155"/>
<path d="M20.0301 11.021C20.3146 11.312 20.6034 11.5988 20.8809 11.8959C20.9752 11.997 21.0273 11.9791 21.1145 11.8905C21.6209 11.3764 22.1344 10.8692 22.6432 10.3576C22.9869 10.0121 23.3274 9.66361 23.6695 9.31632C23.7018 9.24416 23.6308 9.22514 23.5992 9.19285C23.3421 8.93099 23.0762 8.6782 22.8249 8.41049C22.7237 8.30264 22.67 8.32349 22.5765 8.41808C21.7595 9.24206 20.9371 10.061 20.1182 10.8833C20.081 10.9206 20.0091 10.9435 20.0301 11.021Z" fill="#BC4155"/>
<path d="M24.0355 15.0264C24.3198 15.3172 24.6086 15.6044 24.8862 15.9017C24.9805 16.0025 25.0327 15.9845 25.1197 15.896C25.6358 15.3727 26.1585 14.8559 26.677 14.3349C27.0112 13.9989 27.3421 13.6597 27.6746 13.3216C27.7072 13.2496 27.636 13.2307 27.6042 13.1983C27.3474 12.9365 27.0813 12.6835 26.8304 12.4162C26.7291 12.3084 26.6755 12.3292 26.5818 12.4236C25.7648 13.2478 24.9422 14.0663 24.1238 14.8889C24.0868 14.9259 24.0106 14.9466 24.0355 15.0264Z" fill="#BC4155"/>
<path d="M28.0404 19.0314C28.3248 19.3222 28.6135 19.6094 28.8909 19.9065C28.9853 20.0072 29.0373 19.9897 29.1247 19.901C29.631 19.387 30.1444 18.8798 30.6534 18.368C30.9969 18.0225 31.3375 17.6738 31.6795 17.3266C31.7121 17.2545 31.6408 17.2355 31.6093 17.2035C31.3523 16.9414 31.0862 16.6885 30.835 16.421C30.7338 16.3132 30.6803 16.3339 30.5865 16.4284C29.7697 17.2525 28.9471 18.0713 28.1285 18.8937C28.0915 18.9307 28.0157 18.9517 28.0404 19.0314Z" fill="#BC4155"/>
<path d="M19.665 33.3143C19.3803 33.0238 19.0913 32.7373 18.814 32.44C18.7178 32.337 18.6656 32.3609 18.5803 32.4476C18.1874 32.8481 17.7876 33.2417 17.3922 33.6396C16.9356 34.0989 16.4811 34.5601 16.0259 35.0202C15.9964 35.0992 16.0719 35.121 16.108 35.158C16.3602 35.4156 16.622 35.6638 16.8685 35.9269C16.9697 36.0347 17.0229 36.0154 17.1171 35.9202C17.9348 35.0951 18.7582 34.2756 19.578 33.4527C19.6151 33.4152 19.6875 33.3924 19.665 33.3143Z" fill="#BC4155"/>
<path d="M16.1836 10.8368C15.8926 11.1211 15.6055 11.4096 15.3082 11.6874C15.2076 11.7813 15.2251 11.834 15.3138 11.9212C15.8185 12.4182 16.3162 12.9219 16.8182 13.4213C17.1732 13.7745 17.5311 14.1244 17.8878 14.4759C17.9668 14.5016 17.9887 14.4274 18.0261 14.3907C18.2798 14.1426 18.5234 13.8843 18.7828 13.6424C18.8938 13.5387 18.8891 13.4837 18.7822 13.3781C17.9585 12.564 17.1421 11.7424 16.3213 10.9256C16.2842 10.8887 16.2634 10.8124 16.1836 10.8368Z" fill="#BC4155"/>
<path d="M20.1881 14.8406C19.8829 15.1391 19.5796 15.4397 19.2717 15.735C19.1824 15.8212 19.2583 15.8604 19.3066 15.9089C19.679 16.2827 20.0516 16.6567 20.4259 17.0286C20.9138 17.5131 21.4033 17.996 21.8925 18.4799C21.971 18.5054 21.993 18.4311 22.0305 18.3946C22.2842 18.1465 22.5279 17.8881 22.7873 17.6462C22.8981 17.5428 22.8938 17.4877 22.7869 17.382C21.9632 16.5681 21.1467 15.7462 20.326 14.9296C20.2889 14.8924 20.2679 14.8163 20.1881 14.8406Z" fill="#BC4155"/>
<path d="M22.7867 9.37338C21.9633 8.55944 21.147 7.73772 20.326 6.92072C20.2889 6.88381 20.268 6.80763 20.1882 6.83198C19.8972 7.11635 19.6102 7.40509 19.3129 7.68249C19.2123 7.77681 19.23 7.82926 19.3186 7.91651C19.8138 8.40429 20.3021 8.89844 20.7948 9.38831C21.159 9.75078 21.5265 10.1104 21.8927 10.4712C21.9712 10.497 21.9936 10.4227 22.0308 10.3861C22.2842 10.1379 22.5281 9.8794 22.7875 9.63778C22.8987 9.53429 22.8935 9.47879 22.7867 9.37338Z" fill="#BC4155"/>
<path d="M26.7915 13.3779C25.9676 12.5638 25.1513 11.742 24.3307 10.9253C24.2934 10.8883 24.2726 10.812 24.1925 10.8363C23.9014 11.1204 23.6146 11.4093 23.3176 11.6871C23.2167 11.7811 23.2346 11.8337 23.323 11.9208C23.818 12.4084 24.3064 12.9025 24.799 13.3927C25.1636 13.7552 25.5309 14.1146 25.897 14.4755C25.9757 14.5012 25.9977 14.4268 26.035 14.3902C26.2887 14.1421 26.5326 13.8839 26.7919 13.642C26.9029 13.5384 26.8979 13.4833 26.7915 13.3779Z" fill="#BC4155"/>
<path d="M30.7967 17.3831C29.9728 16.569 29.1567 15.7475 28.3356 14.9302C28.2982 14.8932 28.2777 14.817 28.1978 14.8415C27.9068 15.1258 27.6196 15.4144 27.3227 15.6921C27.2224 15.7861 27.2394 15.8386 27.3282 15.9261C27.814 16.404 28.2927 16.889 28.7761 17.3696C29.1498 17.7414 29.5267 18.1104 29.9022 18.4807C29.9809 18.5064 30.0032 18.4321 30.0403 18.3954C30.2938 18.1474 30.5381 17.8892 30.797 17.6471C30.9081 17.5436 30.9033 17.4884 30.7967 17.3831Z" fill="#BC4155"/>
<path d="M32.2031 18.8467C31.912 19.1308 31.6249 19.4193 31.3277 19.697C31.227 19.7911 31.2448 19.8438 31.3333 19.9309C31.8189 20.4089 32.2977 20.8938 32.7811 21.3745C33.155 21.7464 33.5317 22.1152 33.9073 22.4855C33.986 22.5112 34.008 22.4368 34.0453 22.4003C34.2991 22.1524 34.5429 21.8939 34.8021 21.6519C34.913 21.5485 34.9085 21.4934 34.8017 21.388C33.9782 20.5739 33.1615 19.7521 32.3409 18.9354C32.3037 18.8983 32.2826 18.8223 32.2031 18.8467Z" fill="#BC4155"/>
<path d="M26.0351 22.4008C26.2886 22.1526 26.5327 21.8945 26.792 21.6523C26.9027 21.5489 26.8982 21.4938 26.7915 21.3883C25.9677 20.5741 25.1514 19.7526 24.3303 18.9353C24.2932 18.8984 24.2727 18.8223 24.1926 18.8466C23.9015 19.131 23.6147 19.4195 23.3173 19.6971C23.2167 19.7914 23.2344 19.8442 23.3229 19.9316C23.799 20.4 24.2686 20.8753 24.7423 21.3464C25.126 21.7278 25.5122 22.1063 25.8972 22.4861C25.9757 22.5115 25.9978 22.4374 26.0351 22.4008Z" fill="#BC4155"/>
<path d="M30.0402 26.4053C30.2941 26.1574 30.538 25.8988 30.797 25.6569C30.9082 25.5533 30.9033 25.4982 30.7968 25.3929C29.9731 24.5786 29.1565 23.7571 28.3356 22.94C28.2985 22.9031 28.2779 22.827 28.1979 22.8512C27.9067 23.1354 27.62 23.4242 27.3228 23.7019C27.222 23.796 27.2397 23.8488 27.3282 23.9358C27.8138 24.4139 28.2926 24.8988 28.776 25.3794C29.1499 25.7514 29.5267 26.1202 29.9024 26.4904C29.9809 26.5162 30.003 26.4418 30.0402 26.4053Z" fill="#BC4155"/>
<path d="M20.0305 27.0411C20.3147 27.3321 20.6035 27.6192 20.8812 27.9164C20.9754 28.0173 21.0277 27.9992 21.1149 27.9107C21.6025 27.4157 22.0969 26.9273 22.5868 26.4345C22.9493 26.0699 23.3086 25.7026 23.6695 25.3364C23.7021 25.2645 23.631 25.2454 23.5991 25.2132C23.3423 24.9513 23.0762 24.6984 22.8252 24.4311C22.7239 24.3229 22.6703 24.3437 22.5765 24.4382C21.7597 25.2624 20.9371 26.0811 20.1185 26.9035C20.0815 26.9405 20.0056 26.9613 20.0305 27.0411Z" fill="#BC4155"/>
<path d="M22.7867 25.3927C21.9631 24.5786 21.1467 23.7569 20.3258 22.9398C20.2887 22.9029 20.2679 22.8268 20.1879 22.8509C19.897 23.1355 19.6101 23.4241 19.3129 23.7018C19.2122 23.7958 19.2297 23.8482 19.3185 23.9356C19.8135 24.4231 20.302 24.9176 20.7946 25.4075C21.1589 25.7699 21.5265 26.1297 21.8925 26.4904C21.9711 26.5158 21.9932 26.4416 22.0305 26.4051C22.2842 26.157 22.5281 25.8987 22.7874 25.6569C22.8985 25.5531 22.8933 25.4979 22.7867 25.3927Z" fill="#BC4155"/>
<path d="M11.3108 11.9304C12.1353 12.7477 12.9544 13.5705 13.7769 14.3898C13.8142 14.4269 13.8369 14.4995 13.915 14.4769C14.2056 14.1922 14.4923 13.9034 14.7895 13.6257C14.892 13.5302 14.8687 13.4777 14.7818 13.3922C14.3342 12.9519 13.8933 12.5053 13.4483 12.0626C13.0365 11.6532 12.622 11.246 12.209 10.8381C12.1366 10.8044 12.118 10.8764 12.0859 10.9078C11.824 11.1648 11.5708 11.4309 11.3032 11.6821C11.195 11.7837 11.2164 11.8369 11.3108 11.9304Z" fill="#BC4155"/>
<path d="M15.6609 5.2806C15.3762 4.98977 15.0871 4.7033 14.8097 4.40583C14.7136 4.30295 14.6616 4.32704 14.576 4.41369C14.1169 4.88008 13.6512 5.33994 13.1896 5.80398C12.7992 6.19708 12.4112 6.59245 12.0222 6.98668C11.9883 7.05902 12.0601 7.0776 12.0918 7.1098C12.3486 7.37167 12.6149 7.62472 12.866 7.89225C12.9675 8.00054 13.0207 7.97907 13.1142 7.88457C13.9319 7.06024 14.7545 6.24106 15.5737 5.41838C15.6102 5.38121 15.6871 5.36053 15.6609 5.2806Z" fill="#BC4155"/>
<path d="M8.01569 15.0261C8.30016 15.3172 8.5889 15.604 8.86647 15.9013C8.96071 16.0022 9.01324 15.9842 9.10023 15.8958C9.60694 15.3821 10.1198 14.8745 10.6287 14.3628C10.9726 14.0175 11.3131 13.669 11.6546 13.3215C11.6813 13.2429 11.6063 13.2208 11.5702 13.1837C11.3217 12.9298 11.0636 12.6861 10.8216 12.4269C10.718 12.3158 10.6628 12.3204 10.5573 12.4273C9.74315 13.2509 8.92135 14.0671 8.1047 14.8883C8.06753 14.9254 7.99152 14.9463 8.01569 15.0261Z" fill="#BC4155"/>
<path d="M19.6649 9.2853C19.385 8.999 19.0989 8.71899 18.8286 8.42423C18.72 8.30591 18.6634 8.33252 18.5655 8.43217C18.0791 8.92797 17.5844 9.4154 17.0947 9.90789C16.7371 10.2676 16.3826 10.6301 16.0264 10.9912C15.9924 11.0635 16.0643 11.0824 16.0958 11.1144C16.3528 11.3764 16.6192 11.6294 16.8702 11.8968C16.972 12.0054 17.0253 11.9835 17.1186 11.8892C17.936 11.0648 18.7586 10.2457 19.5781 9.42308C19.6152 9.38591 19.6875 9.36287 19.6649 9.2853Z" fill="#BC4155"/>
<path d="M23.6706 13.2897C23.3861 12.999 23.0969 12.7126 22.8195 12.4151C22.7236 12.3124 22.6713 12.3361 22.5859 12.4229C22.1028 12.9126 21.6138 13.3965 21.1286 13.8841C20.7617 14.2531 20.3974 14.6251 20.032 14.9956C19.9982 15.0682 20.07 15.0868 20.1017 15.119C20.3585 15.3809 20.6248 15.6339 20.8758 15.9016C20.9774 16.0098 21.0305 15.988 21.1241 15.8938C21.9416 15.0693 22.7644 14.2503 23.5836 13.4276C23.6208 13.3904 23.6933 13.3675 23.6706 13.2897Z" fill="#BC4155"/>
<path d="M17.9196 18.4813C18.2105 18.1971 18.4972 17.908 18.7945 17.6306C18.897 17.5347 18.8736 17.4827 18.7869 17.3973C18.3299 16.9475 17.8794 16.4912 17.4247 16.0391C17.0224 15.639 16.6177 15.2416 16.2139 14.843C16.1416 14.8092 16.1231 14.8811 16.0908 14.9127C15.8287 15.1695 15.5758 15.4361 15.3082 15.6869C15.1999 15.7885 15.2214 15.8418 15.3157 15.9353C16.1401 16.7524 16.9593 17.5754 17.7819 18.3946C17.819 18.4315 17.8421 18.5041 17.9196 18.4813Z" fill="#BC4155"/>
<path d="M11.6562 9.28553C11.3715 8.9947 11.0824 8.70823 10.805 8.41076C10.7091 8.30806 10.657 8.33197 10.5714 8.41853C10.0982 8.89906 9.61823 9.37314 9.1425 9.85131C8.76624 10.23 8.39251 10.6114 8.01765 10.9915C7.98361 11.0639 8.05569 11.0826 8.08719 11.1146C8.34408 11.3768 8.61039 11.6298 8.86135 11.8972C8.96292 12.0054 9.01606 11.984 9.10943 11.8896C9.92704 11.0653 10.7499 10.246 11.5692 9.42322C11.6055 9.38614 11.6824 9.36546 11.6562 9.28553Z" fill="#BC4155"/>
<path d="M31.6798 21.2992C31.3952 21.0083 31.1062 20.7221 30.8289 20.4245C30.7329 20.3219 30.6806 20.3459 30.5955 20.4325C30.1218 20.9127 29.642 21.387 29.1664 21.8653C28.79 22.2439 28.4161 22.6251 28.0414 23.0054C28.0075 23.078 28.0793 23.0963 28.1107 23.1284C28.3678 23.3906 28.6342 23.6436 28.8854 23.9111C28.9869 24.0193 29.0399 23.9978 29.1334 23.9035C29.9507 23.0789 30.7739 22.2599 31.593 21.437C31.6299 21.3997 31.7027 21.3772 31.6798 21.2992Z" fill="#BC4155"/>
<path d="M18.0258 22.4004C18.2795 22.1523 18.5233 21.8938 18.7825 21.652C18.8938 21.5485 18.8886 21.4933 18.7823 21.3881C17.9582 20.5738 17.1423 19.7524 16.3212 18.9354C16.2839 18.8981 16.2631 18.8222 16.1832 18.8466C15.8923 19.1309 15.6053 19.4196 15.3079 19.6971C15.207 19.7913 15.2251 19.8438 15.3135 19.9309C15.818 20.4281 16.3159 20.9316 16.8181 21.4312C17.1729 21.7842 17.5312 22.1341 17.8878 22.4857C17.9665 22.5114 17.9886 22.4369 18.0258 22.4004Z" fill="#BC4155"/>
<path d="M15.3161 7.92579C16.1404 8.74297 16.9596 9.56599 17.782 10.3851C17.8194 10.4221 17.8423 10.4948 17.92 10.4719C18.211 10.1875 18.4972 9.89854 18.7948 9.62123C18.8972 9.52542 18.8738 9.47306 18.787 9.38746C18.3066 8.91426 17.8326 8.43442 17.3541 7.9586C16.9756 7.58217 16.5941 7.20835 16.214 6.83349C16.1417 6.80007 16.1229 6.87153 16.0907 6.90303C15.8289 7.16027 15.5759 7.42659 15.3083 7.67737C15.2 7.77911 15.2216 7.83216 15.3161 7.92579Z" fill="#BC4155"/>
<path d="M21.925 22.4864C22.2157 22.2019 22.502 21.9128 22.7996 21.6355C22.9025 21.5399 22.8785 21.4874 22.7917 21.4018C22.3256 20.9427 21.8655 20.4771 21.4015 20.0155C21.0085 19.6249 20.6134 19.2371 20.2188 18.8478C20.1465 18.8144 20.1281 18.8862 20.0959 18.9177C19.8337 19.1746 19.5808 19.4408 19.3131 19.6916C19.2049 19.7936 19.2266 19.8466 19.3209 19.9401C20.1453 20.7575 20.9644 21.5803 21.7868 22.3994C21.8241 22.4365 21.8471 22.5091 21.925 22.4864Z" fill="#BC4155"/>
<path d="M24.2238 14.843C24.1516 14.8097 24.1328 14.8813 24.1006 14.9128C23.8386 15.1699 23.5856 15.4362 23.3182 15.6871C23.2098 15.789 23.2315 15.8419 23.3258 15.9354C24.1502 16.7528 24.9692 17.5754 25.7919 18.3948C25.8291 18.4317 25.8519 18.5045 25.9297 18.4815C26.2206 18.1972 26.5072 17.9082 26.8045 17.6308C26.9072 17.5347 26.8834 17.4824 26.7968 17.3973C26.3304 16.9381 25.8703 16.4722 25.4062 16.0106C25.0135 15.6201 24.6179 15.2321 24.2238 14.843Z" fill="#BC4155"/>
<path d="M19.6657 17.2946C19.3812 17.0039 19.0921 16.7175 18.8146 16.4201C18.7186 16.3172 18.6663 16.3412 18.5811 16.4278C18.1313 16.8846 17.6751 17.3352 17.2228 17.7899C16.8228 18.192 16.4254 18.5967 16.027 19.0007C15.9933 19.0732 16.0649 19.0916 16.0966 19.1238C16.3535 19.3859 16.6199 19.6388 16.8708 19.9063C16.9725 20.0148 17.0254 19.9932 17.1191 19.8989C17.9364 19.0742 18.7595 18.2553 19.5788 17.4325C19.6157 17.3952 19.6884 17.3725 19.6657 17.2946Z" fill="#BC4155"/>
<path d="M28.1054 18.9179C27.8432 19.1745 27.5904 19.4409 27.3228 19.6921C27.2145 19.7934 27.236 19.8467 27.3303 19.9401C28.1547 20.7576 28.9738 21.5803 29.7964 22.3996C29.8336 22.4364 29.8564 22.5093 29.9342 22.4862C30.2251 22.202 30.5116 21.913 30.809 21.6356C30.9121 21.5398 30.888 21.4874 30.8015 21.4021C30.3538 20.9619 29.913 20.5152 29.4675 20.0721C29.0559 19.663 28.6415 19.2558 28.2286 18.8481C28.156 18.8143 28.1375 18.8862 28.1054 18.9179Z" fill="#BC4155"/>
<path d="M14.0209 18.3955C14.2744 18.1473 14.5182 17.8888 14.7776 17.6472C14.8887 17.5435 14.8839 17.4886 14.777 17.3829C13.9535 16.5688 13.1369 15.7473 12.3162 14.9304C12.2789 14.8933 12.2581 14.8171 12.1783 14.8414C11.8872 15.1259 11.6002 15.4143 11.3032 15.6921C11.2022 15.7861 11.2201 15.8387 11.3086 15.9258C11.7944 16.404 12.2732 16.8889 12.7564 17.3694C13.1305 17.7415 13.5073 18.1106 13.8829 18.4809C13.9616 18.5065 13.9835 18.4319 14.0209 18.3955Z" fill="#BC4155"/>
<path d="M12.0207 11.0214C12.3051 11.3122 12.5938 11.5994 12.8712 11.8965C12.9653 11.9972 13.0179 11.9795 13.105 11.891C13.621 11.3676 14.1437 10.8509 14.662 10.3297C14.9963 9.99371 15.3275 9.65454 15.6597 9.31667C15.6925 9.24451 15.6213 9.22566 15.5894 9.19329C15.3326 8.93142 15.0666 8.67846 14.8154 8.41127C14.714 8.30325 14.6607 8.3241 14.567 8.41852C13.7501 9.24276 12.9273 10.0613 12.1089 10.8839C12.0719 10.9209 11.996 10.9417 12.0207 11.0214Z" fill="#BC4155"/>
<path d="M16.0257 15.0263C16.3101 15.3175 16.599 15.6045 16.8765 15.9018C16.9707 16.0027 17.0229 15.9844 17.11 15.8963C17.6166 15.3823 18.1298 14.875 18.6387 14.3633C18.9823 14.0177 19.3228 13.6691 19.6649 13.3218C19.6976 13.2496 19.6264 13.2308 19.5946 13.1984C19.3378 12.9365 19.0716 12.6837 18.8207 12.4163C18.7193 12.3083 18.6656 12.3291 18.5719 12.4235C17.755 13.2478 16.9326 14.0664 16.1138 14.8889C16.0769 14.9259 16.0008 14.9464 16.0257 15.0263Z" fill="#BC4155"/>
<path d="M20.0307 19.0311L20.0309 19.0313C20.3151 19.3222 20.6038 19.6091 20.8815 19.9063C20.9757 20.0072 21.0281 19.989 21.115 19.9006C21.6311 19.3773 22.1538 18.8605 22.6722 18.3397C23.0066 18.0035 23.3374 17.6644 23.6699 17.3266C23.6957 17.2477 23.6215 17.226 23.5848 17.1886C23.3369 16.935 23.0785 16.6908 22.8361 16.4316C22.7328 16.3206 22.6777 16.3255 22.5721 16.4321C21.758 17.256 20.9363 18.0721 20.1193 18.8932C20.0823 18.9303 20.0061 18.951 20.0307 19.0311Z" fill="#BC4155"/>
<path d="M24.0354 23.0361C24.3197 23.3272 24.6087 23.6141 24.886 23.9112C24.9805 24.0122 25.0325 23.9941 25.1197 23.9058C25.6358 23.3824 26.1585 22.8656 26.6768 22.3445C27.0111 22.0085 27.3419 21.6692 27.6745 21.3315C27.7073 21.2592 27.6358 21.2403 27.6042 21.208C27.3474 20.9461 27.0814 20.6932 26.8303 20.426C26.7289 20.318 26.6754 20.3386 26.5816 20.4331C25.7647 21.2574 24.9422 22.076 24.1234 22.8986C24.0865 22.9355 24.0108 22.9564 24.0354 23.0361Z" fill="#BC4155"/>
<path d="M20.2226 6.95517C20.5189 7.25508 20.819 7.55115 21.1126 7.85332C21.1962 7.93936 21.2355 7.87732 21.2871 7.8254C21.9966 7.11555 22.7052 6.40448 23.4182 5.69812C23.5001 5.61688 23.4967 5.57081 23.4161 5.49289C23.1421 5.22797 22.8759 4.95459 22.6044 4.68679C22.5763 4.65905 22.5576 4.59648 22.4948 4.63173C22.3276 4.79334 22.1582 4.95293 21.9941 5.11776C21.4023 5.712 20.8128 6.30815 20.2225 6.90395C20.222 6.92123 20.2139 6.94644 20.2226 6.95517Z" fill="#BC4155"/>
<path d="M24.2279 10.9601C24.5239 11.2599 24.8241 11.5558 25.1177 11.8581C25.2013 11.9444 25.2408 11.8819 25.2922 11.8302C26.0018 11.1205 26.7101 10.4094 27.4229 9.7029C27.5048 9.62175 27.5016 9.57568 27.4211 9.49775C27.1471 9.23284 26.881 8.95972 26.6095 8.69192C26.5812 8.664 26.5627 8.60161 26.4997 8.63634C26.3422 8.78895 26.1819 8.93869 26.0273 9.09436C25.4264 9.6981 24.8273 10.3038 24.2274 10.9086C24.227 10.9261 24.2192 10.9513 24.2279 10.9601Z" fill="#BC4155"/>
<path d="M28.2327 14.9653C28.5289 15.2652 28.8288 15.5611 29.1225 15.8635C29.2061 15.9496 29.2456 15.8871 29.2971 15.8355C30.0067 15.1256 30.715 14.4145 31.4278 13.708C31.5101 13.6267 31.5065 13.5811 31.4261 13.5031C31.1518 13.2381 30.8856 12.9647 30.6142 12.6968C30.5861 12.6691 30.5672 12.6067 30.5044 12.6415C30.2716 12.8695 30.036 13.0946 29.806 13.3253C29.2802 13.8535 28.7568 14.3842 28.2322 14.9137C28.2318 14.9313 28.224 14.9565 28.2327 14.9653Z" fill="#BC4155"/>
<path d="M32.2372 18.9188C32.2369 18.9363 32.2289 18.9613 32.2377 18.97C32.5338 19.27 32.834 19.566 33.1274 19.8681C33.211 19.9544 33.2505 19.8919 33.302 19.8404C34.0115 19.1305 34.72 18.4196 35.4326 17.7129C35.5146 17.6317 35.5117 17.586 35.4312 17.5081C35.1568 17.2428 34.8909 16.9699 34.6192 16.7019C34.5911 16.6742 34.5725 16.6118 34.5095 16.6465C34.3566 16.7942 34.201 16.9394 34.0509 17.0901C33.4454 17.6988 32.8417 18.3091 32.2373 18.9187L32.2372 18.9188Z" fill="#BC4155"/>
<path d="M11.5335 8.00511C11.691 8.16767 11.8454 8.33268 12.0058 8.49201C12.6049 9.08834 13.2059 9.68274 13.8064 10.278C13.8241 10.2778 13.8492 10.2855 13.8583 10.2767C14.1579 9.98065 14.4541 9.68065 14.756 9.38711C14.8421 9.30343 14.7793 9.26399 14.7278 9.21251C14.0182 8.50292 13.3075 7.79482 12.601 7.08209C12.5196 6.9998 12.4742 7.00233 12.3957 7.08357C12.1309 7.35783 11.8577 7.6237 11.5899 7.89534C11.5618 7.92344 11.5004 7.94255 11.5335 8.00511Z" fill="#BC4155"/>
<path d="M15.5388 4.00021C15.7853 4.25213 16.0294 4.50649 16.2791 4.75553C16.7884 5.26293 17.3005 5.76729 17.8115 6.27295C17.8292 6.27313 17.8544 6.28072 17.8633 6.27182C18.1627 5.97549 18.459 5.67576 18.7611 5.38204C18.8469 5.29836 18.7839 5.25866 18.7326 5.20735C18.0229 4.49794 17.3123 3.78966 16.6061 3.07745C16.5249 2.99561 16.4789 2.99796 16.4009 3.07876C16.1359 3.35284 15.8627 3.61907 15.5947 3.89018C15.5669 3.91872 15.5055 3.93756 15.5388 4.00021Z" fill="#BC4155"/>
<path d="M7.52849 12.0102C7.6996 12.1867 7.86845 12.3658 8.04279 12.5395C8.62777 13.1217 9.21493 13.702 9.80123 14.2829C9.81894 14.283 9.84416 14.2906 9.85297 14.2818C10.1524 13.9855 10.4487 13.6857 10.7508 13.392C10.8369 13.3083 10.774 13.269 10.7223 13.2173C10.0127 12.5077 9.30211 11.7999 8.59601 11.0872C8.51442 11.005 8.46896 11.0072 8.3906 11.0887C8.12577 11.363 7.85239 11.629 7.58451 11.9001C7.55658 11.9287 7.49515 11.9475 7.52849 12.0102Z" fill="#BC4155"/>
<path d="M3.52401 16.015C3.71397 16.2103 3.90166 16.4083 4.09468 16.6006C4.66081 17.1643 5.22913 17.7255 5.79674 18.2877C5.81437 18.2879 5.83967 18.2954 5.84849 18.2866C6.14822 17.9903 6.4442 17.6905 6.7462 17.3969C6.83224 17.3133 6.76942 17.2735 6.71793 17.222C6.00817 16.5126 5.29745 15.8045 4.59135 15.0921C4.50977 15.0096 4.4643 15.0122 4.38612 15.0935C4.12138 15.3677 3.848 15.6337 3.58003 15.9048C3.55219 15.9334 3.49067 15.9523 3.52401 16.015Z" fill="#BC4155"/>
<path d="M13.1144 5.0116C13.2107 5.10305 13.2726 5.23769 13.4187 5.27059C13.7291 4.96544 14.0402 4.661 14.3507 4.35612C14.3774 4.33011 14.3869 4.30245 14.3552 4.2727C14.2921 4.2049 14.2257 4.13902 14.1665 4.06773C14.1062 3.99504 14.0619 3.99321 13.9923 4.06493C13.7187 4.34687 13.4378 4.6219 13.161 4.90078C13.1317 4.93045 13.0664 4.96605 13.1144 5.0116Z" fill="#BC4155"/>
<path d="M21.2271 2.51525C21.4586 2.75329 21.6887 2.99299 21.9222 3.22929C22.2096 3.52021 22.211 3.51881 22.4803 3.19648C22.4842 3.18452 22.4952 3.1655 22.4912 3.16149C22.1845 2.85006 21.8765 2.53951 21.5688 2.22913C21.5367 2.19693 21.5002 2.18218 21.4685 2.22328C21.3909 2.32319 21.2566 2.3759 21.2271 2.51525Z" fill="#BC4155"/>
<path d="M25.232 6.52037C25.4633 6.75823 25.6935 6.99785 25.927 7.23414C26.2148 7.52532 26.2161 7.52402 26.4852 7.20151C26.4892 7.18947 26.5002 7.17053 26.4961 7.16652C26.1893 6.85483 25.8816 6.54445 25.5736 6.23398C25.5419 6.20213 25.5049 6.18713 25.4731 6.22831C25.3956 6.32814 25.2615 6.38093 25.232 6.52037Z" fill="#BC4155"/>
<path d="M29.2365 10.525C29.4679 10.7631 29.698 11.0028 29.9316 11.2391C30.2192 11.5301 30.2206 11.5288 30.4897 11.2062C30.4937 11.1942 30.5047 11.1752 30.5007 11.1712C30.194 10.8597 29.8861 10.5494 29.5782 10.2388C29.5466 10.207 29.5095 10.192 29.4778 10.2331C29.4004 10.3329 29.266 10.3859 29.2365 10.525Z" fill="#BC4155"/>
<path d="M33.2418 14.53C33.4734 14.7683 33.7031 15.0076 33.9366 15.2439C34.2246 15.535 34.2258 15.5338 34.4949 15.2113C34.4988 15.1993 34.5099 15.1802 34.5059 15.1762C34.1991 14.8645 33.8912 14.5542 33.5835 14.2438C33.5518 14.212 33.5147 14.1971 33.4828 14.2381C33.4056 14.338 33.2711 14.3908 33.2418 14.53Z" fill="#BC4155"/>
<path d="M6.05437 12.0155C5.74277 12.3226 5.43187 12.6307 5.1214 12.9391C5.09749 12.9626 5.07158 12.9952 5.10465 13.0232C5.20578 13.1088 5.26363 13.2468 5.40927 13.2795C5.64687 13.0482 5.88596 12.8181 6.12156 12.5846C6.41135 12.2983 6.40995 12.297 6.08927 12.0271C6.07741 12.0229 6.0583 12.0116 6.05437 12.0155Z" fill="#BC4155"/>
<path d="M17.1193 1.00844C17.2204 1.09413 17.278 1.23191 17.4237 1.26464C17.6615 1.03314 17.9005 0.803212 18.1362 0.569883C18.4256 0.283674 18.4244 0.282453 18.1038 0.0124745C18.0919 0.00828605 18.0729 -0.00305757 18.069 0.00078181C17.7572 0.307758 17.4463 0.615868 17.1361 0.924327C17.1123 0.9478 17.0862 0.980173 17.1193 1.00844Z" fill="#BC4155"/>
<path d="M16.8635 32.8165C16.557 32.5052 16.2488 32.1946 15.9411 31.8841C15.9091 31.8519 15.8723 31.8374 15.8406 31.8785C15.7631 31.9794 15.6272 32.0316 15.5966 32.1711C15.8048 32.433 16.0586 32.6501 16.291 32.8881C16.577 33.1812 16.5797 33.1785 16.853 32.8518C16.8569 32.8399 16.8679 32.8208 16.8635 32.8165Z" fill="#BC4155"/>
<path d="M8.85431 24.8066C8.54768 24.4951 8.23983 24.1848 7.9319 23.8742C7.89996 23.842 7.86296 23.8276 7.83137 23.8687C7.75363 23.9691 7.61829 24.0217 7.58722 24.161C7.79525 24.4227 8.04926 24.6399 8.28128 24.8777C8.56766 25.1707 8.57037 25.168 8.8434 24.8416C8.84741 24.8295 8.85832 24.8106 8.85431 24.8066Z" fill="#BC4155"/>
<path d="M12.8588 28.8114C12.5522 28.4999 12.2441 28.1894 11.9366 27.8792C11.9045 27.8467 11.8676 27.8326 11.8359 27.8734C11.7582 27.9741 11.6229 28.0267 11.5918 28.166C11.7992 28.4277 12.0539 28.6445 12.2861 28.8828C12.5722 29.1761 12.575 29.1733 12.8481 28.8465C12.8521 28.8345 12.863 28.8156 12.8588 28.8114Z" fill="#BC4155"/>
<path d="M34.772 18.6671C34.8728 18.7442 34.9254 18.8801 35.0652 18.9106C35.3253 18.7015 35.543 18.4486 35.7805 18.2163C36.0725 17.9312 36.0701 17.9288 35.7445 17.6548C35.7326 17.6506 35.7137 17.6394 35.7098 17.6434C35.3976 17.95 35.0872 18.2586 34.7762 18.5665C34.7433 18.599 34.7308 18.6353 34.772 18.6671Z" fill="#BC4155"/>
<path d="M7.30401 19.9309C7.79912 20.4183 8.28733 20.9127 8.78017 21.4027C9.14438 21.7652 9.51192 22.1247 9.87788 22.4854C9.95659 22.5111 9.97875 22.4369 10.016 22.4003C10.2695 22.1521 10.5136 21.894 10.7728 21.6519C10.8838 21.5482 10.879 21.493 10.7724 21.3878C9.94839 20.5734 9.13234 19.7521 8.3115 18.9353C8.27424 18.8982 8.25365 18.8221 8.17355 18.8464C7.88245 19.1305 7.59546 19.4192 7.29852 19.697C7.19799 19.7909 7.21518 19.8435 7.30401 19.9309Z" fill="#BC4155"/>
<path d="M11.3084 23.9356C11.8035 24.423 12.292 24.9174 12.7846 25.4073C13.1491 25.7698 13.5164 26.1292 13.8825 26.4902C13.9613 26.5158 13.9832 26.4415 14.0205 26.4049C14.2743 26.1567 14.5181 25.8986 14.7775 25.6566C14.8884 25.5531 14.8836 25.4978 14.777 25.3925C13.953 24.5782 13.1368 23.7567 12.3162 22.94C12.2789 22.9029 12.2581 22.8267 12.178 22.8509C11.8869 23.1351 11.6001 23.424 11.3031 23.7018C11.2021 23.7958 11.22 23.8484 11.3084 23.9356Z" fill="#BC4155"/>
<path d="M15.3138 27.9407C15.8182 28.4377 16.3162 28.9415 16.8183 29.4408C17.1731 29.7941 17.5311 30.144 17.8879 30.4954C17.9664 30.5209 17.9886 30.4467 18.0258 30.4101C18.2795 30.162 18.5235 29.9038 18.7828 29.6619C18.8938 29.5582 18.8888 29.5032 18.7821 29.3977C17.9585 28.5836 17.1421 27.762 16.3212 26.9449C16.2842 26.9083 16.2635 26.8319 16.1834 26.8562C15.8925 27.1407 15.6054 27.4293 15.3083 27.7069C15.2075 27.801 15.2252 27.8534 15.3138 27.9407Z" fill="#BC4155"/>
<path d="M6.77226 21.4021C6.3248 20.9619 5.8838 20.515 5.43852 20.0723C5.02674 19.6628 4.6127 19.2559 4.19953 18.8478C4.12719 18.8144 4.10834 18.886 4.07623 18.9177C3.81437 19.1747 3.56132 19.441 3.2937 19.6919C3.1855 19.7935 3.20714 19.8469 3.30155 19.9402C4.1258 20.7575 4.94489 21.5806 5.76748 22.3995C5.80465 22.4367 5.8276 22.5094 5.90535 22.4864C6.19636 22.2021 6.48256 21.9131 6.7802 21.6357C6.88282 21.5397 6.85917 21.4876 6.77226 21.4021Z" fill="#BC4155"/>
<path d="M20.219 10.8382C20.1464 10.8047 20.1279 10.8766 20.0957 10.9081C19.8337 11.1649 19.5807 11.4311 19.3131 11.6823C19.2048 11.7837 19.2265 11.837 19.3208 11.9305C20.145 12.7477 20.9643 13.5707 21.7867 14.3898C21.8239 14.4269 21.847 14.4994 21.9249 14.4768C22.2156 14.1923 22.5019 13.9032 22.7995 13.6259C22.9022 13.5301 22.8787 13.4779 22.792 13.3925C22.3441 12.9521 21.9033 12.5053 21.4579 12.0624C21.0464 11.6533 20.632 11.2462 20.219 10.8382Z" fill="#BC4155"/>
<path d="M10.7773 25.4072C10.3108 24.9478 9.85092 24.482 9.38696 24.0206C8.99395 23.6301 8.59867 23.2421 8.20417 22.853C8.13175 22.8194 8.11334 22.8912 8.08114 22.9227C7.81919 23.1797 7.56631 23.4462 7.29878 23.697C7.19031 23.7985 7.21195 23.8519 7.30637 23.9452C8.13061 24.7625 8.94962 25.5854 9.77247 26.4047C9.80956 26.4416 9.83251 26.5143 9.91025 26.4914C10.2012 26.2071 10.4876 25.9182 10.785 25.6407C10.8877 25.5446 10.8638 25.4924 10.7773 25.4072Z" fill="#BC4155"/>
<path d="M14.7821 29.4119C14.3253 28.9623 13.8748 28.506 13.4199 28.0537C13.0177 27.6538 12.613 27.2564 12.2092 26.8575C12.1369 26.8241 12.1184 26.896 12.0859 26.9274C11.8242 27.1845 11.5712 27.4509 11.3035 27.7017C11.1953 27.8033 11.217 27.8567 11.3114 27.9501C12.1356 28.7673 12.9546 29.5903 13.7772 30.4094C13.8145 30.4465 13.8373 30.519 13.9152 30.4963C14.2061 30.212 14.4924 29.9229 14.7899 29.6457C14.8927 29.5495 14.8688 29.4972 14.7821 29.4119Z" fill="#BC4155"/>
<path d="M18.7872 33.417C18.3206 32.9576 17.8606 32.492 17.3967 32.0303C17.0036 31.6397 16.6084 31.2518 16.214 30.8629C16.1416 30.8292 16.123 30.9008 16.091 30.9325C15.8289 31.1894 15.5758 31.4557 15.3086 31.7068C15.2002 31.8083 15.2218 31.8617 15.3162 31.9551C16.1405 32.7723 16.9593 33.595 17.7822 34.4144C17.8192 34.4513 17.8421 34.5237 17.9201 34.5012C18.2107 34.2165 18.4975 33.928 18.7949 33.6505C18.8975 33.5545 18.8739 33.5024 18.7872 33.417Z" fill="#BC4155"/>
<path d="M13.2465 13.757C12.837 14.1686 12.4301 14.5828 12.0222 14.996C11.9881 15.0685 12.0603 15.087 12.0918 15.1191C12.3489 15.3813 12.6152 15.6344 12.8662 15.9017C12.9675 16.0098 13.0207 15.9887 13.1144 15.8943C13.9317 15.0697 14.7546 14.2506 15.5737 13.4277C15.6105 13.3909 15.6872 13.3701 15.6607 13.2897C15.3763 12.9993 15.0874 12.713 14.8098 12.4154C14.7137 12.3125 14.6618 12.3365 14.5764 12.4233C14.1362 12.8708 13.6892 13.3116 13.2465 13.757Z" fill="#BC4155"/>
<path d="M12.8715 19.9066C12.9657 20.0074 13.0179 19.9898 13.1053 19.9013C13.6118 19.3875 14.1248 18.8798 14.6337 18.3681C14.9774 18.0226 15.3179 17.674 15.6599 17.3268C15.6925 17.2545 15.6213 17.2357 15.5897 17.2034C15.3328 16.9416 15.0666 16.6887 14.8157 16.4214C14.7142 16.3131 14.6608 16.334 14.5671 16.4284C13.7502 17.2527 12.9276 18.0714 12.109 18.8938C12.072 18.9308 11.9961 18.9516 12.0208 19.0313C12.3053 19.3224 12.5938 19.6094 12.8715 19.9066Z" fill="#BC4155"/>
<path d="M16.8763 23.9108C16.9709 24.0121 17.0232 23.9936 17.1101 23.9053C17.6168 23.3913 18.13 22.8843 18.6389 22.3726C18.9824 22.027 19.3228 21.6782 19.665 21.3312C19.6974 21.2587 19.6262 21.2399 19.5947 21.2078C19.3377 20.9458 19.0715 20.6929 18.8205 20.4256C18.7189 20.3174 18.6655 20.3387 18.5719 20.4331C17.7549 21.257 16.9326 22.0759 16.1135 22.8981C16.0762 22.9354 16.0043 22.9581 16.0258 23.0357C16.3101 23.3266 16.5988 23.6138 16.8763 23.9108Z" fill="#BC4155"/>
<path d="M16.2178 2.89897C16.2173 2.91651 16.2096 2.94172 16.218 2.95036C16.5141 3.2501 16.8144 3.54634 17.1081 3.84878C17.1917 3.93481 17.2309 3.87225 17.2824 3.82068C17.9921 3.11101 18.7004 2.39994 19.4132 1.6934C19.4951 1.61216 19.4922 1.56618 19.4117 1.48826C19.1374 1.22334 18.8711 0.949959 18.5998 0.682075C18.5716 0.654414 18.5528 0.591849 18.49 0.626753C18.3794 0.732074 18.2664 0.834952 18.1588 0.943327C17.511 1.59454 16.8645 2.24697 16.2178 2.89897Z" fill="#BC4155"/>
<path d="M27.7342 25.6642C27.7222 25.6601 27.7034 25.6489 27.6995 25.6528C27.3875 25.9599 27.0769 26.2681 26.766 26.5762C26.7329 26.6086 26.7203 26.6449 26.7616 26.6765C26.8624 26.7538 26.915 26.8896 27.0546 26.92C27.3151 26.7112 27.5326 26.4581 27.7705 26.2258C28.062 25.9412 28.0595 25.9385 27.7342 25.6642Z" fill="#BC4155"/>
<path d="M31.7397 21.6595C31.7277 21.6554 31.7089 21.6443 31.705 21.6482C31.3928 21.9548 31.0824 22.2634 30.7714 22.5713C30.7385 22.6038 30.7257 22.64 30.767 22.6716C30.8681 22.749 30.9206 22.8849 31.0606 22.9153C31.3204 22.7064 31.5382 22.4533 31.7756 22.2211C32.0675 21.9362 32.0651 21.9338 31.7397 21.6595Z" fill="#BC4155"/>
<path d="M19.7608 34.2355C20.0522 33.9511 20.0496 33.9485 19.7245 33.6739C19.7126 33.6698 19.6938 33.6586 19.6898 33.6626C19.3778 33.9696 19.0671 34.2779 18.7561 34.5861C18.7232 34.6183 18.7105 34.6548 18.7519 34.6863C18.8531 34.7634 18.9052 34.8996 19.0454 34.93C19.3052 34.7208 19.523 34.4677 19.7608 34.2355Z" fill="#BC4155"/>
<path d="M23.7298 29.6695C23.7179 29.6653 23.6991 29.6541 23.6951 29.6581C23.3829 29.9647 23.0725 30.2734 22.7614 30.5813C22.7287 30.6137 22.7161 30.65 22.7575 30.6816C22.8583 30.7587 22.911 30.8946 23.0507 30.9252C23.3108 30.716 23.5285 30.4631 23.7661 30.2307C24.0578 29.946 24.0554 29.9435 23.7298 29.6695Z" fill="#BC4155"/>
<path d="M4.83809 20.8369C4.84202 20.825 4.85328 20.806 4.84909 20.8019C4.54246 20.4903 4.23444 20.1799 3.92668 19.8695C3.89465 19.8373 3.85783 19.8228 3.82598 19.8637C3.7485 19.9646 3.61307 20.017 3.58218 20.1564C3.78994 20.4181 4.04404 20.6352 4.27624 20.8731C4.56244 21.1667 4.56524 21.1639 4.83809 20.8369Z" fill="#BC4155"/>
<path d="M10.0944 8.02206C10.0823 8.01769 10.0635 8.00652 10.0595 8.01045C9.74785 8.3176 9.43704 8.62562 9.12649 8.93408C9.10258 8.95764 9.07666 8.99019 9.10991 9.01837C9.21095 9.10371 9.26854 9.24193 9.41435 9.27448C9.65196 9.04316 9.89113 8.81305 10.1266 8.57964C10.4161 8.29369 10.4147 8.2923 10.0944 8.02206Z" fill="#BC4155"/>
<path d="M2.08437 16.0319C2.07251 16.0277 2.05348 16.0164 2.04964 16.0202C1.73769 16.3273 1.42688 16.6353 1.1165 16.944C1.09259 16.9675 1.06668 17.0001 1.09992 17.0279C1.20114 17.1134 1.25838 17.2516 1.40428 17.2841C1.64197 17.0527 1.88106 16.8227 2.11692 16.5893C2.40627 16.303 2.40505 16.3018 2.08437 16.0319Z" fill="#BC4155"/>
</svg>
