<svg width="8" height="6" viewBox="0 0 8 6" fill="none" xmlns="http://www.w3.org/2000/svg">
<path d="M7.76972 1.04608L2.99767 5.81506C2.88466 5.9332 2.72829 6 2.56486 6C2.40137 6 2.24495 5.9332 2.13195 5.81506L0.178833 3.87391C0.0242368 3.71872 -0.0358681 3.49281 0.021166 3.28128C0.078248 3.0698 0.243848 2.90475 0.455527 2.84845C0.667222 2.79208 0.892959 2.85299 1.04756 3.00819L2.56636 4.52399L6.90107 0.180365C7.05565 0.0251766 7.28138 -0.03572 7.49311 0.0206584C7.70477 0.0769327 7.87034 0.241965 7.92746 0.45346C7.98449 0.665019 7.92437 0.890892 7.76979 1.04609L7.76972 1.04608Z" fill="#BC4155"/>
</svg>
