<svg width="15" height="15" viewBox="0 0 15 15" fill="none" xmlns="http://www.w3.org/2000/svg">
<path fill-rule="evenodd" clip-rule="evenodd" d="M0.215594 13.7438C-0.0718495 14.0312 -0.0718495 14.497 0.215594 14.7845C0.502855 15.0718 0.968857 15.0718 1.25613 14.7845L7.49993 8.54067L13.7437 14.7845C14.0312 15.0718 14.4972 15.0718 14.7844 14.7845C15.0719 14.497 15.0719 14.0312 14.7844 13.7438L8.54063 7.49997L14.7844 1.25616C15.0719 0.968714 15.0719 0.502903 14.7844 0.215451C14.4972 -0.0718171 14.0312 -0.0718171 13.7437 0.215451L7.49993 6.45968L1.25612 0.215451C0.968857 -0.0718171 0.502855 -0.0718171 0.215594 0.215451C-0.0718648 0.502903 -0.0718648 0.968881 0.215594 1.25616L6.45939 7.49997L0.215594 13.7438Z" fill="white"/>
</svg>
