<svg width="22" height="22" viewBox="0 0 22 22" fill="none" xmlns="http://www.w3.org/2000/svg">
<path d="M16.1576 5.81309C16.1609 4.27425 15.6201 2.79707 14.6544 1.70681C13.6885 0.616546 12.3769 0.00253984 11.0082 6.88481e-06C9.63942 -0.00236204 8.32607 0.606681 7.35698 1.6934C6.38796 2.78028 5.8429 4.25552 5.8418 5.79417C5.84075 7.333 6.38371 8.80921 7.351 9.89765C8.31845 10.9862 9.63097 11.5977 10.9997 11.5977C12.3653 11.5973 13.6752 10.9881 14.6419 9.90378C15.6088 8.81943 16.1539 7.34838 16.1576 5.81313V5.81309Z" fill="#BC4155"/>
<path d="M5.08465 11.1714C3.61255 11.6884 2.32557 12.7201 1.41098 14.1165C0.496435 15.5129 0.00213453 17.2009 6.69643e-05 18.9348C-0.0050371 19.7412 0.281828 20.5153 0.794554 21.0791C1.29902 21.6704 1.99686 22.0032 2.72542 21.9998H19.2748C19.9976 21.9992 20.6905 21.6759 21.2014 21.1012C21.7126 20.5266 21.9998 19.7473 22.0001 18.9348C22.0058 16.7738 21.2398 14.7008 19.874 13.1801C19.0512 12.2464 18.0349 11.5569 16.9163 11.1742C16.1861 12.1956 15.2526 13.01 14.1909 13.5513C13.1925 14.0764 12.1038 14.3485 11.0017 14.3485C9.89941 14.3485 8.81082 14.0764 7.81244 13.5513C6.74972 13.0096 5.81529 12.1942 5.08462 11.1714H5.08465Z" fill="#BC4155"/>
</svg>
