<svg width="20" height="20" viewBox="0 0 20 20" fill="none" xmlns="http://www.w3.org/2000/svg">
<path d="M17.8707 1.92432H15.6034V0.389189C15.6034 0.172974 15.431 0 15.2155 0C15 0 14.8276 0.172974 14.8276 0.389189V1.92432H5.17241V0.389189C5.17241 0.172974 5 0 4.78448 0C4.56897 0 4.39655 0.172974 4.39655 0.389189V1.92432H2.12931C0.965517 1.92432 0 2.88432 0 4.05189V17.9027C0 19.0703 0.965517 20 2.12931 20H17.8707C19.0345 20 20 19.0703 20 17.9027V4.05189C20 2.88432 19.0345 1.92432 17.8707 1.92432ZM2.12931 2.7027H4.39655V3.89189C4.39655 4.10811 4.56897 4.28108 4.78448 4.28108C5 4.28108 5.17241 4.10811 5.17241 3.89189V2.7027H14.8276V3.89189C14.8276 4.10811 15 4.28108 15.2155 4.28108C15.431 4.28108 15.6034 4.10811 15.6034 3.89189V2.7027H17.8707C18.6078 2.7027 19.2241 3.31243 19.2241 4.05189V5.64324H0.775862V4.05189C0.775862 3.31243 1.39224 2.7027 2.12931 2.7027ZM17.8707 19.2216H2.12931C1.39224 19.2216 0.775862 18.6422 0.775862 17.9027V6.42162H19.2241V17.9027C19.2241 18.6422 18.6078 19.2216 17.8707 19.2216Z" fill="#2F2E41"/>
<path d="M9.52602 8.45407C9.52602 8.23785 9.35361 8.06488 9.13808 8.06488H7.37085C7.15533 8.06488 6.98291 8.23785 6.98291 8.45407V10.227C6.98291 10.4433 7.15533 10.6162 7.37085 10.6162H9.13808C9.35361 10.6162 9.52602 10.4433 9.52602 10.227V8.45407ZM8.75017 9.83784H7.75879V8.84326H8.75017V9.83784Z" fill="#2F2E41"/>
<path d="M13.0172 8.45407C13.0172 8.23785 12.8448 8.06488 12.6293 8.06488H10.8621C10.6465 8.06488 10.4741 8.23785 10.4741 8.45407V10.227C10.4741 10.4433 10.6465 10.6162 10.8621 10.6162H12.6293C12.8448 10.6162 13.0172 10.4433 13.0172 10.227V8.45407ZM12.2414 9.83784H11.25V8.84326H12.2414V9.83784Z" fill="#2F2E41"/>
<path d="M16.5085 8.45407C16.5085 8.23785 16.336 8.06488 16.1205 8.06488H14.3533C14.1377 8.06488 13.9653 8.23785 13.9653 8.45407V10.227C13.9653 10.4433 14.1377 10.6162 14.3533 10.6162H16.1205C16.336 10.6162 16.5085 10.4433 16.5085 10.227V8.45407ZM15.7326 9.83784H14.7412V8.84326H15.7326V9.83784Z" fill="#2F2E41"/>
<path d="M6.03431 11.9568C6.03431 11.7405 5.8619 11.5676 5.64639 11.5676H3.87914C3.66362 11.5676 3.49121 11.7405 3.49121 11.9568V13.7297C3.49121 13.946 3.66362 14.1189 3.87914 14.1189H5.64639C5.8619 14.1189 6.03431 13.946 6.03431 13.7297V11.9568ZM5.25845 13.2973H4.26707V12.3459H5.25845V13.2973Z" fill="#2F2E41"/>
<path d="M9.52602 11.9568C9.52602 11.7405 9.35361 11.5676 9.13808 11.5676H7.37085C7.15533 11.5676 6.98291 11.7405 6.98291 11.9568V13.7297C6.98291 13.946 7.15533 14.1189 7.37085 14.1189H9.13808C9.35361 14.1189 9.52602 13.946 9.52602 13.7297V11.9568ZM8.75017 13.2973H7.75879V12.3459H8.75017V13.2973Z" fill="#2F2E41"/>
<path d="M13.0172 11.9568C13.0172 11.7405 12.8448 11.5676 12.6293 11.5676H10.8621C10.6465 11.5676 10.4741 11.7405 10.4741 11.9568V13.7297C10.4741 13.946 10.6465 14.1189 10.8621 14.1189H12.6293C12.8448 14.1189 13.0172 13.946 13.0172 13.7297V11.9568ZM12.2414 13.2973H11.25V12.3459H12.2414V13.2973Z" fill="#2F2E41"/>
<path d="M16.5085 11.9568C16.5085 11.7405 16.336 11.5676 16.1205 11.5676H14.3533C14.1377 11.5676 13.9653 11.7405 13.9653 11.9568V13.7297C13.9653 13.946 14.1377 14.1189 14.3533 14.1189H16.1205C16.336 14.1189 16.5085 13.946 16.5085 13.7297V11.9568ZM15.7326 13.2973H14.7412V12.3459H15.7326V13.2973Z" fill="#2F2E41"/>
<path d="M6.03431 15.4162C6.03431 15.2 5.8619 15.027 5.64639 15.027H3.87914C3.66362 15.027 3.49121 15.2 3.49121 15.4162V17.1892C3.49121 17.4054 3.66362 17.5784 3.87914 17.5784H5.64639C5.8619 17.5784 6.03431 17.4054 6.03431 17.1892V15.4162ZM5.25845 16.8H4.26707V15.8054H5.25845V16.8Z" fill="#2F2E41"/>
<path d="M9.52602 15.4162C9.52602 15.2 9.35361 15.027 9.13808 15.027H7.37085C7.15533 15.027 6.98291 15.2 6.98291 15.4162V17.1892C6.98291 17.4054 7.15533 17.5784 7.37085 17.5784H9.13808C9.35361 17.5784 9.52602 17.4054 9.52602 17.1892V15.4162ZM8.75017 16.8H7.75879V15.8054H8.75017V16.8Z" fill="#2F2E41"/>
<path d="M13.0172 15.4162C13.0172 15.2 12.8448 15.027 12.6293 15.027H10.8621C10.6465 15.027 10.4741 15.2 10.4741 15.4162V17.1892C10.4741 17.4054 10.6465 17.5784 10.8621 17.5784H12.6293C12.8448 17.5784 13.0172 17.4054 13.0172 17.1892V15.4162ZM12.2414 16.8H11.25V15.8054H12.2414V16.8Z" fill="#2F2E41"/>
<path d="M16.5085 15.4162C16.5085 15.2 16.336 15.027 16.1205 15.027H14.3533C14.1377 15.027 13.9653 15.2 13.9653 15.4162V17.1892C13.9653 17.4054 14.1377 17.5784 14.3533 17.5784H16.1205C16.336 17.5784 16.5085 17.4054 16.5085 17.1892V15.4162ZM15.7326 16.8H14.7412V15.8054H15.7326V16.8Z" fill="#2F2E41"/>
</svg>
