<svg width="70" height="70" viewBox="0 0 70 70" fill="none" xmlns="http://www.w3.org/2000/svg">
<path d="M0.626113 22.7346C16.9723 32.8545 33.6126 33.8044 50.8349 25.6988C50.7025 25.8747 50.5825 26.0493 50.4472 26.2112C47.0456 30.2801 43.2643 33.965 39.1668 37.3267C38.9173 37.5314 38.5889 37.6916 38.2734 37.757C29.6943 39.532 21.2019 39.2821 12.8463 36.535C8.24709 35.023 4.18031 32.5097 0.341811 29.6066C0.177504 29.4823 -0.014513 29.2321 0.00086788 29.0578C0.185438 26.9743 0.406508 24.894 0.626113 22.7346Z" fill="#707070"/>
<path d="M28.3748 28.5365C26.5221 28.4248 24.8674 28.3677 23.2224 28.2116C22.0072 28.096 20.8005 27.8724 19.5991 27.6484C19.33 27.5982 19.0251 27.4006 18.8607 27.1789C14.8474 21.7732 12.5771 15.7176 12.1445 8.98861C12.0828 8.02755 12.0487 7.06319 12.0526 6.10073C12.0534 5.85567 12.1807 5.51516 12.367 5.38125C15.2241 3.32521 18.3565 1.84737 21.866 0.930985C21.2331 10.7482 22.414 20.1013 28.3748 28.5365Z" fill="#707070"/>
<path d="M27.0796 20.7848C31.7542 20.6286 36.1796 19.6816 40.477 18.1093C44.7748 16.5371 48.7593 14.3676 52.5326 11.7246C54.0347 13.7088 55.2709 15.7905 56.0715 18.0791C56.3411 18.8504 55.5848 19.502 54.967 19.9439C51.5845 22.3634 47.9277 24.2756 44.0186 25.6928C40.2107 27.0732 36.292 27.9703 32.2469 28.271C31.9866 28.2903 31.606 28.2725 31.4672 28.1117C29.6026 25.9502 28.1826 23.5181 27.0796 20.7848Z" fill="#707070"/>
<path d="M24.5743 9.17827C26.2598 8.98864 27.9423 8.85546 29.6065 8.6018C34.2992 7.88671 38.7358 6.35698 42.9636 4.21996C43.5227 3.93749 43.9231 3.97185 44.4391 4.29845C46.7843 5.78252 48.916 7.51165 50.8302 9.64849C50.5725 9.83269 50.3515 9.99883 50.1225 10.1533C44.4153 14.0038 38.2031 16.6204 31.3903 17.7115C29.8292 17.9616 28.2325 17.999 26.6497 18.0918C26.4451 18.1038 26.0877 17.9022 26.034 17.7276C25.1882 14.9816 24.7205 12.1639 24.5329 9.29839C24.53 9.25249 24.5649 9.20391 24.5743 9.17827Z" fill="#707070"/>
<path d="M34.0967 41.2741C33.0811 41.9834 32.0934 42.7379 31.0445 43.3938C28.3103 45.1023 25.5574 46.7821 22.7883 48.4331C22.4214 48.6519 21.8963 48.7704 21.4767 48.7099C14.9258 47.7627 8.85181 45.5095 3.27503 41.9398C3.01306 41.7722 2.8003 41.4616 2.66699 41.1707C1.46875 38.5534 0.701172 35.812 0.338867 32.8073C10.5978 39.7071 21.8074 42.455 34.0967 41.2741Z" fill="#707070"/>
<path d="M58.2256 31.3084C58.0126 34.213 57.4042 36.9343 56.3857 39.5628C56.3094 39.7599 56.101 39.9255 55.9194 40.059C49.2215 44.9931 41.7598 48.0134 33.4767 48.9061C31.5408 49.115 29.5828 49.1188 27.6347 49.2122C27.4406 49.2214 27.2449 49.1956 26.874 49.1777C27.2307 48.9396 27.4323 48.793 27.6449 48.6649C31.7516 46.1907 35.6866 43.4696 39.4447 40.4913C39.7597 40.2415 40.1441 40.0291 40.5301 39.9271C46.7914 38.2731 52.5209 35.5248 57.7029 31.6373C57.8432 31.532 58.0002 31.4493 58.2256 31.3084Z" fill="#707070"/>
<path d="M46.104 52.9711C46.3191 51.3426 46.4923 49.9313 46.7083 48.5262C46.735 48.3526 46.9632 48.1597 47.1445 48.0678C49.3694 46.9382 51.6003 45.8204 53.8385 44.7173C54.0816 44.5976 54.3822 44.534 54.6534 44.5413C56.1024 44.5801 57.4928 44.8907 58.7824 45.5701C61.4047 46.952 62.7093 49.8754 62.1526 53.0895C61.687 55.7773 59.2789 58.1403 56.5174 58.5755C55.8266 58.6843 55.1193 58.7022 54.4183 58.7291C52.0493 58.8203 50.1758 60.6514 50.0621 63.0045C49.9569 65.1774 51.7395 67.243 53.9881 67.5371C54.3998 67.5907 54.8186 67.609 55.2341 67.6095C59.8187 67.6141 64.4031 67.6119 68.9879 67.6114C69.2921 67.6113 69.5963 67.6114 69.9401 67.6114V69.9348C69.7591 69.9534 69.5624 69.9909 69.3658 69.991C64.4426 69.9943 59.5193 70.0108 54.5962 69.9885C50.6543 69.9704 47.4797 66.8532 47.493 63.067C47.5051 59.5603 50.4577 56.4523 53.9675 56.2524C54.5904 56.217 55.222 56.236 55.8356 56.1409C58.3523 55.7501 60.0871 53.4354 59.6386 51.1115C59.158 48.621 56.6841 47.0026 54.1717 47.5644C52.2636 47.991 50.7004 49.0505 49.2519 50.3171C48.2608 51.1841 47.2392 52.0163 46.104 52.9711Z" fill="#707070"/>
<path d="M15.2162 26.5284C11.843 25.9217 4.25061 22.2605 1.55152 19.9763C3.1222 15.291 5.70228 11.2482 9.4463 7.73046C9.59376 11.1735 10.0966 14.3909 11.0562 17.5292C12.0192 20.6791 13.3955 23.6404 15.2162 26.5284Z" fill="#707070"/>
<path d="M44.0102 49.387C43.7569 50.5895 43.4561 51.7388 43.2831 52.9072C43.0465 54.5052 42.2055 55.3954 40.6739 55.9915C37.243 57.3272 33.7445 58.2044 30.0585 58.2908C29.8029 58.2968 29.547 58.2916 29.1948 58.2916C29.3303 58.0453 29.411 57.865 29.5205 57.7045C30.6734 56.0156 31.5465 54.1968 32.1474 52.2393C32.2224 51.9949 32.5498 51.6785 32.7856 51.6556C36.4779 51.297 40.0811 50.5323 43.6075 49.3898C43.6763 49.3676 43.7586 49.387 44.0102 49.387Z" fill="#707070"/>
<path d="M24.5928 0.380299C30.5421 -0.694409 37.3731 0.674245 40.5833 2.42071C35.4361 4.74712 30.1342 6.26483 24.3281 6.43688C24.4191 4.35741 24.5056 2.37212 24.5928 0.380299Z" fill="#707070"/>
<path d="M29.4679 51.9633C28.7748 54.1909 27.5727 56.1453 26.0493 57.9151C25.9528 58.0275 25.7332 58.0871 25.5734 58.0827C23.4955 58.0261 17.6493 56.1832 15.7241 54.9635C16.3667 54.6528 16.9639 54.3721 17.554 54.0776C19.067 53.3226 20.5751 52.5579 22.0899 51.8071C22.3172 51.6945 22.5755 51.554 22.8123 51.5664C25.0154 51.68 27.2168 51.8247 29.4679 51.9633Z" fill="#707070"/>
<path d="M57.486 21.6748C57.7436 23.5998 58.0106 25.5236 58.2444 27.4514C58.2671 27.6382 58.1406 27.9156 57.9912 28.0403C54.1886 31.2121 49.9981 33.7375 45.385 35.5504C45.3692 35.5567 45.3416 35.5327 45.2459 35.4901C49.7231 31.2831 53.7404 26.7104 57.1912 21.6496C57.2895 21.658 57.3877 21.6665 57.486 21.6748Z" fill="#707070"/>
<path d="M18.309 50.8276C16.931 51.47 15.496 52.0597 14.1419 52.798C13.2282 53.296 12.5868 53.1605 11.7973 52.5362C9.60474 50.8042 7.59058 48.9128 5.98975 46.7458C10.0344 48.0857 14.1416 49.4469 18.309 50.8276Z" fill="#707070"/>
</svg>
