<svg width="73" height="70" viewBox="0 0 73 70" fill="none" xmlns="http://www.w3.org/2000/svg">
<path d="M0 64.3686V62.9536C0.0406494 62.8196 0.095337 62.6883 0.119629 62.5516C0.706147 59.2238 3.8616 56.8532 7.18558 57.411C8.37504 57.6106 9.49479 58.2218 10.7875 58.6975C12.5665 57.4096 14.5335 55.9836 16.4999 54.5591C16.5956 54.4893 16.7333 54.4387 16.7764 54.3458C16.8906 54.0969 17.0523 53.8235 17.0382 53.5692C16.974 52.4139 17.1517 51.3106 17.6774 50.2839C18.8853 47.9227 20.8623 46.6827 23.4876 46.7142C26.129 46.7442 28.0379 48.0909 29.1669 50.478C29.3402 50.8431 29.5384 50.9402 29.9137 50.9347C31.2122 50.9142 32.5117 50.8991 33.8096 50.9347C34.9638 50.9662 34.6842 49.7562 35.281 49.2982C35.4591 49.1615 35.4461 48.7745 35.5172 48.5024C35.5218 48.486 35.4956 48.4614 35.4864 48.4409C34.6753 46.5337 33.8735 44.6251 33.0378 42.7302C32.9646 42.5648 32.6625 42.3911 32.4765 42.4007C29.6024 42.5566 27.3879 41.2481 26.0795 38.63C25.9769 38.4249 25.6454 38.2185 25.414 38.2116C24.0929 38.172 22.7698 38.2158 21.4484 38.1801C20.9911 38.1679 20.8021 38.3402 20.6192 38.7338C19.0135 42.1983 14.9765 43.4233 11.5873 41.4929C8.46732 39.7169 7.57764 35.4882 9.70908 32.4558C9.97123 32.0826 9.96134 31.8145 9.75077 31.4454C9.09931 30.2984 8.46219 29.1431 7.8555 27.9729C7.65146 27.5804 7.43717 27.4655 6.9795 27.5107C4.84052 27.7171 3.05325 26.9761 1.60233 25.3984C0.691803 24.4085 0.285736 23.1945 0 21.9202V20.5052C0.0345154 20.4191 0.0847474 20.3343 0.101837 20.2441C0.766632 16.7291 3.56015 14.6196 7.1268 14.9025C7.34385 14.9204 7.67914 14.7016 7.79776 14.4979C8.46357 13.359 9.06275 12.1818 9.72138 11.0389C9.96406 10.6177 9.96268 10.3225 9.66602 9.9068C7.91568 7.45551 8.20176 4.1579 10.3185 1.92792C12.305 -0.165222 15.6304 -0.597229 18.1258 0.901185C19.4325 1.68598 20.3007 2.82758 20.8814 4.23444C22.3409 4.23444 23.7816 4.20429 25.2198 4.24945C25.7606 4.26728 25.992 4.07172 26.209 3.60419C27.4733 0.875184 30.6445 -0.553528 33.4749 0.19989C37.8291 1.35919 39.7406 6.54352 36.9449 10.1899C36.8054 10.3716 36.7329 10.734 36.8157 10.9363C37.5991 12.8544 38.4139 14.759 39.2501 16.6552C39.3251 16.8248 39.6158 17.0148 39.7982 17.0067C42.7424 16.8795 44.9243 18.1551 46.2048 20.7623C46.298 20.951 46.5432 21.1888 46.7221 21.1929C48.3737 21.2258 50.0263 21.2121 51.4637 21.2121C52.2222 20.2386 52.7742 19.272 53.5605 18.5679C56.0283 16.3559 59.5479 16.4625 62.0565 18.7115C64.3457 20.765 64.7108 24.3361 62.8777 26.9475C62.647 27.2756 62.5788 27.5217 62.7916 27.8935C63.4707 29.0788 64.1297 30.2766 64.7554 31.4906C64.9582 31.8844 65.1918 31.9307 65.5958 31.8925C67.7372 31.6943 69.5246 32.4271 70.9766 34.0062C71.8876 34.9961 72.2937 36.2115 72.5799 37.4857V38.8994C72.5453 38.9868 72.4952 39.0703 72.4781 39.1605C71.8135 42.6742 69.0138 44.7905 65.4566 44.502C65.239 44.4857 64.9023 44.7016 64.7841 44.9054C64.1307 46.0223 63.5545 47.1859 62.896 48.3001C62.6173 48.7718 62.6207 49.0958 62.9486 49.5538C64.4884 51.7016 64.4081 54.7833 62.8083 56.8176C60.9865 59.1336 58.0643 59.9991 55.4824 59.0011C53.6555 58.2942 52.4436 56.9858 51.7001 55.1716C50.0384 55.1716 48.3874 55.1593 46.7372 55.1906C46.5553 55.1948 46.3026 55.4217 46.211 55.6091C45.0196 58.0344 43.0846 59.3934 40.3815 59.3866C37.7089 59.3811 35.7747 58.0399 34.6261 55.6255C34.4552 55.2673 34.2662 55.1565 33.8841 55.1633C32.5856 55.1853 31.2857 55.2003 29.9886 55.1565C29.4961 55.1414 29.2999 55.3329 29.1085 55.7458C27.7966 58.5826 24.6706 60.0278 21.6826 59.1255C20.8011 58.8602 19.9927 58.3543 19.0924 57.9305C17.1039 59.3716 15.0353 60.8576 12.9931 62.3794C12.8116 62.5147 12.7077 62.8934 12.7313 63.1437C12.9763 65.789 11.3384 68.4947 8.83204 69.5298C6.32767 70.5647 3.30893 69.8414 1.59653 67.8508C0.720154 66.8323 0.285736 65.6415 0 64.3686ZM49.011 50.9265C49.6718 50.9265 50.3356 50.891 50.9932 50.9388C51.5128 50.9757 51.7751 50.8116 51.999 50.3208C53.1112 47.8831 55.7029 46.4339 58.3354 46.7511C58.7156 46.7976 58.9342 46.7415 59.1232 46.3792C59.765 45.1473 60.4313 43.9278 61.1183 42.7207C61.3155 42.3734 61.2548 42.141 61.0416 41.8347C59.4156 39.4968 59.4382 36.9224 61.0383 34.5094C61.1776 34.2974 61.1926 33.8776 61.0773 33.6494C60.4614 32.4312 59.7745 31.2486 59.1384 30.04C58.9607 29.7023 58.7802 29.5765 58.3728 29.6243C55.6615 29.9388 53.1144 28.5142 51.9829 26.0355C51.7713 25.572 51.517 25.4367 51.0319 25.4476C49.6631 25.4791 48.2932 25.4709 46.9243 25.4504C46.5485 25.4449 46.3504 25.5419 46.1782 25.9069C44.8833 28.6536 42.3829 29.988 39.3733 29.6066C39.1662 29.5793 38.8562 29.6887 38.7263 29.8431C38.1827 30.4939 37.6702 31.172 37.1923 31.8734C37.0838 32.0319 37.0647 32.3751 37.1641 32.5338C38.7307 35.0589 38.6301 37.5089 36.9262 39.9275C36.795 40.1134 36.7446 40.4702 36.8288 40.6781C37.603 42.5716 38.4238 44.4487 39.2091 46.3382C39.3527 46.684 39.5236 46.7647 39.8971 46.736C42.2229 46.5597 44.0795 47.4565 45.4954 49.2817C45.9078 49.8149 46.1708 50.6079 46.7037 50.8636C47.2789 51.1397 48.09 50.9265 48.7984 50.9265C48.8691 50.9265 48.9401 50.9265 49.011 50.9265ZM20.9217 8.47956C20.8698 8.55475 20.8366 8.59028 20.8172 8.63129C19.4753 11.5064 17.2867 12.9475 14.0468 12.6522C13.8681 12.6357 13.5871 12.8449 13.4849 13.024C12.7955 14.2299 12.1212 15.4467 11.4957 16.6854C11.3818 16.911 11.4106 17.3306 11.5521 17.5439C13.1452 19.9296 13.1448 22.4959 11.5507 24.8844C11.4095 25.0963 11.3829 25.5159 11.4967 25.7429C12.1109 26.9611 12.8023 28.1409 13.432 29.3537C13.6278 29.7297 13.8561 29.7666 14.2591 29.7857C15.2349 29.8363 16.2528 29.8718 17.165 30.1781C18.9892 30.7878 20.1547 32.166 20.88 33.9473C22.385 33.9473 23.8714 33.931 25.3573 33.9583C25.7756 33.9652 25.967 33.8203 26.1403 33.447C27.3814 30.7769 29.965 29.4084 32.9086 29.7939C33.129 29.8226 33.4561 29.6887 33.6021 29.5163C34.1213 28.9079 34.5697 28.2395 35.0732 27.6159C35.2984 27.3371 35.323 27.1292 35.1238 26.8121C33.5593 24.3251 33.6769 21.8861 35.3613 19.4908C35.4941 19.3021 35.5579 18.9466 35.4743 18.7415C34.691 16.8248 33.8755 14.9217 33.0446 13.0253C32.9735 12.8627 32.7161 12.6672 32.5572 12.6767C29.521 12.8681 27.3944 11.5529 26.0641 8.85688C25.982 8.69001 25.7387 8.4986 25.5675 8.49592C24.0109 8.46723 22.4537 8.47956 20.9217 8.47956Z" fill="#707070"/>
</svg>
