<svg width="17" height="17" viewBox="0 0 17 17" fill="none" xmlns="http://www.w3.org/2000/svg">
<path d="M8.5 0C3.80558 0 0 3.80558 0 8.5V14.9762C0 16.0939 0.90609 17 2.02381 17H2.83333C3.50396 17 4.04762 16.4563 4.04762 15.7857V12.1429C4.04762 11.4722 3.50396 10.9286 2.83333 10.9286C2.38625 10.9286 2.02381 10.5661 2.02381 10.119V8.5C2.02381 4.9233 4.9233 2.02381 8.5 2.02381C12.0767 2.02381 14.9762 4.9233 14.9762 8.5V10.119C14.9762 10.5661 14.6138 10.9286 14.1667 10.9286C13.496 10.9286 12.9524 11.4722 12.9524 12.1429V15.7857C12.9524 16.4563 13.496 17 14.1667 17H14.9762C16.0939 17 17 16.0939 17 14.9762V8.5C17 3.80558 13.1944 0 8.5 0Z" fill="white"/>
</svg>
