<svg width="21" height="21" viewBox="0 0 21 21" fill="none" xmlns="http://www.w3.org/2000/svg">
<path d="M2.34 11.1014C2.50584 11.2711 2.67422 11.4384 2.83618 11.6118C2.89116 11.6707 2.92165 11.6601 2.97255 11.6086C3.26793 11.3087 3.56733 11.0128 3.86424 10.7145C4.06463 10.5129 4.2633 10.3095 4.46278 10.107C4.48182 10.0649 4.44023 10.0538 4.4217 10.0348C4.27185 9.88214 4.11671 9.73473 3.97016 9.57872C3.91101 9.5157 3.87986 9.52792 3.82519 9.583C3.34871 10.0638 2.86891 10.5413 2.39126 11.021C2.36952 11.0427 2.32753 11.056 2.34 11.1014Z" fill="#E2E2E2"/>
<path d="M4.6759 13.4379C4.84184 13.6077 5.01022 13.7751 5.17234 13.9485C5.22706 14.0072 5.2577 13.9969 5.3086 13.9452C5.60413 13.6454 5.90348 13.3495 6.20034 13.051C6.40074 12.8494 6.59935 12.6461 6.79884 12.4435C6.81803 12.4013 6.77649 12.3904 6.75791 12.3715C6.60801 12.2188 6.45286 12.0712 6.30637 11.9153C6.24727 11.8523 6.21602 11.8644 6.16135 11.9195C5.68476 12.4003 5.20497 12.8779 4.72736 13.3577C4.70583 13.3793 4.66144 13.3913 4.6759 13.4379Z" fill="#E2E2E2"/>
<path d="M7.01251 15.7739C7.17835 15.9436 7.34673 16.111 7.50865 16.2844C7.56377 16.3433 7.59431 16.3329 7.64506 16.2814C7.94059 15.9816 8.23979 15.6854 8.5367 15.3871C8.73735 15.1856 8.93596 14.9821 9.13545 14.7796C9.15438 14.7374 9.11285 14.7264 9.09437 14.7076C8.94447 14.5548 8.78922 14.4073 8.64283 14.2513C8.58368 14.1883 8.55232 14.2005 8.49791 14.2557C8.02117 14.7364 7.54138 15.2139 7.06377 15.6938C7.04244 15.7155 6.99806 15.7275 7.01251 15.7739Z" fill="#E2E2E2"/>
<path d="M9.34846 18.1102C9.5144 18.28 9.68293 18.4474 9.8448 18.6206C9.89992 18.6795 9.93036 18.669 9.98116 18.6174C10.2766 18.3177 10.5761 18.0217 10.8728 17.7233C11.0733 17.5216 11.272 17.3183 11.4714 17.1158C11.4905 17.0737 11.4489 17.0626 11.4305 17.0437C11.2806 16.8911 11.1254 16.7435 10.979 16.5875C10.9197 16.5245 10.8885 16.5367 10.8339 16.5918C10.3573 17.0726 9.87748 17.5502 9.39992 18.03C9.37834 18.0516 9.33421 18.0637 9.34846 18.1102Z" fill="#E2E2E2"/>
<path d="M13.293 19.639C13.3578 19.5786 13.355 19.5464 13.2928 19.485C12.8121 19.01 12.336 18.5308 11.8572 18.0543C11.8355 18.0326 11.8234 17.9883 11.7768 18.0024C11.6069 18.1682 11.4396 18.3367 11.2663 18.4986C11.2074 18.5536 11.2179 18.5843 11.2695 18.6351C11.5528 18.9139 11.8321 19.1968 12.114 19.4772C12.3322 19.6941 12.552 19.9093 12.7711 20.1253C12.8169 20.1403 12.8298 20.0968 12.8516 20.0755C12.9996 19.9309 13.1418 19.7802 13.293 19.639Z" fill="#E2E2E2"/>
<path d="M2.12673 10.0887C1.96084 9.91929 1.79221 9.75218 1.63024 9.5786C1.5743 9.51869 1.54381 9.53269 1.49403 9.58329C1.24278 9.83881 0.98756 10.0906 0.734836 10.3447C0.49051 10.5905 0.24761 10.8374 0.00394588 11.084C-0.0132079 11.13 0.0309743 11.1428 0.0519967 11.1644C0.198999 11.3146 0.351754 11.4594 0.4956 11.6128C0.554595 11.6757 0.585543 11.6643 0.640414 11.6088C1.11746 11.1275 1.59786 10.6496 2.07583 10.1692C2.09736 10.1476 2.142 10.1356 2.12673 10.0887Z" fill="#E2E2E2"/>
<path d="M12.7899 17.7896C12.9595 17.6236 13.1266 17.455 13.3001 17.2932C13.3602 17.2374 13.3462 17.2069 13.2958 17.1572C13.0209 16.8866 12.7499 16.612 12.4763 16.3399C12.25 16.115 12.022 15.8914 11.7949 15.6672C11.7525 15.6475 11.7417 15.6894 11.723 15.7079C11.57 15.8576 11.4225 16.0131 11.2665 16.1595C11.2032 16.2187 11.216 16.2497 11.2708 16.3042C11.7518 16.781 12.2296 17.261 12.7094 17.7389C12.7312 17.7605 12.7444 17.8028 12.7899 17.7896Z" fill="#E2E2E2"/>
<path d="M10.4539 15.4534C10.6235 15.2875 10.7906 15.1188 10.964 14.957C11.024 14.901 11.0102 14.8706 10.9596 14.8208C10.6985 14.564 10.4414 14.3033 10.1815 14.045C9.94137 13.8063 9.69969 13.5689 9.45883 13.3309C9.41648 13.3113 9.40559 13.3532 9.38691 13.3716C9.23405 13.5214 9.08639 13.6768 8.93042 13.8232C8.86705 13.8825 8.87983 13.9135 8.93475 13.9679C9.41587 14.4448 9.89358 14.9248 10.3734 15.4028C10.3952 15.4243 10.4084 15.4665 10.4539 15.4534Z" fill="#E2E2E2"/>
<path d="M8.11725 13.1171C8.28691 12.9511 8.45401 12.7825 8.62759 12.6208C8.68755 12.5649 8.67386 12.5346 8.62321 12.4847C8.35099 12.2167 8.08269 11.9451 7.81205 11.6758C7.58279 11.4479 7.35221 11.2216 7.12224 10.9947C7.07994 10.9751 7.0691 11.0169 7.05036 11.0354C6.89746 11.1853 6.74989 11.3406 6.59398 11.4871C6.53076 11.5463 6.54339 11.5774 6.59821 11.6317C7.07928 12.1086 7.55698 12.5885 8.03683 13.0664C8.05866 13.0881 8.07185 13.1303 8.11725 13.1171Z" fill="#E2E2E2"/>
<path d="M5.78124 10.781C5.95084 10.6151 6.11795 10.4463 6.29152 10.2848C6.35164 10.2287 6.33733 10.198 6.28699 10.1484C6.02597 9.89144 5.76872 9.63093 5.50897 9.37271C5.26872 9.13388 5.02714 8.89658 4.78617 8.65847C4.74392 8.63902 4.73303 8.68086 4.71425 8.69924C4.56149 8.84914 4.41373 9.00444 4.25787 9.15093C4.1947 9.21023 4.20727 9.24123 4.2623 9.29575C4.74331 9.77249 5.22092 10.2524 5.70066 10.7302C5.72245 10.7518 5.73584 10.7942 5.78124 10.781Z" fill="#E2E2E2"/>
<path d="M4.46281 12.4248C4.29687 12.2552 4.12828 12.0883 3.96647 11.9147C3.91043 11.8545 3.87983 11.8686 3.83015 11.9191C3.5954 12.1581 3.35672 12.3934 3.12054 12.631C2.85988 12.8935 2.60028 13.1569 2.34002 13.4198C2.32297 13.466 2.36695 13.4786 2.38797 13.5002C2.53508 13.6505 2.68783 13.7952 2.83163 13.9487C2.89062 14.0117 2.92152 14.0003 2.97654 13.9449C3.45354 13.4636 3.93394 12.9854 4.41221 12.5053C4.43379 12.4836 4.47604 12.4702 4.46281 12.4248Z" fill="#E2E2E2"/>
<path d="M13.808 17.0973C13.642 16.9277 13.4733 16.7607 13.3115 16.5871C13.2554 16.5269 13.2249 16.5413 13.1753 16.5916C12.9074 16.8638 12.6358 17.1319 12.3664 17.4027C12.1387 17.6319 11.9124 17.8625 11.6853 18.0924C11.6657 18.1346 11.7076 18.1456 11.7261 18.1644C11.876 18.3172 12.0314 18.4648 12.1777 18.6209C12.2369 18.684 12.268 18.6715 12.3224 18.6164C12.7993 18.1355 13.2794 17.6577 13.7572 17.1778C13.779 17.156 13.8213 17.1428 13.808 17.0973Z" fill="#E2E2E2"/>
<path d="M11.4719 14.761C11.3059 14.5914 11.1373 14.4243 10.9755 14.251C10.9195 14.191 10.8892 14.205 10.8392 14.2555C10.5575 14.5413 10.2722 14.8233 9.98928 15.1079C9.77509 15.3231 9.56258 15.5401 9.34941 15.7563C9.32971 15.7986 9.37165 15.8094 9.38997 15.8281C9.53988 15.981 9.69528 16.1286 9.84172 16.2847C9.90107 16.3479 9.93212 16.3352 9.98664 16.2802C10.4633 15.7993 10.9434 15.3215 11.4211 14.8415C11.4426 14.82 11.4873 14.8077 11.4719 14.761Z" fill="#E2E2E2"/>
<path d="M9.13605 12.4251L9.13595 12.425L9.13605 12.4251C8.97001 12.2554 8.80122 12.0884 8.63946 11.9149C8.58346 11.8548 8.55303 11.8688 8.5033 11.9193C8.23535 12.1913 7.96369 12.4597 7.69442 12.7304C7.46659 12.9595 7.24034 13.1902 7.01337 13.4202C6.99372 13.4625 7.03541 13.4733 7.05399 13.4922C7.20384 13.6449 7.35914 13.7926 7.50563 13.9486C7.56483 14.0118 7.59578 13.9992 7.65034 13.9442C8.12714 13.4631 8.60729 12.9854 9.08504 12.5054C9.10652 12.4837 9.15117 12.4717 9.13605 12.4251Z" fill="#E2E2E2"/>
<path d="M6.7994 10.0888C6.63331 9.91912 6.46477 9.75211 6.30291 9.57864C6.24702 9.51868 6.21653 9.53268 6.1667 9.58312C5.88501 9.86888 5.59966 10.151 5.3166 10.4355C5.10251 10.6508 4.89015 10.8678 4.67697 11.084C4.65707 11.1263 4.69906 11.1371 4.71739 11.1558C4.86729 11.3087 5.02269 11.4562 5.16908 11.6122C5.22838 11.6755 5.25954 11.663 5.314 11.608C5.79084 11.1271 6.27084 10.6493 6.74865 10.1692C6.77013 10.1478 6.81467 10.1356 6.7994 10.0888Z" fill="#E2E2E2"/>
<path d="M6.79931 14.7612C6.63327 14.5917 6.46473 14.4247 6.30292 14.2512C6.24688 14.1912 6.21644 14.2051 6.16666 14.2557C5.92651 14.5004 5.68213 14.7409 5.4405 14.9841C5.18518 15.2409 4.93118 15.4989 4.67658 15.7564C4.65937 15.8025 4.70345 15.8152 4.72437 15.8367C4.87153 15.987 5.02444 16.1319 5.16813 16.2853C5.22707 16.3481 5.25807 16.3369 5.31304 16.2813C5.78999 15.8001 6.27029 15.322 6.74836 14.8417C6.76989 14.8202 6.81463 14.8082 6.79931 14.7612Z" fill="#E2E2E2"/>
<path d="M4.46336 7.75258C4.29727 7.58293 4.12863 7.41582 3.96677 7.24235C3.91078 7.18228 3.88049 7.19648 3.83071 7.24688C3.55452 7.52714 3.27456 7.80384 2.99695 8.08267C2.77746 8.30358 2.5595 8.52602 2.34073 8.74765C2.32088 8.78989 2.36303 8.80089 2.38135 8.81962C2.53125 8.97248 2.68665 9.12004 2.833 9.27605C2.89235 9.33927 2.9234 9.32675 2.97786 9.27167C3.4547 8.79076 3.9347 8.313 4.41256 7.8329C4.43394 7.81132 4.47858 7.79926 4.46336 7.75258Z" fill="#E2E2E2"/>
<path d="M11.2665 2.14227C11.2033 2.20162 11.2159 2.23257 11.2709 2.28713C11.7519 2.76392 12.2296 3.24377 12.7094 3.72168C12.7312 3.74331 12.7446 3.78551 12.7899 3.77238C12.9596 3.60654 13.1266 3.4377 13.3002 3.27609C13.3602 3.22015 13.3463 3.18966 13.2957 3.13988C13.0292 2.87743 12.7664 2.61142 12.5011 2.3476C12.2665 2.11432 12.0302 1.88237 11.7948 1.64985C11.7526 1.6303 11.7417 1.67214 11.7229 1.69057C11.5702 1.84048 11.4224 1.99572 11.2665 2.14227Z" fill="#E2E2E2"/>
<path d="M13.8079 12.4248C13.6418 12.2551 13.4733 12.0882 13.3115 11.9147C13.2555 11.8547 13.225 11.8687 13.1753 11.9193C12.9073 12.1913 12.6357 12.4596 12.3665 12.7303C12.1387 12.9595 11.9124 13.1901 11.6853 13.42C11.6656 13.4623 11.7076 13.4732 11.726 13.492C11.8759 13.6448 12.0312 13.7924 12.1777 13.9485C12.237 14.0116 12.2679 13.9992 12.3225 13.9442C12.7993 13.4631 13.2793 12.9853 13.7571 12.5053C13.7786 12.4838 13.8232 12.4716 13.8079 12.4248Z" fill="#E2E2E2"/>
<path d="M13.6025 4.4783C13.5393 4.53765 13.5519 4.5686 13.6069 4.62317C14.0878 5.09981 14.5656 5.57996 15.0455 6.05782C15.0671 6.07935 15.0805 6.12175 15.1258 6.10841C15.2955 5.94258 15.4627 5.77399 15.6361 5.61218C15.696 5.55613 15.6823 5.52585 15.6317 5.47591C15.3597 5.20812 15.0913 4.93636 14.8206 4.66715C14.5915 4.43936 14.3608 4.21311 14.1308 3.98604C14.0886 3.96639 14.0777 4.00838 14.0589 4.02676C13.9061 4.17656 13.7586 4.33201 13.6025 4.4783Z" fill="#E2E2E2"/>
<path d="M15.126 15.4535C15.2957 15.2876 15.4628 15.119 15.6363 14.9572C15.6962 14.9012 15.6824 14.8707 15.6318 14.821C15.3709 14.5642 15.1134 14.3034 14.8538 14.0451C14.6135 13.8063 14.3719 13.569 14.1309 13.3309C14.0886 13.3113 14.0777 13.3532 14.059 13.3717C13.9063 13.5216 13.7586 13.6768 13.6027 13.8234C13.5394 13.8826 13.5521 13.9137 13.6071 13.9682C14.0879 14.4449 14.5656 14.9248 15.0456 15.4029C15.0673 15.4244 15.0807 15.4667 15.126 15.4535Z" fill="#E2E2E2"/>
<path d="M15.939 6.81459C15.8759 6.87399 15.8884 6.90493 15.9435 6.95955C16.4245 7.43634 16.9023 7.91629 17.3822 8.39415C17.4038 8.41583 17.4171 8.45818 17.4627 8.44495C17.6322 8.27891 17.7992 8.11022 17.9728 7.94851C18.0329 7.89262 18.0187 7.86188 17.9681 7.81225C17.7127 7.5609 17.4609 7.30573 17.2068 7.05306C16.9611 6.80873 16.7139 6.56578 16.4674 6.32227C16.4252 6.30277 16.4144 6.34467 16.3956 6.36309C16.2427 6.51295 16.0951 6.6683 15.939 6.81459Z" fill="#E2E2E2"/>
<path d="M16.1446 14.7613C15.9786 14.5916 15.8099 14.4246 15.6481 14.251C15.592 14.191 15.5615 14.205 15.5118 14.2556C15.244 14.5277 14.9723 14.7959 14.703 15.0666C14.4752 15.2957 14.2489 15.5264 14.0219 15.7564C14.0022 15.7987 14.0442 15.8095 14.0626 15.8284C14.2125 15.9812 14.3679 16.1288 14.5143 16.2848C14.5735 16.3479 14.6045 16.3354 14.659 16.2803C15.1359 15.7994 15.6159 15.3216 16.0937 14.8415C16.1151 14.82 16.1599 14.8079 16.1446 14.7613Z" fill="#E2E2E2"/>
<path d="M18.2752 9.15082C18.2119 9.21007 18.2246 9.24112 18.2796 9.29568C18.7605 9.77247 19.2382 10.2523 19.7182 10.7303C19.7398 10.7519 19.7531 10.7942 19.7986 10.781C19.9681 10.615 20.1353 10.4464 20.3087 10.2846C20.3687 10.2286 20.355 10.1982 20.3044 10.1484C20.0378 9.88603 19.7749 9.61977 19.5098 9.35625C19.275 9.12277 19.0389 8.89102 18.8035 8.6585C18.7612 8.63875 18.7504 8.68069 18.7316 8.69912C18.5787 8.84892 18.4311 9.00427 18.2752 9.15082Z" fill="#E2E2E2"/>
<path d="M16.144 10.0883C15.9778 9.91872 15.8093 9.75171 15.6476 9.57829C15.5915 9.51828 15.5611 9.53243 15.5113 9.58282C15.2296 9.86858 14.9442 10.1507 14.6613 10.4353C14.4471 10.6505 14.2347 10.8674 14.0215 11.0836C14.0016 11.1259 14.0437 11.1367 14.0621 11.1555C14.212 11.3083 14.3673 11.4559 14.5136 11.6119C14.573 11.6751 14.6041 11.6626 14.6587 11.6076C15.1354 11.1266 15.6155 10.6488 16.0933 10.1689C16.1148 10.1472 16.1572 10.1339 16.144 10.0883Z" fill="#E2E2E2"/>
<path d="M9.13529 17.097C8.96935 16.9274 8.80067 16.7604 8.63895 16.587C8.58291 16.5267 8.55222 16.541 8.50274 16.5914C8.26234 16.8359 8.01832 17.0767 7.77659 17.3198C7.52122 17.5766 7.26722 17.8347 7.01261 18.0922C6.99546 18.1382 7.03954 18.151 7.06056 18.1725C7.20766 18.3228 7.36042 18.4676 7.50421 18.621C7.56321 18.684 7.59416 18.6726 7.64918 18.6172C8.12618 18.1359 8.60653 17.6578 9.0847 17.1776C9.10628 17.1558 9.14863 17.1426 9.13529 17.097Z" fill="#E2E2E2"/>
<path d="M15.629 17.3028C15.6939 17.2422 15.6909 17.2102 15.6287 17.1487C15.1483 16.6738 14.672 16.1946 14.1932 15.7181C14.1715 15.6964 14.1595 15.6521 14.1128 15.6662C13.943 15.8321 13.7757 16.0005 13.6023 16.1624C13.5434 16.2174 13.554 16.2481 13.6054 16.2987C13.8942 16.5832 14.1793 16.8716 14.4666 17.1574C14.6792 17.3689 14.8934 17.5786 15.1072 17.7892C15.153 17.804 15.1658 17.7607 15.1876 17.7393C15.3357 17.5947 15.4777 17.4439 15.629 17.3028Z" fill="#E2E2E2"/>
<path d="M9.34859 4.09295C9.51453 4.26275 9.68286 4.43017 9.84482 4.60354C9.89985 4.66233 9.93023 4.65189 9.98124 4.60048C10.2878 4.28963 10.5981 3.98244 10.9059 3.67296C11.0955 3.48274 11.283 3.29018 11.4715 3.09864C11.4904 3.0565 11.449 3.0456 11.4304 3.02672C11.2806 2.87397 11.1254 2.7264 10.979 2.57049C10.9198 2.50748 10.8886 2.51959 10.834 2.57477C10.3574 3.05543 9.8775 3.53288 9.40005 4.01278C9.37847 4.03436 9.33428 4.04658 9.34859 4.09295Z" fill="#E2E2E2"/>
<path d="M11.6844 6.42888C11.8504 6.59863 12.0189 6.76595 12.1807 6.93921C12.2358 6.99821 12.2661 6.98777 12.317 6.93611C12.6124 6.6362 12.912 6.34031 13.2088 6.04188C13.4093 5.84036 13.6079 5.63706 13.8074 5.43447C13.8263 5.39238 13.7849 5.38128 13.7665 5.36245C13.6165 5.20969 13.4614 5.06223 13.3148 4.90607C13.2557 4.84315 13.2244 4.85532 13.1698 4.9105C12.6933 5.39116 12.2135 5.86886 11.7359 6.34856C11.7141 6.37029 11.6722 6.38368 11.6844 6.42888Z" fill="#E2E2E2"/>
<path d="M14.0212 8.76544C14.1871 8.93509 14.3555 9.10261 14.5174 9.27603C14.5725 9.33482 14.6029 9.32433 14.6537 9.27272C14.9547 8.96741 15.2596 8.66598 15.5621 8.36204C15.7571 8.16608 15.9501 7.96817 16.144 7.77098C16.1631 7.72894 16.1215 7.71794 16.103 7.69906C15.9531 7.5463 15.798 7.39874 15.6516 7.24278C15.5925 7.17992 15.5612 7.19203 15.5065 7.24711C15.03 7.72792 14.5501 8.20537 14.0727 8.68522C14.0511 8.7068 14.0067 8.71886 14.0212 8.76544Z" fill="#E2E2E2"/>
<path d="M16.3572 11.1017C16.5231 11.2713 16.6916 11.4388 16.8534 11.6122C16.9085 11.6709 16.9388 11.6607 16.9897 11.609C17.2851 11.3091 17.5846 11.0133 17.8815 10.7147C18.0819 10.5132 18.2806 10.3098 18.4801 10.1072C18.4991 10.0652 18.4575 10.0541 18.4391 10.0354C18.2892 9.88254 18.134 9.73498 17.9875 9.57897C17.9284 9.51605 17.8972 9.52811 17.8425 9.58324C17.366 10.064 16.8862 10.5416 16.4087 11.0214C16.3871 11.0429 16.3428 11.0552 16.3572 11.1017Z" fill="#E2E2E2"/>
<path d="M11.4715 19.4334C11.3054 19.2639 11.1368 19.0968 10.9751 18.9233C10.919 18.8632 10.8885 18.8772 10.8387 18.9278C10.6096 19.1614 10.3763 19.391 10.1457 19.6231C9.87935 19.891 9.6142 20.16 9.34865 20.4284C9.33145 20.4746 9.37553 20.4873 9.39655 20.5088C9.54371 20.6591 9.69641 20.8039 9.84021 20.9573C9.89925 21.0203 9.93025 21.009 9.98522 20.9534C10.4622 20.4722 10.9425 19.9941 11.4207 19.514C11.4424 19.4922 11.4846 19.4789 11.4715 19.4334Z" fill="#E2E2E2"/>
<path d="M9.44082 6.32148C9.27107 6.48737 9.1036 6.65565 8.93018 6.81766C8.87149 6.87248 8.88173 6.90318 8.93344 6.95408C9.22785 7.24401 9.51819 7.53781 9.81103 7.82912C10.0181 8.03517 10.2269 8.23928 10.435 8.44431C10.481 8.45933 10.4938 8.41601 10.5156 8.39463C10.6636 8.24987 10.8057 8.0992 10.957 7.9581C11.0218 7.89763 11.0191 7.86552 10.9567 7.80392C10.4762 7.32907 9.99997 6.84978 9.52115 6.3733C9.49951 6.35177 9.4874 6.30728 9.44082 6.32148Z" fill="#E2E2E2"/>
<path d="M11.7769 8.65708C11.5989 8.83121 11.422 9.00652 11.2423 9.17882C11.1903 9.22906 11.2346 9.25196 11.2627 9.28021C11.4799 9.49827 11.6973 9.71644 11.9156 9.93343C12.2003 10.216 12.4858 10.4977 12.7712 10.78C12.817 10.7949 12.8298 10.7515 12.8517 10.7302C12.9997 10.5855 13.1418 10.4348 13.2932 10.2937C13.3577 10.2333 13.3552 10.2012 13.2929 10.1396C12.8124 9.66477 12.3361 9.18533 11.8574 8.70895C11.8357 8.68727 11.8235 8.64288 11.7769 8.65708Z" fill="#E2E2E2"/>
<path d="M13.2926 5.46773C12.8123 4.99292 12.3361 4.51359 11.8572 4.037C11.8356 4.01547 11.8234 3.97103 11.7768 3.98523C11.6071 4.15112 11.4397 4.31955 11.2662 4.48137C11.2075 4.53639 11.2179 4.56698 11.2696 4.61788C11.5584 4.90242 11.8433 5.19067 12.1307 5.47643C12.3432 5.68788 12.5575 5.89764 12.7711 6.10812C12.8169 6.12318 12.83 6.07982 12.8517 6.05849C12.9995 5.91372 13.1418 5.7629 13.2931 5.62196C13.358 5.56159 13.3549 5.52922 13.2926 5.46773Z" fill="#E2E2E2"/>
<path d="M15.6288 7.80381C15.1481 7.3289 14.672 6.84957 14.1933 6.37313C14.1715 6.35155 14.1594 6.30706 14.1127 6.32121C13.9429 6.48695 13.7755 6.65548 13.6023 6.8175C13.5434 6.87232 13.5539 6.90301 13.6054 6.95386C13.8942 7.23825 14.1791 7.5265 14.4665 7.81246C14.6791 8.02391 14.8934 8.23357 15.107 8.4441C15.1529 8.45906 15.1657 8.41569 15.1875 8.39431C15.3355 8.2496 15.4777 8.09899 15.629 7.95789C15.6938 7.89742 15.6909 7.8653 15.6288 7.80381Z" fill="#E2E2E2"/>
<path d="M17.9653 10.1402C17.4847 9.6653 17.0087 9.18606 16.5297 8.70932C16.5079 8.68774 16.4959 8.6433 16.4493 8.65756C16.2795 8.82344 16.112 8.99177 15.9388 9.15379C15.8803 9.20861 15.8902 9.23925 15.942 9.29026C16.2254 9.56904 16.5046 9.85195 16.7866 10.1323C17.0046 10.3492 17.2245 10.5645 17.4436 10.7805C17.4895 10.7955 17.5024 10.7521 17.5241 10.7307C17.672 10.586 17.8145 10.4354 17.9655 10.2942C18.0303 10.2338 18.0275 10.2016 17.9653 10.1402Z" fill="#E2E2E2"/>
<path d="M18.7856 10.9939C18.6158 11.1597 18.4483 11.328 18.2749 11.49C18.2162 11.5448 18.2266 11.5756 18.2782 11.6264C18.5614 11.9053 18.8408 12.1881 19.1227 12.4685C19.3409 12.6854 19.5606 12.9006 19.7797 13.1166C19.8256 13.1316 19.8384 13.0882 19.8602 13.0669C20.0082 12.9223 20.1505 12.7715 20.3016 12.6303C20.3664 12.57 20.3637 12.5379 20.3014 12.4764C19.821 12.0015 19.3446 11.5221 18.866 11.0457C18.8442 11.0241 18.832 10.9797 18.7856 10.9939Z" fill="#E2E2E2"/>
<path d="M15.1877 13.0671C15.3355 12.9223 15.478 12.7718 15.6292 12.6305C15.6938 12.5702 15.6911 12.538 15.6289 12.4765C15.1483 12.0015 14.6722 11.5223 14.1932 11.0456C14.1716 11.0241 14.1596 10.9797 14.1128 10.9938C13.9431 11.1597 13.7758 11.3281 13.6023 11.49C13.5436 11.545 13.5539 11.5758 13.6056 11.6267C13.8833 11.9 14.1572 12.1772 14.4335 12.4521C14.6573 12.6745 14.8826 12.8954 15.1072 13.1169C15.153 13.1317 15.1659 13.0885 15.1877 13.0671Z" fill="#E2E2E2"/>
<path d="M17.5241 15.4031C17.6721 15.2585 17.8144 15.1077 17.9655 14.9666C18.0304 14.9062 18.0275 14.874 17.9654 14.8126C17.4849 14.3376 17.0085 13.8584 16.5297 13.3818C16.508 13.3602 16.496 13.3158 16.4493 13.3299C16.2795 13.4957 16.1122 13.6642 15.9389 13.8262C15.8801 13.8811 15.8904 13.9119 15.9421 13.9626C16.2253 14.2415 16.5046 14.5244 16.7866 14.8047C17.0047 15.0217 17.2245 15.2368 17.4436 15.4528C17.4895 15.4679 17.5023 15.4245 17.5241 15.4031Z" fill="#E2E2E2"/>
<path d="M11.6848 15.774C11.8505 15.9438 12.019 16.1112 12.181 16.2846C12.236 16.3435 12.2665 16.3329 12.3173 16.2813C12.6017 15.9925 12.8901 15.7076 13.176 15.4202C13.3874 15.2075 13.597 14.9932 13.8075 14.7796C13.8265 14.7376 13.7851 14.7265 13.7665 14.7077C13.6167 14.5549 13.4614 14.4074 13.315 14.2515C13.2559 14.1884 13.2247 14.2005 13.1699 14.2556C12.6935 14.7364 12.2136 15.214 11.7361 15.6938C11.7145 15.7153 11.6702 15.7274 11.6848 15.774Z" fill="#E2E2E2"/>
<path d="M13.2926 14.8125C12.8122 14.3376 12.336 13.8583 11.8571 13.3816C11.8355 13.3601 11.8233 13.3157 11.7766 13.3298C11.607 13.4958 11.4396 13.6641 11.2662 13.8261C11.2075 13.881 11.2177 13.9115 11.2695 13.9625C11.5583 14.2469 11.8432 14.5353 12.1306 14.8211C12.3431 15.0325 12.5575 15.2424 12.771 15.4528C12.8169 15.4676 12.8298 15.4243 12.8515 15.403C12.9995 15.2583 13.1418 15.1076 13.293 14.9666C13.3579 14.906 13.3548 14.8738 13.2926 14.8125Z" fill="#E2E2E2"/>
<path d="M6.59827 6.95937C7.07923 7.43616 7.55704 7.9161 8.03689 8.39401C8.05862 8.41565 8.07186 8.458 8.11741 8.44481C8.28692 8.27877 8.45418 8.11029 8.62755 7.94832C8.68735 7.89259 8.67376 7.862 8.62307 7.81211C8.36194 7.55527 8.10474 7.2947 7.8452 7.03648C7.60494 6.79765 7.36316 6.56015 7.12225 6.32219C7.08 6.30254 7.06916 6.34453 7.05042 6.36286C6.89767 6.51276 6.74996 6.66801 6.59389 6.8145C6.53072 6.8738 6.54325 6.90485 6.59827 6.95937Z" fill="#E2E2E2"/>
<path d="M9.136 3.08037C8.96991 2.91071 8.80127 2.7436 8.63946 2.57008C8.58341 2.51007 8.55308 2.52412 8.50314 2.57466C8.23535 2.84673 7.96364 3.11498 7.69437 3.38567C7.46669 3.61498 7.24034 3.84561 7.01342 4.07559C6.99362 4.11778 7.03551 4.12862 7.05399 4.14741C7.20379 4.30016 7.35914 4.44777 7.50563 4.60384C7.56483 4.66701 7.59588 4.65448 7.6504 4.59936C8.12739 4.11849 8.60729 3.64064 9.08515 3.16074C9.10642 3.13906 9.15127 3.12699 9.136 3.08037Z" fill="#E2E2E2"/>
<path d="M4.67593 8.76528C4.84187 8.93509 5.0103 9.1024 5.17222 9.27582C5.22719 9.33466 5.25783 9.32418 5.30858 9.27262C5.60417 8.97296 5.90336 8.67682 6.20022 8.37833C6.40082 8.17692 6.59944 7.97362 6.79866 7.77093C6.81419 7.72507 6.77046 7.71219 6.74939 7.69051C6.60448 7.54243 6.45386 7.40027 6.31271 7.24904C6.25229 7.18424 6.22007 7.18694 6.15853 7.24929C5.68362 7.7297 5.20424 8.20583 4.72785 8.68486C4.70617 8.70654 4.66183 8.71871 4.67593 8.76528Z" fill="#E2E2E2"/>
<path d="M11.4718 5.41632C11.3086 5.24932 11.1416 5.08597 10.984 4.91403C10.9206 4.84501 10.8876 4.86053 10.8305 4.91866C10.5468 5.20788 10.2582 5.49222 9.9725 5.7795C9.76391 5.98932 9.55709 6.20081 9.34932 6.41144C9.32952 6.45364 9.37146 6.46463 9.38983 6.48331C9.53974 6.63617 9.69514 6.78373 9.84153 6.93969C9.90093 7.00306 9.93203 6.99029 9.98645 6.93526C10.4633 6.45435 10.9431 5.97654 11.4211 5.4967C11.4428 5.47501 11.485 5.46157 11.4718 5.41632Z" fill="#E2E2E2"/>
<path d="M13.808 7.75233C13.642 7.58278 13.4734 7.41572 13.3115 7.2422C13.2556 7.18229 13.2251 7.19608 13.1753 7.24673C12.8935 7.53238 12.6082 7.81463 12.3252 8.09907C12.1111 8.31433 11.8986 8.53132 11.6855 8.7475C11.6658 8.78985 11.7076 8.80069 11.7261 8.81947C11.8759 8.97222 12.0313 9.11984 12.1777 9.27595C12.237 9.33907 12.268 9.32639 12.3225 9.27142C12.7994 8.79046 13.2794 8.3127 13.7573 7.8328C13.779 7.81112 13.8213 7.79773 13.808 7.75233Z" fill="#E2E2E2"/>
<path d="M10.4538 10.7808C10.6235 10.615 10.7907 10.4463 10.9641 10.2845C11.0239 10.2286 11.0103 10.1982 10.9597 10.1484C10.6931 9.88605 10.4303 9.61988 10.1651 9.35617C9.93044 9.12273 9.69436 8.89093 9.45879 8.65841C9.41659 8.63871 9.4058 8.68066 9.38697 8.69908C9.23411 8.84888 9.08655 9.00439 8.93048 9.15068C8.86732 9.20998 8.87984 9.24103 8.93481 9.29559C9.41573 9.77223 9.89359 10.2523 10.3735 10.7302C10.3951 10.7517 10.4086 10.7941 10.4538 10.7808Z" fill="#E2E2E2"/>
<path d="M6.79996 5.41659C6.63387 5.24694 6.46523 5.07983 6.30342 4.90631C6.24748 4.8464 6.21704 4.86035 6.16716 4.91084C5.89112 5.19115 5.61111 5.4677 5.3336 5.74664C5.11411 5.96755 4.8961 6.19004 4.67743 6.41176C4.65758 6.45401 4.69962 6.4649 4.718 6.48358C4.86785 6.63649 5.0232 6.7841 5.16959 6.94006C5.22884 7.00318 5.25984 6.99071 5.31431 6.93564C5.79125 6.45482 6.27125 5.97686 6.74916 5.49692C6.77038 5.47528 6.81523 5.46322 6.79996 5.41659Z" fill="#E2E2E2"/>
<path d="M18.4804 12.4246C18.3144 12.2549 18.1458 12.088 17.984 11.9144C17.928 11.8545 17.8975 11.8685 17.8479 11.919C17.5716 12.1992 17.2917 12.4758 17.0143 12.7549C16.7947 12.9757 16.5766 13.1981 16.358 13.4199C16.3382 13.4623 16.3801 13.4729 16.3984 13.4917C16.5484 13.6446 16.7038 13.7922 16.8503 13.9482C16.9096 14.0114 16.9404 13.9988 16.995 13.9438C17.4718 13.4628 17.952 12.985 18.4298 12.505C18.4513 12.4833 18.4937 12.4701 18.4804 12.4246Z" fill="#E2E2E2"/>
<path d="M10.5156 13.0669C10.6636 12.9222 10.8058 12.7715 10.957 12.6304C11.0219 12.57 11.0189 12.5378 10.9569 12.4764C10.4762 12.0014 10.0002 11.5223 9.52126 11.0457C9.49948 11.0239 9.48736 10.9796 9.44074 10.9939C9.27103 11.1597 9.10362 11.3282 8.93015 11.49C8.87131 11.545 8.88184 11.5756 8.93341 11.6264C9.22772 11.9165 9.51816 12.2102 9.81109 12.5016C10.0181 12.7075 10.2271 12.9116 10.4351 13.1167C10.481 13.1317 10.4939 13.0883 10.5156 13.0669Z" fill="#E2E2E2"/>
<path d="M8.93493 4.62341C9.41579 5.1001 9.89365 5.5802 10.3734 6.05801C10.3952 6.07959 10.4086 6.12199 10.4539 6.10865C10.6236 5.94277 10.7906 5.77418 10.9642 5.61242C11.0239 5.55653 11.0103 5.52599 10.9596 5.47605C10.6794 5.20002 10.4029 4.92011 10.1238 4.64255C9.90297 4.42296 9.68043 4.2049 9.4587 3.98623C9.41651 3.96673 9.40556 4.00842 9.38678 4.0268C9.23408 4.17685 9.08646 4.3322 8.9304 4.47849C8.86718 4.53784 8.8798 4.56879 8.93493 4.62341Z" fill="#E2E2E2"/>
<path d="M12.79 13.1172C12.9596 12.9512 13.1266 12.7826 13.3001 12.6208C13.3602 12.565 13.3462 12.5344 13.2956 12.4845C13.0236 12.2167 12.7553 11.9451 12.4846 11.6758C12.2553 11.448 12.0249 11.2218 11.7947 10.9946C11.7525 10.9751 11.7418 11.017 11.723 11.0354C11.5701 11.1853 11.4225 11.3406 11.2664 11.4869C11.2033 11.5463 11.2159 11.5773 11.2709 11.6318C11.7518 12.1087 12.2296 12.5886 12.7094 13.0664C12.7311 13.088 12.7446 13.1304 12.79 13.1172Z" fill="#E2E2E2"/>
<path d="M14.1308 8.65847C14.0887 8.63907 14.0777 8.68081 14.0589 8.69919C13.9061 8.84914 13.7585 9.00449 13.6025 9.15088C13.5393 9.21029 13.5519 9.24118 13.607 9.2957C14.0879 9.77254 14.5656 10.2524 15.0455 10.7304C15.0672 10.7519 15.0805 10.7944 15.1259 10.7809C15.2956 10.6151 15.4628 10.4465 15.6362 10.2847C15.6961 10.2287 15.6823 10.1981 15.6317 10.1485C15.3596 9.8806 15.0912 9.60884 14.8205 9.33957C14.5914 9.11179 14.3607 8.88543 14.1308 8.65847Z" fill="#E2E2E2"/>
<path d="M11.472 10.0886C11.306 9.91896 11.1374 9.7519 10.9755 9.57843C10.9195 9.51837 10.889 9.53236 10.8393 9.58291C10.5769 9.84938 10.3108 10.1122 10.047 10.3775C9.81362 10.612 9.58182 10.8481 9.34941 11.0838C9.32971 11.1261 9.3715 11.1368 9.38997 11.1556C9.53988 11.3085 9.69528 11.456 9.84162 11.612C9.90092 11.6753 9.93182 11.6627 9.98643 11.6077C10.4632 11.1266 10.9434 10.6489 11.4213 10.169C11.4428 10.1472 11.4852 10.134 11.472 10.0886Z" fill="#E2E2E2"/>
<path d="M16.3951 11.0355C16.2421 11.1852 16.0946 11.3406 15.9385 11.4871C15.8754 11.5462 15.8879 11.5772 15.9429 11.6318C16.4238 12.1086 16.9016 12.5885 17.3815 13.0665C17.4032 13.0879 17.4164 13.1304 17.4618 13.117C17.6315 12.9512 17.7987 12.7826 17.9721 12.6208C18.0323 12.5649 18.0182 12.5343 17.9678 12.4846C17.7066 12.2278 17.4495 11.9672 17.1896 11.7087C16.9495 11.4701 16.7077 11.2326 16.4669 10.9947C16.4245 10.975 16.4137 11.017 16.3951 11.0355Z" fill="#E2E2E2"/>
<path d="M8.17907 10.7307C8.32694 10.5859 8.46916 10.4352 8.62049 10.2942C8.68528 10.2337 8.68248 10.2017 8.62013 10.14C8.13973 9.66513 7.66339 9.18595 7.18462 8.70941C7.16288 8.68778 7.15077 8.64329 7.10419 8.65749C6.93439 8.82343 6.76697 8.99166 6.5937 9.15373C6.53481 9.20855 6.54525 9.23924 6.59686 9.29004C6.88023 9.56903 7.15957 9.85184 7.44141 10.1321C7.65963 10.3492 7.87947 10.5645 8.09855 10.7805C8.14446 10.7955 8.15724 10.752 8.17907 10.7307Z" fill="#E2E2E2"/>
<path d="M7.01254 6.42923C7.17843 6.59888 7.34686 6.7664 7.50868 6.93971C7.56355 6.99845 7.59424 6.98812 7.64504 6.93651C7.94607 6.6312 8.25097 6.32977 8.55332 6.02578C8.74832 5.82976 8.94149 5.63191 9.13533 5.43482C9.15441 5.39273 9.11288 5.38173 9.0943 5.36285C8.9445 5.21009 8.7893 5.06253 8.64281 4.90667C8.58366 4.84366 8.55256 4.85582 8.49789 4.9109C8.02135 5.39171 7.54141 5.86921 7.06401 6.34906C7.04242 6.37064 6.99814 6.38275 7.01254 6.42923Z" fill="#E2E2E2"/>
<path d="M9.34862 8.7653C9.51451 8.93516 9.68304 9.10257 9.84496 9.27599C9.89988 9.33489 9.93032 9.3242 9.98112 9.27279C10.2767 8.97298 10.5761 8.67704 10.8729 8.37856C11.0733 8.17694 11.272 7.97359 11.4715 7.771C11.4906 7.72891 11.4491 7.71791 11.4305 7.69903C11.2807 7.54627 11.1254 7.39876 10.979 7.2428C10.9199 7.17978 10.8886 7.19195 10.8339 7.24702C10.3574 7.72784 9.87764 8.20534 9.40003 8.68519C9.3785 8.70672 9.33411 8.71873 9.34862 8.7653Z" fill="#E2E2E2"/>
<path d="M11.6852 11.1015L11.6853 11.1016C11.8512 11.2713 12.0195 11.4387 12.1815 11.6121C12.2365 11.6709 12.267 11.6603 12.3178 11.6088C12.6188 11.3035 12.9237 11.002 13.2261 10.6982C13.4212 10.5021 13.6141 10.3043 13.8081 10.1072C13.8232 10.0612 13.7799 10.0485 13.7585 10.0268C13.6139 9.87878 13.4631 9.73636 13.3218 9.58513C13.2615 9.52039 13.2293 9.52324 13.1677 9.58544C12.6928 10.066 12.2135 10.5421 11.7369 11.0211C11.7153 11.0427 11.6709 11.0548 11.6852 11.1015Z" fill="#E2E2E2"/>
<path d="M14.0212 13.4378C14.187 13.6075 14.3556 13.7749 14.5174 13.9482C14.5724 14.0072 14.6028 13.9966 14.6537 13.9451C14.9547 13.6398 15.2596 13.3383 15.562 13.0344C15.757 12.8383 15.95 12.6404 16.144 12.4434C16.1631 12.4012 16.1214 12.3902 16.103 12.3714C15.9532 12.2186 15.798 12.071 15.6515 11.9152C15.5924 11.8522 15.5611 11.8642 15.5064 11.9194C15.0299 12.4002 14.5501 12.8777 14.0725 13.3576C14.051 13.3791 14.0068 13.3913 14.0212 13.4378Z" fill="#E2E2E2"/>
<path d="M11.7971 4.05719C11.9699 4.23214 12.145 4.40485 12.3163 4.58112C12.365 4.63131 12.388 4.59512 12.4181 4.56483C12.8319 4.15075 13.2453 3.73596 13.6612 3.32391C13.709 3.27652 13.707 3.24965 13.66 3.20419C13.5002 3.04966 13.3449 2.89018 13.1865 2.73397C13.1701 2.71778 13.1592 2.68128 13.1225 2.70185C13.025 2.79612 12.9262 2.88922 12.8305 2.98537C12.4853 3.332 12.1414 3.67976 11.7971 4.02731C11.7968 4.03739 11.792 4.0521 11.7971 4.05719Z" fill="#E2E2E2"/>
<path d="M14.1334 6.39344C14.3061 6.56829 14.4812 6.74094 14.6524 6.91727C14.7012 6.96761 14.7242 6.93116 14.7542 6.90098C15.1682 6.487 15.5813 6.07221 15.9972 5.66006C16.0449 5.61272 16.0431 5.58584 15.9961 5.54039C15.8363 5.38585 15.681 5.22653 15.5227 5.07032C15.5062 5.05403 15.4953 5.01763 15.4586 5.03789C15.3667 5.12692 15.2732 5.21427 15.183 5.30507C14.8325 5.65726 14.483 6.01061 14.1331 6.36341C14.1329 6.37359 14.1283 6.3883 14.1334 6.39344Z" fill="#E2E2E2"/>
<path d="M16.4695 8.72971C16.6423 8.90465 16.8172 9.07726 16.9886 9.25368C17.0373 9.30387 17.0603 9.26743 17.0904 9.23734C17.5044 8.82321 17.9175 8.40842 18.3333 7.99627C18.3813 7.94888 18.3792 7.92226 18.3323 7.87676C18.1723 7.72217 18.017 7.5627 17.8587 7.40643C17.8423 7.39024 17.8313 7.35385 17.7947 7.37416C17.6588 7.50716 17.5214 7.63849 17.3873 7.77302C17.0806 8.08117 16.7752 8.39076 16.4692 8.69962C16.469 8.70985 16.4644 8.72457 16.4695 8.72971Z" fill="#E2E2E2"/>
<path d="M18.8053 11.0359C18.8051 11.0461 18.8005 11.0607 18.8056 11.0658C18.9783 11.2408 19.1534 11.4135 19.3246 11.5897C19.3734 11.64 19.3964 11.6036 19.4265 11.5735C19.8404 11.1594 20.2536 10.7447 20.6693 10.3325C20.7171 10.2851 20.7154 10.2585 20.6685 10.213C20.5084 10.0583 20.3533 9.89905 20.1948 9.74274C20.1784 9.72655 20.1676 9.69016 20.1308 9.71041C20.0416 9.79659 19.9509 9.88124 19.8633 9.9692C19.5101 10.3242 19.1579 10.6803 18.8054 11.0359L18.8053 11.0359Z" fill="#E2E2E2"/>
<path d="M6.7285 4.66961C6.82038 4.76444 6.91042 4.8607 7.00398 4.95364C7.35347 5.3015 7.70407 5.64824 8.05437 5.99549C8.06466 5.99538 8.07932 5.99986 8.08466 5.99472C8.2594 5.82201 8.43216 5.64702 8.60828 5.47579C8.65852 5.42697 8.62187 5.40396 8.59184 5.37393C8.17791 4.96 7.76332 4.54694 7.35123 4.13118C7.30373 4.08318 7.27722 4.08466 7.23146 4.13205C7.07697 4.29203 6.9176 4.44712 6.76138 4.60558C6.74499 4.62197 6.70921 4.63312 6.7285 4.66961Z" fill="#E2E2E2"/>
<path d="M9.06476 2.33342C9.20855 2.48038 9.35093 2.62875 9.4966 2.77402C9.79371 3.07001 10.0924 3.36422 10.3905 3.6592C10.4008 3.6593 10.4155 3.66373 10.4207 3.65853C10.5954 3.48567 10.7682 3.31083 10.9444 3.13949C10.9945 3.09068 10.9578 3.06752 10.9278 3.03759C10.5138 2.62376 10.0993 2.2106 9.68733 1.79514C9.63999 1.7474 9.61317 1.74877 9.56766 1.79591C9.41308 1.95579 9.2537 2.11109 9.09739 2.26924C9.08115 2.28588 9.04531 2.29688 9.06476 2.33342Z" fill="#E2E2E2"/>
<path d="M4.39203 7.00597C4.49184 7.10894 4.59034 7.21344 4.69204 7.31473C5.03328 7.65435 5.37579 7.99289 5.7178 8.33174C5.72813 8.33179 5.74284 8.33622 5.74798 8.33108C5.92268 8.15822 6.09548 7.98337 6.2717 7.81204C6.32194 7.76322 6.28524 7.74027 6.25511 7.71013C5.84118 7.29621 5.42664 6.8833 5.01475 6.46753C4.96716 6.41964 4.94064 6.42091 4.89493 6.46845C4.74045 6.62843 4.58097 6.78363 4.42471 6.94173C4.40842 6.95843 4.37258 6.96942 4.39203 7.00597Z" fill="#E2E2E2"/>
<path d="M2.05609 9.34209C2.1669 9.45606 2.27639 9.57156 2.38898 9.68374C2.71923 10.0126 3.05075 10.3399 3.38186 10.6679C3.39214 10.668 3.4069 10.6723 3.41204 10.6672C3.58689 10.4944 3.75955 10.3195 3.93572 10.1482C3.9859 10.0995 3.94926 10.0762 3.91922 10.0462C3.50519 9.63238 3.0906 9.21932 2.67871 8.80376C2.63112 8.75566 2.6046 8.75714 2.55899 8.80458C2.40456 8.96451 2.24508 9.11971 2.08877 9.27786C2.07253 9.2945 2.03664 9.30555 2.05609 9.34209Z" fill="#E2E2E2"/>
<path d="M7.65024 2.92343C7.70644 2.97678 7.74252 3.05532 7.82778 3.07451C8.00884 2.89651 8.1903 2.71891 8.37141 2.54106C8.38698 2.5259 8.39253 2.50976 8.37406 2.4924C8.33725 2.45285 8.29852 2.41442 8.26396 2.37284C8.22878 2.33043 8.20298 2.32937 8.16236 2.37121C8.00278 2.53567 7.83888 2.69611 7.67742 2.85879C7.66032 2.8761 7.62225 2.89686 7.65024 2.92343Z" fill="#E2E2E2"/>
<path d="M12.383 1.46722C12.518 1.60608 12.6522 1.7459 12.7885 1.88374C12.9561 2.05345 12.9569 2.05263 13.114 1.86461C13.1163 1.85763 13.1227 1.84654 13.1204 1.84419C12.9415 1.66253 12.7618 1.48137 12.5823 1.30032C12.5636 1.28153 12.5423 1.27293 12.5238 1.29691C12.4786 1.35519 12.4002 1.38593 12.383 1.46722Z" fill="#E2E2E2"/>
<path d="M14.7191 3.80354C14.8539 3.9423 14.9882 4.08207 15.1244 4.21991C15.2924 4.38977 15.2931 4.389 15.4501 4.20087C15.4524 4.19385 15.4588 4.1828 15.4565 4.18046C15.2775 3.99864 15.098 3.81759 14.9183 3.63648C14.8998 3.6179 14.8782 3.60915 14.8597 3.63317C14.8145 3.6914 14.7363 3.7222 14.7191 3.80354Z" fill="#E2E2E2"/>
<path d="M17.055 6.13956C17.19 6.27842 17.3242 6.41829 17.4604 6.55608C17.6283 6.72584 17.629 6.72507 17.786 6.53694C17.7883 6.52992 17.7948 6.51882 17.7924 6.51648C17.6135 6.33476 17.4339 6.15381 17.2543 5.9726C17.2359 5.95402 17.2142 5.94532 17.1958 5.96929C17.1506 6.02747 17.0722 6.05842 17.055 6.13956Z" fill="#E2E2E2"/>
<path d="M19.3916 8.4759C19.5267 8.61486 19.6607 8.75448 19.7969 8.89232C19.9649 9.06213 19.9656 9.06141 20.1226 8.87328C20.1249 8.86631 20.1314 8.85516 20.129 8.85282C19.95 8.671 19.7705 8.49 19.5909 8.30894C19.5725 8.29036 19.5508 8.28166 19.5322 8.30558C19.4871 8.36386 19.4087 8.39466 19.3916 8.4759Z" fill="#E2E2E2"/>
<path d="M3.53228 7.00911C3.35051 7.18823 3.16915 7.36797 2.98804 7.54785C2.9741 7.56159 2.95898 7.58058 2.97827 7.59692C3.03727 7.64685 3.07101 7.72733 3.15597 7.74642C3.29457 7.61148 3.43404 7.4773 3.57147 7.34109C3.74052 7.17408 3.7397 7.17327 3.55264 7.01583C3.54572 7.01339 3.53457 7.00682 3.53228 7.00911Z" fill="#E2E2E2"/>
<path d="M9.98651 0.588267C10.0455 0.638252 10.0791 0.718625 10.1641 0.737713C10.3028 0.602672 10.4422 0.468548 10.5797 0.332438C10.7485 0.165482 10.7478 0.16477 10.5608 0.00728145C10.5539 0.0048382 10.5428 -0.00177895 10.5405 0.0004607C10.3586 0.179531 10.1772 0.359263 9.99629 0.539199C9.98239 0.552891 9.96717 0.571775 9.98651 0.588267Z" fill="#E2E2E2"/>
<path d="M9.83718 19.143C9.65836 18.9614 9.47858 18.7802 9.2991 18.5991C9.28042 18.5803 9.25894 18.5719 9.24047 18.5958C9.19527 18.6547 9.11596 18.6851 9.0981 18.7665C9.2196 18.9193 9.36762 19.0459 9.50322 19.1848C9.67002 19.3557 9.6716 19.3542 9.83102 19.1636C9.83331 19.1566 9.83973 19.1455 9.83718 19.143Z" fill="#E2E2E2"/>
<path d="M5.16514 14.4706C4.98628 14.2889 4.8067 14.1079 4.62707 13.9268C4.60844 13.9079 4.58685 13.8996 4.56843 13.9235C4.52307 13.9821 4.44413 14.0128 4.42601 14.094C4.54735 14.2467 4.69553 14.3734 4.83087 14.5121C4.99793 14.683 4.99951 14.6815 5.15878 14.491C5.16112 14.484 5.16748 14.473 5.16514 14.4706Z" fill="#E2E2E2"/>
<path d="M7.50109 16.8066C7.32222 16.6249 7.14254 16.4438 6.96311 16.2629C6.94438 16.2439 6.9229 16.2357 6.90437 16.2595C6.85907 16.3182 6.78012 16.3489 6.762 16.4302C6.88299 16.5828 7.03157 16.7093 7.16702 16.8483C7.33393 17.0194 7.33556 17.0178 7.49483 16.8272C7.49717 16.8201 7.50353 16.8091 7.50109 16.8066Z" fill="#E2E2E2"/>
<path d="M20.284 10.8892C20.3428 10.9342 20.3735 11.0134 20.4551 11.0312C20.6068 10.9092 20.7338 10.7617 20.8723 10.6262C21.0427 10.4599 21.0412 10.4585 20.8513 10.2987C20.8444 10.2962 20.8334 10.2897 20.8311 10.292C20.6489 10.4709 20.4679 10.6509 20.2865 10.8305C20.2673 10.8495 20.26 10.8706 20.284 10.8892Z" fill="#E2E2E2"/>
<path d="M4.26087 11.6264C4.54968 11.9107 4.83447 12.1991 5.12196 12.485C5.33442 12.6964 5.54882 12.9061 5.7623 13.1165C5.80821 13.1315 5.82114 13.0882 5.84288 13.0669C5.99074 12.9221 6.13317 12.7715 6.28434 12.6303C6.34909 12.5699 6.34629 12.5376 6.28409 12.4762C5.80343 12.0012 5.3274 11.5221 4.84857 11.0456C4.82684 11.024 4.81483 10.9796 4.7681 10.9938C4.59829 11.1595 4.43088 11.3279 4.25766 11.4899C4.19902 11.5447 4.20905 11.5754 4.26087 11.6264Z" fill="#E2E2E2"/>
<path d="M6.59677 13.9625C6.88558 14.2468 7.17052 14.5352 7.45786 14.821C7.67053 15.0325 7.88477 15.2421 8.0983 15.4527C8.14426 15.4676 8.15704 15.4243 8.17882 15.4029C8.32685 15.2582 8.46906 15.1076 8.62039 14.9664C8.68509 14.906 8.68229 14.8738 8.62014 14.8124C8.13943 14.3374 7.66335 13.8581 7.18462 13.3817C7.16289 13.3601 7.15077 13.3156 7.10405 13.3298C6.93419 13.4955 6.76693 13.664 6.59366 13.8261C6.53477 13.8809 6.5452 13.9116 6.59677 13.9625Z" fill="#E2E2E2"/>
<path d="M8.93347 16.2988C9.22768 16.5887 9.51817 16.8826 9.81105 17.1738C10.0181 17.3799 10.2269 17.5841 10.435 17.789C10.4808 17.8039 10.4937 17.7606 10.5155 17.7393C10.6634 17.5946 10.8058 17.4439 10.957 17.3028C11.0218 17.2424 11.0189 17.2102 10.9566 17.1487C10.4762 16.6738 9.99995 16.1946 9.52107 15.7179C9.49949 15.6965 9.48742 15.652 9.4407 15.6662C9.27104 15.8321 9.10353 16.0005 8.93021 16.1624C8.87142 16.2173 8.88175 16.2479 8.93347 16.2988Z" fill="#E2E2E2"/>
<path d="M3.95099 12.4847C3.68997 12.2279 3.43271 11.9672 3.17297 11.709C2.93276 11.4701 2.69124 11.2327 2.45022 10.9947C2.40802 10.9752 2.39703 11.0169 2.3783 11.0355C2.22554 11.1854 2.07793 11.3407 1.92182 11.4871C1.8587 11.5463 1.87132 11.5775 1.9264 11.6319C2.40721 12.1087 2.88502 12.5888 3.36486 13.0665C3.38655 13.0882 3.39993 13.1306 3.44529 13.1172C3.61504 12.9513 3.782 12.7827 3.95562 12.6209C4.01548 12.5649 4.00169 12.5345 3.95099 12.4847Z" fill="#E2E2E2"/>
<path d="M11.7948 6.32239C11.7525 6.30279 11.7417 6.34474 11.7229 6.36311C11.57 6.51291 11.4225 6.66821 11.2664 6.81476C11.2032 6.8739 11.2158 6.90501 11.2709 6.95952C11.7517 7.43626 12.2296 7.91631 12.7093 8.39412C12.731 8.4158 12.7445 8.4581 12.7899 8.44487C12.9595 8.27893 13.1265 8.11029 13.3001 7.94853C13.36 7.89264 13.3463 7.8622 13.2958 7.81237C13.0345 7.55547 12.7773 7.29486 12.5175 7.03648C12.2775 6.79786 12.0357 6.56035 11.7948 6.32239Z" fill="#E2E2E2"/>
<path d="M6.28713 14.8209C6.01496 14.5529 5.74672 14.2812 5.47607 14.012C5.24682 13.7842 5.01623 13.5579 4.78611 13.3309C4.74386 13.3113 4.73312 13.3532 4.71434 13.3716C4.56153 13.5215 4.41402 13.677 4.25796 13.8233C4.19469 13.8824 4.20731 13.9136 4.26239 13.9681C4.7432 14.4448 5.22096 14.9248 5.70096 15.4028C5.72259 15.4243 5.73598 15.4667 5.78133 15.4533C5.95103 15.2875 6.11814 15.1189 6.29161 14.9571C6.35152 14.901 6.33758 14.8706 6.28713 14.8209Z" fill="#E2E2E2"/>
<path d="M8.62309 17.1571C8.35662 16.8948 8.09382 16.6286 7.82847 16.3648C7.59387 16.1315 7.35779 15.8997 7.12222 15.667C7.08002 15.6475 7.06923 15.6894 7.0503 15.7078C6.89764 15.8578 6.75003 16.0131 6.59392 16.1595C6.5308 16.2187 6.54342 16.2499 6.5985 16.3043C7.07931 16.7811 7.55702 17.2611 8.03691 17.739C8.05865 17.7606 8.07193 17.8029 8.11739 17.7896C8.28709 17.6238 8.4541 17.4552 8.62762 17.2934C8.68758 17.2373 8.67369 17.2069 8.62309 17.1571Z" fill="#E2E2E2"/>
<path d="M10.9598 19.4934C10.6876 19.2254 10.4192 18.9538 10.1486 18.6844C9.91933 18.4566 9.68875 18.2303 9.45873 18.0034C9.41648 17.9838 9.40564 18.0256 9.38696 18.044C9.23405 18.1939 9.08644 18.3492 8.93058 18.4957C8.86731 18.5549 8.87993 18.5861 8.93501 18.6406C9.41582 19.1173 9.89347 19.5972 10.3735 20.0752C10.3951 20.0967 10.4084 20.1389 10.4539 20.1258C10.6234 19.9598 10.7908 19.7914 10.9642 19.6296C11.0241 19.5736 11.0103 19.5432 10.9598 19.4934Z" fill="#E2E2E2"/>
<path d="M7.72747 8.02495C7.48859 8.26505 7.25123 8.50668 7.01327 8.7477C6.99337 8.79 7.03552 8.80079 7.05384 8.81952C7.20385 8.97248 7.3592 9.12009 7.50559 9.27605C7.56468 9.33912 7.59573 9.3268 7.6504 9.27172C8.12714 8.79071 8.60719 8.3129 9.085 7.83285C9.10648 7.81137 9.15117 7.79926 9.13575 7.75238C8.96986 7.58293 8.80133 7.41592 8.63936 7.24235C8.58332 7.18233 8.55303 7.19633 8.50325 7.24693C8.24645 7.508 7.98569 7.7651 7.72747 8.02495Z" fill="#E2E2E2"/>
<path d="M7.50882 11.6122C7.5638 11.671 7.59424 11.6607 7.64524 11.6091C7.94067 11.3094 8.23992 11.0132 8.53677 10.7147C8.73727 10.5132 8.93594 10.3099 9.13542 10.1073C9.15441 10.0651 9.11287 10.0541 9.09445 10.0353C8.94459 9.88259 8.78934 9.73508 8.64295 9.57912C8.58375 9.51595 8.5526 9.52817 8.49793 9.58324C8.0214 10.0641 7.54155 10.5417 7.06405 11.0214C7.04247 11.043 6.99818 11.0551 7.01259 11.1016C7.17853 11.2714 7.34686 11.4388 7.50882 11.6122Z" fill="#E2E2E2"/>
<path d="M9.84474 13.9481C9.89992 14.0072 9.93046 13.9964 9.9811 13.9449C10.2767 13.645 10.5761 13.3493 10.8729 13.0508C11.0733 12.8492 11.2719 12.6457 11.4715 12.4433C11.4904 12.401 11.4488 12.39 11.4305 12.3713C11.2806 12.2185 11.1253 12.071 10.9789 11.9151C10.9196 11.8519 10.8885 11.8644 10.8339 11.9194C10.3573 12.4 9.87757 12.8777 9.39976 13.3573C9.37803 13.3791 9.33608 13.3923 9.34861 13.4376C9.51444 13.6073 9.68287 13.7748 9.84474 13.9481Z" fill="#E2E2E2"/>
<path d="M9.46061 1.69107C9.46036 1.7013 9.45583 1.71601 9.46076 1.72105C9.63347 1.89589 9.80862 2.0687 9.97996 2.24513C10.0287 2.29531 10.0516 2.25882 10.0817 2.22874C10.4956 1.81476 10.9088 1.39996 11.3246 0.987816C11.3724 0.940427 11.3707 0.913602 11.3237 0.868147C11.1637 0.713611 11.0084 0.554138 10.8501 0.397871C10.8337 0.381736 10.8227 0.34524 10.7861 0.3656C10.7216 0.427038 10.6557 0.48705 10.5929 0.55027C10.215 0.930145 9.83789 1.31073 9.46061 1.69107Z" fill="#E2E2E2"/>
<path d="M16.1787 14.9707C16.1717 14.9683 16.1607 14.9618 16.1585 14.9641C15.9765 15.1432 15.7953 15.323 15.6139 15.5027C15.5946 15.5216 15.5873 15.5428 15.6114 15.5613C15.6702 15.6063 15.7009 15.6856 15.7823 15.7033C15.9342 15.5815 16.0611 15.4338 16.1999 15.2983C16.37 15.1323 16.3685 15.1308 16.1787 14.9707Z" fill="#E2E2E2"/>
<path d="M18.5153 12.6348C18.5084 12.6324 18.4974 12.6259 18.4951 12.6282C18.3129 12.8071 18.1319 12.9871 17.9505 13.1667C17.9313 13.1857 17.9239 13.2067 17.9479 13.2252C18.0069 13.2703 18.0375 13.3496 18.1192 13.3673C18.2707 13.2455 18.3978 13.0979 18.5363 12.9624C18.7066 12.7962 18.7051 12.7948 18.5153 12.6348Z" fill="#E2E2E2"/>
<path d="M11.5274 19.9708C11.6973 19.8049 11.6958 19.8034 11.5062 19.6432C11.4992 19.6408 11.4883 19.6342 11.486 19.6365C11.304 19.8157 11.1227 19.9955 10.9413 20.1753C10.9221 20.1941 10.9147 20.2153 10.9389 20.2337C10.9979 20.2787 11.0282 20.3581 11.11 20.3759C11.2616 20.2538 11.3887 20.1062 11.5274 19.9708Z" fill="#E2E2E2"/>
<path d="M13.8427 17.3073C13.8358 17.3049 13.8248 17.2983 13.8224 17.3007C13.6403 17.4795 13.4592 17.6596 13.2778 17.8392C13.2587 17.8581 13.2514 17.8793 13.2755 17.8977C13.3343 17.9427 13.365 18.0219 13.4465 18.0398C13.5983 17.9178 13.7253 17.7702 13.8639 17.6347C14.034 17.4686 14.0326 17.4672 13.8427 17.3073Z" fill="#E2E2E2"/>
<path d="M2.82265 12.1549C2.82494 12.1479 2.8315 12.1369 2.82906 12.1344C2.65019 11.9527 2.47051 11.7716 2.29099 11.5905C2.2723 11.5718 2.25082 11.5633 2.23225 11.5872C2.18704 11.646 2.10805 11.6766 2.09003 11.7579C2.21122 11.9106 2.35945 12.0372 2.4949 12.176C2.66185 12.3472 2.66348 12.3456 2.82265 12.1549Z" fill="#E2E2E2"/>
<path d="M5.88879 4.67953C5.88176 4.67698 5.87077 4.67047 5.86848 4.67276C5.68666 4.85193 5.50535 5.03161 5.32419 5.21155C5.31024 5.22529 5.29513 5.24428 5.31452 5.26072C5.37346 5.3105 5.40706 5.39113 5.49211 5.41011C5.63072 5.27517 5.77024 5.14095 5.90762 5.00479C6.07646 4.83798 6.07564 4.83717 5.88879 4.67953Z" fill="#E2E2E2"/>
<path d="M1.2161 9.35203C1.20917 9.34959 1.19808 9.34297 1.19584 9.34521C1.01387 9.52433 0.832555 9.70401 0.6515 9.88405C0.637553 9.89779 0.622435 9.91678 0.641829 9.93301C0.700874 9.9829 0.734265 10.0635 0.819372 10.0825C0.958027 9.94747 1.0975 9.81329 1.23508 9.67713C1.40387 9.51018 1.40316 9.50947 1.2161 9.35203Z" fill="#E2E2E2"/>
</svg>
