<svg width="56" height="58" viewBox="0 0 56 58" fill="none" xmlns="http://www.w3.org/2000/svg">
<path d="M19.0947 57.4897C19.0947 57.2868 19.0947 57.1271 19.0947 56.9674C19.0947 48.0653 19.1122 39.1633 19.0787 30.2613C19.0726 28.6411 19.5838 27.2718 20.6082 26.0772C22.4732 23.9024 24.8357 22.6009 27.6732 22.1725C27.6997 22.1685 27.7266 22.1666 27.7531 22.1638C28.3591 22.1 28.3762 22.0953 28.5414 22.6872C29.2382 25.1825 30.3065 27.4946 31.8761 29.5668C32.3131 30.1437 32.5839 30.1687 33.0886 29.6384C34.2405 28.4284 35.391 27.2172 36.5404 26.0048C36.6318 25.9086 36.7102 25.8001 36.865 25.6116V57.4807H27.1749C27.1749 57.2812 27.1749 57.0983 27.1749 56.9152C27.1749 48.7349 27.1758 40.5547 27.1733 32.3744C27.1731 31.6044 27.2725 31.7128 26.4826 31.7045C26.3525 31.7031 26.2223 31.7167 26.0405 31.726V57.4897H19.0947Z" fill="#BC4155"/>
<path d="M48.01 31.7996C47.9344 31.7425 47.9246 31.7288 47.9131 31.7273C46.8638 31.5852 46.8638 31.5853 46.8638 32.6158C46.8638 40.7303 46.8638 48.8447 46.8638 56.9593V57.4868H38.06V26.1849C38.1803 26.3015 38.28 26.3913 38.3723 26.4883C39.3859 27.5533 40.3969 28.6208 41.412 29.6846C41.8505 30.1443 42.0906 30.1232 42.5376 29.6568C44.4248 27.6881 45.4711 25.3201 45.8953 22.6515C45.9204 22.4943 45.9631 22.34 46.0163 22.0984C46.5385 22.1693 47.0698 22.1991 47.5802 22.3179C50.4081 22.9765 52.7319 24.4169 54.3984 26.8292C55.0595 27.7863 55.3691 28.849 55.3669 30.0328C55.3507 39.0027 55.358 47.9728 55.358 56.9428V57.4816H48.01V31.7996ZM40.5773 33.3896C39.942 33.3991 39.4051 33.9534 39.4206 34.5843C39.4363 35.2302 39.9724 35.7387 40.622 35.7241C41.2559 35.7098 41.7513 35.1979 41.7498 34.5591C41.7486 33.9144 41.2129 33.3802 40.5773 33.3896ZM41.7503 41.4985C41.742 40.847 41.2151 40.335 40.5658 40.347C39.9393 40.3585 39.4247 40.8795 39.421 41.5058C39.4174 42.1415 39.9582 42.6847 40.5935 42.6831C41.2333 42.6816 41.7584 42.1438 41.7503 41.4985ZM41.7506 48.4591C41.7486 47.8053 41.2313 47.295 40.5771 47.3016C39.9469 47.308 39.4301 47.8189 39.4208 48.4448C39.4115 49.0814 39.9442 49.6254 40.583 49.6315C41.2235 49.6375 41.7525 49.1063 41.7506 48.4591Z" fill="#BC4155"/>
<path d="M20.4274 15.1143C20.3971 15.0523 20.3241 15.0231 20.2588 15.0452C19.0381 15.4571 17.8708 15.8845 16.6797 16.2303C16.047 16.4141 15.3716 16.4727 14.7106 16.5243C14.5195 16.5391 14.2221 16.379 14.138 16.2149C14.0653 16.0729 14.1662 15.7575 14.2957 15.6135C14.6056 15.2689 14.9447 14.9291 15.3312 14.679C16.2274 14.0994 17.1582 13.5735 18.0759 13.0275C18.1574 12.979 18.2413 12.9347 18.3527 12.8755C18.4442 12.827 18.4521 12.6978 18.3664 12.6396C14.2678 9.85426 10.0216 9.48215 5.51548 11.4146C5.4487 11.4433 5.37088 11.4159 5.3381 11.351C5.2388 11.1537 5.0931 10.8549 5.01319 10.6832C4.98189 10.616 5.00914 10.5354 5.0753 10.5016C6.10123 9.97686 7.17148 9.61444 8.28923 9.41909C12.3571 8.70803 16.0654 9.51477 19.3456 12.0909C19.4485 12.1717 19.673 12.2009 19.7897 12.1458C29.6338 7.50065 39.8472 3.7797 50.0536 0.040859C50.1256 0.0144066 50.2004 -0.00501838 50.287 0.00114975C40.8347 5.12947 31.3591 10.2085 21.5087 14.5075C21.4447 14.5354 21.4115 14.6067 21.4317 14.6733C21.5676 15.1203 21.7242 15.5481 21.8079 15.9898C22.09 17.4776 21.7019 18.8358 20.7322 19.9522C19.9941 20.802 19.1257 21.5534 18.2434 22.2589C17.2747 23.0335 16.197 23.6705 15.214 24.4286C12.8123 26.2811 10.9762 28.5995 9.67642 31.341C9.61934 31.4616 9.56582 31.584 9.51341 31.7068C9.50371 31.7295 9.5069 31.7578 9.50027 31.8191C9.69139 31.8834 9.88963 31.9492 10.0873 32.0164C13.4594 33.163 15.5256 36.4705 15.1535 40.1263C14.8105 43.4939 11.9907 46.3316 8.56787 46.7534C4.51127 47.2532 0.735021 44.4625 0.101023 40.4963C-0.564153 36.3349 2.12098 32.4757 6.22619 31.7304C6.81244 31.624 7.42226 31.6324 8.02176 31.6216C8.25253 31.6175 8.37356 31.5719 8.47348 31.3463C10.0453 27.7951 12.4816 24.9736 15.669 22.7677C16.8861 21.9254 18.0772 21.0352 19.2075 20.0811C20.1141 19.3157 20.7174 18.3164 20.8257 17.0866C20.8872 16.3878 20.7307 15.7367 20.4274 15.1143ZM7.40249 34.5123C7.41722 34.4318 7.35904 34.356 7.27729 34.3495C5.28176 34.1895 3.00588 36.2996 2.73448 38.5883C2.39888 41.4202 4.41847 43.8834 7.34222 44.0932C9.92167 44.2783 12.2961 42.3023 12.5038 39.4691C12.6727 37.1663 10.722 34.6241 8.66509 34.4555C8.60249 34.4504 8.5389 34.4884 8.52454 34.5496L8.52417 34.5507C8.44868 34.8893 8.38424 35.2304 8.30163 35.5673C8.23535 35.8383 8.23976 36.059 8.44795 36.2987C8.77029 36.6702 8.79128 37.293 8.41996 37.5749C7.97549 37.9123 8.02937 38.3198 8.04153 38.7491C8.0522 39.1228 8.06804 39.4992 8.1245 39.8678C8.16955 40.1611 8.21166 40.4924 8.37405 40.7228C8.76329 41.2748 8.76157 41.9056 8.28776 42.3004C7.85568 42.6603 7.17001 42.6103 6.80201 42.192C6.40099 41.7361 6.45414 41.1225 6.90818 40.6665C7.01682 40.5573 7.10581 40.3457 7.09992 40.1917C7.07279 39.4966 7.03155 38.8018 6.97606 38.1084C6.96354 37.9516 6.90143 37.7758 6.80569 37.6525C6.39865 37.128 6.44481 36.5329 6.94722 36.0839C7.02381 36.0155 7.12791 35.9396 7.14705 35.8515C7.24292 35.4076 7.32074 34.9599 7.40249 34.5123ZM8.91906 33.2254C8.89426 33.2966 8.93121 33.3748 9.00191 33.4009C9.07163 33.4266 9.13374 33.4492 9.19696 33.4674C12.3204 34.3662 14.1375 37.4712 13.3859 40.6267C12.651 43.7129 9.49463 45.703 6.39583 45.0342C3.18435 44.3411 1.13015 41.2716 1.7547 38.0989C2.29504 35.3536 4.44597 33.4731 7.33314 33.2659C7.69906 33.2396 7.84795 33.11 7.88416 32.8374C7.89447 32.7598 7.83813 32.6874 7.76006 32.6811C5.24003 32.4762 1.76169 34.3308 1.13702 38.1541C0.532731 41.8531 3.11218 45.2433 6.82926 45.7201C10.3735 46.1748 13.7455 43.4975 14.1189 39.9325C14.4608 36.6675 11.9994 33.1713 9.15326 32.8721C9.09005 32.8655 9.03076 32.9044 9.01001 32.9643L8.91906 33.2254ZM19.7481 14.3361C19.822 14.3018 19.8507 14.2112 19.8096 14.1409C19.3564 13.3644 19.1233 13.314 18.3884 13.7088C18.3767 13.7151 18.3632 13.7178 18.3517 13.7244C18.0548 13.8939 17.941 14.1523 18.0706 14.4644C18.2041 14.7858 18.4886 14.8747 18.8001 14.7573C19.1227 14.6358 19.4331 14.4823 19.7481 14.3361ZM20.8155 13.6691C20.8684 13.7359 20.9682 13.7381 21.0263 13.6758C21.2374 13.45 21.2619 13.2166 21.1063 12.9931C20.9347 12.7462 20.6962 12.6942 20.379 12.8463C20.2987 12.8847 20.2744 12.988 20.3298 13.0577C20.4922 13.2622 20.6537 13.4656 20.8155 13.6691Z" fill="#BC4155"/>
<path d="M48.3895 18.8005C44.188 18.7941 40.7863 15.3911 40.7904 11.1985C40.7946 6.98093 44.2005 3.59723 48.4335 3.60539C52.6556 3.61356 56.0124 7.01051 56.0001 11.2624C55.9881 15.4332 52.5818 18.8069 48.3895 18.8005ZM48.3848 17.0152C51.5888 17.0212 54.2134 14.414 54.2215 11.2174C54.2296 8.02135 51.613 5.38857 48.4192 5.37936C45.2364 5.37022 42.6018 7.97605 42.5924 11.1429C42.5826 14.3889 45.1673 17.0094 48.3848 17.0152Z" fill="#BC4155"/>
<path d="M31.6334 19.3167C35.3615 17.7829 39.082 17.7792 42.8111 19.3134C41.878 21.6773 40.2638 23.302 37.8064 24.0203C37.5909 24.0834 37.3316 24.0821 37.1114 24.0307C34.4816 23.416 32.7271 21.7688 31.6334 19.3167Z" fill="#BC4155"/>
<path d="M41.9924 28.6534C40.7944 27.3918 39.675 26.2132 38.5186 24.9953C41.055 24.1208 42.7371 22.3999 43.7827 19.9376C44.1762 20.4633 44.537 20.9372 44.8853 21.4198C44.9321 21.4846 44.9431 21.5992 44.9268 21.6819C44.5922 23.3697 44.3208 25.0824 43.4085 26.5856C42.9887 27.2775 42.4949 27.9247 41.9924 28.6534Z" fill="#BC4155"/>
<path d="M36.0254 24.9031C34.9238 26.0623 33.8489 27.1936 32.7731 28.3242C32.71 28.3905 32.6406 28.451 32.4863 28.5978C31.9129 27.5771 31.2822 26.6307 30.8306 25.6056C30.2949 24.3895 29.9103 23.1065 29.4709 21.8488C29.4365 21.7506 29.4445 21.5947 29.5015 21.5146C29.863 21.0064 30.244 20.512 30.6524 19.968C31.2683 21.1006 31.9136 22.152 32.8164 23.0203C33.7268 23.896 34.8083 24.4784 36.0254 24.9031Z" fill="#BC4155"/>
<path d="M5.3341 40.2709C4.73999 40.2753 4.26594 39.8091 4.26041 39.2146C4.25501 38.626 4.72796 38.1423 5.31519 38.136C5.89752 38.1297 6.38998 38.6119 6.39747 39.1954C6.40471 39.7766 5.92035 40.2666 5.3341 40.2709Z" fill="#BC4155"/>
<path d="M9.89538 38.1363C10.4895 38.1476 10.9434 38.6217 10.9363 39.2237C10.9292 39.8207 10.4566 40.2804 9.85954 40.2707C9.26175 40.261 8.81249 39.7925 8.82034 39.1871C8.82795 38.5899 9.30348 38.1251 9.89538 38.1363Z" fill="#BC4155"/>
<path d="M48.414 16.2335C45.6266 16.2413 43.3565 13.9829 43.3574 11.2026C43.3581 8.42057 45.6231 6.16104 48.4088 6.16331C51.1841 6.16555 53.4293 8.40588 53.4332 11.1771C53.4374 13.9847 51.213 16.2256 48.414 16.2335ZM47.4802 8.92283C47.48 9.42107 47.8981 9.85029 48.3908 9.85793C48.8862 9.86554 49.3448 9.40229 49.3339 8.90549C49.3227 8.40452 48.9023 8.00145 48.3941 8.00464C47.887 8.00783 47.4805 8.41622 47.4802 8.92283ZM48.3816 14.3966C48.885 14.406 49.3126 14.007 49.3339 13.5081C49.3551 13.0073 48.9125 12.5505 48.4041 12.5484C47.9079 12.5465 47.4865 12.9649 47.4804 13.4653C47.4742 13.9708 47.8772 14.3872 48.3816 14.3966ZM51.6003 11.1956C51.5985 10.6931 51.1833 10.2752 50.684 10.2729C50.1907 10.2706 49.7581 10.6908 49.7459 11.184C49.7337 11.6851 50.1853 12.1349 50.6925 12.1266C51.194 12.1184 51.6023 11.6998 51.6003 11.1956ZM47.0453 11.1902C47.0411 10.6875 46.6257 10.2734 46.1251 10.2731C45.6305 10.2727 45.2025 10.6949 45.1967 11.1891C45.1907 11.6989 45.634 12.1375 46.1439 12.1266C46.644 12.1158 47.0495 11.6945 47.0453 11.1902Z" fill="#BC4155"/>
</svg>
