<svg width="21" height="21" viewBox="0 0 21 21" fill="none" xmlns="http://www.w3.org/2000/svg">
<path d="M2.33975 11.1014C2.50558 11.2711 2.67397 11.4384 2.83593 11.6118C2.89091 11.6707 2.9214 11.6601 2.9723 11.6086C3.26768 11.3087 3.56708 11.0128 3.86398 10.7145C4.06438 10.5129 4.26305 10.3095 4.46253 10.107C4.48157 10.0649 4.43998 10.0538 4.42145 10.0348C4.2716 9.88214 4.11645 9.73473 3.96991 9.57872C3.91076 9.5157 3.87961 9.52792 3.82494 9.583C3.34846 10.0638 2.86866 10.5413 2.39101 11.021C2.36927 11.0427 2.32728 11.056 2.33975 11.1014Z" fill="#E2E2E2"/>
<path d="M4.6759 13.4379C4.84184 13.6077 5.01022 13.7751 5.17234 13.9485C5.22706 14.0072 5.2577 13.9969 5.3086 13.9452C5.60413 13.6454 5.90348 13.3495 6.20034 13.051C6.40074 12.8494 6.59935 12.6461 6.79884 12.4435C6.81803 12.4013 6.77649 12.3904 6.75791 12.3715C6.60801 12.2188 6.45286 12.0712 6.30637 11.9153C6.24727 11.8523 6.21602 11.8644 6.16135 11.9195C5.68476 12.4003 5.20497 12.8779 4.72736 13.3577C4.70583 13.3793 4.66144 13.3913 4.6759 13.4379Z" fill="#E2E2E2"/>
<path d="M7.01201 15.7739C7.17784 15.9436 7.34623 16.111 7.50814 16.2844C7.56327 16.3433 7.59381 16.3329 7.64456 16.2814C7.94009 15.9816 8.23929 15.6854 8.53619 15.3871C8.73684 15.1856 8.93546 14.9821 9.13494 14.7796C9.15388 14.7374 9.11234 14.7264 9.09387 14.7076C8.94396 14.5548 8.78871 14.4073 8.64232 14.2513C8.58317 14.1883 8.55182 14.2005 8.49741 14.2557C8.02067 14.7364 7.54087 15.2139 7.06327 15.6938C7.04194 15.7155 6.99755 15.7275 7.01201 15.7739Z" fill="#E2E2E2"/>
<path d="M9.34821 18.1102C9.51415 18.28 9.68268 18.4474 9.84455 18.6206C9.89967 18.6795 9.93011 18.669 9.98091 18.6174C10.2764 18.3177 10.5758 18.0217 10.8726 17.7233C11.073 17.5216 11.2717 17.3183 11.4711 17.1158C11.4902 17.0737 11.4486 17.0626 11.4302 17.0437C11.2803 16.8911 11.1251 16.7435 10.9787 16.5875C10.9194 16.5245 10.8883 16.5367 10.8336 16.5918C10.357 17.0726 9.87722 17.5502 9.39967 18.03C9.37809 18.0516 9.33396 18.0637 9.34821 18.1102Z" fill="#E2E2E2"/>
<path d="M13.2925 19.639C13.3573 19.5786 13.3545 19.5464 13.2923 19.485C12.8116 19.01 12.3355 18.5308 11.8567 18.0543C11.835 18.0326 11.8229 17.9883 11.7763 18.0024C11.6064 18.1682 11.4391 18.3367 11.2658 18.4986C11.2069 18.5536 11.2174 18.5843 11.269 18.6351C11.5523 18.9139 11.8316 19.1968 12.1135 19.4772C12.3317 19.6941 12.5515 19.9093 12.7706 20.1253C12.8164 20.1403 12.8293 20.0968 12.8511 20.0755C12.9991 19.9309 13.1413 19.7802 13.2925 19.639Z" fill="#E2E2E2"/>
<path d="M2.12673 10.0887C1.96084 9.91929 1.79221 9.75218 1.63024 9.5786C1.5743 9.51869 1.54381 9.53269 1.49403 9.58329C1.24278 9.83881 0.98756 10.0906 0.734836 10.3447C0.49051 10.5905 0.24761 10.8374 0.00394588 11.084C-0.0132079 11.13 0.0309743 11.1428 0.0519967 11.1644C0.198999 11.3146 0.351754 11.4594 0.4956 11.6128C0.554595 11.6757 0.585543 11.6643 0.640414 11.6088C1.11746 11.1275 1.59786 10.6496 2.07583 10.1692C2.09736 10.1476 2.142 10.1356 2.12673 10.0887Z" fill="#E2E2E2"/>
<path d="M12.7896 17.7896C12.9592 17.6236 13.1264 17.455 13.2998 17.2932C13.3599 17.2374 13.346 17.2069 13.2956 17.1572C13.0207 16.8866 12.7496 16.612 12.476 16.3399C12.2498 16.115 12.0218 15.8914 11.7946 15.6672C11.7522 15.6475 11.7414 15.6894 11.7227 15.7079C11.5698 15.8576 11.4223 16.0131 11.2663 16.1595C11.203 16.2187 11.2157 16.2497 11.2706 16.3042C11.7516 16.781 12.2293 17.261 12.7092 17.7389C12.7309 17.7605 12.7442 17.8028 12.7896 17.7896Z" fill="#E2E2E2"/>
<path d="M10.4534 15.4534C10.623 15.2875 10.7901 15.1188 10.9635 14.957C11.0235 14.901 11.0097 14.8706 10.9591 14.8208C10.698 14.564 10.4409 14.3033 10.181 14.045C9.94087 13.8063 9.69919 13.5689 9.45833 13.3309C9.41598 13.3113 9.40508 13.3532 9.3864 13.3716C9.23355 13.5214 9.08588 13.6768 8.92992 13.8232C8.86655 13.8825 8.87932 13.9135 8.93425 13.9679C9.41536 14.4448 9.89307 14.9248 10.3729 15.4028C10.3947 15.4243 10.4079 15.4665 10.4534 15.4534Z" fill="#E2E2E2"/>
<path d="M8.117 13.1171C8.28665 12.9511 8.45376 12.7825 8.62733 12.6208C8.6873 12.5649 8.6736 12.5346 8.62296 12.4847C8.35074 12.2167 8.08244 11.9451 7.8118 11.6758C7.58254 11.4479 7.35196 11.2216 7.12198 10.9947C7.07969 10.9751 7.06884 11.0169 7.05011 11.0354C6.8972 11.1853 6.74964 11.3406 6.59373 11.4871C6.53051 11.5463 6.54314 11.5774 6.59796 11.6317C7.07902 12.1086 7.55673 12.5885 8.03658 13.0664C8.05841 13.0881 8.0716 13.1303 8.117 13.1171Z" fill="#E2E2E2"/>
<path d="M5.78099 10.781C5.95059 10.6151 6.1177 10.4463 6.29127 10.2848C6.35139 10.2287 6.33708 10.198 6.28674 10.1484C6.02572 9.89144 5.76847 9.63093 5.50872 9.37271C5.26846 9.13388 5.02689 8.89658 4.78592 8.65847C4.74367 8.63902 4.73278 8.68086 4.714 8.69924C4.56124 8.84914 4.41348 9.00444 4.25762 9.15093C4.19445 9.21023 4.20702 9.24123 4.26205 9.29575C4.74306 9.77249 5.22067 10.2524 5.70041 10.7302C5.7222 10.7518 5.73558 10.7942 5.78099 10.781Z" fill="#E2E2E2"/>
<path d="M4.46255 12.4248C4.29662 12.2552 4.12803 12.0883 3.96622 11.9147C3.91017 11.8545 3.87958 11.8686 3.8299 11.9191C3.59515 12.1581 3.35647 12.3934 3.12029 12.631C2.85962 12.8935 2.60003 13.1569 2.33977 13.4198C2.32272 13.466 2.3667 13.4786 2.38772 13.5002C2.53482 13.6505 2.68758 13.7952 2.83137 13.9487C2.89037 14.0117 2.92127 14.0003 2.97629 13.9449C3.45328 13.4636 3.93369 12.9854 4.41196 12.5053C4.43354 12.4836 4.47579 12.4702 4.46255 12.4248Z" fill="#E2E2E2"/>
<path d="M13.808 17.0973C13.642 16.9277 13.4733 16.7607 13.3115 16.5871C13.2554 16.5269 13.2249 16.5413 13.1753 16.5916C12.9074 16.8638 12.6358 17.1319 12.3664 17.4027C12.1387 17.6319 11.9124 17.8625 11.6853 18.0924C11.6657 18.1346 11.7076 18.1456 11.7261 18.1644C11.876 18.3172 12.0314 18.4648 12.1777 18.6209C12.2369 18.684 12.268 18.6715 12.3224 18.6164C12.7993 18.1355 13.2794 17.6577 13.7572 17.1778C13.779 17.156 13.8213 17.1428 13.808 17.0973Z" fill="#E2E2E2"/>
<path d="M11.4716 14.761C11.3056 14.5914 11.137 14.4243 10.9752 14.251C10.9192 14.191 10.8889 14.205 10.839 14.2555C10.5573 14.5413 10.2719 14.8233 9.98903 15.1079C9.77484 15.3231 9.56233 15.5401 9.34915 15.7563C9.32945 15.7986 9.3714 15.8094 9.38972 15.8281C9.53963 15.981 9.69503 16.1286 9.84147 16.2847C9.90082 16.3479 9.93187 16.3352 9.98639 16.2802C10.4631 15.7993 10.9431 15.3215 11.4209 14.8415C11.4424 14.82 11.487 14.8077 11.4716 14.761Z" fill="#E2E2E2"/>
<path d="M9.13554 12.4251L9.13544 12.425L9.13554 12.4251C8.9695 12.2554 8.80072 12.0884 8.63895 11.9149C8.58296 11.8548 8.55252 11.8688 8.50279 11.9193C8.23485 12.1913 7.96319 12.4597 7.69392 12.7304C7.46609 12.9595 7.23983 13.1902 7.01286 13.4202C6.99322 13.4625 7.0349 13.4733 7.05348 13.4922C7.20334 13.6449 7.35864 13.7926 7.50513 13.9486C7.56433 14.0118 7.59527 13.9992 7.64984 13.9442C8.12663 13.4631 8.60678 12.9854 9.08454 12.5054C9.10602 12.4837 9.15066 12.4717 9.13554 12.4251Z" fill="#E2E2E2"/>
<path d="M6.7994 10.0888C6.63331 9.91912 6.46477 9.75211 6.30291 9.57864C6.24702 9.51868 6.21653 9.53268 6.1667 9.58312C5.88501 9.86888 5.59966 10.151 5.3166 10.4355C5.10251 10.6508 4.89015 10.8678 4.67697 11.084C4.65707 11.1263 4.69906 11.1371 4.71739 11.1558C4.86729 11.3087 5.02269 11.4562 5.16908 11.6122C5.22838 11.6755 5.25954 11.663 5.314 11.608C5.79084 11.1271 6.27084 10.6493 6.74865 10.1692C6.77013 10.1478 6.81467 10.1356 6.7994 10.0888Z" fill="#E2E2E2"/>
<path d="M6.79906 14.7612C6.63302 14.5917 6.46448 14.4247 6.30267 14.2512C6.24663 14.1912 6.21619 14.2051 6.16641 14.2557C5.92625 14.5004 5.68188 14.7409 5.44025 14.9841C5.18493 15.2409 4.93093 15.4989 4.67632 15.7564C4.65912 15.8025 4.7032 15.8152 4.72412 15.8367C4.87128 15.987 5.02418 16.1319 5.16788 16.2853C5.22682 16.3481 5.25782 16.3369 5.31279 16.2813C5.78974 15.8001 6.27004 15.322 6.7481 14.8417C6.76963 14.8202 6.81438 14.8082 6.79906 14.7612Z" fill="#E2E2E2"/>
<path d="M4.46336 7.75258C4.29727 7.58293 4.12863 7.41582 3.96677 7.24235C3.91078 7.18228 3.88049 7.19648 3.83071 7.24688C3.55452 7.52714 3.27456 7.80384 2.99695 8.08267C2.77746 8.30358 2.5595 8.52602 2.34073 8.74765C2.32088 8.78989 2.36303 8.80089 2.38135 8.81962C2.53125 8.97248 2.68665 9.12004 2.833 9.27605C2.89235 9.33927 2.9234 9.32675 2.97786 9.27167C3.4547 8.79076 3.9347 8.313 4.41256 7.8329C4.43394 7.81132 4.47858 7.79926 4.46336 7.75258Z" fill="#E2E2E2"/>
<path d="M11.2663 2.14227C11.2031 2.20162 11.2157 2.23257 11.2707 2.28713C11.7516 2.76392 12.2293 3.24377 12.7092 3.72168C12.7309 3.74331 12.7443 3.78551 12.7896 3.77238C12.9593 3.60654 13.1263 3.4377 13.2999 3.27609C13.36 3.22015 13.3461 3.18966 13.2955 3.13988C13.0289 2.87743 12.7662 2.61142 12.5008 2.3476C12.2662 2.11432 12.0299 1.88237 11.7945 1.64985C11.7524 1.6303 11.7415 1.67214 11.7227 1.69057C11.5699 1.84048 11.4222 1.99572 11.2663 2.14227Z" fill="#E2E2E2"/>
<path d="M13.8076 12.4248C13.6416 12.2551 13.473 12.0882 13.3113 11.9147C13.2552 11.8547 13.2248 11.8687 13.175 11.9193C12.9071 12.1913 12.6355 12.4596 12.3662 12.7303C12.1385 12.9595 11.9121 13.1901 11.685 13.42C11.6653 13.4623 11.7074 13.4732 11.7257 13.492C11.8756 13.6448 12.031 13.7924 12.1775 13.9485C12.2367 14.0116 12.2677 13.9992 12.3222 13.9442C12.7991 13.4631 13.2791 12.9853 13.7569 12.5053C13.7784 12.4838 13.8229 12.4716 13.8076 12.4248Z" fill="#E2E2E2"/>
<path d="M13.6023 4.4783C13.539 4.53765 13.5517 4.5686 13.6066 4.62317C14.0876 5.09981 14.5654 5.57996 15.0453 6.05782C15.0669 6.07935 15.0803 6.12175 15.1256 6.10841C15.2953 5.94258 15.4624 5.77399 15.6359 5.61218C15.6958 5.55613 15.6821 5.52585 15.6314 5.47591C15.3595 5.20812 15.0911 4.93636 14.8203 4.66715C14.5912 4.43936 14.3606 4.21311 14.1306 3.98604C14.0883 3.96639 14.0775 4.00838 14.0587 4.02676C13.9058 4.17656 13.7583 4.33201 13.6023 4.4783Z" fill="#E2E2E2"/>
<path d="M15.1257 15.4535C15.2955 15.2876 15.4626 15.119 15.6361 14.9572C15.6959 14.9012 15.6822 14.8707 15.6316 14.821C15.3706 14.5642 15.1132 14.3034 14.8535 14.0451C14.6132 13.8063 14.3717 13.569 14.1307 13.3309C14.0884 13.3113 14.0775 13.3532 14.0588 13.3717C13.906 13.5216 13.7583 13.6768 13.6024 13.8234C13.5391 13.8826 13.5518 13.9137 13.6068 13.9682C14.0876 14.4449 14.5653 14.9248 15.0454 15.4029C15.067 15.4244 15.0805 15.4667 15.1257 15.4535Z" fill="#E2E2E2"/>
<path d="M15.9385 6.81459C15.8754 6.87399 15.8879 6.90493 15.943 6.95955C16.424 7.43634 16.9018 7.91629 17.3817 8.39415C17.4033 8.41583 17.4166 8.45818 17.4622 8.44495C17.6317 8.27891 17.7987 8.11022 17.9723 7.94851C18.0324 7.89262 18.0182 7.86188 17.9676 7.81225C17.7122 7.5609 17.4604 7.30573 17.2063 7.05306C16.9606 6.80873 16.7134 6.56578 16.4669 6.32227C16.4247 6.30277 16.4139 6.34467 16.3951 6.36309C16.2422 6.51295 16.0946 6.6683 15.9385 6.81459Z" fill="#E2E2E2"/>
<path d="M16.1441 14.7613C15.9781 14.5916 15.8094 14.4246 15.6476 14.251C15.5915 14.191 15.561 14.205 15.5113 14.2556C15.2435 14.5277 14.9718 14.7959 14.7025 15.0666C14.4747 15.2957 14.2484 15.5264 14.0214 15.7564C14.0017 15.7987 14.0437 15.8095 14.0621 15.8284C14.212 15.9812 14.3674 16.1288 14.5138 16.2848C14.573 16.3479 14.604 16.3354 14.6585 16.2803C15.1354 15.7994 15.6154 15.3216 16.0932 14.8415C16.1146 14.82 16.1594 14.8079 16.1441 14.7613Z" fill="#E2E2E2"/>
<path d="M18.2747 9.15082C18.2114 9.21007 18.2241 9.24112 18.2791 9.29568C18.76 9.77247 19.2377 10.2523 19.7177 10.7303C19.7393 10.7519 19.7526 10.7942 19.7981 10.781C19.9676 10.615 20.1348 10.4464 20.3082 10.2846C20.3682 10.2286 20.3544 10.1982 20.3039 10.1484C20.0373 9.88603 19.7744 9.61977 19.5093 9.35625C19.2745 9.12277 19.0384 8.89102 18.803 8.6585C18.7607 8.63875 18.7499 8.68069 18.7311 8.69912C18.5782 8.84892 18.4306 9.00427 18.2747 9.15082Z" fill="#E2E2E2"/>
<path d="M16.144 10.0883C15.9778 9.91872 15.8093 9.75171 15.6476 9.57829C15.5915 9.51828 15.5611 9.53243 15.5113 9.58282C15.2296 9.86858 14.9442 10.1507 14.6613 10.4353C14.4471 10.6505 14.2347 10.8674 14.0215 11.0836C14.0016 11.1259 14.0437 11.1367 14.0621 11.1555C14.212 11.3083 14.3673 11.4559 14.5136 11.6119C14.573 11.6751 14.6041 11.6626 14.6587 11.6076C15.1354 11.1266 15.6155 10.6488 16.0933 10.1689C16.1148 10.1472 16.1572 10.1339 16.144 10.0883Z" fill="#E2E2E2"/>
<path d="M9.13504 17.097C8.9691 16.9274 8.80042 16.7604 8.6387 16.587C8.58266 16.5267 8.55197 16.541 8.50249 16.5914C8.26208 16.8359 8.01806 17.0767 7.77634 17.3198C7.52096 17.5766 7.26697 17.8347 7.01236 18.0922C6.99521 18.1382 7.03929 18.151 7.06031 18.1725C7.20741 18.3228 7.36017 18.4676 7.50396 18.621C7.56296 18.684 7.59391 18.6726 7.64893 18.6172C8.12592 18.1359 8.60628 17.6578 9.08444 17.1776C9.10603 17.1558 9.14838 17.1426 9.13504 17.097Z" fill="#E2E2E2"/>
<path d="M15.629 17.3028C15.6939 17.2422 15.6909 17.2102 15.6287 17.1487C15.1483 16.6738 14.672 16.1946 14.1932 15.7181C14.1715 15.6964 14.1595 15.6521 14.1128 15.6662C13.943 15.8321 13.7757 16.0005 13.6023 16.1624C13.5434 16.2174 13.554 16.2481 13.6054 16.2987C13.8942 16.5832 14.1793 16.8716 14.4666 17.1574C14.6792 17.3689 14.8934 17.5786 15.1072 17.7892C15.153 17.804 15.1658 17.7607 15.1876 17.7393C15.3357 17.5947 15.4777 17.4439 15.629 17.3028Z" fill="#E2E2E2"/>
<path d="M9.34834 4.09295C9.51427 4.26275 9.6826 4.43017 9.84457 4.60354C9.8996 4.66233 9.92998 4.65189 9.98099 4.60048C10.2876 4.28963 10.5978 3.98244 10.9057 3.67296C11.0953 3.48274 11.2827 3.29018 11.4712 3.09864C11.4902 3.0565 11.4487 3.0456 11.4301 3.02672C11.2803 2.87397 11.1251 2.7264 10.9787 2.57049C10.9196 2.50748 10.8883 2.51959 10.8337 2.57477C10.3571 3.05543 9.87725 3.53288 9.3998 4.01278C9.37821 4.03436 9.33403 4.04658 9.34834 4.09295Z" fill="#E2E2E2"/>
<path d="M11.6842 6.42888C11.8502 6.59863 12.0186 6.76595 12.1805 6.93921C12.2355 6.99821 12.2659 6.98777 12.3167 6.93611C12.6122 6.6362 12.9117 6.34031 13.2085 6.04188C13.409 5.84036 13.6076 5.63706 13.8072 5.43447C13.8261 5.39238 13.7846 5.38128 13.7662 5.36245C13.6162 5.20969 13.4611 5.06223 13.3145 4.90607C13.2555 4.84315 13.2242 4.85532 13.1696 4.9105C12.693 5.39116 12.2133 5.86886 11.7356 6.34856C11.7139 6.37029 11.672 6.38368 11.6842 6.42888Z" fill="#E2E2E2"/>
<path d="M14.0209 8.76544C14.1868 8.93509 14.3553 9.10261 14.5172 9.27603C14.5722 9.33482 14.6026 9.32433 14.6534 9.27272C14.9545 8.96741 15.2594 8.66598 15.5619 8.36204C15.7568 8.16608 15.9498 7.96817 16.1438 7.77098C16.1628 7.72894 16.1213 7.71794 16.1027 7.69906C15.9529 7.5463 15.7977 7.39874 15.6513 7.24278C15.5922 7.17992 15.561 7.19203 15.5063 7.24711C15.0298 7.72792 14.5499 8.20537 14.0725 8.68522C14.0509 8.7068 14.0064 8.71886 14.0209 8.76544Z" fill="#E2E2E2"/>
<path d="M16.357 11.1017C16.5229 11.2713 16.6913 11.4388 16.8531 11.6122C16.9082 11.6709 16.9385 11.6607 16.9895 11.609C17.2849 11.3091 17.5844 11.0133 17.8813 10.7147C18.0816 10.5132 18.2803 10.3098 18.4798 10.1072C18.4989 10.0652 18.4572 10.0541 18.4388 10.0354C18.2889 9.88254 18.1337 9.73498 17.9872 9.57897C17.9282 9.51605 17.897 9.52811 17.8422 9.58324C17.3658 10.064 16.8859 10.5416 16.4084 11.0214C16.3868 11.0429 16.3426 11.0552 16.357 11.1017Z" fill="#E2E2E2"/>
<path d="M11.4712 19.4334C11.3052 19.2639 11.1366 19.0968 10.9748 18.9233C10.9187 18.8632 10.8883 18.8772 10.8385 18.9278C10.6093 19.1614 10.3761 19.391 10.1454 19.6231C9.8791 19.891 9.61395 20.16 9.3484 20.4284C9.3312 20.4746 9.37528 20.4873 9.3963 20.5088C9.54345 20.6591 9.69616 20.8039 9.83995 20.9573C9.899 21.0203 9.93 21.009 9.98497 20.9534C10.462 20.4722 10.9423 19.9941 11.4205 19.514C11.4421 19.4922 11.4844 19.4789 11.4712 19.4334Z" fill="#E2E2E2"/>
<path d="M9.44057 6.32148C9.27082 6.48737 9.10335 6.65565 8.92993 6.81766C8.87124 6.87248 8.88147 6.90318 8.93319 6.95408C9.2276 7.24401 9.51794 7.53781 9.81078 7.82912C10.0178 8.03517 10.2266 8.23928 10.4347 8.44431C10.4808 8.45933 10.4936 8.41601 10.5154 8.39463C10.6634 8.24987 10.8055 8.0992 10.9568 7.9581C11.0215 7.89763 11.0188 7.86552 10.9564 7.80392C10.476 7.32907 9.99972 6.84978 9.52089 6.3733C9.49926 6.35177 9.48715 6.30728 9.44057 6.32148Z" fill="#E2E2E2"/>
<path d="M11.7767 8.65708C11.5987 8.83121 11.4217 9.00652 11.2421 9.17882C11.19 9.22906 11.2343 9.25196 11.2625 9.28021C11.4797 9.49827 11.697 9.71644 11.9154 9.93343C12.2 10.216 12.4856 10.4977 12.7709 10.78C12.8167 10.7949 12.8295 10.7515 12.8514 10.7302C12.9994 10.5855 13.1416 10.4348 13.2929 10.2937C13.3575 10.2333 13.355 10.2012 13.2926 10.1396C12.8121 9.66477 12.3359 9.18533 11.8571 8.70895C11.8354 8.68727 11.8232 8.64288 11.7767 8.65708Z" fill="#E2E2E2"/>
<path d="M13.2924 5.46773C12.8121 4.99292 12.3359 4.51359 11.8569 4.037C11.8353 4.01547 11.8231 3.97103 11.7766 3.98523C11.6068 4.15112 11.4394 4.31955 11.266 4.48137C11.2073 4.53639 11.2176 4.56698 11.2693 4.61788C11.5582 4.90242 11.8431 5.19067 12.1304 5.47643C12.3429 5.68788 12.5572 5.89764 12.7709 6.10812C12.8167 6.12318 12.8297 6.07982 12.8515 6.05849C12.9993 5.91372 13.1415 5.7629 13.2929 5.62196C13.3577 5.56159 13.3547 5.52922 13.2924 5.46773Z" fill="#E2E2E2"/>
<path d="M15.6285 7.80381C15.1479 7.3289 14.6717 6.84957 14.193 6.37313C14.1712 6.35155 14.1591 6.30706 14.1124 6.32121C13.9426 6.48695 13.7753 6.65548 13.6021 6.8175C13.5432 6.87232 13.5536 6.90301 13.6052 6.95386C13.8939 7.23825 14.1788 7.5265 14.4662 7.81246C14.6789 8.02391 14.8931 8.23357 15.1067 8.4441C15.1526 8.45906 15.1655 8.41569 15.1872 8.39431C15.3352 8.2496 15.4775 8.09899 15.6288 7.95789C15.6935 7.89742 15.6906 7.8653 15.6285 7.80381Z" fill="#E2E2E2"/>
<path d="M17.9648 10.1402C17.4842 9.6653 17.0082 9.18606 16.5292 8.70932C16.5074 8.68774 16.4954 8.6433 16.4488 8.65756C16.279 8.82344 16.1115 8.99177 15.9383 9.15379C15.8798 9.20861 15.8897 9.23925 15.9415 9.29026C16.2249 9.56904 16.5041 9.85195 16.7861 10.1323C17.0041 10.3492 17.224 10.5645 17.4431 10.7805C17.489 10.7955 17.5019 10.7521 17.5236 10.7307C17.6715 10.586 17.814 10.4354 17.965 10.2942C18.0298 10.2338 18.027 10.2016 17.9648 10.1402Z" fill="#E2E2E2"/>
<path d="M18.7853 10.9939C18.6155 11.1597 18.448 11.328 18.2747 11.49C18.2159 11.5448 18.2263 11.5756 18.2779 11.6264C18.5612 11.9053 18.8405 12.1881 19.1225 12.4685C19.3406 12.6854 19.5604 12.9006 19.7794 13.1166C19.8254 13.1316 19.8382 13.0882 19.8599 13.0669C20.008 12.9223 20.1502 12.7715 20.3014 12.6303C20.3661 12.57 20.3635 12.5379 20.3012 12.4764C19.8208 12.0015 19.3444 11.5221 18.8657 11.0457C18.844 11.0241 18.8317 10.9797 18.7853 10.9939Z" fill="#E2E2E2"/>
<path d="M15.1874 13.0671C15.3353 12.9223 15.4777 12.7718 15.6289 12.6305C15.6935 12.5702 15.6909 12.538 15.6286 12.4765C15.1481 12.0015 14.6719 11.5223 14.193 11.0456C14.1713 11.0241 14.1593 10.9797 14.1126 10.9938C13.9428 11.1597 13.7755 11.3281 13.602 11.49C13.5433 11.545 13.5536 11.5758 13.6053 11.6267C13.883 11.9 14.1569 12.1772 14.4333 12.4521C14.6571 12.6745 14.8824 12.8954 15.1069 13.1169C15.1528 13.1317 15.1657 13.0885 15.1874 13.0671Z" fill="#E2E2E2"/>
<path d="M17.5236 15.4031C17.6716 15.2585 17.8139 15.1077 17.965 14.9666C18.0299 14.9062 18.027 14.874 17.9649 14.8126C17.4844 14.3376 17.008 13.8584 16.5292 13.3818C16.5075 13.3602 16.4955 13.3158 16.4488 13.3299C16.279 13.4957 16.1117 13.6642 15.9383 13.8262C15.8796 13.8811 15.8899 13.9119 15.9416 13.9626C16.2248 14.2415 16.5041 14.5244 16.7861 14.8047C17.0042 15.0217 17.224 15.2368 17.4431 15.4528C17.489 15.4679 17.5018 15.4245 17.5236 15.4031Z" fill="#E2E2E2"/>
<path d="M11.6845 15.774C11.8503 15.9438 12.0188 16.1112 12.1807 16.2846C12.2357 16.3435 12.2662 16.3329 12.317 16.2813C12.6015 15.9925 12.8899 15.7076 13.1757 15.4202C13.3871 15.2075 13.5968 14.9932 13.8073 14.7796C13.8263 14.7376 13.7848 14.7265 13.7662 14.7077C13.6164 14.5549 13.4612 14.4074 13.3148 14.2515C13.2557 14.1884 13.2244 14.2005 13.1697 14.2556C12.6932 14.7364 12.2134 15.214 11.7359 15.6938C11.7143 15.7153 11.67 15.7274 11.6845 15.774Z" fill="#E2E2E2"/>
<path d="M13.2924 14.8125C12.812 14.3376 12.3357 13.8583 11.8569 13.3816C11.8352 13.3601 11.8231 13.3157 11.7764 13.3298C11.6067 13.4958 11.4394 13.6641 11.266 13.8261C11.2073 13.881 11.2174 13.9115 11.2693 13.9625C11.558 14.2469 11.843 14.5353 12.1303 14.8211C12.3428 15.0325 12.5573 15.2424 12.7707 15.4528C12.8166 15.4676 12.8295 15.4243 12.8513 15.403C12.9992 15.2583 13.1416 15.1076 13.2928 14.9666C13.3576 14.906 13.3546 14.8738 13.2924 14.8125Z" fill="#E2E2E2"/>
<path d="M6.59802 6.95937C7.07898 7.43616 7.55679 7.9161 8.03664 8.39401C8.05837 8.41565 8.07161 8.458 8.11716 8.44481C8.28666 8.27877 8.45392 8.11029 8.62729 7.94832C8.6871 7.89259 8.67351 7.862 8.62281 7.81211C8.36169 7.55527 8.10449 7.2947 7.84494 7.03648C7.60469 6.79765 7.36291 6.56015 7.12199 6.32219C7.07975 6.30254 7.0689 6.34453 7.05017 6.36286C6.89742 6.51276 6.7497 6.66801 6.59364 6.8145C6.53047 6.8738 6.54299 6.90485 6.59802 6.95937Z" fill="#E2E2E2"/>
<path d="M9.13574 3.08037C8.96965 2.91071 8.80102 2.7436 8.6392 2.57008C8.58316 2.51007 8.55282 2.52412 8.50289 2.57466C8.2351 2.84673 7.96339 3.11498 7.69412 3.38567C7.46644 3.61498 7.24008 3.84561 7.01317 4.07559C6.99337 4.11778 7.03526 4.12862 7.05373 4.14741C7.20354 4.30016 7.35889 4.44777 7.50538 4.60384C7.56458 4.66701 7.59563 4.65448 7.65014 4.59936C8.12714 4.11849 8.60703 3.64064 9.08489 3.16074C9.10617 3.13906 9.15102 3.12699 9.13574 3.08037Z" fill="#E2E2E2"/>
<path d="M4.67593 8.76528C4.84187 8.93509 5.0103 9.1024 5.17222 9.27582C5.22719 9.33466 5.25783 9.32418 5.30858 9.27262C5.60417 8.97296 5.90336 8.67682 6.20022 8.37833C6.40082 8.17692 6.59944 7.97362 6.79866 7.77093C6.81419 7.72507 6.77046 7.71219 6.74939 7.69051C6.60448 7.54243 6.45386 7.40027 6.31271 7.24904C6.25229 7.18424 6.22007 7.18694 6.15853 7.24929C5.68362 7.7297 5.20424 8.20583 4.72785 8.68486C4.70617 8.70654 4.66183 8.71871 4.67593 8.76528Z" fill="#E2E2E2"/>
<path d="M11.4713 5.41632C11.308 5.24932 11.1411 5.08597 10.9835 4.91403C10.9201 4.84501 10.8871 4.86053 10.83 4.91866C10.5463 5.20788 10.2577 5.49222 9.972 5.7795C9.7634 5.98932 9.55659 6.20081 9.34881 6.41144C9.32901 6.45364 9.37095 6.46463 9.38933 6.48331C9.53923 6.63617 9.69463 6.78373 9.84103 6.93969C9.90043 7.00306 9.93153 6.99029 9.98594 6.93526C10.4628 6.45435 10.9426 5.97654 11.4206 5.4967C11.4423 5.47501 11.4845 5.46157 11.4713 5.41632Z" fill="#E2E2E2"/>
<path d="M13.8078 7.75233C13.6418 7.58278 13.4731 7.41572 13.3113 7.2422C13.2553 7.18229 13.2249 7.19608 13.175 7.24673C12.8932 7.53238 12.6079 7.81463 12.3249 8.09907C12.1109 8.31433 11.8984 8.53132 11.6852 8.7475C11.6655 8.78985 11.7074 8.80069 11.7259 8.81947C11.8757 8.97222 12.031 9.11984 12.1775 9.27595C12.2367 9.33907 12.2677 9.32639 12.3223 9.27142C12.7992 8.79046 13.2792 8.3127 13.757 7.8328C13.7787 7.81112 13.821 7.79773 13.8078 7.75233Z" fill="#E2E2E2"/>
<path d="M10.4533 10.7808C10.623 10.615 10.7902 10.4463 10.9636 10.2845C11.0234 10.2286 11.0098 10.1982 10.9592 10.1484C10.6926 9.88605 10.4298 9.61988 10.1646 9.35617C9.92993 9.12273 9.69385 8.89093 9.45828 8.65841C9.41609 8.63871 9.4053 8.68066 9.38646 8.69908C9.23361 8.84888 9.08604 9.00439 8.92998 9.15068C8.86681 9.20998 8.87933 9.24103 8.93431 9.29559C9.41522 9.77223 9.89308 10.2523 10.373 10.7302C10.3946 10.7517 10.408 10.7941 10.4533 10.7808Z" fill="#E2E2E2"/>
<path d="M6.79945 5.41659C6.63336 5.24694 6.46473 5.07983 6.30291 4.90631C6.24697 4.8464 6.21653 4.86035 6.16665 4.91084C5.89061 5.19115 5.61061 5.4677 5.33309 5.74664C5.11361 5.96755 4.8956 6.19004 4.67693 6.41176C4.65708 6.45401 4.69912 6.4649 4.7175 6.48358C4.86735 6.63649 5.0227 6.7841 5.16909 6.94006C5.22834 7.00318 5.25934 6.99071 5.3138 6.93564C5.79075 6.45482 6.27074 5.97686 6.74866 5.49692C6.76988 5.47528 6.81472 5.46322 6.79945 5.41659Z" fill="#E2E2E2"/>
<path d="M18.4802 12.4246C18.3141 12.2549 18.1455 12.088 17.9838 11.9144C17.9278 11.8545 17.8973 11.8685 17.8476 11.919C17.5713 12.1992 17.2914 12.4758 17.014 12.7549C16.7944 12.9757 16.5763 13.1981 16.3577 13.4199C16.3379 13.4623 16.3798 13.4729 16.3981 13.4917C16.5482 13.6446 16.7036 13.7922 16.85 13.9482C16.9093 14.0114 16.9402 13.9988 16.9948 13.9438C17.4715 13.4628 17.9517 12.985 18.4295 12.505C18.451 12.4833 18.4935 12.4701 18.4802 12.4246Z" fill="#E2E2E2"/>
<path d="M10.5151 13.0669C10.6631 12.9222 10.8053 12.7715 10.9565 12.6304C11.0214 12.57 11.0184 12.5378 10.9564 12.4764C10.4757 12.0014 9.99969 11.5223 9.52076 11.0457C9.49897 11.0239 9.48686 10.9796 9.44023 10.9939C9.27053 11.1597 9.10311 11.3282 8.92964 11.49C8.8708 11.545 8.88134 11.5756 8.9329 11.6264C9.22721 11.9165 9.51765 12.2102 9.81059 12.5016C10.0176 12.7075 10.2266 12.9116 10.4346 13.1167C10.4805 13.1317 10.4934 13.0883 10.5151 13.0669Z" fill="#E2E2E2"/>
<path d="M8.93443 4.62341C9.41529 5.1001 9.89315 5.5802 10.3729 6.05801C10.3947 6.07959 10.4081 6.12199 10.4534 6.10865C10.6231 5.94277 10.7901 5.77418 10.9637 5.61242C11.0234 5.55653 11.0098 5.52599 10.9591 5.47605C10.6789 5.20002 10.4024 4.92011 10.1233 4.64255C9.90246 4.42296 9.67992 4.2049 9.4582 3.98623C9.416 3.96673 9.40506 4.00842 9.38628 4.0268C9.23357 4.17685 9.08596 4.3322 8.9299 4.47849C8.86668 4.53784 8.8793 4.56879 8.93443 4.62341Z" fill="#E2E2E2"/>
<path d="M12.7897 13.1172C12.9593 12.9512 13.1263 12.7826 13.2999 12.6208C13.36 12.565 13.346 12.5344 13.2953 12.4845C13.0234 12.2167 12.755 11.9451 12.4844 11.6758C12.2551 11.448 12.0246 11.2218 11.7944 10.9946C11.7522 10.9751 11.7415 11.017 11.7227 11.0354C11.5698 11.1853 11.4222 11.3406 11.2661 11.4869C11.203 11.5463 11.2156 11.5773 11.2707 11.6318C11.7516 12.1087 12.2294 12.5886 12.7091 13.0664C12.7309 13.088 12.7443 13.1304 12.7897 13.1172Z" fill="#E2E2E2"/>
<path d="M14.1308 8.65847C14.0887 8.63907 14.0777 8.68081 14.0589 8.69919C13.9061 8.84914 13.7585 9.00449 13.6025 9.15088C13.5393 9.21029 13.5519 9.24118 13.607 9.2957C14.0879 9.77254 14.5656 10.2524 15.0455 10.7304C15.0672 10.7519 15.0805 10.7944 15.1259 10.7809C15.2956 10.6151 15.4628 10.4465 15.6362 10.2847C15.6961 10.2287 15.6823 10.1981 15.6317 10.1485C15.3596 9.8806 15.0912 9.60884 14.8205 9.33957C14.5914 9.11179 14.3607 8.88543 14.1308 8.65847Z" fill="#E2E2E2"/>
<path d="M11.4717 10.0886C11.3058 9.91896 11.1371 9.7519 10.9752 9.57843C10.9193 9.51837 10.8888 9.53236 10.839 9.58291C10.5766 9.84938 10.3105 10.1122 10.0467 10.3775C9.81337 10.612 9.58157 10.8481 9.34915 11.0838C9.32946 11.1261 9.37125 11.1368 9.38972 11.1556C9.53963 11.3085 9.69503 11.456 9.84137 11.612C9.90067 11.6753 9.93157 11.6627 9.98618 11.6077C10.463 11.1266 10.9431 10.6489 11.421 10.169C11.4426 10.1472 11.485 10.134 11.4717 10.0886Z" fill="#E2E2E2"/>
<path d="M16.3951 11.0355C16.2421 11.1852 16.0946 11.3406 15.9385 11.4871C15.8754 11.5462 15.8879 11.5772 15.9429 11.6318C16.4238 12.1086 16.9016 12.5885 17.3815 13.0665C17.4032 13.0879 17.4164 13.1304 17.4618 13.117C17.6315 12.9512 17.7987 12.7826 17.9721 12.6208C18.0323 12.5649 18.0182 12.5343 17.9678 12.4846C17.7066 12.2278 17.4495 11.9672 17.1896 11.7087C16.9495 11.4701 16.7077 11.2326 16.4669 10.9947C16.4245 10.975 16.4137 11.017 16.3951 11.0355Z" fill="#E2E2E2"/>
<path d="M8.17882 10.7307C8.32669 10.5859 8.46891 10.4352 8.62024 10.2942C8.68503 10.2337 8.68223 10.2017 8.61988 10.14C8.13947 9.66513 7.66314 9.18595 7.18436 8.70941C7.16263 8.68778 7.15052 8.64329 7.10394 8.65749C6.93413 8.82343 6.76672 8.99166 6.59345 9.15373C6.53456 9.20855 6.545 9.23924 6.59661 9.29004C6.87998 9.56903 7.15932 9.85184 7.44116 10.1321C7.65937 10.3492 7.87922 10.5645 8.09829 10.7805C8.14421 10.7955 8.15698 10.752 8.17882 10.7307Z" fill="#E2E2E2"/>
<path d="M7.01229 6.42923C7.17818 6.59888 7.34661 6.7664 7.50843 6.93971C7.5633 6.99845 7.59399 6.98812 7.64479 6.93651C7.94582 6.6312 8.25072 6.32977 8.55307 6.02578C8.74807 5.82976 8.94124 5.63191 9.13507 5.43482C9.15416 5.39273 9.11263 5.38173 9.09405 5.36285C8.94425 5.21009 8.78905 5.06253 8.64255 4.90667C8.58341 4.84366 8.55231 4.85582 8.49764 4.9109C8.0211 5.39171 7.54115 5.86921 7.06375 6.34906C7.04217 6.37064 6.99789 6.38275 7.01229 6.42923Z" fill="#E2E2E2"/>
<path d="M9.34837 8.7653C9.51426 8.93516 9.68279 9.10257 9.84471 9.27599C9.89963 9.33489 9.93007 9.3242 9.98087 9.27279C10.2764 8.97298 10.5758 8.67704 10.8727 8.37856C11.0731 8.17694 11.2717 7.97359 11.4713 7.771C11.4903 7.72891 11.4488 7.71791 11.4302 7.69903C11.2804 7.54627 11.1252 7.39876 10.9788 7.2428C10.9196 7.17978 10.8883 7.19195 10.8337 7.24702C10.3571 7.72784 9.87739 8.20534 9.39978 8.68519C9.37825 8.70672 9.33386 8.71873 9.34837 8.7653Z" fill="#E2E2E2"/>
<path d="M11.6847 11.1015L11.6848 11.1016C11.8507 11.2713 12.019 11.4387 12.181 11.6121C12.236 11.6709 12.2665 11.6603 12.3173 11.6088C12.6183 11.3035 12.9232 11.002 13.2256 10.6982C13.4207 10.5021 13.6136 10.3043 13.8076 10.1072C13.8227 10.0612 13.7794 10.0485 13.758 10.0268C13.6134 9.87878 13.4626 9.73636 13.3212 9.58513C13.261 9.52039 13.2288 9.52324 13.1672 9.58544C12.6923 10.066 12.213 10.5421 11.7364 11.0211C11.7148 11.0427 11.6704 11.0548 11.6847 11.1015Z" fill="#E2E2E2"/>
<path d="M14.0207 13.4378C14.1865 13.6075 14.3551 13.7749 14.5169 13.9482C14.5719 14.0072 14.6023 13.9966 14.6532 13.9451C14.9542 13.6398 15.2591 13.3383 15.5615 13.0344C15.7565 12.8383 15.9495 12.6404 16.1435 12.4434C16.1626 12.4012 16.1209 12.3902 16.1025 12.3714C15.9527 12.2186 15.7975 12.071 15.651 11.9152C15.5918 11.8522 15.5606 11.8642 15.5059 11.9194C15.0294 12.4002 14.5496 12.8777 14.072 13.3576C14.0505 13.3791 14.0063 13.3913 14.0207 13.4378Z" fill="#E2E2E2"/>
<path d="M11.7966 4.05719C11.9694 4.23214 12.1445 4.40485 12.3158 4.58112C12.3645 4.63131 12.3875 4.59512 12.4176 4.56483C12.8314 4.15075 13.2448 3.73596 13.6607 3.32391C13.7085 3.27652 13.7065 3.24965 13.6595 3.20419C13.4997 3.04966 13.3444 2.89018 13.186 2.73397C13.1696 2.71778 13.1587 2.68128 13.122 2.70185C13.0245 2.79612 12.9257 2.88922 12.83 2.98537C12.4848 3.332 12.1409 3.67976 11.7966 4.02731C11.7963 4.03739 11.7915 4.0521 11.7966 4.05719Z" fill="#E2E2E2"/>
<path d="M14.1331 6.39344C14.3058 6.56829 14.4809 6.74094 14.6522 6.91727C14.701 6.96761 14.724 6.93116 14.754 6.90098C15.1679 6.487 15.5811 6.07221 15.9969 5.66006C16.0447 5.61272 16.0428 5.58584 15.9958 5.54039C15.836 5.38585 15.6808 5.22653 15.5224 5.07032C15.5059 5.05403 15.4951 5.01763 15.4583 5.03789C15.3664 5.12692 15.273 5.21427 15.1828 5.30507C14.8322 5.65726 14.4828 6.01061 14.1328 6.36341C14.1326 6.37359 14.1281 6.3883 14.1331 6.39344Z" fill="#E2E2E2"/>
<path d="M16.4692 8.72971C16.642 8.90465 16.817 9.07726 16.9883 9.25368C17.0371 9.30387 17.0601 9.26743 17.0902 9.23734C17.5041 8.82321 17.9173 8.40842 18.3331 7.99627C18.3811 7.94888 18.379 7.92226 18.3321 7.87676C18.1721 7.72217 18.0168 7.5627 17.8585 7.40643C17.8421 7.39024 17.831 7.35385 17.7944 7.37416C17.6586 7.50716 17.5212 7.63849 17.387 7.77302C17.0803 8.08117 16.775 8.39076 16.469 8.69962C16.4687 8.70985 16.4642 8.72457 16.4692 8.72971Z" fill="#E2E2E2"/>
<path d="M18.8053 11.0359C18.8051 11.0461 18.8005 11.0607 18.8056 11.0658C18.9783 11.2408 19.1534 11.4135 19.3246 11.5897C19.3734 11.64 19.3964 11.6036 19.4265 11.5735C19.8404 11.1594 20.2536 10.7447 20.6693 10.3325C20.7171 10.2851 20.7154 10.2585 20.6685 10.213C20.5084 10.0583 20.3533 9.89905 20.1948 9.74274C20.1784 9.72655 20.1676 9.69016 20.1308 9.71041C20.0416 9.79659 19.9509 9.88124 19.8633 9.9692C19.5101 10.3242 19.1579 10.6803 18.8054 11.0359L18.8053 11.0359Z" fill="#E2E2E2"/>
<path d="M6.728 4.66961C6.81987 4.76444 6.90992 4.8607 7.00347 4.95364C7.35296 5.3015 7.70357 5.64824 8.05387 5.99549C8.06415 5.99538 8.07881 5.99986 8.08416 5.99472C8.2589 5.82201 8.43166 5.64702 8.60778 5.47579C8.65802 5.42697 8.62137 5.40396 8.59134 5.37393C8.17741 4.96 7.76282 4.54694 7.35072 4.13118C7.30323 4.08318 7.27671 4.08466 7.23095 4.13205C7.07647 4.29203 6.91709 4.44712 6.76088 4.60558C6.74449 4.62197 6.70871 4.63312 6.728 4.66961Z" fill="#E2E2E2"/>
<path d="M9.06426 2.33342C9.20805 2.48038 9.35042 2.62875 9.4961 2.77402C9.79321 3.07001 10.0919 3.36422 10.39 3.6592C10.4003 3.6593 10.415 3.66373 10.4202 3.65853C10.5949 3.48567 10.7677 3.31083 10.9439 3.13949C10.994 3.09068 10.9573 3.06752 10.9273 3.03759C10.5133 2.62376 10.0988 2.2106 9.68683 1.79514C9.63949 1.7474 9.61266 1.74877 9.56716 1.79591C9.41257 1.95579 9.2532 2.11109 9.09688 2.26924C9.08065 2.28588 9.04481 2.29688 9.06426 2.33342Z" fill="#E2E2E2"/>
<path d="M4.39178 7.00597C4.49159 7.10894 4.59009 7.21344 4.69179 7.31473C5.03303 7.65435 5.37554 7.99289 5.71755 8.33174C5.72788 8.33179 5.74259 8.33622 5.74773 8.33108C5.92242 8.15822 6.09523 7.98337 6.27145 7.81204C6.32169 7.76322 6.28499 7.74027 6.25486 7.71013C5.84093 7.29621 5.42639 6.8833 5.0145 6.46753C4.96691 6.41964 4.94039 6.42091 4.89468 6.46845C4.74019 6.62843 4.58072 6.78363 4.42445 6.94173C4.40817 6.95843 4.37233 6.96942 4.39178 7.00597Z" fill="#E2E2E2"/>
<path d="M2.05558 9.34209C2.1664 9.45606 2.27588 9.57156 2.38848 9.68374C2.71872 10.0126 3.05024 10.3399 3.38136 10.6679C3.39164 10.668 3.4064 10.6723 3.41154 10.6672C3.58639 10.4944 3.75904 10.3195 3.93521 10.1482C3.9854 10.0995 3.94875 10.0762 3.91872 10.0462C3.50469 9.63238 3.0901 9.21932 2.67821 8.80376C2.63061 8.75566 2.6041 8.75714 2.55849 8.80458C2.40405 8.96451 2.24458 9.11971 2.08826 9.27786C2.07203 9.2945 2.03614 9.30555 2.05558 9.34209Z" fill="#E2E2E2"/>
<path d="M7.65024 2.92343C7.70644 2.97678 7.74252 3.05532 7.82778 3.07451C8.00884 2.89651 8.1903 2.71891 8.37141 2.54106C8.38698 2.5259 8.39253 2.50976 8.37406 2.4924C8.33725 2.45285 8.29852 2.41442 8.26396 2.37284C8.22878 2.33043 8.20298 2.32937 8.16236 2.37121C8.00278 2.53567 7.83888 2.69611 7.67742 2.85879C7.66032 2.8761 7.62225 2.89686 7.65024 2.92343Z" fill="#E2E2E2"/>
<path d="M12.3825 1.46722C12.5175 1.60608 12.6517 1.7459 12.788 1.88374C12.9556 2.05345 12.9564 2.05263 13.1135 1.86461C13.1158 1.85763 13.1222 1.84654 13.1199 1.84419C12.941 1.66253 12.7613 1.48137 12.5818 1.30032C12.5631 1.28153 12.5418 1.27293 12.5233 1.29691C12.4781 1.35519 12.3997 1.38593 12.3825 1.46722Z" fill="#E2E2E2"/>
<path d="M14.7188 3.80354C14.8537 3.9423 14.988 4.08207 15.1242 4.21991C15.2921 4.38977 15.2929 4.389 15.4498 4.20087C15.4522 4.19385 15.4586 4.1828 15.4562 4.18046C15.2772 3.99864 15.0977 3.81759 14.918 3.63648C14.8996 3.6179 14.878 3.60915 14.8594 3.63317C14.8142 3.6914 14.736 3.7222 14.7188 3.80354Z" fill="#E2E2E2"/>
<path d="M17.0548 6.13956C17.1897 6.27842 17.3239 6.41829 17.4602 6.55608C17.628 6.72584 17.6288 6.72507 17.7858 6.53694C17.7881 6.52992 17.7945 6.51882 17.7922 6.51648C17.6133 6.33476 17.4337 6.15381 17.2541 5.9726C17.2356 5.95402 17.214 5.94532 17.1955 5.96929C17.1504 6.02747 17.072 6.05842 17.0548 6.13956Z" fill="#E2E2E2"/>
<path d="M19.3911 8.4759C19.5262 8.61486 19.6602 8.75448 19.7964 8.89232C19.9644 9.06213 19.9651 9.06141 20.1221 8.87328C20.1244 8.86631 20.1308 8.85516 20.1285 8.85282C19.9495 8.671 19.77 8.49 19.5904 8.30894C19.572 8.29036 19.5503 8.28166 19.5317 8.30558C19.4866 8.36386 19.4082 8.39466 19.3911 8.4759Z" fill="#E2E2E2"/>
<path d="M3.53177 7.00911C3.35001 7.18823 3.16865 7.36797 2.98754 7.54785C2.97359 7.56159 2.95848 7.58058 2.97777 7.59692C3.03676 7.64685 3.07051 7.72733 3.15546 7.74642C3.29407 7.61148 3.43354 7.4773 3.57097 7.34109C3.74001 7.17408 3.7392 7.17327 3.55214 7.01583C3.54521 7.01339 3.53407 7.00682 3.53177 7.00911Z" fill="#E2E2E2"/>
<path d="M9.98651 0.588267C10.0455 0.638252 10.0791 0.718625 10.1641 0.737713C10.3028 0.602672 10.4422 0.468548 10.5797 0.332438C10.7485 0.165482 10.7478 0.16477 10.5608 0.00728145C10.5539 0.0048382 10.5428 -0.00177895 10.5405 0.0004607C10.3586 0.179531 10.1772 0.359263 9.99629 0.539199C9.98239 0.552891 9.96717 0.571775 9.98651 0.588267Z" fill="#E2E2E2"/>
<path d="M9.83718 19.143C9.65836 18.9614 9.47858 18.7802 9.2991 18.5991C9.28042 18.5803 9.25894 18.5719 9.24047 18.5958C9.19527 18.6547 9.11596 18.6851 9.0981 18.7665C9.2196 18.9193 9.36762 19.0459 9.50322 19.1848C9.67002 19.3557 9.6716 19.3542 9.83102 19.1636C9.83331 19.1566 9.83973 19.1455 9.83718 19.143Z" fill="#E2E2E2"/>
<path d="M5.16514 14.4706C4.98628 14.2889 4.8067 14.1079 4.62707 13.9268C4.60844 13.9079 4.58685 13.8996 4.56843 13.9235C4.52307 13.9821 4.44413 14.0128 4.42601 14.094C4.54735 14.2467 4.69553 14.3734 4.83087 14.5121C4.99793 14.683 4.99951 14.6815 5.15878 14.491C5.16112 14.484 5.16748 14.473 5.16514 14.4706Z" fill="#E2E2E2"/>
<path d="M7.50109 16.8066C7.32222 16.6249 7.14254 16.4438 6.96311 16.2629C6.94438 16.2439 6.9229 16.2357 6.90437 16.2595C6.85907 16.3182 6.78012 16.3489 6.762 16.4302C6.88299 16.5828 7.03157 16.7093 7.16702 16.8483C7.33393 17.0194 7.33556 17.0178 7.49483 16.8272C7.49717 16.8201 7.50353 16.8091 7.50109 16.8066Z" fill="#E2E2E2"/>
<path d="M20.2837 10.8892C20.3426 10.9342 20.3733 11.0134 20.4548 11.0312C20.6066 10.9092 20.7335 10.7617 20.8721 10.6262C21.0424 10.4599 21.041 10.4585 20.851 10.2987C20.8441 10.2962 20.8331 10.2897 20.8308 10.292C20.6487 10.4709 20.4676 10.6509 20.2862 10.8305C20.267 10.8495 20.2597 10.8706 20.2837 10.8892Z" fill="#E2E2E2"/>
<path d="M4.26062 11.6264C4.54943 11.9107 4.83422 12.1991 5.12171 12.485C5.33417 12.6964 5.54857 12.9061 5.76205 13.1165C5.80796 13.1315 5.82089 13.0882 5.84262 13.0669C5.99049 12.9221 6.13291 12.7715 6.28409 12.6303C6.34884 12.5699 6.34604 12.5376 6.28384 12.4762C5.80318 12.0012 5.32715 11.5221 4.84832 11.0456C4.82659 11.024 4.81457 10.9796 4.76785 10.9938C4.59804 11.1595 4.43063 11.3279 4.25741 11.4899C4.19877 11.5447 4.2088 11.5754 4.26062 11.6264Z" fill="#E2E2E2"/>
<path d="M6.59651 13.9625C6.88533 14.2468 7.17027 14.5352 7.45761 14.821C7.67027 15.0325 7.88452 15.2421 8.09805 15.4527C8.14401 15.4676 8.15679 15.4243 8.17857 15.4029C8.32659 15.2582 8.46881 15.1076 8.62014 14.9664C8.68484 14.906 8.68204 14.8738 8.61989 14.8124C8.13918 14.3374 7.6631 13.8581 7.18437 13.3817C7.16264 13.3601 7.15052 13.3156 7.10379 13.3298C6.93394 13.4955 6.76668 13.664 6.59341 13.8261C6.53452 13.8809 6.54495 13.9116 6.59651 13.9625Z" fill="#E2E2E2"/>
<path d="M8.93296 16.2988C9.22717 16.5887 9.51766 16.8826 9.81055 17.1738C10.0176 17.3799 10.2264 17.5841 10.4345 17.789C10.4803 17.8039 10.4932 17.7606 10.515 17.7393C10.6629 17.5946 10.8053 17.4439 10.9565 17.3028C11.0213 17.2424 11.0184 17.2102 10.9561 17.1487C10.4757 16.6738 9.99944 16.1946 9.52057 15.7179C9.49898 15.6965 9.48692 15.652 9.44019 15.6662C9.27054 15.8321 9.10302 16.0005 8.92971 16.1624C8.87091 16.2173 8.88125 16.2479 8.93296 16.2988Z" fill="#E2E2E2"/>
<path d="M3.95049 12.4847C3.68947 12.2279 3.43221 11.9672 3.17246 11.709C2.93226 11.4701 2.69073 11.2327 2.44972 10.9947C2.40752 10.9752 2.39652 11.0169 2.37779 11.0355C2.22504 11.1854 2.07743 11.3407 1.92131 11.4871C1.85819 11.5463 1.87082 11.5775 1.92589 11.6319C2.40671 12.1087 2.88451 12.5888 3.36436 13.0665C3.38604 13.0882 3.39943 13.1306 3.44478 13.1172C3.61454 12.9513 3.78149 12.7827 3.95512 12.6209C4.01498 12.5649 4.00118 12.5345 3.95049 12.4847Z" fill="#E2E2E2"/>
<path d="M11.7945 6.32239C11.7522 6.30279 11.7414 6.34474 11.7227 6.36311C11.5698 6.51291 11.4222 6.66821 11.2661 6.81476C11.2029 6.8739 11.2156 6.90501 11.2706 6.95952C11.7514 7.43626 12.2293 7.91631 12.7091 8.39412C12.7308 8.4158 12.7442 8.4581 12.7896 8.44487C12.9592 8.27893 13.1263 8.11029 13.2998 7.94853C13.3598 7.89264 13.346 7.8622 13.2955 7.81237C13.0342 7.55547 12.7771 7.29486 12.5173 7.03648C12.2772 6.79786 12.0354 6.56035 11.7945 6.32239Z" fill="#E2E2E2"/>
<path d="M6.28688 14.8209C6.01471 14.5529 5.74646 14.2812 5.47582 14.012C5.24656 13.7842 5.01598 13.5579 4.78586 13.3309C4.74361 13.3113 4.73287 13.3532 4.71409 13.3716C4.56128 13.5215 4.41377 13.677 4.25771 13.8233C4.19444 13.8824 4.20706 13.9136 4.26213 13.9681C4.74295 14.4448 5.22071 14.9248 5.7007 15.4028C5.72234 15.4243 5.73572 15.4667 5.78108 15.4533C5.95078 15.2875 6.11789 15.1189 6.29136 14.9571C6.35127 14.901 6.33732 14.8706 6.28688 14.8209Z" fill="#E2E2E2"/>
<path d="M8.62309 17.1571C8.35662 16.8948 8.09382 16.6286 7.82847 16.3648C7.59387 16.1315 7.35779 15.8997 7.12222 15.667C7.08002 15.6475 7.06923 15.6894 7.0503 15.7078C6.89764 15.8578 6.75003 16.0131 6.59392 16.1595C6.5308 16.2187 6.54342 16.2499 6.5985 16.3043C7.07931 16.7811 7.55702 17.2611 8.03691 17.739C8.05865 17.7606 8.07193 17.8029 8.11739 17.7896C8.28709 17.6238 8.4541 17.4552 8.62762 17.2934C8.68758 17.2373 8.67369 17.2069 8.62309 17.1571Z" fill="#E2E2E2"/>
<path d="M10.9592 19.4934C10.6871 19.2254 10.4187 18.9538 10.1481 18.6844C9.91883 18.4566 9.68825 18.2303 9.45822 18.0034C9.41598 17.9838 9.40513 18.0256 9.38645 18.044C9.23355 18.1939 9.08593 18.3492 8.93007 18.4957C8.8668 18.5549 8.87943 18.5861 8.9345 18.6406C9.41531 19.1173 9.89297 19.5972 10.373 20.0752C10.3946 20.0967 10.4079 20.1389 10.4534 20.1258C10.6229 19.9598 10.7903 19.7914 10.9637 19.6296C11.0236 19.5736 11.0098 19.5432 10.9592 19.4934Z" fill="#E2E2E2"/>
<path d="M7.72721 8.02495C7.48833 8.26505 7.25098 8.50668 7.01302 8.7477C6.99312 8.79 7.03526 8.80079 7.05359 8.81952C7.20359 8.97248 7.35894 9.12009 7.50534 9.27605C7.56443 9.33912 7.59548 9.3268 7.65015 9.27172C8.12689 8.79071 8.60694 8.3129 9.08475 7.83285C9.10623 7.81137 9.15092 7.79926 9.1355 7.75238C8.96961 7.58293 8.80108 7.41592 8.63911 7.24235C8.58307 7.18233 8.55278 7.19633 8.503 7.24693C8.2462 7.508 7.98544 7.7651 7.72721 8.02495Z" fill="#E2E2E2"/>
<path d="M7.50832 11.6122C7.56329 11.671 7.59373 11.6607 7.64474 11.6091C7.94017 11.3094 8.23941 11.0132 8.53627 10.7147C8.73677 10.5132 8.93544 10.3099 9.13492 10.1073C9.1539 10.0651 9.11237 10.0541 9.09394 10.0353C8.94409 9.88259 8.78884 9.73508 8.64245 9.57912C8.58325 9.51595 8.5521 9.52817 8.49743 9.58324C8.02089 10.0641 7.54105 10.5417 7.06355 11.0214C7.04196 11.043 6.99768 11.0551 7.01208 11.1016C7.17802 11.2714 7.34635 11.4388 7.50832 11.6122Z" fill="#E2E2E2"/>
<path d="M9.84449 13.9481C9.89966 14.0072 9.93021 13.9964 9.98085 13.9449C10.2764 13.645 10.5758 13.3493 10.8727 13.0508C11.0731 12.8492 11.2717 12.6457 11.4712 12.4433C11.4901 12.401 11.4486 12.39 11.4302 12.3713C11.2803 12.2185 11.1251 12.071 10.9786 11.9151C10.9194 11.8519 10.8882 11.8644 10.8336 11.9194C10.357 12.4 9.87732 12.8777 9.39951 13.3573C9.37778 13.3791 9.33583 13.3923 9.34835 13.4376C9.51419 13.6073 9.68262 13.7748 9.84449 13.9481Z" fill="#E2E2E2"/>
<path d="M9.46036 1.69107C9.46011 1.7013 9.45557 1.71601 9.46051 1.72105C9.63322 1.89589 9.80837 2.0687 9.9797 2.24513C10.0285 2.29531 10.0513 2.25882 10.0814 2.22874C10.4954 1.81476 10.9085 1.39996 11.3244 0.987816C11.3722 0.940427 11.3705 0.913602 11.3235 0.868147C11.1635 0.713611 11.0082 0.554138 10.8499 0.397871C10.8334 0.381736 10.8225 0.34524 10.7858 0.3656C10.7213 0.427038 10.6554 0.48705 10.5926 0.55027C10.2148 0.930145 9.83764 1.31073 9.46036 1.69107Z" fill="#E2E2E2"/>
<path d="M16.1785 14.9707C16.1715 14.9683 16.1605 14.9618 16.1582 14.9641C15.9762 15.1432 15.795 15.323 15.6137 15.5027C15.5944 15.5216 15.587 15.5428 15.6111 15.5613C15.6699 15.6063 15.7006 15.6856 15.782 15.7033C15.934 15.5815 16.0609 15.4338 16.1996 15.2983C16.3697 15.1323 16.3682 15.1308 16.1785 14.9707Z" fill="#E2E2E2"/>
<path d="M18.5148 12.6348C18.5078 12.6324 18.4969 12.6259 18.4946 12.6282C18.3124 12.8071 18.1314 12.9871 17.95 13.1667C17.9308 13.1857 17.9233 13.2067 17.9474 13.2252C18.0064 13.2703 18.037 13.3496 18.1187 13.3673C18.2702 13.2455 18.3973 13.0979 18.5358 12.9624C18.7061 12.7962 18.7046 12.7948 18.5148 12.6348Z" fill="#E2E2E2"/>
<path d="M11.5271 19.9708C11.6971 19.8049 11.6956 19.8034 11.506 19.6432C11.499 19.6408 11.488 19.6342 11.4857 19.6365C11.3037 19.8157 11.1225 19.9955 10.9411 20.1753C10.9219 20.1941 10.9144 20.2153 10.9386 20.2337C10.9977 20.2787 11.028 20.3581 11.1098 20.3759C11.2614 20.2538 11.3884 20.1062 11.5271 19.9708Z" fill="#E2E2E2"/>
<path d="M13.8424 17.3073C13.8355 17.3049 13.8245 17.2983 13.8222 17.3007C13.6401 17.4795 13.459 17.6596 13.2775 17.8392C13.2584 17.8581 13.2511 17.8793 13.2752 17.8977C13.3341 17.9427 13.3648 18.0219 13.4463 18.0398C13.598 17.9178 13.725 17.7702 13.8636 17.6347C14.0338 17.4686 14.0323 17.4672 13.8424 17.3073Z" fill="#E2E2E2"/>
<path d="M2.82214 12.1549C2.82443 12.1479 2.831 12.1369 2.82856 12.1344C2.64969 11.9527 2.47001 11.7716 2.29048 11.5905C2.2718 11.5718 2.25032 11.5633 2.23174 11.5872C2.18654 11.646 2.10754 11.6766 2.08952 11.7579C2.21072 11.9106 2.35894 12.0372 2.49439 12.176C2.66135 12.3472 2.66298 12.3456 2.82214 12.1549Z" fill="#E2E2E2"/>
<path d="M5.88853 4.67953C5.88151 4.67698 5.87051 4.67047 5.86822 4.67276C5.6864 4.85193 5.50509 5.03161 5.32394 5.21155C5.30999 5.22529 5.29487 5.24428 5.31427 5.26072C5.37321 5.3105 5.4068 5.39113 5.49186 5.41011C5.63046 5.27517 5.76998 5.14095 5.90737 5.00479C6.07621 4.83798 6.07539 4.83717 5.88853 4.67953Z" fill="#E2E2E2"/>
<path d="M1.21584 9.35203C1.20892 9.34959 1.19782 9.34297 1.19558 9.34521C1.01361 9.52433 0.832303 9.70401 0.651248 9.88405C0.637301 9.89779 0.622183 9.91678 0.641577 9.93301C0.700622 9.9829 0.734013 10.0635 0.81912 10.0825C0.957775 9.94747 1.09724 9.81329 1.23483 9.67713C1.40362 9.51018 1.40291 9.50947 1.21584 9.35203Z" fill="#E2E2E2"/>
</svg>
