<svg width="17" height="19" viewBox="0 0 17 19" fill="none" xmlns="http://www.w3.org/2000/svg">
<path d="M9.11664 0.057028C11.6209 0.443171 13.3215 2.68466 12.9151 5.06351C12.5088 7.44258 10.1493 9.05815 7.64508 8.67201C5.14078 8.28601 3.44019 6.04453 3.84665 3.66553C4.25296 1.2866 6.61243 -0.329119 9.11664 0.057028Z" fill="#161616"/>
<path d="M16.7619 18.2281C16.7613 18.4326 16.6755 18.6286 16.5232 18.7732C16.371 18.9178 16.1646 18.9994 15.9495 19H0.812454C0.59729 18.9994 0.39093 18.9178 0.238708 18.7732C0.0864716 18.6286 0.00062561 18.4326 0 18.2281C0 16.1165 0.883102 14.0915 2.45471 12.5984C4.02647 11.1052 6.1582 10.2664 8.38078 10.2664C10.6034 10.2664 12.7351 11.1052 14.3069 12.5984C15.8784 14.0916 16.7616 16.1167 16.7616 18.2281H16.7619Z" fill="#161616"/>
</svg>
