<svg width="17" height="18" viewBox="0 0 17 18" fill="none" xmlns="http://www.w3.org/2000/svg">
<path d="M16.9185 12.1485L14.9863 5.12289C14.1373 2.03053 11.3098 -0.0811555 8.13011 0.00239328C4.95043 0.085942 2.23576 2.34326 1.5475 5.476L0.0529806 12.2609C-0.0934977 12.9267 0.0674044 13.6236 0.490436 14.1556C0.913469 14.6876 1.55293 14.9972 2.22899 14.9974H4.9096C5.26127 16.7445 6.78397 18 8.55114 18C10.3183 18 11.841 16.7445 12.1927 14.9974H14.7715C15.4676 14.9971 16.1237 14.6687 16.5451 14.1098C16.9665 13.5508 17.1049 12.8253 16.9192 12.1485H16.9185ZM8.55114 16.4968C7.6097 16.4929 6.77218 15.8928 6.45837 14.9974L10.6439 14.9974C10.3301 15.8928 9.49258 16.4929 8.55114 16.4968ZM15.3623 13.2018C15.2217 13.3898 15.0012 13.4997 14.7678 13.498H2.22899C2.00371 13.498 1.79048 13.3948 1.64943 13.2174C1.50833 13.0399 1.45474 12.8075 1.50365 12.5856L2.99817 5.80063C3.54002 3.34207 5.671 1.57103 8.16675 1.50507C10.6625 1.43912 12.8825 3.09517 13.5512 5.52174L15.4834 12.5473C15.5474 12.7726 15.5025 13.015 15.3623 13.2018L15.3623 13.2018Z" fill="white"/>
</svg>
