<svg width="13" height="13" viewBox="0 0 13 13" fill="none" xmlns="http://www.w3.org/2000/svg">
<path d="M12.3611 1.94612H9.3107V1.55689C9.3107 0.700573 8.59204 0 7.71365 0H5.28619C4.40779 0 3.68915 0.700573 3.68915 1.55689V1.94612H0.638794C0.287415 1.94612 0 2.2263 0 2.56882C0 2.91134 0.287415 3.19152 0.638794 3.19152H1.5331L1.78865 10.5868C1.83656 11.9412 2.95447 13 4.34399 13H8.65602C10.0454 13 11.1635 11.9414 11.2114 10.5868L11.4669 3.19152H12.3612C12.7126 3.19152 13 2.91134 13 2.56882C13 2.2263 12.7125 1.94612 12.3611 1.94612H12.3611ZM4.96672 1.55689C4.96672 1.38563 5.11041 1.24554 5.28609 1.24554H7.71365C7.88931 1.24554 8.033 1.38564 8.033 1.55689V1.94612H4.96667L4.96672 1.55689ZM5.22226 9.74617C5.22226 10.0887 4.93484 10.3689 4.5835 10.3689C4.23213 10.3689 3.94475 10.0887 3.94475 9.74617L3.94461 5.09105C3.94461 4.74853 4.23204 4.46835 4.58337 4.46835C4.93472 4.46835 5.22215 4.74853 5.22215 5.09105L5.22226 9.74617ZM7.13869 9.74617C7.13869 10.0887 6.85129 10.3689 6.49994 10.3689C6.14859 10.3689 5.86118 10.0887 5.86118 9.74617V5.09105C5.86118 4.74853 6.14859 4.46835 6.49994 4.46835C6.85129 4.46835 7.13869 4.74853 7.13869 5.09105V9.74617ZM9.05524 9.74617C9.05524 10.0887 8.76782 10.3689 8.41647 10.3689C8.06511 10.3689 7.77771 10.0887 7.77771 9.74617L7.7776 5.09105C7.7776 4.74853 8.06502 4.46835 8.41637 4.46835C8.76772 4.46835 9.05511 4.74853 9.05511 5.09105L9.05524 9.74617Z" fill="#BC4155"/>
</svg>
