<svg width="70" height="70" viewBox="0 0 70 70" fill="none" xmlns="http://www.w3.org/2000/svg">
<path d="M33.0125 59.6769C14.7819 58.3989 4.16614 46.8325 2.44727 37.0103C13.3217 37.4168 22.5947 41.1227 29.956 49.8238C27.8936 41.0205 29.354 33.3121 34.9744 26.2729C40.5933 33.2573 42.0602 40.9447 40.0108 49.8017C47.3582 41.1367 56.6316 37.4275 67.5855 37.0009C67.0261 39.7867 66.025 42.2362 64.6042 44.5021C60.1387 51.6232 53.5994 55.9352 45.6313 58.1569C42.8868 58.9222 40.0319 59.2893 37.021 59.8787V70H33.0125V59.6769Z" fill="white"/>
<path d="M51.0195 11.3831C54.6921 10.7717 58.2683 11.2038 61.6376 13.0496C68.4913 16.8043 71.484 25.2666 68.5253 32.4976C68.228 33.2248 67.8477 33.535 67.0731 33.4983C66.1098 33.4521 65.1433 33.4869 64.1177 33.4869C67.2378 27.9032 66.9954 22.5753 62.3264 17.9342C58.6426 14.2727 53.9661 13.7567 48.366 16.0347C46.8509 7.89032 42.2499 3.12994 33.6654 3.62115C27.1896 3.99139 23.3156 8.34894 21.6583 16.1806C16.0296 13.5778 10.7668 14.0281 6.56002 18.7797C2.60115 23.2514 2.63484 28.3171 5.5588 33.4798C4.32406 33.4798 3.17086 33.5488 2.03633 33.4353C1.72017 33.404 1.35262 32.8805 1.1877 32.5039C-1.31816 26.7933 0.239945 19.618 4.9305 15.3242C8.71871 11.8554 13.1817 10.5425 18.2461 11.3694C18.9538 11.4849 19.1722 11.2458 19.4145 10.6542C22.3445 3.50177 29.0069 -0.695135 36.6604 0.0949044C43.0238 0.752132 47.5487 4.2221 50.2969 9.99738C50.4965 10.4168 50.6654 10.8509 50.8529 11.2761C50.8655 11.3048 50.9144 11.3174 51.0195 11.3831Z" fill="white"/>
</svg>
