<svg width="19" height="20" viewBox="0 0 19 20" fill="none" xmlns="http://www.w3.org/2000/svg">
<path fill-rule="evenodd" clip-rule="evenodd" d="M2.30793 19.9999L15.8626 19.9775C16.5503 19.9775 17.2057 19.663 17.6395 19.1221C18.0732 18.5821 18.2379 17.8745 18.0878 17.1975V17.196C17.1594 13.0784 13.4777 9.99998 9.08262 9.99998C4.68961 9.99998 1.00881 13.0762 0.0558539 17.1854L0.0551673 17.1892C-0.0971307 17.8762 0.0697547 18.5915 0.508124 19.1368C0.94596 19.683 1.60821 20 2.30825 20L2.30793 19.9999ZM9.11932 0C6.53402 0 4.43539 2.09924 4.43539 4.68436C4.43539 7.26967 6.53393 9.36829 9.11932 9.36829C11.7047 9.36829 13.8037 7.26975 13.8037 4.68436C13.8037 2.09907 11.7045 0 9.11932 0Z" fill="#BC4155"/>
</svg>
