<svg width="20" height="20" viewBox="0 0 20 20" fill="none" xmlns="http://www.w3.org/2000/svg">
<path fill-rule="evenodd" clip-rule="evenodd" d="M1.51456 9.59662V17.8809C1.51456 19.0513 2.46426 20 3.63589 20H6.46439C7.02725 20 7.56668 19.7767 7.96414 19.3791C8.36221 18.9821 8.58572 18.4431 8.58572 17.8809V14.7382C8.58572 14.3484 8.9025 14.0318 9.29276 14.0318H10.7069C11.0974 14.0318 11.4142 14.3484 11.4142 14.7382V17.8809C11.4142 18.4431 11.6376 18.9821 12.0357 19.3791C12.4331 19.7767 12.9727 20 13.5354 20H16.3639C17.5356 20 18.4853 19.0513 18.4853 17.8809V9.59662L18.7929 9.90378C19.0686 10.1794 19.5169 10.1794 19.7928 9.90378C20.0691 9.62833 20.0691 9.18054 19.7928 8.90509C19.7928 8.90509 13.9012 3.01883 11.4998 0.620819C10.6718 -0.20694 9.32828 -0.20694 8.50027 0.620819L0.207184 8.90509C-0.0690613 9.18054 -0.0690613 9.62833 0.207184 9.90378C0.483063 10.1794 0.931427 10.1794 1.20718 9.90378L1.51456 9.59662Z" fill="#E2E2E2"/>
</svg>
