<svg width="25" height="22" viewBox="0 0 25 22" fill="none" xmlns="http://www.w3.org/2000/svg">
<path d="M8.96861 7.28105L10.3093 6.25217V6.25195C10.4673 6.13126 10.6832 6.13126 10.841 6.25195L12.1817 7.2763C12.1817 6.62582 12.1817 3.3406 12.1413 3.12372H9.01307C8.98634 3.34515 8.96857 6.63966 8.96857 7.28105H8.96861Z" fill="#BC4155"/>
<path d="M8.3702 0H1.97514C1.72136 0.00474539 1.47534 0.0920774 1.27222 0.249446C1.06932 0.406822 0.919507 0.626392 0.844481 0.876692L0.419914 2.1917H8.18687C8.18687 2.1917 8.33429 0.410804 8.37001 7.62925e-05L8.3702 0Z" fill="#BC4155"/>
<path d="M9.26886 0C9.21979 0.645961 9.1392 1.55019 9.08576 2.19162H12.0664C12.0664 2.19162 11.919 0.373604 11.8876 0H9.26886Z" fill="#BC4155"/>
<path d="M20.2623 19.9785C14.6717 19.3325 13.9296 11.6733 19.3685 10.0444C19.9495 9.87696 20.5544 9.81454 21.1561 9.85985V3.5801C21.1561 3.45774 21.109 3.34033 21.0253 3.25383C20.9413 3.16731 20.8277 3.1187 20.7092 3.1187H13.0628V8.19408C13.0642 8.3704 12.9679 8.53229 12.8148 8.61078C12.6618 8.68927 12.4789 8.6707 12.3434 8.5632L10.5781 7.179L8.79052 8.5632C8.65446 8.66846 8.47228 8.68493 8.32046 8.60561C8.16863 8.52632 8.07369 8.36504 8.07546 8.18934C8.07546 7.19282 8.11118 3.11395 8.11118 3.11395H0.446906C0.200107 3.11395 0 3.32055 0 3.57534V20.712C0.00698839 21.0599 0.147435 21.3908 0.390427 21.632C0.633235 21.8735 0.95905 22.0055 1.29599 21.9993H19.8607C20.1976 22.0055 20.5233 21.8735 20.7662 21.632C21.0092 21.3908 21.1495 21.0598 21.1567 20.712V19.9923C20.8588 20.0153 20.5597 20.0106 20.2629 19.9783L20.2623 19.9785ZM14.5685 12.9974C14.5685 13.2421 14.4743 13.4769 14.3068 13.6499C14.1392 13.8229 13.9117 13.9202 13.6747 13.9202H7.48495C7.24794 13.9202 7.02048 13.8229 6.85289 13.6499C6.68531 13.4769 6.59113 13.2421 6.59113 12.9974V11.3594C6.59113 11.1147 6.68531 10.8801 6.85289 10.7069C7.02048 10.5339 7.24794 10.4366 7.48495 10.4366H13.6747C13.9117 10.4366 14.1392 10.5339 14.3068 10.7069C14.4743 10.8801 14.5685 11.1147 14.5685 11.3594V12.9974Z" fill="#BC4155"/>
<path d="M22.0506 10.9629C19.5166 10.1001 16.4819 12.0886 16.5355 14.9262C16.4819 17.7638 19.5164 19.7664 22.0506 18.8897C23.1864 18.577 24.1299 17.7612 24.6271 16.6614C25.1244 15.5617 25.1244 14.291 24.6271 13.1912C24.1299 12.0915 23.1864 11.2756 22.0506 10.9629V10.9629ZM22.9934 13.962L20.4596 16.5366C20.2853 16.7156 20.0036 16.7156 19.8294 16.5366L18.5647 15.2401C18.4823 15.1507 18.4376 15.0313 18.4406 14.9079C18.4434 14.7847 18.4937 14.6675 18.5803 14.5827C18.7605 14.4055 19.0456 14.4127 19.2172 14.5987L20.169 15.5722L22.3455 13.3068C22.522 13.1271 22.8061 13.1292 22.9801 13.3113C23.1541 13.4936 23.1521 13.7869 22.9755 13.9666L22.9934 13.962Z" fill="#BC4155"/>
<path d="M7.48521 11.3596H13.6749V12.9975H7.48521V11.3596Z" fill="#BC4155"/>
<path d="M20.7367 2.19165L20.3121 0.876646C20.2383 0.626376 20.0896 0.406593 19.8873 0.249034C19.6848 0.0916578 19.4393 0.00432578 19.1858 0H12.7683C12.8086 0.415267 12.9471 2.19162 12.9471 2.19162L20.7367 2.19165Z" fill="#BC4155"/>
</svg>
