<svg width="56" height="52" viewBox="0 0 56 52" fill="none" xmlns="http://www.w3.org/2000/svg">
<g filter="url(#filter0_d_1_1473)">
<path d="M0 5C0 2.23858 2.23858 0 5 0H41C43.7614 0 46 2.23858 46 5V41C46 43.7614 43.7614 46 41 46H5C2.23858 46 0 43.7614 0 41V5Z" fill="#BC4155"/>
</g>
<path d="M37.1351 25.8722C37.1351 25.4406 37.1351 25.0089 37.1351 24.5773C37.1351 23.5512 37.1351 22.5226 37.1351 21.4966C37.1351 20.2559 37.1351 19.0127 37.1351 17.772C37.1351 16.6917 37.1351 15.6113 37.1351 14.531C37.1351 14.0105 37.145 13.4876 37.1351 12.9672C37.1351 12.9598 37.1351 12.9524 37.1351 12.945C37.1351 12.5577 36.7947 12.1877 36.3951 12.205C35.9931 12.2223 35.6551 12.5306 35.6551 12.945C35.6551 13.3766 35.6551 13.8083 35.6551 14.2399C35.6551 15.266 35.6551 16.2946 35.6551 17.3206C35.6551 18.5613 35.6551 19.8045 35.6551 21.0451C35.6551 22.1255 35.6551 23.2059 35.6551 24.2862C35.6551 24.8066 35.6453 25.3296 35.6551 25.85C35.6551 25.8574 35.6551 25.8648 35.6551 25.8722C35.6551 26.2595 35.9955 26.6295 36.3951 26.6122C36.7972 26.5949 37.1351 26.2866 37.1351 25.8722Z" fill="white"/>
<path d="M37.1351 33.0746C37.1351 32.1817 37.1351 31.2889 37.1351 30.3959C37.1351 30.2702 37.1351 30.1419 37.1351 30.0161C37.1351 29.6289 36.7947 29.2589 36.3951 29.2761C35.9931 29.2934 35.6552 29.6017 35.6552 30.0161C35.6552 30.909 35.6552 31.8019 35.6552 32.6948C35.6552 32.8206 35.6552 32.9489 35.6552 33.0746C35.6552 33.4619 35.9955 33.8319 36.3951 33.8146C36.7972 33.7973 37.1351 33.489 37.1351 33.0746Z" fill="white"/>
<circle cx="36.3902" cy="27.9442" r="2.07931" transform="rotate(-90 36.3902 27.9442)" fill="white"/>
<path d="M37.9762 27.9442C37.9762 27.996 37.9737 28.0478 37.9713 28.0996C37.9713 28.1144 37.9737 28.1785 37.9639 28.1834C37.9639 28.1834 37.9861 28.0576 37.9663 28.1538C37.9491 28.2525 37.9269 28.3487 37.8973 28.4449C37.8874 28.472 37.8652 28.583 37.8405 28.6003C37.843 28.5978 37.8923 28.4893 37.8504 28.5731C37.8405 28.5929 37.8307 28.6126 37.8208 28.6323C37.7739 28.7236 37.7197 28.8099 37.6629 28.8963C37.6605 28.9012 37.6555 28.9061 37.6531 28.9086C37.621 28.9505 37.6284 28.9431 37.6728 28.8864C37.6728 28.8938 37.6334 28.9333 37.6309 28.9357C37.6037 28.9678 37.5742 28.9998 37.5446 29.0319C37.51 29.0665 37.4755 29.101 37.441 29.1331C37.4212 29.1503 37.4015 29.1701 37.3793 29.1873C37.3645 29.1996 37.288 29.2465 37.3546 29.2095C37.4262 29.1701 37.3374 29.2218 37.3275 29.2292C37.3102 29.2416 37.293 29.2539 37.2732 29.2662C37.2362 29.2909 37.1992 29.3131 37.1622 29.3328C37.1154 29.36 37.066 29.3822 37.0167 29.4068C36.9575 29.4364 37.0266 29.4216 37.0438 29.397C37.0315 29.4142 36.9698 29.4266 36.9526 29.4315C36.8638 29.4636 36.7725 29.4882 36.6813 29.508C36.6591 29.5129 36.6369 29.5178 36.6147 29.5203C36.5234 29.5351 36.6097 29.545 36.6295 29.5203C36.6122 29.54 36.4889 29.5326 36.4593 29.5326C36.3606 29.5351 36.2644 29.5277 36.1657 29.5228C36.0917 29.5178 36.2915 29.5474 36.1805 29.5252C36.1583 29.5203 36.1362 29.5178 36.1139 29.5129C36.0597 29.503 36.0054 29.4882 35.9512 29.4734C35.9092 29.4611 35.8673 29.4488 35.8254 29.434C35.8007 29.4241 35.7736 29.4142 35.7489 29.4044C35.6823 29.3822 35.8599 29.4586 35.7612 29.4093C35.6749 29.3649 35.5886 29.3205 35.5047 29.2687C35.4874 29.2564 35.4677 29.244 35.4504 29.2317C35.4406 29.2243 35.3518 29.175 35.4233 29.212C35.4924 29.249 35.4085 29.1996 35.3986 29.1898C35.3814 29.175 35.3666 29.1626 35.3493 29.1479C35.2778 29.0837 35.2087 29.0147 35.1471 28.9407C35.1372 28.9283 35.0879 28.8469 35.1249 28.916C35.1594 28.9777 35.1273 28.9185 35.115 28.9012C35.0879 28.8617 35.0607 28.8198 35.0361 28.7803C35.0139 28.7433 34.9917 28.7063 34.9719 28.6669C34.9596 28.6422 34.9473 28.6175 34.9349 28.5929C34.9275 28.5781 34.9201 28.5633 34.9152 28.5485C34.9399 28.6101 34.9473 28.625 34.9325 28.5904C34.9029 28.5016 34.8683 28.4153 34.8461 28.324C34.8338 28.2747 34.8239 28.2254 34.8141 28.176C34.8116 28.1538 34.8091 28.0848 34.8116 28.1588C34.8116 28.2426 34.8091 28.1242 34.8091 28.107C34.8017 28.0083 34.8017 27.9121 34.8067 27.8134C34.8091 27.7838 34.8116 27.7567 34.8141 27.7296C34.819 27.6605 34.7968 27.8282 34.8091 27.7592C34.8215 27.6975 34.8313 27.6383 34.8461 27.5791C34.8683 27.4928 34.8955 27.4114 34.9251 27.3275C34.9621 27.2239 34.8831 27.3991 34.9201 27.3399C34.9349 27.3177 34.9423 27.2905 34.9547 27.2659C34.9793 27.2165 35.0065 27.1697 35.0336 27.1228C35.0558 27.0858 35.0805 27.0488 35.1051 27.0143C35.1051 27.0143 35.1372 26.9625 35.1421 26.9625C35.1175 26.965 35.0755 27.0414 35.1347 26.9724C35.2013 26.8959 35.2704 26.8194 35.3468 26.7528C35.369 26.7331 35.4184 26.6714 35.4455 26.669C35.4282 26.6813 35.4134 26.6936 35.3962 26.706C35.4085 26.6961 35.4233 26.6862 35.4356 26.6763C35.4529 26.664 35.4702 26.6517 35.4899 26.6394C35.5762 26.5826 35.6675 26.5358 35.7588 26.4889C35.8426 26.447 35.7316 26.4963 35.7316 26.4988C35.7415 26.4864 35.7908 26.4741 35.8081 26.4692C35.855 26.4519 35.9018 26.4371 35.9487 26.4223C35.9906 26.41 36.035 26.4001 36.0769 26.3902C36.0991 26.3853 36.1214 26.3804 36.1435 26.3779C36.1657 26.373 36.1879 26.3705 36.2101 26.368C36.1879 26.3705 36.1682 26.373 36.146 26.3779C36.2422 26.3902 36.3557 26.3631 36.4543 26.3656C36.5012 26.368 36.5456 26.373 36.5925 26.3754C36.7059 26.3828 36.5061 26.3582 36.5801 26.373C36.6073 26.3779 36.6344 26.3828 36.664 26.3878C36.7775 26.41 36.8884 26.4445 36.997 26.484C37.0192 26.4914 37.0685 26.5284 37.0142 26.4889C36.9501 26.4445 37.0414 26.5037 37.0586 26.5111C37.108 26.5358 37.1548 26.5604 37.2017 26.59C37.2535 26.6196 37.3004 26.6542 37.3497 26.6887C37.4064 26.7257 37.3522 26.6714 37.3275 26.669C37.3472 26.669 37.3892 26.7208 37.4015 26.7306C37.4829 26.8022 37.5594 26.8786 37.6284 26.96C37.6358 26.9699 37.6679 27.002 37.6703 27.0094C37.6309 26.9551 37.621 26.9452 37.6432 26.9748C37.6531 26.9871 37.6629 27.002 37.6703 27.0143C37.7 27.0587 37.7296 27.1031 37.7567 27.1499C37.7838 27.1968 37.8085 27.2437 37.8331 27.293C37.8331 27.2905 37.8627 27.3473 37.8603 27.3522C37.8331 27.2831 37.8282 27.2757 37.8479 27.3251C37.8529 27.3349 37.8553 27.3448 37.8603 27.3547C37.8997 27.4583 37.9293 27.5643 37.9515 27.6729C37.9565 27.7 37.9614 27.7271 37.9663 27.7567C37.9713 27.7937 37.9713 27.7789 37.9589 27.7099C37.9614 27.7271 37.9639 27.7444 37.9639 27.7616C37.9737 27.8184 37.9762 27.88 37.9762 27.9442C37.9787 28.2032 38.2007 28.4498 38.4695 28.4375C38.7359 28.4251 38.9653 28.2204 38.9628 27.9442C38.953 26.8515 38.2648 25.8994 37.2461 25.5195C36.2743 25.157 35.0879 25.4776 34.4293 26.2817C34.0766 26.7134 33.8694 27.2141 33.8225 27.774C33.7806 28.2895 33.9162 28.8321 34.1826 29.2736C34.7524 30.2109 35.855 30.6747 36.9254 30.4625C38.1045 30.2282 38.9505 29.1331 38.9604 27.9466C38.9628 27.6876 38.731 27.441 38.467 27.4533C38.2007 27.4632 37.9787 27.6679 37.9762 27.9442Z" fill="white"/>
<path d="M45.5707 33.0746C45.5707 32.6529 45.5707 32.2286 45.5707 31.8068C45.5707 30.8005 45.5707 29.7941 45.5707 28.7878C45.5707 27.5668 45.5707 26.3459 45.5707 25.1249C45.5707 24.0692 45.5707 23.0135 45.5707 21.9578C45.5707 21.4448 45.5806 20.9318 45.5707 20.4187C45.5707 20.4113 45.5707 20.4039 45.5707 20.3965C45.5707 20.0093 45.2303 19.6393 44.8308 19.6565C44.4288 19.6738 44.0908 19.9821 44.0908 20.3965C44.0908 20.8183 44.0908 21.2425 44.0908 21.6643C44.0908 22.6707 44.0908 23.677 44.0908 24.6834C44.0908 25.9043 44.0908 27.1253 44.0908 28.3462C44.0908 29.4019 44.0908 30.4576 44.0908 31.5133C44.0908 32.0263 44.0809 32.5394 44.0908 33.0524C44.0908 33.0598 44.0908 33.0672 44.0908 33.0746C44.0908 33.4619 44.4312 33.8319 44.8308 33.8146C45.2329 33.7973 45.5707 33.489 45.5707 33.0746Z" fill="white"/>
<path d="M45.5707 16.2527C45.5707 15.2858 45.5707 14.3188 45.5707 13.3545C45.5707 13.2187 45.5707 13.0832 45.5707 12.9475C45.5707 12.5602 45.2304 12.1903 44.8307 12.2075C44.4287 12.2248 44.0908 12.5331 44.0908 12.9475C44.0908 13.9144 44.0908 14.8813 44.0908 15.8457C44.0908 15.9814 44.0908 16.117 44.0908 16.2527C44.0908 16.6399 44.4312 17.0099 44.8307 16.9927C45.2328 16.9753 45.5707 16.6671 45.5707 16.2527Z" fill="white"/>
<path d="M54.0064 33.0746C54.0064 32.2878 54.0064 31.501 54.0064 30.7117C54.0064 29.4513 54.0064 28.1933 54.0064 26.9329C54.0064 26.6443 54.0064 26.3557 54.0064 26.0696C54.0064 25.6823 53.666 25.3124 53.2664 25.3296C52.8644 25.3469 52.5265 25.6552 52.5265 26.0696C52.5265 26.8564 52.5265 27.6433 52.5265 28.4326C52.5265 29.693 52.5265 30.9509 52.5265 32.2113C52.5265 32.4999 52.5265 32.7885 52.5265 33.0746C52.5265 33.4619 52.8668 33.8319 53.2664 33.8146C53.6685 33.7973 54.0064 33.489 54.0064 33.0746Z" fill="white"/>
<circle cx="44.8259" cy="18.3246" r="2.07931" transform="rotate(-90 44.8259 18.3246)" fill="white"/>
<path d="M46.4119 18.3246C46.4119 18.3764 46.4094 18.4282 46.4069 18.48C46.4069 18.4947 46.4094 18.5589 46.3995 18.5639C46.3995 18.5639 46.4217 18.4381 46.402 18.5343C46.3847 18.6329 46.3625 18.7291 46.3329 18.8253C46.3231 18.8524 46.3008 18.9634 46.2762 18.9807C46.2787 18.9782 46.328 18.8696 46.286 18.9535C46.2762 18.9733 46.2663 18.993 46.2565 19.0127C46.2096 19.104 46.1553 19.1903 46.0986 19.2767C46.0961 19.2816 46.0912 19.2866 46.0887 19.2889C46.0567 19.3309 46.064 19.3236 46.1084 19.2668C46.1084 19.2742 46.069 19.3137 46.0665 19.3161C46.0394 19.3481 46.0098 19.3803 45.9802 19.4123C45.9457 19.4469 45.9111 19.4814 45.8766 19.5134C45.8569 19.5307 45.8371 19.5505 45.8149 19.5678C45.8001 19.5801 45.7237 19.6269 45.7903 19.5899C45.8618 19.5505 45.773 19.6022 45.7631 19.6096C45.7459 19.622 45.7286 19.6343 45.7089 19.6466C45.6719 19.6713 45.6349 19.6935 45.5979 19.7132C45.551 19.7404 45.5017 19.7626 45.4524 19.7872C45.3931 19.8169 45.4622 19.802 45.4795 19.7774C45.4671 19.7946 45.4055 19.8069 45.3882 19.8119C45.2994 19.844 45.2081 19.8687 45.1169 19.8883C45.0947 19.8933 45.0725 19.8983 45.0503 19.9007C44.959 19.9155 45.0454 19.9253 45.0651 19.9007C45.0478 19.9204 44.9245 19.913 44.8949 19.913C44.7962 19.9155 44.7001 19.9081 44.6014 19.9031C44.5274 19.8983 44.7272 19.9278 44.6162 19.9057C44.594 19.9007 44.5718 19.8983 44.5496 19.8933C44.4953 19.8834 44.441 19.8687 44.3868 19.8539C44.3449 19.8416 44.3029 19.8292 44.261 19.8144C44.2363 19.8045 44.2092 19.7946 44.1845 19.7847C44.1179 19.7626 44.2955 19.8391 44.1969 19.7897C44.1105 19.7453 44.0242 19.7009 43.9404 19.6491C43.9231 19.6368 43.9033 19.6244 43.8861 19.6121C43.8762 19.6048 43.7874 19.5554 43.8589 19.5924C43.928 19.6294 43.8441 19.5801 43.8343 19.5702C43.817 19.5554 43.8022 19.5431 43.7849 19.5283C43.7134 19.4641 43.6444 19.3951 43.5827 19.3211C43.5728 19.3087 43.5235 19.2273 43.5605 19.2964C43.595 19.3581 43.563 19.2989 43.5506 19.2816C43.5235 19.2421 43.4964 19.2002 43.4717 19.1607C43.4495 19.1237 43.4273 19.0867 43.4076 19.0473C43.3952 19.0227 43.3829 18.9979 43.3706 18.9733C43.3632 18.9584 43.3558 18.9437 43.3508 18.9289C43.3755 18.9905 43.3829 19.0053 43.3681 18.9708C43.3385 18.882 43.304 18.7957 43.2818 18.7044C43.2695 18.6551 43.2595 18.6058 43.2497 18.5564C43.2472 18.5343 43.2448 18.4651 43.2472 18.5391C43.2472 18.6231 43.2448 18.5046 43.2448 18.4873C43.2374 18.3887 43.2374 18.2925 43.2423 18.1938C43.2448 18.1642 43.2472 18.1371 43.2497 18.11C43.2547 18.0409 43.2324 18.2086 43.2448 18.1396C43.2571 18.0779 43.267 18.0187 43.2818 17.9595C43.304 17.8732 43.3311 17.7918 43.3607 17.708C43.3977 17.6043 43.3188 17.7794 43.3558 17.7203C43.3706 17.6981 43.378 17.6709 43.3903 17.6463C43.415 17.5969 43.4421 17.5501 43.4692 17.5033C43.4914 17.4662 43.5161 17.4291 43.5408 17.3947C43.5408 17.3947 43.5728 17.3429 43.5778 17.3429C43.5531 17.3454 43.5112 17.4218 43.5704 17.3527C43.637 17.2763 43.706 17.1998 43.7825 17.1332C43.8047 17.1135 43.854 17.0519 43.8811 17.0494C43.8639 17.0617 43.8491 17.074 43.8318 17.0863C43.8441 17.0765 43.8589 17.0666 43.8713 17.0568C43.8885 17.0444 43.9058 17.0321 43.9255 17.0198C44.0119 16.963 44.1032 16.9161 44.1944 16.8693C44.2783 16.8274 44.1673 16.8767 44.1673 16.8792C44.1771 16.8669 44.2265 16.8545 44.2437 16.8496C44.2906 16.8323 44.3375 16.8175 44.3843 16.8028C44.4263 16.7904 44.4707 16.7805 44.5126 16.7706C44.5348 16.7657 44.557 16.7608 44.5792 16.7583C44.6014 16.7534 44.6236 16.7509 44.6458 16.7484C44.6236 16.7509 44.6038 16.7534 44.5816 16.7583C44.6778 16.7706 44.7913 16.7435 44.8899 16.746C44.9369 16.7484 44.9813 16.7534 45.0281 16.7558C45.1415 16.7632 44.9418 16.7386 45.0158 16.7534C45.0429 16.7583 45.07 16.7632 45.0996 16.7681C45.2131 16.7904 45.3241 16.8249 45.4326 16.8644C45.4548 16.8718 45.5042 16.9088 45.4499 16.8693C45.3858 16.8249 45.477 16.8841 45.4943 16.8915C45.5436 16.9161 45.5905 16.9408 45.6374 16.9704C45.6891 17 45.736 17.0345 45.7853 17.0691C45.8421 17.1061 45.7878 17.0519 45.7631 17.0494C45.7829 17.0494 45.8248 17.1011 45.8371 17.1109C45.9185 17.1825 45.995 17.259 46.064 17.3404C46.0715 17.3503 46.1035 17.3824 46.106 17.3898C46.0665 17.3354 46.0567 17.3256 46.0788 17.3552C46.0887 17.3676 46.0986 17.3824 46.106 17.3947C46.1356 17.4391 46.1652 17.4835 46.1923 17.5303C46.2195 17.5772 46.2441 17.6241 46.2688 17.6734C46.2688 17.6709 46.2984 17.7277 46.2959 17.7326C46.2688 17.6636 46.2639 17.6561 46.2836 17.7054C46.2885 17.7153 46.291 17.7252 46.2959 17.735C46.3354 17.8386 46.365 17.9447 46.3872 18.0532C46.3921 18.0804 46.397 18.1075 46.402 18.1371C46.4069 18.1742 46.4069 18.1593 46.3946 18.0902C46.397 18.1075 46.3995 18.1248 46.3995 18.142C46.4094 18.1988 46.4119 18.2604 46.4119 18.3246C46.4143 18.5835 46.6363 18.8301 46.9052 18.8179C47.1715 18.8055 47.4009 18.6008 47.3985 18.3246C47.3886 17.2319 46.7004 16.2798 45.6818 15.9C44.7099 15.5374 43.5235 15.858 42.8649 16.6621C42.5122 17.0937 42.305 17.5944 42.2582 18.1544C42.2162 18.6699 42.3518 19.2125 42.6183 19.654C43.188 20.5913 44.2906 21.055 45.3611 20.8429C46.5401 20.6086 47.3861 19.5134 47.396 18.327C47.3985 18.0681 47.1666 17.8214 46.9027 17.8337C46.6363 17.8436 46.4143 18.0483 46.4119 18.3246Z" fill="white"/>
<path d="M54.0064 21.9258C54.0064 21.6297 54.0064 21.3314 54.0064 21.0353C54.0064 20.3225 54.0064 19.6072 54.0064 18.8944C54.0064 18.0311 54.0064 17.1653 54.0064 16.302C54.0064 15.5546 54.0064 14.8072 54.0064 14.0599C54.0064 13.6948 54.0138 13.3298 54.0064 12.9647C54.0064 12.9598 54.0064 12.9549 54.0064 12.9475C54.0064 12.5602 53.6661 12.1903 53.2664 12.2075C52.8644 12.2248 52.5264 12.5331 52.5264 12.9475C52.5264 13.2435 52.5264 13.5419 52.5264 13.8379C52.5264 14.5507 52.5264 15.266 52.5264 15.9789C52.5264 16.8422 52.5264 17.7079 52.5264 18.5712C52.5264 19.3186 52.5264 20.066 52.5264 20.8134C52.5264 21.1784 52.5191 21.5435 52.5264 21.9085C52.5264 21.9135 52.5264 21.9183 52.5264 21.9258C52.5264 22.313 52.8669 22.683 53.2664 22.6658C53.6685 22.6484 54.0064 22.3402 54.0064 21.9258Z" fill="white"/>
<circle cx="53.2615" cy="23.9977" r="2.07931" transform="rotate(-90 53.2615 23.9977)" fill="white"/>
<path d="M54.8474 23.9977C54.8474 24.0495 54.8449 24.1013 54.8424 24.1531C54.8424 24.1679 54.8449 24.232 54.835 24.237C54.835 24.237 54.8573 24.1112 54.8375 24.2074C54.8203 24.306 54.7981 24.4022 54.7685 24.4985C54.7586 24.5255 54.7364 24.6366 54.7118 24.6538C54.7142 24.6514 54.7635 24.5429 54.7216 24.6267C54.7118 24.6464 54.7019 24.6662 54.692 24.6859C54.6451 24.7771 54.5909 24.8635 54.5341 24.9498C54.5317 24.9547 54.5268 24.9597 54.5243 24.9621C54.4922 25.0041 54.4996 24.9967 54.544 24.9399C54.544 24.9474 54.5045 24.9868 54.5021 24.9893C54.4749 25.0213 54.4453 25.0534 54.4157 25.0855C54.3812 25.12 54.3467 25.1545 54.3122 25.1866C54.2925 25.2039 54.2727 25.2236 54.2504 25.2409C54.2357 25.2532 54.1592 25.3 54.2258 25.2631C54.2974 25.2236 54.2085 25.2754 54.1987 25.2828C54.1814 25.2951 54.1642 25.3075 54.1445 25.3198C54.1075 25.3444 54.0705 25.3667 54.0334 25.3864C53.9865 25.4135 53.9372 25.4357 53.8879 25.4604C53.8287 25.49 53.8978 25.4752 53.915 25.4505C53.9028 25.4678 53.8411 25.4801 53.8237 25.4851C53.7349 25.5171 53.6437 25.5418 53.5524 25.5615C53.5302 25.5664 53.508 25.5714 53.4859 25.5739C53.3947 25.5887 53.4809 25.5985 53.5007 25.5739C53.4834 25.5936 53.3601 25.5862 53.3305 25.5862C53.2318 25.5887 53.1356 25.5812 53.037 25.5763C52.9629 25.5714 53.1627 25.601 53.0517 25.5788C53.0296 25.5739 53.0073 25.5714 52.9851 25.5664C52.9308 25.5566 52.8766 25.5418 52.8224 25.527C52.7804 25.5147 52.7384 25.5023 52.6965 25.4875C52.6719 25.4776 52.6447 25.4678 52.6201 25.4579C52.5536 25.4357 52.7311 25.5122 52.6324 25.4629C52.5461 25.4185 52.4597 25.374 52.3759 25.3223C52.3586 25.3099 52.3389 25.2976 52.3216 25.2852C52.3118 25.2779 52.223 25.2285 52.2946 25.2655C52.3635 25.3025 52.2797 25.2532 52.2698 25.2434C52.2526 25.2285 52.2378 25.2162 52.2205 25.2014C52.149 25.1373 52.0799 25.0682 52.0183 24.9942C52.0084 24.9819 51.9591 24.9005 51.9961 24.9695C52.0306 25.0312 51.9985 24.972 51.9862 24.9547C51.9591 24.9153 51.9319 24.8734 51.9073 24.8339C51.885 24.7969 51.8629 24.7599 51.8431 24.7204C51.8308 24.6958 51.8185 24.6711 51.8061 24.6464C51.7987 24.6316 51.7913 24.6168 51.7864 24.602C51.8111 24.6637 51.8185 24.6785 51.8036 24.6439C51.7741 24.5552 51.7395 24.4689 51.7174 24.3776C51.705 24.3282 51.6951 24.2789 51.6853 24.2296C51.6827 24.2074 51.6804 24.1383 51.6827 24.2123C51.6827 24.2962 51.6804 24.1778 51.6804 24.1605C51.6729 24.0619 51.6729 23.9657 51.6779 23.867C51.6804 23.8374 51.6827 23.8103 51.6853 23.7831C51.6902 23.7141 51.668 23.8818 51.6804 23.8127C51.6927 23.751 51.7025 23.6919 51.7174 23.6327C51.7395 23.5463 51.7666 23.4649 51.7962 23.381C51.8333 23.2775 51.7544 23.4526 51.7913 23.3934C51.8061 23.3712 51.8135 23.3441 51.8259 23.3194C51.8505 23.27 51.8777 23.2232 51.9048 23.1764C51.927 23.1393 51.9516 23.1024 51.9762 23.0679C51.9762 23.0679 52.0084 23.016 52.0133 23.016C51.9886 23.0184 51.9467 23.0949 52.0059 23.0259C52.0725 22.9494 52.1416 22.873 52.218 22.8064C52.2402 22.7866 52.2896 22.725 52.3168 22.7225C52.2994 22.7348 52.2846 22.7472 52.2674 22.7595C52.2797 22.7496 52.2946 22.7398 52.3068 22.7299C52.3242 22.7176 52.3414 22.7052 52.3611 22.6929C52.4474 22.6362 52.5387 22.5893 52.6299 22.5424C52.7139 22.5005 52.6029 22.5499 52.6029 22.5523C52.6127 22.54 52.662 22.5276 52.6793 22.5227C52.7261 22.5054 52.7731 22.4906 52.8198 22.4758C52.8618 22.4635 52.9062 22.4536 52.9482 22.4438C52.9704 22.4388 52.9926 22.4339 53.0147 22.4315C53.037 22.4265 53.0591 22.424 53.0814 22.4216C53.0591 22.424 53.0395 22.4265 53.0172 22.4315C53.1133 22.4438 53.2269 22.4166 53.3255 22.4191C53.3724 22.4216 53.4168 22.4265 53.4637 22.429C53.5772 22.4364 53.3773 22.4117 53.4514 22.4265C53.4785 22.4315 53.5056 22.4364 53.5351 22.4413C53.6487 22.4635 53.7596 22.498 53.8682 22.5375C53.8904 22.5449 53.9397 22.5819 53.8854 22.5424C53.8213 22.498 53.9125 22.5572 53.9299 22.5647C53.9792 22.5893 54.0261 22.614 54.0729 22.6436C54.1247 22.6732 54.1716 22.7077 54.2209 22.7422C54.2776 22.7792 54.2234 22.725 54.1987 22.7225C54.2184 22.7225 54.2604 22.7743 54.2727 22.7842C54.3541 22.8557 54.4306 22.9322 54.4996 23.0136C54.507 23.0234 54.5391 23.0555 54.5415 23.0629C54.5021 23.0086 54.4922 22.9988 54.5144 23.0284C54.5243 23.0407 54.5341 23.0555 54.5415 23.0679C54.5711 23.1122 54.6007 23.1566 54.6279 23.2035C54.655 23.2504 54.6797 23.2972 54.7044 23.3465C54.7044 23.3441 54.734 23.4008 54.7316 23.4058C54.7044 23.3367 54.6994 23.3293 54.7191 23.3786C54.7241 23.3885 54.7265 23.3984 54.7316 23.4082C54.771 23.5118 54.8006 23.6179 54.8228 23.7264C54.8277 23.7535 54.8326 23.7806 54.8375 23.8103C54.8424 23.8473 54.8424 23.8325 54.8301 23.7634C54.8326 23.7806 54.835 23.798 54.835 23.8152C54.8449 23.8719 54.8474 23.9336 54.8474 23.9977C54.8499 24.2567 55.0718 24.5034 55.3407 24.491C55.6071 24.4787 55.8365 24.274 55.8341 23.9977C55.8241 22.905 55.1359 21.953 54.1173 21.5731C53.1455 21.2105 51.9591 21.5311 51.3004 22.3353C50.9478 22.7669 50.7406 23.2676 50.6937 23.8275C50.6518 24.343 50.7874 24.8857 51.0538 25.3272C51.6236 26.2645 52.7261 26.7282 53.7966 26.5161C54.9756 26.2818 55.8217 25.1866 55.8316 24.0002C55.8341 23.7412 55.6022 23.4945 55.3383 23.5069C55.0718 23.5167 54.8499 23.7215 54.8474 23.9977Z" fill="white"/>
<defs>
<filter id="filter0_d_1_1473" x="0" y="0" width="52" height="52" filterUnits="userSpaceOnUse" color-interpolation-filters="sRGB">
<feFlood flood-opacity="0" result="BackgroundImageFix"/>
<feColorMatrix in="SourceAlpha" type="matrix" values="0 0 0 0 0 0 0 0 0 0 0 0 0 0 0 0 0 0 127 0" result="hardAlpha"/>
<feOffset dx="3" dy="3"/>
<feGaussianBlur stdDeviation="1.5"/>
<feComposite in2="hardAlpha" operator="out"/>
<feColorMatrix type="matrix" values="0 0 0 0 0 0 0 0 0 0 0 0 0 0 0 0 0 0 0.160784 0"/>
<feBlend mode="normal" in2="BackgroundImageFix" result="effect1_dropShadow_1_1473"/>
<feBlend mode="normal" in="SourceGraphic" in2="effect1_dropShadow_1_1473" result="shape"/>
</filter>
</defs>
</svg>
