<svg width="16" height="25" viewBox="0 0 16 25" fill="none" xmlns="http://www.w3.org/2000/svg">
<path d="M7.60935 20.1548C7.32336 19.1679 6.70606 18.5725 5.69503 18.5025C4.84209 18.4434 4.17444 18.826 3.76862 19.58C3.32453 20.4035 3.46148 21.19 4.0254 21.9176C4.01533 21.9211 4.00325 21.9319 3.99721 21.9286C2.60351 21.3181 1.51493 20.3897 0.914752 18.9574C0.540145 18.0627 0.472675 17.1232 0.537124 16.1678C0.67307 14.1772 1.49076 12.4436 2.59042 10.8276C3.42019 9.60661 4.2983 8.41608 5.15124 7.21043C5.28819 7.01759 5.41105 6.81292 5.55304 6.62461C5.59634 6.5667 5.68697 6.51157 5.75645 6.51106C7.13606 6.50452 8.51365 6.50553 9.89425 6.50905C9.95266 6.50905 10.0342 6.5375 10.0644 6.5808C11.0896 8.03115 12.1278 9.47419 13.1308 10.9412C13.8921 12.0567 14.5033 13.2537 14.8417 14.5722C15.1599 15.8143 15.2636 17.0686 14.9374 18.3248C14.5386 19.8628 13.5467 20.9259 12.1802 21.6734C12.0291 21.7567 11.871 21.8292 11.7028 21.9125C11.4481 21.617 11.155 21.3798 10.7905 21.2459C10.431 21.1142 10.0644 21.0739 9.6425 21.1608C9.76636 20.9735 9.87714 20.8217 9.97079 20.6603C10.1239 20.3992 10.3142 20.1462 10.4018 19.8628C10.5609 19.3535 10.2779 18.8255 9.78852 18.5985C9.30213 18.3729 8.73015 18.5134 8.421 18.9496C8.1481 19.3363 7.89333 19.7341 7.60935 20.1548ZM5.5762 14.4843V14.4836C5.43925 14.4836 5.30229 14.4803 5.16433 14.4843C5.01932 14.4886 4.90654 14.5415 4.89747 14.7084C4.8874 14.8838 5.00522 14.9322 5.15023 14.938C5.30632 14.944 5.4614 14.937 5.61648 14.9475C5.65978 14.9503 5.72423 14.9896 5.7343 15.0251C5.82191 15.3297 5.73732 15.479 5.43522 15.5835C5.38285 15.6016 5.32948 15.6205 5.2751 15.6331C4.64975 15.7811 4.1684 15.5344 4.02641 14.975C3.98311 14.803 3.96498 14.6167 3.97505 14.4392C4.00829 13.8617 4.28723 13.5312 4.7857 13.4567C5.17642 13.3978 5.45939 13.5546 5.65978 13.8907C5.76149 14.0619 5.92563 14.1009 6.07568 14.0208C6.21968 13.9433 6.26096 13.7812 6.18141 13.5966C6.0797 13.36 5.89844 13.1991 5.66482 13.1085C5.10693 12.891 4.54804 12.9013 4.02641 13.2004C3.42523 13.5455 3.28223 14.1266 3.33963 14.7633C3.392 15.3665 3.68 15.836 4.27716 16.0391C4.92064 16.2579 5.54297 16.1582 6.12502 15.8163C6.25694 15.7383 6.32743 15.6205 6.32541 15.4604C6.32139 15.2484 6.32743 15.0362 6.3234 14.8242C6.31635 14.5976 6.21666 14.4959 5.98807 14.4856C5.85111 14.479 5.71315 14.4843 5.5762 14.4843ZM8.15515 16.1459C8.38273 16.1492 8.65664 16.1043 8.90134 15.9442C9.20345 15.7453 9.33939 15.4588 9.31925 15.1009C9.29811 14.7607 9.11584 14.5332 8.80769 14.4043C8.66872 14.3471 8.52774 14.3008 8.38575 14.2572C8.18939 14.1976 7.98799 14.1545 7.79464 14.086C7.64359 14.0332 7.50664 13.9456 7.52476 13.7522C7.53987 13.5584 7.68085 13.4755 7.84801 13.4375C8.21255 13.3532 8.47135 13.4305 8.64657 13.7983C8.74224 13.9964 8.87013 14.0483 9.01816 13.9853C9.14907 13.9295 9.2397 13.7459 9.15914 13.5858C9.07556 13.4212 8.95673 13.2364 8.80366 13.1513C8.31224 12.8784 7.79162 12.8857 7.30825 13.1717C6.80475 13.4692 6.81986 14.1895 7.32235 14.4931C7.45226 14.5722 7.6023 14.625 7.75033 14.6729C7.9618 14.7419 8.18234 14.7867 8.3928 14.8577C8.61132 14.9307 8.7231 15.0744 8.71102 15.2481C8.69793 15.4523 8.57407 15.5865 8.38777 15.6414C7.99101 15.7582 7.62748 15.7013 7.46333 15.2675C7.4442 15.2157 7.41903 15.1635 7.39184 15.116C7.31933 14.9964 7.2136 14.937 7.07564 14.9858C6.94573 15.0331 6.86618 15.1371 6.89035 15.2766C6.90948 15.3962 6.94573 15.5218 7.00817 15.6253C7.25388 16.0374 7.65164 16.1459 8.15515 16.1459ZM10.6989 13.4637C10.6989 13.6077 10.6989 13.7187 10.6989 13.8305C10.6989 14.4846 10.6978 15.1391 10.6999 15.7937C10.7009 16.0308 10.8137 16.1499 11.0161 16.1451C11.2064 16.1401 11.3081 16.0233 11.3091 15.7917C11.3121 15.087 11.3111 14.3829 11.3111 13.6785C11.3111 13.612 11.3111 13.546 11.3111 13.4637C11.5095 13.4637 11.6837 13.466 11.8569 13.4627C11.9435 13.4609 12.0311 13.4554 12.1167 13.4405C12.2436 13.4186 12.3171 13.3391 12.3141 13.2087C12.3111 13.0798 12.2366 13.002 12.1087 12.9834C12.0352 12.973 11.9596 12.967 11.8841 12.967C11.3 12.9655 10.7119 12.9652 10.1259 12.9675C10.0403 12.9675 9.93856 12.9559 9.87109 12.9957C9.79557 13.039 9.71098 13.1347 9.70796 13.2089C9.70695 13.283 9.78953 13.3826 9.86203 13.428C9.92749 13.4695 10.0302 13.4604 10.1168 13.4625C10.3031 13.4665 10.4874 13.4637 10.6989 13.4637Z" fill="#B9BAC8" stroke="black"/>
<path d="M7.82214 4.26517C7.19779 4.26517 6.57446 4.26164 5.95112 4.26844C5.81819 4.26995 5.76079 4.23244 5.71648 4.10128C5.49998 3.44521 5.19586 2.83471 4.72055 2.32189C4.56346 2.15297 4.39126 1.99889 4.2392 1.82594C4.06197 1.62328 4.03377 1.44 4.13346 1.28215C4.23215 1.12632 4.47585 1.04928 4.70545 1.13563C4.94411 1.2245 5.17169 1.34106 5.40129 1.45309C5.65203 1.57519 5.90983 1.68672 6.18877 1.59584C6.3791 1.5334 6.56338 1.43371 6.73256 1.32395C6.88864 1.22299 7.0125 1.07547 7.16456 0.967968C7.42336 0.785195 7.659 0.808357 7.89263 1.02134C7.94802 1.07169 8.0034 1.12431 8.04972 1.18271C8.32162 1.53189 8.68213 1.60515 9.06982 1.45234C9.34373 1.34434 9.59649 1.17768 9.84421 1.01379C10.1403 0.817168 10.4222 0.599906 10.7848 0.540996C10.8774 0.526142 10.9711 0.512799 11.0637 0.516072C11.5138 0.532184 11.7263 0.874064 11.5289 1.27712C11.4635 1.40929 11.3769 1.54146 11.2711 1.64065C10.5824 2.27909 10.241 3.11013 9.95901 3.97414C9.86435 4.26315 9.8704 4.26517 9.56326 4.26567C8.98221 4.26567 8.40218 4.26567 7.82214 4.26517Z" fill="#B9BAC8" stroke="black"/>
<path d="M6.33171 24.4844C6.03414 24.4893 5.85036 24.1771 6.00846 23.9153C6.15246 23.6752 6.3156 23.4466 6.47118 23.2133C7.29995 21.9692 8.13023 20.7258 8.95698 19.4807C9.05819 19.3307 9.17651 19.2212 9.36935 19.2454C9.65182 19.2808 9.78374 19.5908 9.61859 19.8458C9.35324 20.2537 9.07934 20.655 8.81046 21.0593C8.10455 22.1166 7.40115 23.174 6.69675 24.2324C6.60662 24.3674 6.50945 24.4822 6.33171 24.4844Z" fill="#B9BAC8" stroke="black"/>
<path d="M5.56877 21.8629C4.8397 21.8617 4.26218 21.2756 4.26469 20.5387C4.26721 19.822 4.85681 19.2408 5.58085 19.2423C6.30892 19.2439 6.88745 19.833 6.88543 20.5687C6.88292 21.2874 6.29684 21.8642 5.56877 21.8629ZM6.13773 20.5489C6.1337 20.2469 5.87742 19.9915 5.57481 19.9919C5.27271 19.9919 5.01592 20.2473 5.0134 20.5499C5.01089 20.8611 5.27271 21.1192 5.58488 21.1143C5.8895 21.1097 6.13874 20.8528 6.13773 20.5489Z" fill="#B9BAC8" stroke="black"/>
<path d="M11.3807 23.1854C11.3782 23.9123 10.7896 24.4879 10.0505 24.4842C9.33247 24.4801 8.75747 23.8908 8.75998 23.1635C8.76149 22.4441 9.34858 21.8633 10.0716 21.8637C10.8022 21.8639 11.3832 22.4509 11.3807 23.1854ZM10.6315 23.1727C10.6315 22.8707 10.3752 22.614 10.0741 22.6123C9.77052 22.6106 9.51272 22.8643 9.50769 23.1665C9.50416 23.4774 9.76548 23.7394 10.0766 23.736C10.3788 23.7328 10.633 23.475 10.6315 23.1727Z" fill="#B9BAC8" stroke="black"/>
<path d="M7.80299 5.76323C7.08499 5.76323 6.36699 5.76448 5.649 5.76297C5.36301 5.7626 5.20491 5.63345 5.20138 5.40121C5.19484 5.1677 5.37005 5.01376 5.65 5.01338C7.09758 5.0125 8.54616 5.01376 9.99424 5.01187C10.1695 5.01187 10.3351 5.05505 10.394 5.22473C10.4323 5.33361 10.4187 5.48252 10.3769 5.59266C10.319 5.74107 10.1659 5.76511 10.0119 5.76448C9.27624 5.76234 8.53962 5.76323 7.80299 5.76323Z" fill="#B9BAC8" stroke="black"/>
</svg>
