<svg width="66" height="50" viewBox="0 0 66 50" fill="none" xmlns="http://www.w3.org/2000/svg">
<path d="M33.9093 39.5904C34.2859 39.3323 34.7217 39.0688 35.1172 38.7546C35.8329 38.1862 36.3488 37.4357 36.8765 36.7028C40.0947 32.233 43.3081 27.7597 46.5185 23.2845C46.6186 23.1447 46.6944 23.1211 46.8492 23.1947C47.6999 23.6002 48.3833 24.2257 49.0672 24.8528C50.1194 25.8176 51.1525 26.8048 52.2338 27.7361C53.4071 28.7466 54.8058 29.397 56.1857 30.0713C58.0427 30.9787 60.0184 31.4676 62.0527 31.746C63.0908 31.888 64.1333 31.9985 65.174 32.1218C65.6123 32.1737 65.756 32.4238 65.5651 32.8198C63.4389 37.2323 61.3116 41.6441 59.1848 46.0561C58.8386 46.7743 58.5078 47.5005 58.1413 48.2083C57.9363 48.6041 57.6819 48.9761 57.4325 49.3473C57.1385 49.7853 56.7042 49.9581 56.1869 49.9879C55.0954 50.0505 54.0347 49.8633 52.9878 49.5957C48.1371 48.3564 43.5981 46.3886 39.3656 43.717C37.9302 42.8108 36.5916 41.7762 35.3287 40.6388C34.8869 40.2409 34.3699 39.9266 33.9093 39.5904Z" fill="#E2E2E2"/>
<path d="M5.05517 14.5205C5.47164 14.0665 5.89026 13.5626 6.35736 13.1086C8.47144 11.0542 10.5998 9.01466 12.7222 6.96867C14.8389 4.92798 16.9509 2.88243 19.0732 0.847602C19.5995 0.342862 20.2761 0.157311 20.9784 0.0570137C21.8758 -0.0710287 22.7679 0.0458544 23.6606 0.122839C25.3408 0.267467 27.0208 0.412967 28.7009 0.558758C30.381 0.704533 32.061 0.851607 33.7412 0.997245C35.5726 1.1562 37.4041 1.31385 39.2356 1.47251C41.052 1.63003 42.8682 1.7884 44.6846 1.94607C45.1537 1.98684 45.6231 2.02603 46.0922 2.06752C46.196 2.07668 46.2995 2.09242 46.4431 2.11002C46.2355 2.37511 46.051 2.61332 45.8639 2.84924C41.8654 7.89215 37.8656 12.9341 33.8721 17.9809C33.7414 18.1461 33.6282 18.1611 33.4322 18.1304C32.5245 17.9879 31.6135 17.867 30.7026 17.7458C28.4366 17.4447 26.17 17.1468 23.9035 16.8491C21.893 16.5848 19.8821 16.3236 17.8715 16.0597C15.4695 15.7443 13.0676 15.4275 10.6656 15.1114C9.16732 14.9143 7.66998 14.707 6.16949 14.5277C5.7742 14.4805 5.36846 14.5205 5.05517 14.5205Z" fill="#E2E2E2"/>
<path d="M36.8947 23.8502C36.8952 26.6841 34.3881 28.8602 31.5916 28.4769C29.101 28.1355 26.6064 27.8239 24.1139 27.4969C21.3051 27.1282 18.4969 26.7558 15.6882 26.3867C13.0601 26.0413 10.4316 25.7004 7.80369 25.3532C6.71227 25.209 5.61425 25.0964 4.53322 24.8937C2.62329 24.5356 1.10048 22.8279 0.900953 20.9016C0.576872 17.7757 3.13375 15.3123 6.25158 15.731C9.20218 16.1273 12.1555 16.5043 15.1074 16.8922C17.9388 17.2643 20.7695 17.6408 23.6009 18.0126C26.2137 18.3557 28.8272 18.6936 31.44 19.037C32.0271 19.1142 32.6186 19.1745 33.1974 19.2945C35.3721 19.7453 36.8944 21.6339 36.8947 23.8502ZM30.1165 26.0214C31.5322 26.0429 32.6155 25.0739 32.7284 23.8247C32.8424 22.56 31.9537 21.3857 30.6955 21.209C28.4243 20.89 26.1486 20.6011 23.8746 20.302C21.2615 19.9584 18.6481 19.6174 16.035 19.2749C13.2561 18.9105 10.4782 18.5396 7.69827 18.1833C6.12195 17.9815 4.74724 19.4942 5.07328 21.0524C5.30765 22.1724 6.13987 22.8843 7.35976 23.0388C9.38673 23.2958 11.4121 23.5649 13.4379 23.831C16.0509 24.1743 18.6636 24.5201 21.2765 24.864C23.5355 25.1614 25.7946 25.4581 28.0538 25.7544C28.7915 25.8511 29.5296 25.9455 30.1165 26.0214Z" fill="#E2E2E2"/>
<path d="M36.0403 44.9311C36.0651 47.735 33.5067 49.9465 30.7276 49.555C28.4564 49.2349 26.1794 48.9571 23.9052 48.6582C21.5485 48.3485 19.1921 48.0349 16.8354 47.725C14.4634 47.413 12.0908 47.1047 9.71878 46.7929C7.76849 46.5367 5.81581 46.2969 3.86925 46.0145C1.86992 45.7245 0.234349 43.9692 0.0339082 41.9556C-0.213738 39.4671 1.35775 37.3325 3.80015 36.8367C4.50616 36.6933 5.20648 36.7802 5.90808 36.8734C7.92588 37.1416 9.94368 37.4081 11.9617 37.6739C14.0021 37.9424 16.043 38.2093 18.0835 38.4769C20.4632 38.7891 22.8428 39.1007 25.2222 39.4137C27.5038 39.7138 29.7871 40.0022 32.0661 40.3203C34.272 40.6282 35.9506 42.522 36.0293 44.7492C36.0314 44.8099 36.0364 44.8705 36.0403 44.9311ZM6.77576 39.2522C5.96568 39.2428 5.38705 39.4638 4.9175 39.9285C4.21944 40.6192 3.98622 41.4554 4.28199 42.3932C4.57954 43.3374 5.25026 43.9064 6.22654 44.0703C6.99021 44.1987 7.76164 44.2804 8.52989 44.3811C10.789 44.6772 13.0486 44.9717 15.3078 45.2684C17.6798 45.5799 20.0516 45.893 22.4235 46.2055C24.4641 46.4742 26.5046 46.7443 28.5455 47.0108C29.0112 47.0718 29.4756 47.1602 29.9492 47.0549C31.1074 46.7969 31.9043 45.7657 31.8682 44.5605C31.8343 43.4284 30.9412 42.437 29.7871 42.2745C28.6516 42.1145 27.5134 41.9724 26.3763 41.8235C24.358 41.5592 22.3395 41.2965 20.3212 41.0313C18.1751 40.7494 16.0292 40.4651 13.8833 40.1821C12.1891 39.9587 10.4949 39.7351 8.80059 39.5127C8.07777 39.4178 7.35458 39.3266 6.77576 39.2522Z" fill="#E2E2E2"/>
<path d="M36.0424 34.2847C36.0578 37.0164 33.6083 39.2373 30.9045 38.9144C28.9365 38.6795 26.9736 38.4031 25.0082 38.146C22.7414 37.8496 20.4744 37.5551 18.2078 37.2581C16.2048 36.9956 14.2023 36.7301 12.1993 36.467C9.9253 36.1683 7.65041 35.877 5.37769 35.569C4.65676 35.4712 3.9174 35.4087 3.22839 35.1951C0.0220137 34.2014 -1.06173 30.1429 1.19629 27.6607C2.05782 26.7138 3.13438 26.1791 4.4174 26.1197C4.78322 26.1029 5.15462 26.1996 5.52304 26.2479C9.09236 26.7156 12.6617 27.1833 16.2308 27.6527C19.0618 28.0251 21.8925 28.4008 24.7235 28.7732C27.0424 29.0782 29.3582 29.4129 31.6828 29.6665C32.4746 29.7528 33.2041 29.92 33.8708 30.3441C35.2286 31.2076 36.0334 32.6739 36.0424 34.2847ZM29.2834 36.4508C30.6851 36.46 31.7789 35.459 31.8646 34.2241C31.9547 32.9254 31.0438 31.7875 29.7615 31.6155C27.8796 31.363 25.9963 31.121 24.1137 30.874C22.2084 30.6239 20.3032 30.3732 18.398 30.1225C16.5155 29.8746 14.6332 29.6254 12.7506 29.3785C10.8302 29.1267 8.90794 28.8879 6.98956 28.6226C5.65606 28.438 4.43358 29.2959 4.19437 30.6199C3.96418 31.8947 4.82972 33.1507 6.14047 33.4004C6.75867 33.5181 7.38788 33.5793 8.01265 33.6616C10.2943 33.9619 12.5762 34.2601 14.8578 34.5596C17.0945 34.8533 19.3309 35.1482 21.5674 35.4418C23.4951 35.695 25.4229 35.9475 27.3506 36.1999C28.0432 36.2905 28.7359 36.3797 29.2834 36.4508Z" fill="#E2E2E2"/>
<path d="M38.0862 23.7818C38.0534 22.6537 37.7573 21.6537 37.1836 20.7429C36.6123 19.8362 35.8416 19.14 34.8696 18.6278C35.1117 18.3198 35.3436 18.0225 35.5778 17.7269C39.5755 12.6843 43.5739 7.64208 47.5686 2.59716C47.6766 2.46068 47.7576 2.4322 47.9222 2.51432C49.3496 3.2265 49.9256 4.41938 49.935 5.96463C49.9386 6.56193 49.765 7.08327 49.447 7.56999C48.4789 9.05142 47.5511 10.5613 46.5306 12.0056C43.7906 15.8833 41.0107 19.7324 38.2461 23.5925C38.2086 23.6447 38.1631 23.6912 38.0862 23.7818Z" fill="#E2E2E2"/>
<path d="M37.226 34.226C37.1883 33.1686 36.9403 32.2397 36.4481 31.3812C35.9589 30.5281 35.2934 29.8419 34.4333 29.2885C34.5383 29.2353 34.6141 29.1944 34.6921 29.1578C35.7968 28.6383 36.6552 27.8503 37.2887 26.8072C37.4164 26.5968 37.6069 26.4254 37.7564 26.2269C38.2639 25.5536 38.7763 24.8838 39.2682 24.1994C41.897 20.5411 44.5201 16.8786 47.1452 13.2176C47.1803 13.1687 47.217 13.1212 47.2643 13.058C47.9614 13.4368 48.4687 13.9786 48.7689 14.7064C49.0878 15.4797 49.1406 16.2894 48.9999 17.1015C48.9513 17.3821 48.7895 17.656 48.632 17.9026C47.7943 19.2148 46.9676 20.5352 46.0878 21.819C44.736 23.7918 43.3566 25.7461 41.9663 27.6919C40.4513 29.8122 38.9105 31.9136 37.3808 34.0233C37.3459 34.0713 37.3087 34.118 37.226 34.226Z" fill="#E2E2E2"/>
<path d="M31.5468 23.5999C31.5489 24.3507 30.8999 24.9227 30.1362 24.8259C28.6519 24.6375 27.1687 24.439 25.6852 24.2447C23.4108 23.9469 21.1364 23.6493 18.8622 23.3507C16.505 23.0411 14.148 22.7301 11.791 22.4204C10.33 22.2285 8.86948 22.0347 7.40791 21.8478C6.74364 21.7628 6.2861 21.3349 6.22532 20.7205C6.16711 20.1326 6.51045 19.5724 7.08013 19.4277C7.34896 19.3593 7.65198 19.3751 7.93225 19.4106C9.9742 19.6692 12.0142 19.943 14.055 20.2114C16.4347 20.5244 18.8144 20.8372 21.1943 21.1494C23.3479 21.4319 25.5017 21.7135 27.6555 21.9956C28.5893 22.1179 29.5237 22.2351 30.4567 22.3647C31.0982 22.4538 31.5453 22.9702 31.5468 23.5999Z" fill="#E2E2E2"/>
<path d="M6.71505 40.4414C7.32524 40.5198 8.03341 40.6092 8.74116 40.702C10.4355 40.9244 12.1297 41.1486 13.824 41.3718C16.0829 41.6694 18.3417 41.9673 20.6007 42.2639C22.5134 42.5151 24.4263 42.7642 26.3391 43.0146C27.416 43.1556 28.4935 43.2919 29.5693 43.4412C30.2986 43.5424 30.7742 44.1649 30.6727 44.8601C30.5732 45.5428 29.9495 45.9919 29.2261 45.8972C25.8599 45.456 22.4941 45.0128 19.1279 44.5717C15.9425 44.1542 12.7569 43.7388 9.57136 43.3218C8.53201 43.1858 7.49263 43.0504 6.45398 42.9098C5.77827 42.8183 5.29814 42.2394 5.35293 41.5946C5.41071 40.9155 5.94022 40.4315 6.71505 40.4414Z" fill="#E2E2E2"/>
<path d="M29.332 35.2612C28.7489 35.1853 28.0861 35.0997 27.4235 35.0126C25.157 34.7147 22.8905 34.4163 20.6241 34.1183C18.5908 33.8511 16.5575 33.5836 14.5243 33.3173C12.3631 33.034 10.2017 32.7522 8.04055 32.4687C7.49833 32.3976 6.95583 32.329 6.41486 32.249C5.75105 32.1508 5.29296 31.5597 5.35949 30.9016C5.42672 30.2365 5.98313 29.7329 6.65511 29.792C7.42608 29.8596 8.1929 29.9775 8.96103 30.0781C10.7684 30.3149 12.5753 30.5546 14.3825 30.7926C17.0933 31.1495 19.8041 31.5066 22.5151 31.8624C24.7894 32.161 27.063 32.4656 29.3389 32.751C29.9558 32.8284 30.4414 33.0503 30.6318 33.6838C30.8732 34.4868 30.2595 35.2727 29.332 35.2612Z" fill="#E2E2E2"/>
</svg>
