<svg width="24" height="21" viewBox="0 0 24 21" fill="none" xmlns="http://www.w3.org/2000/svg">
<path d="M20.3663 3.8147e-05H3.55186C2.60905 3.8147e-05 1.70494 0.374928 1.03857 1.04198C0.372359 1.70916 -0.00136659 2.61378 6.7059e-06 3.55676V12.9134C-0.00182435 13.8568 0.37139 14.762 1.03776 15.4295C1.70413 16.0972 2.60853 16.4725 3.55186 16.4725H4.78364V19.5819C4.78364 21.0576 5.67104 21.4451 6.75453 20.4429L11.0453 16.4725H20.3733C21.3153 16.4706 22.2181 16.0946 22.8828 15.427C23.5474 14.7597 23.9199 13.8554 23.918 12.9134V3.55671C23.9193 2.61374 23.5456 1.70912 22.8794 1.04193C22.2131 0.374916 21.309 0 20.3662 0L20.3663 3.8147e-05ZM7.10839 9.82569C6.74201 9.8282 6.38966 9.68438 6.12971 9.42628C5.86977 9.16801 5.72362 8.8168 5.72362 8.45042C5.72362 8.08405 5.86978 7.73266 6.12987 7.47456C6.38981 7.21646 6.74201 7.07264 7.10856 7.07514C7.47494 7.07781 7.82512 7.22647 8.08138 7.48824C8.33782 7.75001 8.47913 8.10319 8.47396 8.46961C8.47028 8.82965 8.32481 9.174 8.06921 9.42779C7.81377 9.68155 7.46844 9.82454 7.10837 9.8257L7.10839 9.82569ZM11.9446 9.82569C11.5802 9.82253 11.2318 9.67487 10.9762 9.4151C10.7206 9.15517 10.5785 8.80463 10.5813 8.4401C10.584 8.07572 10.7313 7.72721 10.9909 7.47124C11.2503 7.21531 11.6009 7.07283 11.9652 7.07516C12.3298 7.0775 12.6783 7.22449 12.9345 7.48359C13.1908 7.74286 13.3336 8.0932 13.3318 8.45761C13.3268 8.82249 13.1785 9.17067 12.9189 9.42711C12.6594 9.68354 12.3094 9.82752 11.9445 9.82819L11.9446 9.82569ZM16.8093 9.82569C16.4446 9.82769 16.0941 9.68455 15.8348 9.42795C15.5756 9.17135 15.4289 8.82231 15.4269 8.4576C15.4251 8.09289 15.5682 7.74236 15.8247 7.4831C16.0813 7.22384 16.4303 7.07702 16.795 7.07518C17.1599 7.07335 17.5104 7.21633 17.7697 7.47293C18.0289 7.72953 18.1756 8.07857 18.1776 8.44328C18.1808 8.80866 18.0381 9.16018 17.7813 9.42012C17.5246 9.68005 17.1747 9.82687 16.8093 9.82821V9.82569Z" fill="white"/>
</svg>
