<svg width="310" height="30" viewBox="0 0 310 30" fill="none" xmlns="http://www.w3.org/2000/svg">
<g filter="url(#filter0_d_1_973)">
<path d="M280 15C280 6.71573 286.716 0 295 0C303.284 0 310 6.71573 310 15C310 23.2843 303.284 30 295 30C286.716 30 280 23.2843 280 15Z" fill="#FF5606"/>
</g>
<g filter="url(#filter1_d_1_973)">
<path d="M240 15C240 6.71573 246.716 0 255 0C263.284 0 270 6.71573 270 15C270 23.2843 263.284 30 255 30C246.716 30 240 23.2843 240 15Z" fill="#5FD89D"/>
</g>
<g filter="url(#filter2_d_1_973)">
<path d="M200 15C200 6.71573 206.716 0 215 0C223.284 0 230 6.71573 230 15C230 23.2843 223.284 30 215 30C206.716 30 200 23.2843 200 15Z" fill="#906BFF"/>
</g>
<g filter="url(#filter3_d_1_973)">
<path d="M160 15C160 6.71573 166.716 0 175 0C183.284 0 190 6.71573 190 15C190 23.2843 183.284 30 175 30C166.716 30 160 23.2843 160 15Z" fill="#0099F3"/>
</g>
<g filter="url(#filter4_d_1_973)">
<path d="M120 15C120 6.71573 126.716 0 135 0C143.284 0 150 6.71573 150 15C150 23.2843 143.284 30 135 30C126.716 30 120 23.2843 120 15Z" fill="#9E32AF"/>
</g>
<g filter="url(#filter5_d_1_973)">
<path d="M80 15C80 6.71573 86.7157 0 95 0C103.284 0 110 6.71573 110 15C110 23.2843 103.284 30 95 30C86.7157 30 80 23.2843 80 15Z" fill="#5FA9D8"/>
</g>
<g filter="url(#filter6_d_1_973)">
<path d="M40 15C40 6.71573 46.7157 0 55 0C63.2843 0 70 6.71573 70 15C70 23.2843 63.2843 30 55 30C46.7157 30 40 23.2843 40 15Z" fill="#E46BD9"/>
</g>
<g filter="url(#filter7_d_1_973)">
<path d="M0 15C0 6.71573 6.71573 0 15 0C23.2843 0 30 6.71573 30 15C30 23.2843 23.2843 30 15 30C6.71573 30 0 23.2843 0 15Z" fill="#222A37"/>
<path d="M0 15C0 6.71573 6.71573 0 15 0C23.2843 0 30 6.71573 30 15C30 23.2843 23.2843 30 15 30C6.71573 30 0 23.2843 0 15Z" stroke="black"/>
</g>
<defs>
<filter id="filter0_d_1_973" x="277" y="0" width="36" height="39" filterUnits="userSpaceOnUse" color-interpolation-filters="sRGB">
<feFlood flood-opacity="0" result="BackgroundImageFix"/>
<feColorMatrix in="SourceAlpha" type="matrix" values="0 0 0 0 0 0 0 0 0 0 0 0 0 0 0 0 0 0 127 0" result="hardAlpha"/>
<feOffset dy="6"/>
<feGaussianBlur stdDeviation="1.5"/>
<feComposite in2="hardAlpha" operator="out"/>
<feColorMatrix type="matrix" values="0 0 0 0 0.0392157 0 0 0 0 0.0862745 0 0 0 0 0.27451 0 0 0 0.101961 0"/>
<feBlend mode="normal" in2="BackgroundImageFix" result="effect1_dropShadow_1_973"/>
<feBlend mode="normal" in="SourceGraphic" in2="effect1_dropShadow_1_973" result="shape"/>
</filter>
<filter id="filter1_d_1_973" x="237" y="0" width="36" height="39" filterUnits="userSpaceOnUse" color-interpolation-filters="sRGB">
<feFlood flood-opacity="0" result="BackgroundImageFix"/>
<feColorMatrix in="SourceAlpha" type="matrix" values="0 0 0 0 0 0 0 0 0 0 0 0 0 0 0 0 0 0 127 0" result="hardAlpha"/>
<feOffset dy="6"/>
<feGaussianBlur stdDeviation="1.5"/>
<feComposite in2="hardAlpha" operator="out"/>
<feColorMatrix type="matrix" values="0 0 0 0 0.0392157 0 0 0 0 0.0862745 0 0 0 0 0.27451 0 0 0 0.101961 0"/>
<feBlend mode="normal" in2="BackgroundImageFix" result="effect1_dropShadow_1_973"/>
<feBlend mode="normal" in="SourceGraphic" in2="effect1_dropShadow_1_973" result="shape"/>
</filter>
<filter id="filter2_d_1_973" x="197" y="0" width="36" height="39" filterUnits="userSpaceOnUse" color-interpolation-filters="sRGB">
<feFlood flood-opacity="0" result="BackgroundImageFix"/>
<feColorMatrix in="SourceAlpha" type="matrix" values="0 0 0 0 0 0 0 0 0 0 0 0 0 0 0 0 0 0 127 0" result="hardAlpha"/>
<feOffset dy="6"/>
<feGaussianBlur stdDeviation="1.5"/>
<feComposite in2="hardAlpha" operator="out"/>
<feColorMatrix type="matrix" values="0 0 0 0 0.0392157 0 0 0 0 0.0862745 0 0 0 0 0.27451 0 0 0 0.101961 0"/>
<feBlend mode="normal" in2="BackgroundImageFix" result="effect1_dropShadow_1_973"/>
<feBlend mode="normal" in="SourceGraphic" in2="effect1_dropShadow_1_973" result="shape"/>
</filter>
<filter id="filter3_d_1_973" x="157" y="0" width="36" height="39" filterUnits="userSpaceOnUse" color-interpolation-filters="sRGB">
<feFlood flood-opacity="0" result="BackgroundImageFix"/>
<feColorMatrix in="SourceAlpha" type="matrix" values="0 0 0 0 0 0 0 0 0 0 0 0 0 0 0 0 0 0 127 0" result="hardAlpha"/>
<feOffset dy="6"/>
<feGaussianBlur stdDeviation="1.5"/>
<feComposite in2="hardAlpha" operator="out"/>
<feColorMatrix type="matrix" values="0 0 0 0 0.0392157 0 0 0 0 0.0862745 0 0 0 0 0.27451 0 0 0 0.101961 0"/>
<feBlend mode="normal" in2="BackgroundImageFix" result="effect1_dropShadow_1_973"/>
<feBlend mode="normal" in="SourceGraphic" in2="effect1_dropShadow_1_973" result="shape"/>
</filter>
<filter id="filter4_d_1_973" x="117" y="0" width="36" height="39" filterUnits="userSpaceOnUse" color-interpolation-filters="sRGB">
<feFlood flood-opacity="0" result="BackgroundImageFix"/>
<feColorMatrix in="SourceAlpha" type="matrix" values="0 0 0 0 0 0 0 0 0 0 0 0 0 0 0 0 0 0 127 0" result="hardAlpha"/>
<feOffset dy="6"/>
<feGaussianBlur stdDeviation="1.5"/>
<feComposite in2="hardAlpha" operator="out"/>
<feColorMatrix type="matrix" values="0 0 0 0 0.0392157 0 0 0 0 0.0862745 0 0 0 0 0.27451 0 0 0 0.101961 0"/>
<feBlend mode="normal" in2="BackgroundImageFix" result="effect1_dropShadow_1_973"/>
<feBlend mode="normal" in="SourceGraphic" in2="effect1_dropShadow_1_973" result="shape"/>
</filter>
<filter id="filter5_d_1_973" x="77" y="0" width="36" height="39" filterUnits="userSpaceOnUse" color-interpolation-filters="sRGB">
<feFlood flood-opacity="0" result="BackgroundImageFix"/>
<feColorMatrix in="SourceAlpha" type="matrix" values="0 0 0 0 0 0 0 0 0 0 0 0 0 0 0 0 0 0 127 0" result="hardAlpha"/>
<feOffset dy="6"/>
<feGaussianBlur stdDeviation="1.5"/>
<feComposite in2="hardAlpha" operator="out"/>
<feColorMatrix type="matrix" values="0 0 0 0 0.0392157 0 0 0 0 0.0862745 0 0 0 0 0.27451 0 0 0 0.101961 0"/>
<feBlend mode="normal" in2="BackgroundImageFix" result="effect1_dropShadow_1_973"/>
<feBlend mode="normal" in="SourceGraphic" in2="effect1_dropShadow_1_973" result="shape"/>
</filter>
<filter id="filter6_d_1_973" x="37" y="0" width="36" height="39" filterUnits="userSpaceOnUse" color-interpolation-filters="sRGB">
<feFlood flood-opacity="0" result="BackgroundImageFix"/>
<feColorMatrix in="SourceAlpha" type="matrix" values="0 0 0 0 0 0 0 0 0 0 0 0 0 0 0 0 0 0 127 0" result="hardAlpha"/>
<feOffset dy="6"/>
<feGaussianBlur stdDeviation="1.5"/>
<feComposite in2="hardAlpha" operator="out"/>
<feColorMatrix type="matrix" values="0 0 0 0 0.0392157 0 0 0 0 0.0862745 0 0 0 0 0.27451 0 0 0 0.101961 0"/>
<feBlend mode="normal" in2="BackgroundImageFix" result="effect1_dropShadow_1_973"/>
<feBlend mode="normal" in="SourceGraphic" in2="effect1_dropShadow_1_973" result="shape"/>
</filter>
<filter id="filter7_d_1_973" x="-3.5" y="-0.5" width="37" height="40" filterUnits="userSpaceOnUse" color-interpolation-filters="sRGB">
<feFlood flood-opacity="0" result="BackgroundImageFix"/>
<feColorMatrix in="SourceAlpha" type="matrix" values="0 0 0 0 0 0 0 0 0 0 0 0 0 0 0 0 0 0 127 0" result="hardAlpha"/>
<feOffset dy="6"/>
<feGaussianBlur stdDeviation="1.5"/>
<feComposite in2="hardAlpha" operator="out"/>
<feColorMatrix type="matrix" values="0 0 0 0 0.0392157 0 0 0 0 0.0862745 0 0 0 0 0.27451 0 0 0 0.101961 0"/>
<feBlend mode="normal" in2="BackgroundImageFix" result="effect1_dropShadow_1_973"/>
<feBlend mode="normal" in="SourceGraphic" in2="effect1_dropShadow_1_973" result="shape"/>
</filter>
</defs>
</svg>
