<svg width="22" height="22" viewBox="0 0 22 22" fill="none" xmlns="http://www.w3.org/2000/svg">
<path fill-rule="evenodd" clip-rule="evenodd" d="M16.7887 17.5239V19.8372C16.7887 20.683 17.1456 21.4522 17.7183 22H2.19286C0.984192 22 0 21.0293 0 19.8372V17.5239H16.7887ZM22 5.34058e-05V19.8346C22 21.0209 21.0272 21.9861 19.8244 21.9974C18.6244 21.9889 17.6488 21.0209 17.6488 19.8346V16.6698H5.20566V0L22 5.34058e-05ZM14.6386 13.6155C14.6386 13.0507 14.1725 12.5937 13.6026 12.5937C13.0327 12.5937 12.5666 13.0535 12.5666 13.6155C12.5666 14.1776 13.0327 14.6374 13.6026 14.6374C14.1725 14.6374 14.6386 14.1776 14.6386 13.6155ZM17.4387 5.70768C17.2429 3.94501 15.8013 2.53435 14.0141 2.35001C12.9004 2.23656 11.7953 2.5969 10.981 3.34055C10.1666 4.08419 9.71472 5.14006 9.74367 6.23571C9.74648 6.35767 9.84723 6.45707 9.97391 6.45707H11.4846C11.5479 6.45707 11.6083 6.43153 11.6514 6.38619C11.6946 6.34085 11.7177 6.28126 11.7147 6.21869V6.17612C11.7119 6.16187 11.7088 6.14781 11.7088 6.13355C11.7088 5.61703 11.916 5.1373 12.296 4.78249C12.673 4.42771 13.165 4.24316 13.6945 4.26871C14.6615 4.31128 15.4528 5.09472 15.496 6.04547C15.519 6.562 15.3348 7.05303 14.975 7.42486C14.6153 7.79668 14.1261 8.00398 13.6052 8.00398H12.883C12.7563 8.00398 12.6527 8.10614 12.6527 8.23107V11.3959C12.6527 11.5208 12.7563 11.623 12.883 11.623H14.3305C14.4571 11.623 14.5607 11.5208 14.5607 11.3959V9.82623C16.4284 9.36076 17.6573 7.62362 17.4443 5.70494L17.4387 5.70768Z" fill="#BC4155"/>
</svg>
