<svg width="18" height="15" viewBox="0 0 18 15" fill="none" xmlns="http://www.w3.org/2000/svg">
<path fill-rule="evenodd" clip-rule="evenodd" d="M10.1 8.57145H0.899914C0.404921 8.57145 0 8.08938 0 7.50011C0 6.91078 0.404921 6.42875 0.899914 6.42875H10.1C10.595 6.42875 10.9999 6.91078 10.9999 7.50011C11.0001 8.08938 10.595 8.57145 10.1 8.57145ZM17.1 2.14272H0.899914C0.404921 2.14272 0 1.66065 0 1.07136C0 0.482054 0.404921 0 0.899914 0H17.1C17.595 0 17.9999 0.482054 17.9999 1.07136C18.0001 1.66047 17.595 2.14272 17.1 2.14272ZM0.899914 12.8573H17.1C17.595 12.8573 17.9999 13.3393 17.9999 13.9286C17.9999 14.5179 17.595 15 17.1 15H0.899914C0.404921 15 0 14.5179 0 13.9286C0 13.3393 0.404921 12.8573 0.899914 12.8573Z" fill="white"/>
</svg>
