<svg width="18" height="22" viewBox="0 0 18 22" fill="none" xmlns="http://www.w3.org/2000/svg">
<path d="M17.6993 17.1328C17.465 16.2283 16.6933 15.5561 15.7465 15.4227C15.6762 15.4078 15.6017 15.3999 15.5313 15.3963C15.5279 15.3961 15.5248 15.3959 15.5213 15.3959L12.4113 15.1832C11.4033 15.1153 10.5943 14.3133 10.5247 13.3372C14.0395 14.9349 15.439 9.71313 14.125 8.22515C14.1276 8.22218 14.1306 8.22015 14.1332 8.21713C14.3162 8.00158 14.44 7.71018 14.4816 7.39687C14.527 7.05785 14.4763 6.72782 14.3393 6.46481C14.3362 6.45692 14.3327 6.44919 14.3287 6.44178C14.2882 6.36689 14.2408 6.30139 14.1894 6.24245C14.6158 1.66452 11.3823 0.535637 9.8296 0.127674C7.59712 -0.453603 6.49527 1.13846 6.49527 1.13846C2.58766 1.35482 2.30904 5.90173 3.50376 8.23008V8.23331C3.70832 9.33734 4.55442 10.592 5.84533 10.8796C5.87915 10.9309 5.90938 10.9844 5.94437 11.0349C6.3987 11.6848 6.92973 12.2357 7.48302 12.643C7.48556 12.8296 7.48743 13.0287 7.48204 13.2414C7.46139 14.2602 6.63 15.1131 5.58842 15.1832L2.47867 15.396C2.47524 15.396 2.4721 15.3961 2.46866 15.3963C2.39829 15.3999 2.32385 15.4078 2.2666 15.4204C2.26383 15.4208 2.26128 15.4218 2.25847 15.4221C2.25683 15.4225 2.25511 15.4224 2.25347 15.4228C2.25245 15.423 2.25167 15.4236 2.25069 15.4238C1.29833 15.5649 0.533677 16.2335 0.30073 17.1328C-0.106208 18.6996 -0.0261359 20.5506 0.112744 21.8273C0.123379 21.9256 0.205952 22 0.303858 22H3.28692V20.2087C3.28692 20.1017 3.37294 20.0149 3.47897 20.0149C3.58501 20.0149 3.67103 20.1017 3.67103 20.2087V22H14.329V20.2087C14.329 20.1017 14.415 20.0149 14.521 20.0149C14.6271 20.0149 14.7131 20.1017 14.7131 20.2087V22H17.6962C17.7941 22 17.8766 21.9256 17.8873 21.8273C18.0261 20.5505 18.1062 18.6995 17.6993 17.1328ZM13.319 8.16081C13.3306 8.10925 13.3415 8.05942 13.3487 8.0148C13.4019 7.7603 13.4407 7.50737 13.4663 7.24767C13.4769 7.16772 13.4838 7.08778 13.4863 7.01856C13.4963 6.91748 13.5001 6.81625 13.5029 6.72054C13.5098 6.62845 13.5098 6.53305 13.5098 6.43781C13.5098 6.40691 13.5098 6.37632 13.5098 6.34604C13.5517 6.33784 13.5939 6.33643 13.6343 6.34242C13.8066 6.36591 13.9173 6.49758 13.9818 6.61048C13.9849 6.61757 13.988 6.62451 13.9918 6.63113C14.0959 6.8224 14.1357 7.08274 14.1006 7.34512V7.34528C14.0687 7.58543 13.9765 7.80555 13.841 7.96513C13.7609 8.05911 13.598 8.21348 13.3847 8.18336C13.3615 8.18021 13.3393 8.17516 13.3174 8.16791L13.319 8.16081ZM6.25903 10.8123C5.37602 9.53755 4.88526 8.00314 4.87463 6.48575C6.15487 5.9509 7.58494 4.52292 8.0804 4.00147C8.48952 4.63247 9.87127 6.29248 13.125 6.39804C13.125 6.41133 13.1257 6.42438 13.1257 6.43782C13.1257 6.52328 13.1257 6.60859 13.1191 6.69973C13.116 6.79544 13.1129 6.88816 13.1032 6.99144C13.1003 7.06003 13.0941 7.12863 13.0847 7.20321C13.0597 7.45471 13.0231 7.69407 12.9712 7.94274C12.9637 7.98815 12.954 8.03135 12.9383 8.10216L12.91 8.22284C12.4119 10.2499 11.1919 11.7038 10.2158 12.3889C9.76069 12.71 9.32874 12.8867 8.99999 12.8867C8.9178 12.8867 8.82917 12.8757 8.73533 12.8541C8.63457 12.8309 8.52709 12.7935 8.41589 12.7467C8.21645 12.6627 8.00348 12.5436 7.78449 12.3891C7.23772 12.0028 6.71007 11.4572 6.25903 10.8123ZM8.99999 16.7749C6.70256 16.7749 4.57341 16.4046 3.02353 15.7471L5.61436 15.5699C6.85269 15.4864 7.84172 14.4672 7.86612 13.2502C7.86925 13.1318 7.87019 13.0162 7.86988 12.9046C7.87848 12.9096 7.88665 12.913 7.89521 12.9179C7.98561 12.9702 8.07479 13.0178 8.16225 13.0587C8.17485 13.0646 8.18712 13.0694 8.19963 13.0751C8.28014 13.1114 8.35908 13.1427 8.43657 13.1692C8.45033 13.1739 8.46433 13.1794 8.47798 13.1838C8.56044 13.2102 8.64067 13.2302 8.71894 13.245C8.73571 13.2482 8.7521 13.2506 8.76867 13.2532C8.84798 13.2657 8.92578 13.2743 8.99999 13.2743C9.0742 13.2743 9.152 13.2657 9.2313 13.2532C9.24787 13.2505 9.26425 13.2481 9.28103 13.245C9.35931 13.2302 9.43953 13.2102 9.52195 13.1838C9.53564 13.1794 9.54963 13.1739 9.56344 13.1691C9.64093 13.1427 9.71995 13.1114 9.80046 13.075C9.81292 13.0694 9.82513 13.0646 9.83764 13.0588C9.9251 13.0178 10.0143 12.9703 10.1046 12.918C10.1132 12.913 10.1214 12.9096 10.1301 12.9045C10.1298 13.016 10.1307 13.1313 10.1338 13.2492C10.1582 14.4672 11.1473 15.4864 12.3853 15.5698L14.9764 15.7471C13.4266 16.4046 11.2974 16.7749 8.99999 16.7749Z" fill="#D3D6D7"/>
</svg>
