<svg width="25" height="22" viewBox="0 0 25 22" fill="none" xmlns="http://www.w3.org/2000/svg">
<path fill-rule="evenodd" clip-rule="evenodd" d="M24.6622 11.8176L20.7556 15.8279C19.6761 16.956 18.0566 15.2641 19.1359 14.1357L20.4547 12.7626C20.7549 12.4502 20.6563 12.1968 20.2344 12.1968H7.35453C6.71531 12.1968 6.20637 11.661 6.20637 11.0002C6.20637 10.3408 6.72031 9.80369 7.35453 9.80369H20.2344C20.6548 9.80369 20.7549 9.55006 20.4547 9.23759L19.1359 7.86418C18.0566 6.7364 19.6761 5.04395 20.7556 6.17204L24.6569 10.1413C25.1131 10.6052 25.1139 11.3542 24.6622 11.8176ZM17.9182 3.22193C18.4397 3.76841 18.4397 4.65479 17.9182 5.20185C17.3965 5.74833 16.5507 5.74833 16.029 5.20185C12.9735 1.99961 8.01904 1.99961 4.96365 5.20185C1.90809 8.40412 1.90797 13.5961 4.96365 16.7983C8.01937 20.0005 12.9735 20.0005 16.029 16.7983C16.5504 16.2513 17.3965 16.2513 17.9182 16.7983C18.4397 17.3449 18.4397 18.2312 17.9182 18.7781C13.8191 23.074 7.17323 23.074 3.07427 18.7781C-1.02476 14.4823 -1.02476 7.51747 3.07427 3.2218C7.17336 -1.07388 13.8192 -1.07399 17.9182 3.2218V3.22193Z" fill="#BC4155"/>
</svg>
