<svg width="16" height="14" viewBox="0 0 16 14" fill="none" xmlns="http://www.w3.org/2000/svg">
<path fill-rule="evenodd" clip-rule="evenodd" d="M15.7838 7.42261L13.2836 9.94151C12.5927 10.65 11.5562 9.58735 12.247 8.87864L13.091 8.0162C13.2832 7.81993 13.22 7.66078 12.95 7.66078H4.7069C4.2978 7.66078 3.97207 7.32427 3.97207 6.90924C3.97207 6.49504 4.30099 6.15769 4.7069 6.15769H12.95C13.219 6.15769 13.2832 5.99838 13.091 5.80212L12.247 4.93948C11.5562 4.23112 12.5927 3.1681 13.2836 3.87665L15.7804 6.36973C16.0724 6.66112 16.0729 7.13156 15.7838 7.42261ZM11.4676 2.02369C11.8014 2.36694 11.8014 2.92368 11.4676 3.26728C11.1337 3.61052 10.5924 3.61052 10.2585 3.26728C8.30303 1.25595 5.13218 1.25595 3.17674 3.26728C1.22116 5.27861 1.22108 8.53969 3.17674 10.551C5.13239 12.5623 8.30303 12.5623 10.2585 10.551C10.5923 10.2074 11.1337 10.2074 11.4676 10.551C11.8014 10.8943 11.8014 11.451 11.4676 11.7945C8.84424 14.4927 4.59086 14.4927 1.96753 11.7945C-0.655844 9.09632 -0.655844 4.72172 1.96753 2.02361C4.59095 -0.674504 8.8443 -0.674568 11.4676 2.02361V2.02369Z" fill="white"/>
</svg>
