<svg width="16" height="25" viewBox="0 0 16 25" fill="none" xmlns="http://www.w3.org/2000/svg">
<path d="M7.60935 20.1548C7.32336 19.1679 6.70606 18.5725 5.69502 18.5025C4.84209 18.4434 4.17444 18.826 3.76861 19.58C3.32452 20.4035 3.46148 21.19 4.0254 21.9176C4.01533 21.9211 4.00325 21.9319 3.99721 21.9286C2.60351 21.3181 1.51493 20.3897 0.914752 18.9575C0.540144 18.0627 0.472675 17.1232 0.537123 16.1678C0.673069 14.1772 1.49076 12.4436 2.59041 10.8276C3.42019 9.60662 4.2983 8.41609 5.15124 7.21044C5.28819 7.0176 5.41105 6.81293 5.55303 6.62462C5.59634 6.56671 5.68697 6.51158 5.75645 6.51108C7.13605 6.50453 8.51364 6.50554 9.89425 6.50906C9.95266 6.50906 10.0342 6.53751 10.0644 6.58081C11.0896 8.03116 12.1278 9.4742 13.1308 10.9412C13.8921 12.0567 14.5033 13.2538 14.8417 14.5722C15.1599 15.8143 15.2636 17.0686 14.9373 18.3248C14.5386 19.8628 13.5467 20.9259 12.1802 21.6734C12.0291 21.7567 11.871 21.8292 11.7028 21.9125C11.4481 21.617 11.155 21.3798 10.7905 21.2459C10.431 21.1142 10.0644 21.0739 9.6425 21.1608C9.76636 20.9735 9.87713 20.8217 9.97078 20.6603C10.1238 20.3992 10.3142 20.1462 10.4018 19.8628C10.5609 19.3535 10.2779 18.8255 9.78851 18.5985C9.30213 18.3729 8.73015 18.5134 8.42099 18.9496C8.1481 19.3363 7.89332 19.7341 7.60935 20.1548ZM5.5762 14.4843V14.4836C5.43924 14.4836 5.30229 14.4803 5.16433 14.4843C5.01932 14.4886 4.90653 14.5415 4.89747 14.7084C4.8874 14.8839 5.00522 14.9322 5.15023 14.938C5.30632 14.944 5.4614 14.937 5.61648 14.9475C5.65978 14.9503 5.72423 14.9896 5.7343 15.0251C5.82191 15.3297 5.73732 15.479 5.43521 15.5835C5.38285 15.6016 5.32948 15.6205 5.2751 15.6331C4.64975 15.7811 4.1684 15.5344 4.02641 14.975C3.98311 14.803 3.96498 14.6167 3.97505 14.4393C4.00828 13.8617 4.28722 13.5312 4.78569 13.4567C5.17641 13.3978 5.45938 13.5546 5.65978 13.8907C5.76148 14.0619 5.92563 14.1009 6.07567 14.0208C6.21967 13.9433 6.26096 13.7812 6.18141 13.5966C6.0797 13.36 5.89844 13.1991 5.66481 13.1085C5.10693 12.891 4.54804 12.9013 4.02641 13.2004C3.42522 13.5455 3.28223 14.1266 3.33963 14.7633C3.39199 15.3665 3.68 15.836 4.27715 16.0391C4.92063 16.2579 5.54296 16.1582 6.12501 15.8163C6.25693 15.7383 6.32742 15.6205 6.32541 15.4604C6.32138 15.2484 6.32742 15.0362 6.3234 14.8242C6.31635 14.5976 6.21665 14.4959 5.98806 14.4856C5.85111 14.479 5.71315 14.4843 5.5762 14.4843ZM8.15514 16.1459C8.38273 16.1492 8.65663 16.1043 8.90134 15.9442C9.20344 15.7453 9.33939 15.4589 9.31925 15.1009C9.2981 14.7607 9.11583 14.5332 8.80769 14.4043C8.66872 14.3471 8.52774 14.3008 8.38575 14.2572C8.18938 14.1976 7.98798 14.1545 7.79464 14.086C7.64358 14.0332 7.50663 13.9456 7.52476 13.7522C7.53986 13.5584 7.68084 13.4755 7.84801 13.4375C8.21254 13.3532 8.47135 13.4305 8.64656 13.7983C8.74223 13.9964 8.87012 14.0483 9.01815 13.9853C9.14906 13.9295 9.23969 13.7459 9.15913 13.5858C9.07555 13.4212 8.95672 13.2364 8.80366 13.1513C8.31224 12.8784 7.79161 12.8857 7.30825 13.1717C6.80475 13.4693 6.81985 14.1895 7.32235 14.4931C7.45225 14.5722 7.6023 14.625 7.75033 14.6729C7.9618 14.7419 8.18233 14.7867 8.3928 14.8577C8.61132 14.9307 8.7231 15.0744 8.71101 15.2481C8.69792 15.4523 8.57406 15.5865 8.38776 15.6414C7.991 15.7582 7.62747 15.7013 7.46333 15.2675C7.4442 15.2157 7.41902 15.1635 7.39183 15.116C7.31933 14.9964 7.21359 14.937 7.07563 14.9858C6.94573 15.0331 6.86617 15.1371 6.89034 15.2766C6.90947 15.3962 6.94573 15.5218 7.00816 15.6253C7.25387 16.0374 7.65164 16.1459 8.15514 16.1459ZM10.6988 13.4637C10.6988 13.6077 10.6988 13.7187 10.6988 13.8305C10.6988 14.4846 10.6978 15.1391 10.6999 15.7937C10.7009 16.0308 10.8136 16.1499 11.0161 16.1451C11.2064 16.1401 11.3081 16.0233 11.3091 15.7917C11.3121 15.087 11.3111 14.3829 11.3111 13.6785C11.3111 13.612 11.3111 13.546 11.3111 13.4637C11.5095 13.4637 11.6837 13.466 11.8569 13.4627C11.9435 13.4609 12.0311 13.4554 12.1167 13.4406C12.2436 13.4187 12.3171 13.3391 12.3141 13.2087C12.3111 13.0798 12.2366 13.002 12.1087 12.9834C12.0351 12.9731 11.9596 12.967 11.8841 12.967C11.3 12.9655 10.7119 12.9652 10.1259 12.9675C10.0403 12.9675 9.93856 12.9559 9.87109 12.9957C9.79556 13.039 9.71097 13.1347 9.70795 13.2089C9.70695 13.283 9.78952 13.3827 9.86202 13.428C9.92748 13.4695 10.0302 13.4604 10.1168 13.4625C10.3031 13.4665 10.4874 13.4637 10.6988 13.4637Z" fill="#2F2E41" stroke="black"/>
<path d="M7.82213 4.26518C7.19779 4.26518 6.57445 4.26166 5.95111 4.26845C5.81819 4.26996 5.76079 4.23245 5.71648 4.10129C5.49997 3.44522 5.19586 2.83473 4.72055 2.32191C4.56345 2.15298 4.39126 1.99891 4.2392 1.82595C4.06196 1.62329 4.03377 1.44002 4.13346 1.28217C4.23215 1.12633 4.47584 1.0493 4.70544 1.13565C4.9441 1.22452 5.17169 1.34108 5.40129 1.45311C5.65203 1.57521 5.90983 1.68674 6.18877 1.59585C6.37909 1.53342 6.56337 1.43372 6.73255 1.32396C6.88864 1.22301 7.0125 1.07548 7.16456 0.967983C7.42336 0.785211 7.659 0.808372 7.89263 1.02135C7.94801 1.0717 8.0034 1.12432 8.04972 1.18273C8.32161 1.53191 8.68212 1.60517 9.06982 1.45235C9.34373 1.34435 9.59648 1.17769 9.84421 1.0138C10.1403 0.817183 10.4222 0.599921 10.7848 0.541011C10.8774 0.526158 10.9711 0.512815 11.0637 0.516087C11.5138 0.5322 11.7263 0.874079 11.5289 1.27713C11.4635 1.4093 11.3769 1.54147 11.2711 1.64066C10.5823 2.27911 10.241 3.11014 9.95901 3.97416C9.86435 4.26317 9.87039 4.26518 9.56325 4.26568C8.98221 4.26568 8.40217 4.26568 7.82213 4.26518Z" fill="#2F2E41" stroke="black"/>
<path d="M6.33221 24.4844C6.03464 24.4893 5.85086 24.1771 6.00896 23.9153C6.15296 23.6752 6.3161 23.4466 6.47168 23.2133C7.30045 21.9692 8.13073 20.7258 8.95748 19.4807C9.05869 19.3307 9.17701 19.2212 9.36985 19.2454C9.65232 19.2808 9.78424 19.5908 9.61909 19.8458C9.35374 20.2537 9.07983 20.655 8.81096 21.0593C8.10505 22.1166 7.40165 23.174 6.69725 24.2324C6.60712 24.3674 6.50995 24.4822 6.33221 24.4844Z" fill="#2F2E41" stroke="black"/>
<path d="M5.56877 21.8629C4.83969 21.8617 4.26217 21.2756 4.26469 20.5387C4.26721 19.822 4.85681 19.2408 5.58085 19.2423C6.30892 19.2439 6.88744 19.833 6.88543 20.5687C6.88291 21.2874 6.29683 21.8642 5.56877 21.8629ZM6.13773 20.5489C6.1337 20.2469 5.87741 19.9915 5.57481 19.9919C5.27271 19.9919 5.01592 20.2473 5.0134 20.5499C5.01088 20.8611 5.27271 21.1192 5.58488 21.1143C5.8895 21.1097 6.13873 20.8528 6.13773 20.5489Z" fill="#2F2E41" stroke="black"/>
<path d="M11.3802 23.1854C11.3777 23.9123 10.7891 24.4879 10.05 24.4842C9.33196 24.4801 8.75696 23.8908 8.75947 23.1635C8.76098 22.4441 9.34807 21.8633 10.0711 21.8637C10.8017 21.8639 11.3827 22.4509 11.3802 23.1854ZM10.631 23.1727C10.631 22.8707 10.3747 22.614 10.0736 22.6123C9.77001 22.6106 9.51221 22.8643 9.50718 23.1665C9.50365 23.4774 9.76497 23.7394 10.0761 23.736C10.3782 23.7328 10.6325 23.475 10.631 23.1727Z" fill="#2F2E41" stroke="black"/>
<path d="M7.80298 5.76324C7.08499 5.76324 6.36699 5.7645 5.64899 5.76299C5.363 5.76261 5.2049 5.63346 5.20138 5.40122C5.19483 5.16772 5.37005 5.01377 5.65 5.01339C7.09758 5.01251 8.54616 5.01377 9.99424 5.01188C10.1695 5.01188 10.3351 5.05506 10.394 5.22474C10.4323 5.33362 10.4187 5.48253 10.3769 5.59268C10.319 5.74108 10.1659 5.76513 10.0119 5.7645C9.27624 5.76236 8.53961 5.76324 7.80298 5.76324Z" fill="#2F2E41" stroke="black"/>
</svg>
