<svg width="22" height="20" viewBox="0 0 22 20" fill="none" xmlns="http://www.w3.org/2000/svg">
<path d="M0 0V19.9998H2.85712V15.8095C2.85695 15.8068 2.85695 15.8042 2.85712 15.8015C2.85695 15.7989 2.85695 15.7962 2.85712 15.7934C2.85695 15.7907 2.85695 15.7882 2.85712 15.7856C2.85695 15.7829 2.85695 15.7803 2.85712 15.7776C2.8596 15.7749 2.86226 15.7723 2.86492 15.7698V15.762V15.7539V15.7459C2.86758 15.7432 2.87006 15.7406 2.87289 15.7381C2.87271 15.7353 2.87271 15.7326 2.87289 15.7299C2.87785 15.7243 2.88316 15.719 2.88883 15.7142V15.7064C2.90885 15.68 2.93667 15.6605 2.96838 15.6508C2.98415 15.6483 3.00008 15.6483 3.01585 15.6508H4.84106C4.8547 15.6516 4.86798 15.6543 4.88091 15.6586C4.91245 15.6685 4.94026 15.6878 4.96011 15.7142C4.96559 15.7165 4.97108 15.7191 4.97623 15.722C4.98402 15.737 4.98933 15.7532 4.99199 15.7698C4.99518 15.7774 4.99802 15.7854 5.00014 15.7934C5.00032 15.7987 5.00032 15.8042 5.00014 15.8095V19.9998H7.85726V5.25393C7.8562 5.24348 7.8562 5.23285 7.85726 5.2224V0.000213623L0 0ZM1.24593 1.35718H3.0793V3.01585H1.24593V1.35718ZM4.72219 1.35718H6.55537V3.01585H4.72219V1.35718ZM1.24593 4.25398H3.0793V5.91266H1.24593V4.25398ZM4.72219 4.25398H6.55537V5.91266H4.72219V4.25398ZM8.17455 5.47633V6.28576L21.3332 10.5318V9.8173L8.17455 5.47615V5.47633ZM8.17455 6.61913V19.9923H10.4364V12.7384C10.4364 12.6507 10.5075 12.5796 10.5952 12.5796H18.8967C18.9073 12.5786 18.9179 12.5786 18.9284 12.5796C19.0035 12.5949 19.057 12.6617 19.0554 12.7384V19.9923H21.3333V10.8654L8.17455 6.61913ZM1.2458 7.15079H3.07916V8.80946H1.2458V7.15079ZM4.72205 7.15079H6.55524V8.80946H4.72205V7.15079ZM1.2458 10.0478H3.07916V11.6985H1.2458V10.0478ZM4.72205 10.0478H6.55524V11.6985H4.72205V10.0478ZM10.7538 12.8967V13.492H18.7378V12.8967H10.7538ZM1.24589 12.9446H3.07925V14.5953H1.24589V12.9446ZM4.72215 12.9446H6.55533V14.5953H4.72215V12.9446ZM10.7538 14.2144V15.2302H18.7379V14.2144H10.7538ZM10.7538 15.9526V16.9684H18.7379V15.9526H10.7538ZM3.17477 15.9684V20H4.68287V15.9684H3.17477ZM10.7538 17.6905V18.6985H18.7379V17.6905H10.7538ZM10.7538 19.4287V19.9922H18.7379V19.4287H10.7538Z" fill="#B9BAC8"/>
</svg>
