<svg width="56" height="52" viewBox="0 0 56 52" fill="none" xmlns="http://www.w3.org/2000/svg">
<g filter="url(#filter0_d_1_1670)">
<path d="M0 5C0 2.23858 2.23858 0 5 0H41C43.7614 0 46 2.23858 46 5V41C46 43.7614 43.7614 46 41 46H5C2.23858 46 0 43.7614 0 41V5Z" fill="#BC4155"/>
</g>
<path d="M37.135 25.8722C37.135 25.4406 37.135 25.0089 37.135 24.5773C37.135 23.5512 37.135 22.5226 37.135 21.4966C37.135 20.2559 37.135 19.0127 37.135 17.772C37.135 16.6917 37.135 15.6113 37.135 14.531C37.135 14.0105 37.1448 13.4876 37.135 12.9672C37.135 12.9598 37.135 12.9524 37.135 12.945C37.135 12.5577 36.7946 12.1877 36.395 12.205C35.9929 12.2223 35.655 12.5306 35.655 12.945C35.655 13.3766 35.655 13.8083 35.655 14.2399C35.655 15.266 35.655 16.2946 35.655 17.3206C35.655 18.5613 35.655 19.8045 35.655 21.0451C35.655 22.1255 35.655 23.2059 35.655 24.2862C35.655 24.8066 35.6452 25.3296 35.655 25.85C35.655 25.8574 35.655 25.8648 35.655 25.8722C35.655 26.2595 35.9954 26.6295 36.395 26.6122C36.797 26.5949 37.135 26.2866 37.135 25.8722Z" fill="white"/>
<path d="M37.135 33.0746C37.135 32.1817 37.135 31.2889 37.135 30.3959C37.135 30.2702 37.135 30.1419 37.135 30.0161C37.135 29.6289 36.7946 29.2589 36.395 29.2761C35.993 29.2934 35.655 29.6017 35.655 30.0161C35.655 30.909 35.655 31.8019 35.655 32.6948C35.655 32.8206 35.655 32.9489 35.655 33.0746C35.655 33.4619 35.9954 33.8319 36.395 33.8146C36.797 33.7973 37.135 33.489 37.135 33.0746Z" fill="white"/>
<circle cx="36.3901" cy="27.9441" r="2.07931" transform="rotate(-90 36.3901 27.9441)" fill="white"/>
<path d="M37.9761 27.9441C37.9761 27.9959 37.9737 28.0477 37.9712 28.0995C37.9712 28.1143 37.9737 28.1784 37.9638 28.1833C37.9638 28.1833 37.986 28.0575 37.9663 28.1537C37.949 28.2524 37.9268 28.3486 37.8972 28.4448C37.8873 28.4719 37.8651 28.5829 37.8405 28.6002C37.8429 28.5977 37.8923 28.4892 37.8503 28.573C37.8405 28.5928 37.8306 28.6125 37.8207 28.6322C37.7739 28.7235 37.7196 28.8098 37.6629 28.8962C37.6604 28.9011 37.6555 28.906 37.653 28.9085C37.621 28.9504 37.6284 28.943 37.6728 28.8863C37.6728 28.8937 37.6333 28.9332 37.6308 28.9356C37.6037 28.9677 37.5741 28.9997 37.5445 29.0318C37.51 29.0664 37.4754 29.1009 37.4409 29.133C37.4212 29.1502 37.4014 29.17 37.3792 29.1872C37.3644 29.1995 37.288 29.2464 37.3546 29.2094C37.4261 29.17 37.3373 29.2217 37.3274 29.2291C37.3102 29.2415 37.2929 29.2538 37.2732 29.2661C37.2362 29.2908 37.1992 29.313 37.1622 29.3327C37.1153 29.3599 37.066 29.3821 37.0166 29.4067C36.9575 29.4363 37.0265 29.4215 37.0438 29.3969C37.0314 29.4141 36.9698 29.4265 36.9525 29.4314C36.8637 29.4635 36.7725 29.4881 36.6812 29.5079C36.659 29.5128 36.6368 29.5177 36.6146 29.5202C36.5233 29.535 36.6097 29.5449 36.6294 29.5202C36.6121 29.5399 36.4888 29.5325 36.4592 29.5325C36.3605 29.535 36.2643 29.5276 36.1657 29.5227C36.0917 29.5177 36.2915 29.5473 36.1805 29.5251C36.1583 29.5202 36.1361 29.5177 36.1139 29.5128C36.0596 29.5029 36.0054 29.4881 35.9511 29.4733C35.9092 29.461 35.8672 29.4487 35.8253 29.4339C35.8006 29.424 35.7735 29.4141 35.7488 29.4043C35.6822 29.3821 35.8598 29.4585 35.7612 29.4092C35.6748 29.3648 35.5885 29.3204 35.5046 29.2686C35.4874 29.2563 35.4676 29.2439 35.4504 29.2316C35.4405 29.2242 35.3517 29.1749 35.4232 29.2119C35.4923 29.2489 35.4084 29.1995 35.3986 29.1897C35.3813 29.1749 35.3665 29.1625 35.3492 29.1478C35.2777 29.0836 35.2087 29.0146 35.147 28.9406C35.1371 28.9282 35.0878 28.8468 35.1248 28.9159C35.1593 28.9776 35.1273 28.9184 35.1149 28.9011C35.0878 28.8616 35.0607 28.8197 35.036 28.7802C35.0138 28.7432 34.9916 28.7062 34.9719 28.6668C34.9595 28.6421 34.9472 28.6174 34.9349 28.5928C34.9275 28.578 34.9201 28.5632 34.9151 28.5484C34.9398 28.61 34.9472 28.6249 34.9324 28.5903C34.9028 28.5015 34.8683 28.4152 34.8461 28.3239C34.8337 28.2746 34.8239 28.2253 34.814 28.1759C34.8115 28.1537 34.8091 28.0847 34.8115 28.1587C34.8115 28.2425 34.8091 28.1241 34.8091 28.1069C34.8017 28.0082 34.8017 27.912 34.8066 27.8133C34.8091 27.7837 34.8115 27.7566 34.814 27.7295C34.8189 27.6604 34.7967 27.8281 34.8091 27.7591C34.8214 27.6974 34.8313 27.6382 34.8461 27.579C34.8683 27.4927 34.8954 27.4113 34.925 27.3274C34.962 27.2238 34.8831 27.399 34.9201 27.3398C34.9349 27.3176 34.9423 27.2904 34.9546 27.2658C34.9793 27.2164 35.0064 27.1696 35.0335 27.1227C35.0557 27.0857 35.0804 27.0487 35.1051 27.0142C35.1051 27.0142 35.1371 26.9624 35.1421 26.9624C35.1174 26.9649 35.0755 27.0413 35.1347 26.9723C35.2013 26.8958 35.2703 26.8193 35.3468 26.7527C35.369 26.733 35.4183 26.6713 35.4454 26.6689C35.4282 26.6812 35.4134 26.6935 35.3961 26.7059C35.4084 26.696 35.4232 26.6861 35.4356 26.6762C35.4528 26.6639 35.4701 26.6516 35.4898 26.6393C35.5762 26.5825 35.6674 26.5357 35.7587 26.4888C35.8426 26.4468 35.7316 26.4962 35.7316 26.4986C35.7414 26.4863 35.7908 26.474 35.808 26.469C35.8549 26.4518 35.9018 26.437 35.9486 26.4222C35.9906 26.4099 36.035 26.4 36.0769 26.3901C36.0991 26.3852 36.1213 26.3803 36.1435 26.3778C36.1657 26.3729 36.1879 26.3704 36.2101 26.3679C36.1879 26.3704 36.1681 26.3729 36.1459 26.3778C36.2421 26.3901 36.3556 26.363 36.4543 26.3655C36.5011 26.3679 36.5455 26.3729 36.5924 26.3753C36.7059 26.3827 36.5061 26.3581 36.5801 26.3729C36.6072 26.3778 36.6343 26.3827 36.6639 26.3877C36.7774 26.4099 36.8884 26.4444 36.9969 26.4838C37.0191 26.4912 37.0684 26.5283 37.0142 26.4888C36.9501 26.4444 37.0413 26.5036 37.0586 26.511C37.1079 26.5357 37.1548 26.5603 37.2016 26.5899C37.2534 26.6195 37.3003 26.6541 37.3496 26.6886C37.4064 26.7256 37.3521 26.6713 37.3274 26.6689C37.3472 26.6689 37.3891 26.7207 37.4014 26.7305C37.4828 26.8021 37.5593 26.8785 37.6284 26.9599C37.6358 26.9698 37.6678 27.0019 37.6703 27.0093C37.6308 26.955 37.621 26.9451 37.6432 26.9747C37.653 26.987 37.6629 27.0019 37.6703 27.0142C37.6999 27.0586 37.7295 27.103 37.7566 27.1498C37.7838 27.1967 37.8084 27.2436 37.8331 27.2929C37.8331 27.2904 37.8627 27.3472 37.8602 27.3521C37.8331 27.283 37.8281 27.2756 37.8479 27.325C37.8528 27.3348 37.8553 27.3447 37.8602 27.3546C37.8997 27.4582 37.9293 27.5642 37.9515 27.6728C37.9564 27.6999 37.9613 27.727 37.9663 27.7566C37.9712 27.7936 37.9712 27.7788 37.9589 27.7098C37.9613 27.727 37.9638 27.7443 37.9638 27.7615C37.9737 27.8183 37.9761 27.8799 37.9761 27.9441C37.9786 28.2031 38.2006 28.4497 38.4694 28.4374C38.7358 28.425 38.9652 28.2203 38.9628 27.9441C38.9529 26.8514 38.2647 25.8993 37.246 25.5194C36.2742 25.1568 35.0878 25.4775 34.4292 26.2816C34.0765 26.7133 33.8693 27.214 33.8224 27.7739C33.7805 28.2894 33.9162 28.832 34.1826 29.2735C34.7523 30.2108 35.8549 30.6746 36.9254 30.4624C38.1044 30.2281 38.9504 29.133 38.9603 27.9465C38.9628 27.6875 38.7309 27.4409 38.467 27.4532C38.2006 27.4631 37.9786 27.6678 37.9761 27.9441Z" fill="white"/>
<path d="M45.5707 33.0746C45.5707 32.6529 45.5707 32.2286 45.5707 31.8068C45.5707 30.8005 45.5707 29.7941 45.5707 28.7878C45.5707 27.5668 45.5707 26.3459 45.5707 25.1249C45.5707 24.0692 45.5707 23.0135 45.5707 21.9578C45.5707 21.4448 45.5806 20.9318 45.5707 20.4187C45.5707 20.4113 45.5707 20.4039 45.5707 20.3965C45.5707 20.0093 45.2303 19.6393 44.8308 19.6565C44.4288 19.6738 44.0908 19.9821 44.0908 20.3965C44.0908 20.8183 44.0908 21.2425 44.0908 21.6643C44.0908 22.6707 44.0908 23.677 44.0908 24.6834C44.0908 25.9043 44.0908 27.1253 44.0908 28.3462C44.0908 29.4019 44.0908 30.4576 44.0908 31.5133C44.0908 32.0263 44.0809 32.5394 44.0908 33.0524C44.0908 33.0598 44.0908 33.0672 44.0908 33.0746C44.0908 33.4619 44.4312 33.8319 44.8308 33.8146C45.2329 33.7973 45.5707 33.489 45.5707 33.0746Z" fill="white"/>
<path d="M45.5707 16.2526C45.5707 15.2857 45.5707 14.3188 45.5707 13.3544C45.5707 13.2187 45.5707 13.0831 45.5707 12.9474C45.5707 12.5602 45.2304 12.1902 44.8307 12.2074C44.4287 12.2247 44.0908 12.533 44.0908 12.9474C44.0908 13.9143 44.0908 14.8812 44.0908 15.8456C44.0908 15.9813 44.0908 16.1169 44.0908 16.2526C44.0908 16.6398 44.4312 17.0098 44.8307 16.9926C45.2328 16.9753 45.5707 16.667 45.5707 16.2526Z" fill="white"/>
<path d="M54.0063 33.0746C54.0063 32.2878 54.0063 31.501 54.0063 30.7117C54.0063 29.4513 54.0063 28.1933 54.0063 26.9329C54.0063 26.6443 54.0063 26.3557 54.0063 26.0696C54.0063 25.6823 53.6659 25.3124 53.2663 25.3296C52.8643 25.3469 52.5264 25.6552 52.5264 26.0696C52.5264 26.8564 52.5264 27.6433 52.5264 28.4326C52.5264 29.693 52.5264 30.9509 52.5264 32.2113C52.5264 32.4999 52.5264 32.7885 52.5264 33.0746C52.5264 33.4619 52.8667 33.8319 53.2663 33.8146C53.6684 33.7973 54.0063 33.489 54.0063 33.0746Z" fill="white"/>
<circle cx="44.8256" cy="18.3245" r="2.07931" transform="rotate(-90 44.8256 18.3245)" fill="white"/>
<path d="M46.4117 18.3245C46.4117 18.3763 46.4092 18.4281 46.4068 18.4799C46.4068 18.4946 46.4092 18.5588 46.3994 18.5637C46.3994 18.5637 46.4215 18.438 46.4018 18.5341C46.3846 18.6328 46.3624 18.729 46.3328 18.8252C46.3229 18.8523 46.3007 18.9633 46.276 18.9806C46.2785 18.9781 46.3278 18.8695 46.2859 18.9534C46.276 18.9732 46.2662 18.9929 46.2563 19.0126C46.2094 19.1039 46.1551 19.1902 46.0985 19.2766C46.096 19.2815 46.091 19.2865 46.0886 19.2888C46.0565 19.3308 46.0639 19.3234 46.1083 19.2667C46.1083 19.2741 46.0688 19.3136 46.0664 19.316C46.0393 19.348 46.0097 19.3802 45.9801 19.4122C45.9455 19.4468 45.911 19.4813 45.8764 19.5133C45.8567 19.5306 45.837 19.5504 45.8148 19.5677C45.8 19.58 45.7235 19.6268 45.7901 19.5898C45.8616 19.5504 45.7729 19.6021 45.7629 19.6095C45.7457 19.6219 45.7285 19.6342 45.7087 19.6465C45.6717 19.6712 45.6347 19.6934 45.5977 19.7131C45.5509 19.7403 45.5015 19.7625 45.4522 19.7871C45.393 19.8168 45.4621 19.8019 45.4793 19.7773C45.467 19.7945 45.4053 19.8068 45.3881 19.8118C45.2993 19.8439 45.208 19.8686 45.1167 19.8882C45.0945 19.8932 45.0724 19.8982 45.0501 19.9006C44.9589 19.9154 45.0452 19.9252 45.0649 19.9006C45.0477 19.9203 44.9244 19.9129 44.8948 19.9129C44.7961 19.9154 44.6999 19.908 44.6012 19.903C44.5272 19.8982 44.727 19.9277 44.616 19.9055C44.5938 19.9006 44.5716 19.8982 44.5495 19.8932C44.4951 19.8833 44.4409 19.8686 44.3866 19.8538C44.3447 19.8414 44.3027 19.8291 44.2609 19.8143C44.2361 19.8044 44.2091 19.7945 44.1844 19.7846C44.1178 19.7625 44.2954 19.839 44.1967 19.7896C44.1104 19.7452 44.024 19.7008 43.9402 19.649C43.923 19.6367 43.9032 19.6243 43.8859 19.612C43.8761 19.6046 43.7872 19.5553 43.8588 19.5923C43.9279 19.6293 43.844 19.58 43.8341 19.5701C43.8169 19.5553 43.8021 19.543 43.7848 19.5282C43.7133 19.464 43.6442 19.395 43.5826 19.321C43.5727 19.3086 43.5233 19.2272 43.5604 19.2963C43.5949 19.358 43.5628 19.2988 43.5505 19.2815C43.5233 19.242 43.4962 19.2001 43.4716 19.1606C43.4494 19.1236 43.4272 19.0866 43.4074 19.0472C43.3951 19.0225 43.3827 18.9978 43.3704 18.9732C43.363 18.9583 43.3556 18.9436 43.3507 18.9288C43.3754 18.9904 43.3827 19.0052 43.3679 18.9706C43.3383 18.8819 43.3038 18.7956 43.2816 18.7043C43.2693 18.655 43.2594 18.6057 43.2495 18.5563C43.2471 18.5341 43.2446 18.465 43.2471 18.539C43.2471 18.6229 43.2446 18.5045 43.2446 18.4872C43.2372 18.3886 43.2372 18.2924 43.2422 18.1937C43.2446 18.1641 43.2471 18.137 43.2495 18.1099C43.2545 18.0408 43.2323 18.2085 43.2446 18.1395C43.257 18.0778 43.2668 18.0186 43.2816 17.9594C43.3038 17.8731 43.331 17.7917 43.3606 17.7079C43.3975 17.6042 43.3186 17.7793 43.3556 17.7202C43.3704 17.698 43.3778 17.6708 43.3902 17.6462C43.4148 17.5968 43.442 17.55 43.469 17.5031C43.4913 17.4661 43.516 17.429 43.5406 17.3946C43.5406 17.3946 43.5727 17.3428 43.5776 17.3428C43.553 17.3453 43.511 17.4217 43.5702 17.3526C43.6368 17.2762 43.7059 17.1997 43.7823 17.1331C43.8045 17.1134 43.8538 17.0518 43.881 17.0493C43.8638 17.0616 43.849 17.0739 43.8317 17.0862C43.844 17.0764 43.8588 17.0665 43.8711 17.0567C43.8884 17.0443 43.9056 17.032 43.9254 17.0197C44.0117 16.9629 44.103 16.916 44.1943 16.8692C44.2781 16.8273 44.1671 16.8766 44.1671 16.8791C44.177 16.8668 44.2263 16.8544 44.2435 16.8495C44.2904 16.8322 44.3373 16.8174 44.3842 16.8026C44.4261 16.7903 44.4705 16.7803 44.5124 16.7705C44.5346 16.7656 44.5568 16.7607 44.5791 16.7582C44.6012 16.7533 44.6235 16.7508 44.6456 16.7483C44.6235 16.7508 44.6037 16.7533 44.5815 16.7582C44.6777 16.7705 44.7912 16.7434 44.8898 16.7459C44.9367 16.7483 44.9811 16.7533 45.028 16.7557C45.1414 16.7631 44.9416 16.7385 45.0156 16.7533C45.0427 16.7582 45.0699 16.7631 45.0995 16.768C45.2129 16.7903 45.324 16.8248 45.4325 16.8643C45.4546 16.8717 45.504 16.9087 45.4497 16.8692C45.3856 16.8248 45.4769 16.884 45.4941 16.8914C45.5435 16.916 45.5903 16.9407 45.6372 16.9703C45.6889 16.9999 45.7359 17.0344 45.7852 17.069C45.8419 17.106 45.7877 17.0518 45.7629 17.0493C45.7827 17.0493 45.8246 17.101 45.837 17.1108C45.9184 17.1824 45.9949 17.2589 46.0639 17.3403C46.0713 17.3502 46.1034 17.3823 46.1058 17.3897C46.0664 17.3353 46.0565 17.3255 46.0787 17.3551C46.0886 17.3675 46.0985 17.3823 46.1058 17.3946C46.1354 17.439 46.165 17.4834 46.1922 17.5302C46.2193 17.5771 46.244 17.624 46.2686 17.6733C46.2686 17.6708 46.2982 17.7276 46.2958 17.7325C46.2686 17.6635 46.2637 17.656 46.2834 17.7053C46.2884 17.7152 46.2908 17.7251 46.2958 17.7349C46.3352 17.8385 46.3648 17.9446 46.387 18.0531C46.392 18.0803 46.3969 18.1074 46.4018 18.137C46.4068 18.174 46.4068 18.1592 46.3944 18.0901C46.3969 18.1074 46.3994 18.1247 46.3994 18.1419C46.4092 18.1987 46.4117 18.2603 46.4117 18.3245C46.4142 18.5834 46.6361 18.83 46.905 18.8178C47.1714 18.8054 47.4008 18.6007 47.3983 18.3245C47.3884 17.2318 46.7003 16.2797 45.6816 15.8999C44.7098 15.5373 43.5234 15.8579 42.8648 16.662C42.512 17.0936 42.3049 17.5943 42.258 18.1543C42.216 18.6698 42.3517 19.2124 42.6181 19.6539C43.1879 20.5912 44.2905 21.0549 45.3609 20.8428C46.5399 20.6085 47.386 19.5133 47.3959 18.3269C47.3983 18.068 47.1665 17.8213 46.9026 17.8336C46.6361 17.8435 46.4142 18.0482 46.4117 18.3245Z" fill="white"/>
<path d="M54.0064 21.9257C54.0064 21.6297 54.0064 21.3313 54.0064 21.0353C54.0064 20.3224 54.0064 19.6071 54.0064 18.8943C54.0064 18.031 54.0064 17.1652 54.0064 16.3019C54.0064 15.5545 54.0064 14.8072 54.0064 14.0598C54.0064 13.6947 54.0139 13.3298 54.0064 12.9646C54.0064 12.9597 54.0064 12.9548 54.0064 12.9474C54.0064 12.5601 53.6661 12.1902 53.2664 12.2075C52.8644 12.2247 52.5265 12.533 52.5265 12.9474C52.5265 13.2434 52.5265 13.5418 52.5265 13.8378C52.5265 14.5507 52.5265 15.266 52.5265 15.9788C52.5265 16.8421 52.5265 17.7079 52.5265 18.5712C52.5265 19.3185 52.5265 20.0659 52.5265 20.8133C52.5265 21.1783 52.5191 21.5434 52.5265 21.9084C52.5265 21.9134 52.5265 21.9183 52.5265 21.9257C52.5265 22.313 52.8669 22.6829 53.2664 22.6657C53.6685 22.6484 54.0064 22.3401 54.0064 21.9257Z" fill="white"/>
<circle cx="53.2612" cy="23.9978" r="2.07931" transform="rotate(-90 53.2612 23.9978)" fill="white"/>
<path d="M54.8472 23.9978C54.8472 24.0496 54.8447 24.1014 54.8422 24.1532C54.8422 24.168 54.8447 24.2321 54.8349 24.237C54.8349 24.237 54.8571 24.1112 54.8373 24.2074C54.8201 24.3061 54.7979 24.4023 54.7683 24.4985C54.7584 24.5256 54.7362 24.6366 54.7116 24.6539C54.7141 24.6514 54.7633 24.5429 54.7214 24.6268C54.7116 24.6465 54.7017 24.6662 54.6918 24.686C54.6449 24.7772 54.5908 24.8635 54.534 24.9499C54.5316 24.9548 54.5266 24.9598 54.5241 24.9622C54.492 25.0042 54.4994 24.9968 54.5438 24.94C54.5438 24.9474 54.5044 24.9869 54.502 24.9894C54.4748 25.0214 54.4452 25.0534 54.4156 25.0855C54.381 25.1201 54.3465 25.1546 54.312 25.1866C54.2923 25.2039 54.2725 25.2237 54.2502 25.241C54.2355 25.2533 54.159 25.3001 54.2256 25.2631C54.2972 25.2237 54.2084 25.2755 54.1985 25.2829C54.1812 25.2952 54.164 25.3075 54.1443 25.3199C54.1073 25.3445 54.0703 25.3667 54.0332 25.3865C53.9863 25.4136 53.9371 25.4358 53.8877 25.4605C53.8285 25.49 53.8976 25.4753 53.9148 25.4506C53.9026 25.4678 53.8409 25.4802 53.8236 25.4851C53.7348 25.5172 53.6436 25.5418 53.5523 25.5616C53.53 25.5665 53.5078 25.5714 53.4857 25.5739C53.3945 25.5887 53.4807 25.5986 53.5005 25.5739C53.4832 25.5937 53.3599 25.5863 53.3303 25.5863C53.2316 25.5887 53.1354 25.5813 53.0368 25.5764C52.9627 25.5714 53.1626 25.6011 53.0515 25.5788C53.0294 25.5739 53.0071 25.5714 52.985 25.5665C52.9307 25.5566 52.8764 25.5418 52.8222 25.527C52.7802 25.5147 52.7382 25.5024 52.6963 25.4876C52.6717 25.4777 52.6445 25.4678 52.6199 25.458C52.5534 25.4358 52.7309 25.5122 52.6322 25.463C52.5459 25.4186 52.4595 25.3741 52.3757 25.3223C52.3585 25.31 52.3387 25.2977 52.3214 25.2853C52.3116 25.2779 52.2228 25.2286 52.2944 25.2656C52.3634 25.3026 52.2795 25.2533 52.2697 25.2434C52.2524 25.2286 52.2376 25.2162 52.2203 25.2014C52.1488 25.1374 52.0797 25.0683 52.0181 24.9943C52.0082 24.982 51.9589 24.9005 51.9959 24.9696C52.0305 25.0313 51.9983 24.9721 51.986 24.9548C51.9589 24.9153 51.9317 24.8734 51.9071 24.8339C51.8849 24.7969 51.8627 24.76 51.8429 24.7205C51.8306 24.6958 51.8183 24.6712 51.8059 24.6465C51.7985 24.6317 51.7911 24.6169 51.7862 24.6021C51.8109 24.6637 51.8183 24.6785 51.8034 24.644C51.7739 24.5553 51.7393 24.4689 51.7172 24.3777C51.7049 24.3283 51.6949 24.279 51.6851 24.2296C51.6826 24.2074 51.6802 24.1384 51.6826 24.2124C51.6826 24.2963 51.6802 24.1778 51.6802 24.1606C51.6728 24.062 51.6728 23.9657 51.6777 23.8671C51.6802 23.8375 51.6826 23.8104 51.6851 23.7832C51.69 23.7141 51.6678 23.8819 51.6802 23.8128C51.6925 23.7511 51.7024 23.692 51.7172 23.6328C51.7393 23.5464 51.7665 23.465 51.7961 23.3811C51.8331 23.2775 51.7542 23.4527 51.7911 23.3935C51.8059 23.3713 51.8133 23.3441 51.8257 23.3195C51.8504 23.2701 51.8775 23.2233 51.9046 23.1764C51.9268 23.1394 51.9514 23.1024 51.9761 23.0679C51.9761 23.0679 52.0082 23.0161 52.0131 23.0161C51.9884 23.0185 51.9465 23.095 52.0057 23.0259C52.0723 22.9495 52.1414 22.873 52.2178 22.8064C52.2401 22.7867 52.2894 22.725 52.3166 22.7226C52.2992 22.7349 52.2844 22.7472 52.2672 22.7596C52.2795 22.7497 52.2944 22.7398 52.3066 22.73C52.324 22.7177 52.3412 22.7053 52.361 22.693C52.4473 22.6362 52.5386 22.5894 52.6298 22.5425C52.7137 22.5006 52.6027 22.5499 52.6027 22.5524C52.6125 22.5401 52.6618 22.5277 52.6791 22.5228C52.7259 22.5055 52.7729 22.4907 52.8196 22.4759C52.8616 22.4636 52.906 22.4537 52.9481 22.4439C52.9702 22.4389 52.9924 22.434 53.0146 22.4315C53.0368 22.4266 53.0589 22.4241 53.0812 22.4217C53.0589 22.4241 53.0393 22.4266 53.0171 22.4315C53.1132 22.4439 53.2267 22.4167 53.3253 22.4192C53.3723 22.4217 53.4166 22.4266 53.4635 22.429C53.577 22.4365 53.3771 22.4118 53.4512 22.4266C53.4783 22.4315 53.5054 22.4365 53.5349 22.4414C53.6485 22.4636 53.7595 22.4981 53.868 22.5376C53.8902 22.545 53.9396 22.582 53.8852 22.5425C53.8212 22.4981 53.9124 22.5573 53.9297 22.5647C53.979 22.5894 54.0259 22.614 54.0727 22.6436C54.1245 22.6733 54.1714 22.7078 54.2207 22.7423C54.2774 22.7793 54.2232 22.725 54.1985 22.7226C54.2182 22.7226 54.2602 22.7744 54.2725 22.7842C54.3539 22.8558 54.4304 22.9322 54.4994 23.0136C54.5069 23.0235 54.5389 23.0556 54.5413 23.063C54.502 23.0087 54.492 22.9988 54.5142 23.0284C54.5241 23.0407 54.534 23.0556 54.5413 23.0679C54.5709 23.1123 54.6005 23.1567 54.6277 23.2035C54.6548 23.2504 54.6796 23.2973 54.7042 23.3466C54.7042 23.3441 54.7338 23.4009 54.7314 23.4059C54.7042 23.3367 54.6992 23.3294 54.7189 23.3787C54.7239 23.3885 54.7263 23.3984 54.7314 23.4083C54.7708 23.5119 54.8004 23.6179 54.8226 23.7264C54.8275 23.7536 54.8325 23.7807 54.8373 23.8104C54.8422 23.8473 54.8422 23.8325 54.8299 23.7635C54.8325 23.7807 54.8349 23.798 54.8349 23.8152C54.8447 23.872 54.8472 23.9337 54.8472 23.9978C54.8497 24.2568 55.0717 24.5034 55.3406 24.4911C55.6069 24.4788 55.8363 24.2741 55.8339 23.9978C55.8239 22.9051 55.1358 21.953 54.1171 21.5732C53.1453 21.2106 51.9589 21.5312 51.3002 22.3354C50.9476 22.767 50.7404 23.2677 50.6935 23.8276C50.6516 24.3431 50.7872 24.8857 51.0536 25.3273C51.6234 26.2645 52.7259 26.7283 53.7964 26.5161C54.9754 26.2819 55.8215 25.1866 55.8314 24.0003C55.8339 23.7412 55.602 23.4946 55.3381 23.5069C55.0717 23.5168 54.8497 23.7216 54.8472 23.9978Z" fill="white"/>
<defs>
<filter id="filter0_d_1_1670" x="0" y="0" width="52" height="52" filterUnits="userSpaceOnUse" color-interpolation-filters="sRGB">
<feFlood flood-opacity="0" result="BackgroundImageFix"/>
<feColorMatrix in="SourceAlpha" type="matrix" values="0 0 0 0 0 0 0 0 0 0 0 0 0 0 0 0 0 0 127 0" result="hardAlpha"/>
<feOffset dx="3" dy="3"/>
<feGaussianBlur stdDeviation="1.5"/>
<feComposite in2="hardAlpha" operator="out"/>
<feColorMatrix type="matrix" values="0 0 0 0 0 0 0 0 0 0 0 0 0 0 0 0 0 0 0.160784 0"/>
<feBlend mode="normal" in2="BackgroundImageFix" result="effect1_dropShadow_1_1670"/>
<feBlend mode="normal" in="SourceGraphic" in2="effect1_dropShadow_1_1670" result="shape"/>
</filter>
</defs>
</svg>
