<svg width="59" height="70" viewBox="0 0 59 70" fill="none" xmlns="http://www.w3.org/2000/svg">
<path d="M54.6255 27.151C54.3617 26.9145 54.3185 26.7508 54.4589 26.4302C55.3766 24.3369 55.6962 22.1472 55.3423 19.8887C54.2092 12.6577 47.4708 8.1707 40.3477 9.89222C40.0308 9.96879 39.8219 9.92332 39.5745 9.70668C38.2449 8.54319 36.7254 7.7143 35.0192 7.25041C34.6402 7.14723 34.41 6.94966 34.1962 6.62596C31.4823 2.51609 27.6559 0.242899 22.7428 0.0156343C14.6635 -0.357901 7.99479 6.00843 7.85148 14.1254C7.84562 14.4538 7.73613 14.6428 7.47294 14.8307C2.75151 18.2033 0.928386 23.9869 2.85185 29.4957C2.96098 29.8081 2.93473 30.0151 2.73014 30.2789C0.543986 33.0959 -0.314779 36.2805 0.101848 39.8223C0.89677 46.582 7.49272 51.6911 14.2196 50.7683C15.9862 50.5259 17.6371 49.9778 19.2402 49.0562C19.3704 49.213 19.4894 49.373 19.6253 49.517C21.6912 51.7069 23.7531 53.9005 25.8334 56.0764C26.1318 56.3883 26.2625 56.6881 26.2465 57.1262C26.1209 60.5155 26.0213 63.9055 25.9126 67.2953C25.8659 68.7469 26.586 69.6646 28.0085 69.9419C29.5863 70.2495 31.6102 69.3385 31.3686 67.1356C31.1654 65.2832 31.1789 63.406 31.1257 61.539C31.1164 61.2116 31.1912 60.8515 31.3302 60.5549C32.6133 57.8128 33.9289 55.0862 35.207 52.342C35.4051 51.9168 35.6182 51.7751 36.0976 51.7966C39.4734 51.9485 42.454 50.9123 45.0114 48.7007C45.517 48.2634 45.8831 47.5714 46.4546 47.3293C47.0445 47.0794 47.8062 47.2352 48.4927 47.2124C48.547 47.2106 48.6012 47.2034 48.655 47.1949C53.4552 46.4343 56.782 43.7954 58.1794 39.144C59.5838 34.4702 58.2654 30.4165 54.6255 27.151ZM26.4057 52.915C26.3542 52.9314 26.3027 52.948 26.2513 52.9644C24.4495 51.2984 22.6476 49.6323 20.8183 47.9407C21.3207 47.4657 21.766 47.0447 22.1304 46.7005C23.6006 47.1628 25.008 47.6055 26.4057 48.045V52.915ZM31.0285 55.7081C30.9438 55.6918 30.8592 55.6754 30.7747 55.6591C30.7747 53.9973 30.7742 52.3355 30.7757 50.6736C30.7757 50.603 30.7898 50.5322 30.7995 50.442C31.7198 50.7865 32.6238 51.1247 33.5982 51.4896C32.7406 52.8974 31.8847 54.3027 31.0285 55.7081ZM56.316 39.3255C54.7129 43.4659 50.5496 45.9845 46.1547 45.4507C45.8016 45.4078 45.6021 45.4811 45.3816 45.7612C41.1048 51.1926 33.5047 51.5731 28.6835 46.6133C28.5553 46.4815 28.3611 46.3332 28.1958 46.3306C25.8835 46.2955 23.7693 45.6357 21.8108 44.3173C21.6507 44.5158 21.5096 44.6979 21.3611 44.8742C18.3971 48.3995 14.6327 49.8595 10.1492 48.7719C5.62785 47.6751 2.84196 44.6626 1.93449 40.0931C1.23686 36.5795 2.22892 33.4476 4.60282 30.773C4.93254 30.4015 5.02031 30.1387 4.80436 29.6537C2.53459 24.5559 4.34172 18.7691 9.10759 15.8468C9.51579 15.5967 9.65605 15.3637 9.62028 14.8668C9.16557 8.49729 14.2431 2.44273 20.6097 1.83817C26.1435 1.31281 30.3244 3.53517 33.1819 8.29289C33.2935 8.47856 33.5336 8.65626 33.7435 8.70274C35.8382 9.16694 37.6475 10.1381 39.1357 11.6854C39.3741 11.9333 39.5754 11.9604 39.8932 11.8531C46.1519 9.7404 52.4943 13.5098 53.5993 20.0132C53.9823 22.2678 53.5818 24.4174 52.5295 26.4451C52.3713 26.7502 52.1979 27.0476 52.0079 27.3916C52.3333 27.616 52.6183 27.8066 52.8973 28.0059C56.4957 30.5766 57.901 35.2318 56.316 39.3255Z" fill="#707070"/>
<path d="M44.9201 32.8887C44.7478 32.9031 44.4884 32.8742 44.4026 32.7629C43.6981 31.8477 43.025 30.9081 42.3464 29.9813C42.4679 29.8069 42.564 29.6754 42.6539 29.5399C43.7164 27.9373 43.7249 25.8069 42.6272 24.2616C41.5636 22.7647 40.0808 22.0533 38.2567 22.2492C36.3425 22.4546 35.0197 23.5119 34.3198 25.3198C34.2315 25.5479 34.2282 25.7982 33.8536 25.7936C32.2232 25.7735 30.5919 25.785 28.9479 25.785C28.8328 25.223 28.7767 24.8285 28.6702 24.4483C27.9192 21.769 25.457 20.1008 22.5786 20.345C22.1538 20.3811 21.9767 20.2738 21.8486 19.8692C21.559 18.9538 21.2222 18.0529 20.8821 17.1547C20.7789 16.8824 20.7986 16.718 21.0223 16.4989C22.2882 15.2597 22.4751 13.3214 21.499 11.864C20.5215 10.4045 18.6521 9.84513 17.0295 10.5264C15.483 11.1758 14.5905 12.7605 14.8223 14.445C15.0425 16.0474 16.3322 17.3284 17.9679 17.5179C18.3684 17.5643 18.5592 17.7116 18.6832 18.0956C18.995 19.0609 19.3491 20.0132 19.7048 20.9637C19.8064 21.2348 19.794 21.3962 19.5471 21.6054C17.4957 23.3442 16.9005 25.9195 17.9782 28.393C18.1097 28.6948 18.0645 28.8813 17.8782 29.1216C17.267 29.9096 16.6417 30.6909 16.0909 31.5205C15.6958 32.1156 15.2769 32.3499 14.514 32.3204C12.1774 32.2305 10.2539 33.8882 9.84485 36.1996C9.46094 38.3711 10.7432 40.6488 12.8143 41.3841C14.5335 41.9944 16.1581 41.7615 17.5618 40.5704C18.9544 39.389 19.3895 37.8403 19.1127 36.0568C19.0785 35.8369 19.1216 35.5434 19.2474 35.3704C20.0896 34.2117 20.9552 33.0693 21.8391 31.9418C21.9546 31.7947 22.225 31.6752 22.4111 31.6912C25.1 31.921 27.1827 30.7802 28.3894 28.4162C28.4711 28.2564 28.7238 28.0847 28.8958 28.0858C30.5458 28.0973 32.1961 28.1359 33.8451 28.196C34.002 28.2016 34.2301 28.372 34.2927 28.5214C35.3284 30.9928 37.3792 32.0409 40.0535 31.4584C40.1941 31.4278 40.4318 31.4731 40.5081 31.5725C41.1687 32.4342 41.8027 33.3164 42.4364 34.1813C42.3053 34.3858 42.1908 34.5495 42.0908 34.7218C41.3457 36.0085 41.4408 37.5973 42.3302 38.7679C43.223 39.943 44.7333 40.4698 46.1597 40.1038C48.0227 39.6257 49.1743 37.8329 48.8599 35.9006C48.5601 34.0599 46.8125 32.731 44.9201 32.8887ZM18.2273 34.0339C17.8138 33.6568 17.4225 33.3 17.0206 32.9333C17.7307 31.9877 18.4226 31.0661 19.1261 30.1296C19.5707 30.4543 19.9887 30.7596 20.4474 31.0946C19.7108 32.0698 18.9742 33.045 18.2273 34.0339Z" fill="#707070"/>
</svg>
