<svg width="23" height="20" viewBox="0 0 23 20" fill="none" xmlns="http://www.w3.org/2000/svg">
<path d="M2.08347 0C1.92793 0.000928879 1.77705 0.0540199 1.6552 0.150881C1.53335 0.247587 1.44736 0.382479 1.41119 0.533825L0.146729 5.90839H22.1068L20.8423 0.533825C20.8061 0.382479 20.7201 0.247587 20.5983 0.150881C20.4764 0.0540199 20.3256 0.000934601 20.17 0H2.08347ZM0 7.29908V7.98222C0 9.51122 1.25409 10.7653 2.78304 10.7653C3.61616 10.7653 4.35799 10.3856 4.86929 9.7996C5.3806 10.3856 6.12243 10.7653 6.95554 10.7653C7.78802 10.7653 8.53049 10.3862 9.04179 9.80083C9.55155 10.3861 10.2915 10.7653 11.1239 10.7653C11.957 10.7653 12.7002 10.3856 13.2115 9.7996C13.7228 10.3856 14.4646 10.7653 15.2978 10.7653C16.1309 10.7653 16.8727 10.3856 17.384 9.7996C17.8953 10.3857 18.6384 10.7653 19.4716 10.7653C21.0006 10.7653 22.2533 9.51118 22.2533 7.98222V7.29908H0ZM4.86949 11.5081C4.24875 11.883 3.56187 12.1561 2.78325 12.1561C2.19647 12.1561 1.63753 12.0309 1.129 11.8084L1.12883 19.3018C1.12822 19.4865 1.20103 19.6639 1.33109 19.7948C1.46133 19.9258 1.63829 19.9995 1.82286 20H3.64429V14.0412C3.64289 13.6571 3.95412 13.3444 4.33832 13.343H9.12197C9.50819 13.3416 9.82156 13.6551 9.82002 14.0412V20H20.4321C20.6165 19.9992 20.7931 19.9253 20.923 19.7943C21.053 19.6634 21.1255 19.4863 21.1248 19.3017V11.8083C20.6166 12.0306 20.0581 12.156 19.4718 12.156C18.6932 12.156 18.0054 11.883 17.3842 11.5081C16.7636 11.883 16.0767 12.156 15.2979 12.156C14.5193 12.156 13.8324 11.883 13.2117 11.5081C12.5906 11.883 11.9028 12.156 11.124 12.156C10.3465 12.156 9.66039 11.8839 9.04057 11.5095C8.42013 11.8834 7.73325 12.156 6.95571 12.156C6.17691 12.156 5.49004 11.883 4.86945 11.5081L4.86949 11.5081ZM11.3456 13.3431H17.9167C18.3009 13.3445 18.6109 13.6571 18.6095 14.0413V18.0453C18.6109 18.4295 18.3009 18.7419 17.9167 18.7433H11.3456C10.9614 18.7419 10.6514 18.4295 10.6528 18.0453V14.0413C10.6514 13.6571 10.9614 13.3445 11.3456 13.3431ZM5.0364 14.7339V20H8.42919V14.7339H5.0364ZM12.0434 14.7339V17.3526H17.2185V14.7339H12.0434Z" fill="#E2E2E2"/>
</svg>
