<svg xmlns="http://www.w3.org/2000/svg" width="80" height="55" viewBox="0 0 80 55">
  <g id="Group_36950" data-name="Group 36950" transform="translate(-142.954 -139.727)">
    <g id="Group_36949" data-name="Group 36949" transform="translate(142.954 139.727)">
      <rect id="Rectangle_2043" data-name="Rectangle 2043" width="11.323" height="0.62" transform="translate(38.418 28.544)" fill="#162965"/>
      <rect id="Rectangle_2044" data-name="Rectangle 2044" width="10.242" height="0.62" transform="translate(39.495 26.829)" fill="#162965"/>
      <rect id="Rectangle_2045" data-name="Rectangle 2045" width="8.532" height="0.62" transform="translate(41.202 25.114)" fill="#162965"/>
      <rect id="Rectangle_2046" data-name="Rectangle 2046" width="6.821" height="0.62" transform="translate(42.908 23.399)" fill="#162965"/>
      <rect id="Rectangle_2047" data-name="Rectangle 2047" width="5.11" height="0.62" transform="translate(44.614 21.683)" fill="#162965"/>
      <rect id="Rectangle_2048" data-name="Rectangle 2048" width="3.4" height="0.62" transform="translate(46.321 19.968)" fill="#162965"/>
      <rect id="Rectangle_2049" data-name="Rectangle 2049" width="1.689" height="0.62" transform="translate(48.028 18.253)" fill="#162965"/>
      <rect id="Rectangle_2050" data-name="Rectangle 2050" width="27.198" height="18.609" transform="translate(52.802 36.391)" fill="#bc4155"/>
      <path id="Path_7544" data-name="Path 7544" d="M192.94,169.913H178.556v1.173l14.384,3.751Z" transform="translate(-143.19 -139.639)" fill="#162965"/>
      <rect id="Rectangle_2051" data-name="Rectangle 2051" width="3.254" height="38.631" transform="translate(49.702 16.368)" fill="#a72d41"/>
      <g id="Group_36932" data-name="Group 36932" transform="translate(52.802 13.324)">
        <path id="Path_7545" data-name="Path 7545" d="M197.147,167.725c.278,0,.9.034,1.668.094l-.317,1.819c-.819-.158-1.5-.3-1.824-.383C195.846,169.036,196.147,167.743,197.147,167.725Z" transform="translate(-196.195 -152.906)" fill="#efc2a6"/>
        <path id="Path_7546" data-name="Path 7546" d="M211.407,160.738h1.746q.612,1.05,1.235,2.194a3.667,3.667,0,0,1-4.215,0A3.284,3.284,0,0,0,211.407,160.738Z" transform="translate(-196.195 -152.906)" fill="#efc2a6"/>
        <path id="Path_7547" data-name="Path 7547" d="M220.469,178.572c.055-.273.1-.965.182-1.731l-1.816.053c.006.834.019,1.529.044,1.863C218.943,179.611,220.269,179.551,220.469,178.572Z" transform="translate(-196.195 -152.906)" fill="#efc2a6"/>
        <path id="Path_7548" data-name="Path 7548" d="M220.459,193.785c-.009-.065-.021-.235-.156-.3-.175-.079-.8-.294-1.4-.48a4.106,4.106,0,0,1-1.27-.665s-.247-.844-.382-.881-.277.661-.326.891a1.961,1.961,0,0,1-1.015.465c-.4-.015-.588-.414-.749-.562-.07-.064-.2-.049-.223,0a3.538,3.538,0,0,0-.113,1.166c-.1.135-.168,1.155.186,1.155h3.743a2.886,2.886,0,0,0,1.667-.357c.031-.021.072-.061.076-.239S220.476,193.776,220.459,193.785Z" transform="translate(-196.195 -152.906)" fill="#333"/>
        <path id="Path_7549" data-name="Path 7549" d="M208.792,158.107a3.49,3.49,0,1,0,3.488-3.6A3.546,3.546,0,0,0,208.792,158.107Z" transform="translate(-196.195 -152.906)" fill="#efc2a6"/>
        <path id="Path_7550" data-name="Path 7550" d="M198.845,167.645s3.491.291,3.809.291c.452,0,4.43-5,7.519-5a3.667,3.667,0,0,0,4.215,0,7.7,7.7,0,0,1,6.378,6.967c.18,1.467.038,6.939.038,6.939l-2.342.056-.107-5.746-.77-1.745-.032,6.57H207.007l-.032-7.346s-3,2.762-3.762,2.719c-.669-.039-4.817-1.123-4.817-1.123Z" transform="translate(-196.195 -152.906)" fill="#707070"/>
        <path id="Path_7551" data-name="Path 7551" d="M211.207,153.23s3.672-1.17,4.486.937a8.715,8.715,0,0,1,.145,4.417c-.432,1.425-1.75,2.112-3.589,2.112-1.882,0-3.576-.771-3.709-2.58C208.224,153.843,210.162,152.8,211.207,153.23Z" transform="translate(-196.195 -152.906)" fill="#3c3d3f"/>
        <path id="Path_7552" data-name="Path 7552" d="M204.1,193.785c.01-.065.021-.235.156-.3.175-.079.8-.294,1.4-.48a4.1,4.1,0,0,0,1.27-.665s.247-.844.382-.881.278.661.326.891a1.965,1.965,0,0,0,1.015.465c.4-.015.588-.414.75-.562.07-.064.2-.049.222,0a3.537,3.537,0,0,1,.113,1.166c.1.135.169,1.155-.185,1.155h-3.744a2.881,2.881,0,0,1-1.666-.357c-.032-.021-.073-.061-.077-.239S204.084,193.776,204.1,193.785Z" transform="translate(-196.195 -152.906)" fill="#333"/>
        <path id="Path_7553" data-name="Path 7553" d="M217.549,175.973H207.011l-.252,16.459a3.905,3.905,0,0,0,2.964.31l2.376-14.308s.093.01.181.01.181-.01.181-.01l2.376,14.308a3.9,3.9,0,0,0,2.964-.31Z" transform="translate(-196.195 -152.906)" fill="#162965"/>
      </g>
      <rect id="Rectangle_2052" data-name="Rectangle 2052" width="0.898" height="51.88" transform="translate(14.896)" fill="#162965"/>
      <rect id="Rectangle_2053" data-name="Rectangle 2053" width="0.898" height="51.88" transform="translate(3.775 51.88) rotate(180)" fill="#162965"/>
      <path id="Path_7554" data-name="Path 7554" d="M181.888,168.505a.9.9,0,1,1-.9-.9A.9.9,0,0,1,181.888,168.505Z" transform="translate(-143.161 -139.651)" fill="#3c3d3f"/>
      <circle id="Ellipse_484" data-name="Ellipse 484" cx="0.9" cy="0.9" r="0.9" transform="translate(14.364 48.34)" fill="#3c3d3f"/>
      <circle id="Ellipse_485" data-name="Ellipse 485" cx="0.9" cy="0.9" r="0.9" transform="translate(14.364 40.563)" fill="#3c3d3f"/>
      <circle id="Ellipse_486" data-name="Ellipse 486" cx="0.9" cy="0.9" r="0.9" transform="translate(14.364 32.799)" fill="#3c3d3f"/>
      <circle id="Ellipse_487" data-name="Ellipse 487" cx="0.9" cy="0.9" r="0.9" transform="translate(14.364 25.035)" fill="#3c3d3f"/>
      <path id="Path_7555" data-name="Path 7555" d="M159.2,157.851a.9.9,0,1,1-.9-.9A.9.9,0,0,1,159.2,157.851Z" transform="translate(-143.034 -139.68)" fill="#3c3d3f"/>
      <path id="Path_7556" data-name="Path 7556" d="M159.2,150.109a.9.9,0,1,1-.9-.9A.9.9,0,0,1,159.2,150.109Z" transform="translate(-143.034 -139.701)" fill="#3c3d3f"/>
      <path id="Path_7557" data-name="Path 7557" d="M159.2,142.366a.9.9,0,1,1-.9-.9A.9.9,0,0,1,159.2,142.366Z" transform="translate(-143.034 -139.727)" fill="#3c3d3f"/>
      <path id="Path_7558" data-name="Path 7558" d="M147.18,188.823a.9.9,0,1,1-.9-.9A.9.9,0,0,1,147.18,188.823Z" transform="translate(-142.954 -139.582)" fill="#3c3d3f"/>
      <path id="Path_7559" data-name="Path 7559" d="M147.18,181.08a.9.9,0,1,1-.9-.9A.9.9,0,0,1,147.18,181.08Z" transform="translate(-142.954 -139.616)" fill="#3c3d3f"/>
      <path id="Path_7560" data-name="Path 7560" d="M147.18,173.337a.9.9,0,1,1-.9-.9A.9.9,0,0,1,147.18,173.337Z" transform="translate(-142.954 -139.637)" fill="#3c3d3f"/>
      <path id="Path_7561" data-name="Path 7561" d="M147.18,165.594a.9.9,0,1,1-.9-.9A.9.9,0,0,1,147.18,165.594Z" transform="translate(-142.954 -139.659)" fill="#3c3d3f"/>
      <path id="Path_7562" data-name="Path 7562" d="M147.18,157.851a.9.9,0,1,1-.9-.9A.9.9,0,0,1,147.18,157.851Z" transform="translate(-142.954 -139.68)" fill="#3c3d3f"/>
      <path id="Path_7563" data-name="Path 7563" d="M147.18,150.109a.9.9,0,1,1-.9-.9A.9.9,0,0,1,147.18,150.109Z" transform="translate(-142.954 -139.701)" fill="#3c3d3f"/>
      <path id="Path_7564" data-name="Path 7564" d="M147.18,142.366a.9.9,0,1,1-.9-.9A.9.9,0,0,1,147.18,142.366Z" transform="translate(-142.954 -139.727)" fill="#3c3d3f"/>
      <circle id="Ellipse_488" data-name="Ellipse 488" cx="0.9" cy="0.9" r="0.9" transform="translate(38.627 26.239)" fill="#3c3d3f"/>
      <path id="Path_7565" data-name="Path 7565" d="M185.309,165.084a.9.9,0,1,1-.9-.9A.9.9,0,0,1,185.309,165.084Z" transform="translate(-143.18 -139.66)" fill="#3c3d3f"/>
      <path id="Path_7566" data-name="Path 7566" d="M187.02,163.373a.9.9,0,1,1-.9-.9A.9.9,0,0,1,187.02,163.373Z" transform="translate(-143.19 -139.665)" fill="#3c3d3f"/>
      <path id="Path_7567" data-name="Path 7567" d="M188.73,161.663a.9.9,0,1,1-.9-.9A.9.9,0,0,1,188.73,161.663Z" transform="translate(-143.199 -139.669)" fill="#3c3d3f"/>
      <path id="Path_7568" data-name="Path 7568" d="M190.441,159.952a.9.9,0,1,1-.9-.9A.9.9,0,0,1,190.441,159.952Z" transform="translate(-143.209 -139.674)" fill="#3c3d3f"/>
      <path id="Path_7569" data-name="Path 7569" d="M192.151,158.241a.9.9,0,1,1-.9-.9A.9.9,0,0,1,192.151,158.241Z" transform="translate(-143.218 -139.679)" fill="#3c3d3f"/>
      <g id="Group_36948" data-name="Group 36948" transform="translate(2.328 1.643)">
        <g id="Group_36947" data-name="Group 36947">
          <g id="Group_36934" data-name="Group 36934" transform="translate(0 26.284)">
            <g id="Group_36933" data-name="Group 36933">
              <path id="Path_7570" data-name="Path 7570" d="M180.987,167.509a.963.963,0,0,0-.569.2l-.013-.025-22.129,20.142h-12a1,1,0,1,0,1,1,.979.979,0,0,0-.442-.8h10.91a.979.979,0,0,0-.442.8,1,1,0,0,0,1.994,0,.986.986,0,0,0-.708-.938l21.531-19.842a.969.969,0,0,0-.128.462,1,1,0,1,0,1-1Zm-33.9,21.314a.8.8,0,1,1-.8-.8A.806.806,0,0,1,147.084,188.823Zm12.02,0a.8.8,0,1,1-.805-.8A.806.806,0,0,1,159.1,188.823Zm21.883-19.513a.805.805,0,1,1,.805-.8A.806.806,0,0,1,180.987,169.31Z" transform="translate(-145.282 -167.509)" fill="#71212e"/>
            </g>
          </g>
          <g id="Group_36936" data-name="Group 36936" transform="translate(0 24.538)">
            <g id="Group_36935" data-name="Group 36935">
              <path id="Path_7571" data-name="Path 7571" d="M182.7,165.8a.977.977,0,0,0-.42.1l-23.994,14.185h-12a1,1,0,1,0,1,1,.979.979,0,0,0-.442-.805h10.91a.979.979,0,0,0-.442.805,1,1,0,1,0,1.363-.922l23.241-13.938a.968.968,0,0,0-.205.574,1,1,0,1,0,1-1ZM147.084,181.08a.8.8,0,1,1-.8-.805A.806.806,0,0,1,147.084,181.08Zm12.02,0a.8.8,0,1,1-.805-.805A.806.806,0,0,1,159.1,181.08ZM182.7,167.6a.8.8,0,1,1,.806-.8A.806.806,0,0,1,182.7,167.6Z" transform="translate(-145.282 -165.798)" fill="#71212e"/>
            </g>
          </g>
          <g id="Group_36938" data-name="Group 36938" transform="translate(0 22.804)">
            <g id="Group_36937" data-name="Group 36937">
              <path id="Path_7572" data-name="Path 7572" d="M184.408,164.088c-.006,0-.011,0-.017,0l-26.092,8.25h-12.41v.08a1,1,0,1,0,1.387.916.979.979,0,0,0-.442-.805h10.911a.979.979,0,0,0-.443.806,1,1,0,1,0,1.435-.884l24.942-8.036a.985.985,0,0,0-.267.667,1,1,0,1,0,1-1Zm-37.324,9.249a.8.8,0,1,1-.8-.805A.806.806,0,0,1,147.084,173.337Zm12.02,0a.8.8,0,1,1-.805-.805A.806.806,0,0,1,159.1,173.337Zm25.3-7.449a.806.806,0,0,1-.805-.8.8.8,0,0,1,.664-.777l.147-.027a.8.8,0,0,1-.006,1.608Z" transform="translate(-145.282 -164.088)" fill="#71212e"/>
            </g>
          </g>
          <g id="Group_36940" data-name="Group 36940" transform="translate(0 21.076)">
            <g id="Group_36939" data-name="Group 36939">
              <path id="Path_7573" data-name="Path 7573" d="M186.119,162.377h-.005L158.3,164.6h-12.02a1,1,0,1,0,1,1,.979.979,0,0,0-.442-.8h10.91a.979.979,0,0,0-.442.8,1,1,0,1,0,1.994,0,.982.982,0,0,0-.478-.829l26.7-2.168a.98.98,0,0,0-.4.776,1,1,0,1,0,1-1Zm-39.035,3.217a.8.8,0,1,1-.8-.8A.807.807,0,0,1,147.084,165.594Zm12.02,0a.8.8,0,1,1-.805-.8A.807.807,0,0,1,159.1,165.594Zm27.015-1.416a.8.8,0,1,1,.8-.8A.806.806,0,0,1,186.119,164.178Z" transform="translate(-145.282 -162.377)" fill="#71212e"/>
            </g>
          </g>
          <g id="Group_36942" data-name="Group 36942" transform="translate(0 15.538)">
            <g id="Group_36941" data-name="Group 36941">
              <path id="Path_7574" data-name="Path 7574" d="M187.837,160.668,158.3,156.855h-12.02a1,1,0,1,0,1,1,.981.981,0,0,0-.442-.806h10.91a.981.981,0,0,0-.442.806,1,1,0,0,0,1.994,0,.982.982,0,0,0-.367-.755l28.4,3.722a.981.981,0,0,0-.5.843,1,1,0,1,0,1-.994Zm-40.753-2.816a.8.8,0,1,1-.8-.806A.806.806,0,0,1,147.084,157.852Zm12.02,0a.8.8,0,1,1-.807-.805h.007A.807.807,0,0,1,159.1,157.852Zm28.725,4.615a.8.8,0,1,1,.806-.8A.806.806,0,0,1,187.829,162.467Z" transform="translate(-145.282 -156.855)" fill="#71212e"/>
            </g>
          </g>
          <g id="Group_36944" data-name="Group 36944" transform="translate(0 7.774)">
            <g id="Group_36943" data-name="Group 36943">
              <path id="Path_7575" data-name="Path 7575" d="M189.558,158.959,158.3,149.113h-12.02a1,1,0,1,0,1,1,.979.979,0,0,0-.442-.8l10.912,0a.981.981,0,0,0-.444.807,1,1,0,0,0,1.994,0,.985.985,0,0,0-.26-.657l30.073,9.611a.987.987,0,1,0,.449-.1Zm-42.474-8.85a.8.8,0,1,1-.8-.8A.806.806,0,0,1,147.084,150.109Zm12.02,0a.8.8,0,1,1-.81-.8l.319.063A.807.807,0,0,1,159.1,150.109Zm30.436,10.647a.8.8,0,1,1,.806-.8A.806.806,0,0,1,189.54,160.756Z" transform="translate(-145.282 -149.113)" fill="#71212e"/>
            </g>
          </g>
          <g id="Group_36946" data-name="Group 36946">
            <g id="Group_36945" data-name="Group 36945">
              <path id="Path_7576" data-name="Path 7576" d="M191.278,157.251l-32.466-15.734h-.023a.888.888,0,0,0-.979,0l-11.046,0a.963.963,0,0,0-.485-.144,1,1,0,1,0,1,1,.984.984,0,0,0-.263-.661h10.553a.981.981,0,0,0-.264.661,1,1,0,0,0,1.994,0,.968.968,0,0,0-.194-.558l31.765,15.515a1.006,1.006,0,1,0,.411-.072Zm-44.194-14.885a.8.8,0,1,1-.8-.8l.432.144A.792.792,0,0,1,147.084,142.366Zm11.215.805a.8.8,0,0,1-.8-.805.791.791,0,0,1,.372-.661h.864a.792.792,0,0,1,.373.661A.806.806,0,0,1,158.3,143.171Zm32.952,15.875a.805.805,0,1,1,.8-.805A.806.806,0,0,1,191.251,159.046Z" transform="translate(-145.282 -141.37)" fill="#71212e"/>
            </g>
          </g>
        </g>
      </g>
      <rect id="Rectangle_2054" data-name="Rectangle 2054" width="18.671" height="3.12" transform="translate(0 51.88)" fill="#a72d41"/>
      <rect id="Rectangle_2055" data-name="Rectangle 2055" width="9.75" height="7.113" transform="translate(52.91 16.273)" fill="#bc4155"/>
      <rect id="Rectangle_2056" data-name="Rectangle 2056" width="7.418" height="5.411" transform="translate(54.08 17.124)" fill="#3c3d3f"/>
    </g>
  </g>
</svg>
